<?xml version="1.0" encoding="UTF-8" standalone="no"?>
<!-- Created with Inkscape (http://www.inkscape.org/) -->

<svg
   width="171.92336mm"
   height="188.93744mm"
   viewBox="0 0 171.92336 188.93744"
   version="1.1"
   id="svg1"
   inkscape:version="1.3 (0e150ed6c4, 2023-07-21)"
   sodipodi:docname="Dwarves mina.svg"
   xml:space="preserve"
   xmlns:inkscape="http://www.inkscape.org/namespaces/inkscape"
   xmlns:sodipodi="http://sodipodi.sourceforge.net/DTD/sodipodi-0.dtd"
   xmlns="http://www.w3.org/2000/svg"
   xmlns:svg="http://www.w3.org/2000/svg"><sodipodi:namedview
     id="namedview1"
     pagecolor="#ffffff"
     bordercolor="#000000"
     borderopacity="0.25"
     inkscape:showpageshadow="2"
     inkscape:pageopacity="0.0"
     inkscape:pagecheckerboard="0"
     inkscape:deskcolor="#d1d1d1"
     inkscape:document-units="mm"
     showgrid="false"
     inkscape:zoom="0.03125"
     inkscape:cx="17503.649"
     inkscape:cy="-1089.6468"
     inkscape:window-width="1920"
     inkscape:window-height="991"
     inkscape:window-x="-9"
     inkscape:window-y="-9"
     inkscape:window-maximized="1"
     inkscape:current-layer="layer1"
     showguides="false"
     inkscape:rotation="1"><inkscape:grid
       id="grid1"
       units="mm"
       originx="-25356.07"
       originy="-5552.9268"
       spacingx="0.99999998"
       spacingy="1"
       empcolor="#0099e5"
       empopacity="0.30196078"
       color="#0099e5"
       opacity="0.14901961"
       empspacing="5"
       dotted="false"
       gridanglex="30"
       gridanglez="30"
       visible="false" /><sodipodi:guide
       position="-4122.4799,2748.0533"
       orientation="1,0"
       id="guide117"
       inkscape:locked="false" /></sodipodi:namedview><defs
     id="defs1" /><g
     inkscape:label="Capa 1"
     inkscape:groupmode="layer"
     id="layer1"
     transform="translate(-6708.7936,-1469.2119)"><g
       id="g23-2-2-8-0-7-9-4"
       transform="translate(3182.9324,913.36511)"><g
         id="g118-8-7-7-0-8-6-1"
         transform="matrix(2.662,0,0,2.662,4969.7298,1137.5373)"><g
           id="g77-3-8-9-3-8-8-4-9-8-6-7-4-5-9-7"
           transform="matrix(4.6751267,0,0,0.36103477,-922.93604,-212.26402)"><path
             style="fill:#beb7c8;fill-opacity:1;stroke:#020202;stroke-width:0.499999;stroke-opacity:0"
             d="m 89.500708,176.86101 5.170812,-38.73691 0.03835,-27.91918 -5.245561,3.66684 v 0"
             id="path76-01-7-2-0-1-4-1-8-6-9-8-8-4-70-7-44"
             sodipodi:nodetypes="ccccc" /><path
             style="fill:#7c6f91;fill-opacity:1;stroke:#020202;stroke-width:0.499999;stroke-opacity:0"
             d="m 89.500708,176.86101 -5.232915,-38.73691 0.03835,-27.91918 5.220394,3.66684 v 0"
             id="path76-6-36-5-8-0-5-2-2-39-9-1-7-5-8-10-0-8"
             sodipodi:nodetypes="ccccc" /></g><path
           style="fill:#4d4d4d;fill-opacity:1;stroke:#020202;stroke-width:2.3328;stroke-opacity:0"
           d="m -528.79413,-172.47621 24.46454,13.98536 24.1742,-13.98536 -24.46454,-13.98533 -24.1742,13.98533"
           id="path77-0-8-5-0-0-5-7-9-0-9-8-21-9-1" /><path
           style="fill:#666666;stroke:#020202;stroke-width:2.9315;stroke-opacity:0"
           d="m -521.16342,-188.68049 -0.0289,-10.92174 4.3955,4.06376 10.55489,2.73248 0.21335,-0.0557 -0.005,3.56851 -7.41908,3.64629 -7.69728,-2.81257"
           id="path127-94-6-8-75-1-5-8-8-1-2-3-2-9-4"
           sodipodi:nodetypes="cccccccc" /><path
           style="fill:#7c6f91;fill-opacity:1;stroke:#020202;stroke-width:2.9315;stroke-opacity:0"
           d="m -505.18647,-183.07523 0.98858,20.68284 -19.22424,-10.58444 4,-14.89997 z"
           id="path112-2-1-2-46-2-9-8-0-0-4-20-7-1"
           sodipodi:nodetypes="ccccc" /><path
           style="fill:#a79db2;fill-opacity:1;stroke:#020202;stroke-width:2.9315;stroke-opacity:0"
           d="m -504.19789,-162.39239 18.76593,-10.82917 -5.30529,-16.89364 -14.44922,7.03997 z"
           id="path124-4-2-5-8-5-69-4-9-3-6-6-6-8"
           sodipodi:nodetypes="ccccc" /><g
           id="g18-4-5-4-9-5-3-7-4-2-6-1-1-9-0-1-1-0-3-1-9-9-9-0-0-5"
           transform="matrix(0.9639945,0,0,0.9639945,-408.16442,-323.91835)"><rect
             style="fill:#616161;fill-opacity:1;stroke:none;stroke-width:0.058709;stroke-dasharray:none;stroke-opacity:0"
             id="rect4-4-8-1-1-2-1-9-2-5-9-7-6-9-34-8-5-5-9-0-7-7-5-2-3-2-6-7-1-6-4-27-1-2"
             width="18.731085"
             height="18.731085"
             x="58.782562"
             y="179.86607"
             transform="matrix(0.8383929,0.54506637,-0.8383929,0.54506637,0,0)" /><path
             style="fill:#966622;fill-opacity:1;stroke:none;stroke-width:0.463212;stroke-dasharray:none;stroke-opacity:0"
             d="m -101.51558,131.15275 v 19.34596 l -15.70396,-10.20967 -5e-5,-18.16522 z"
             id="path1-9-9-4-8-7-1-4-2-5-8-0-6-0-5-9-4-6-8-5-5-2-5-50-4-7-5-75-7-4"
             sodipodi:nodetypes="ccccc" /><rect
             style="fill:#663615;fill-opacity:1;stroke:none;stroke-width:0.058709;stroke-dasharray:none;stroke-opacity:1"
             id="rect4-9-3-7-9-8-3-7-9-7-0-6-7-4-1-9-5-9-8-7-3-1-8-1-5-7-3-2-8-2-4-3-7-0-0"
             width="18.731085"
             height="18.731085"
             x="42.119263"
             y="163.20282"
             transform="matrix(0.8383929,0.54506637,-0.8383929,0.54506637,0,0)" /><g
             id="g16-5-9-1-0-6-3-8-1-7-8-9-4-4-4-0-8-5-1-5-0-7-1-5-5-4-0"
             transform="matrix(1.1156684,0,0,1.1156684,-267.67055,-212.20146)"><path
               style="fill:#ffffff;fill-opacity:1;stroke:#020202;stroke-width:0.939499;stroke-dasharray:none;stroke-opacity:0"
               d="m 149.98182,310.3281 4.54023,-2.75959 v 7.3819 l -4.48292,2.93192 z"
               id="path214-0-3-5-7-4-8-7-6-2-7-6-2-5-7-4-5-7-7-5-4-8-8-20-7-7-6-4-6-4"
               sodipodi:nodetypes="ccccc" /><path
               style="fill:#000000;fill-opacity:0.993007;stroke:#020202;stroke-width:0.939499;stroke-dasharray:none;stroke-opacity:0"
               d="m 154.52205,310.64325 -2.77911,1.83366 0.0282,4.27268 2.75095,-1.79918"
               id="path215-2-6-2-5-2-5-5-3-5-5-2-5-4-7-0-6-1-3-3-5-4-09-6-9-5-5-14-2-5" /></g></g><g
           id="g18-4-5-4-9-5-3-7-4-0-5-9-7-4-9-7-1-1-0-1-4-7-8-9-2-29-8-25"
           transform="matrix(0.9639945,0,0,0.9639945,-408.16442,-323.91835)"><rect
             style="fill:#616161;fill-opacity:1;stroke:none;stroke-width:0.058709;stroke-dasharray:none;stroke-opacity:0"
             id="rect4-4-8-1-1-2-1-9-2-5-9-7-6-9-34-8-7-9-8-9-7-9-2-5-4-0-9-3-3-7-8-2-7-99-1-3"
             width="18.731085"
             height="18.731085"
             x="58.782562"
             y="179.86607"
             transform="matrix(0.8383929,0.54506637,-0.8383929,0.54506637,0,0)" /><path
             style="fill:#7c6f91;fill-opacity:1;stroke:none;stroke-width:0.463212;stroke-dasharray:none;stroke-opacity:0"
             d="m -101.51558,131.15275 v 19.34596 l -15.70396,-10.20967 -5e-5,-18.16522 z"
             id="path1-9-9-4-8-7-1-4-2-5-8-0-6-4-96-2-0-1-4-8-3-5-3-8-3-8-9-8-7-3-2-0"
             sodipodi:nodetypes="ccccc" /><rect
             style="fill:#663615;fill-opacity:1;stroke:none;stroke-width:0.058709;stroke-dasharray:none;stroke-opacity:1"
             id="rect4-9-3-7-9-8-3-7-9-7-0-6-7-4-1-9-5-4-0-4-4-9-9-7-5-1-2-0-4-1-4-0-0-5-1-3"
             width="18.731085"
             height="18.731085"
             x="42.119263"
             y="163.20282"
             transform="matrix(0.8383929,0.54506637,-0.8383929,0.54506637,0,0)" /><g
             id="g16-5-9-1-0-6-3-8-1-7-5-7-4-7-7-4-8-7-1-6-0-6-1-2-6-5-0-2-7"
             transform="matrix(1.1156684,0,0,1.1156684,-267.67055,-212.20146)"><path
               style="fill:#000000;fill-opacity:1;stroke:#020202;stroke-width:0.939499;stroke-dasharray:none;stroke-opacity:0"
               d="m 146.47087,311.45642 17.28045,-4.35407 1.55433,5.4175 -5.6648,5.61256 -12.74417,-0.48685 z"
               id="path214-0-3-5-7-4-8-7-6-2-7-6-2-9-25-91-4-5-9-2-9-2-2-3-7-7-2-7-0-4-1-3"
               sodipodi:nodetypes="cccccc" /></g></g><path
           style="fill:#ffe680;stroke:#020202;stroke-width:2.9315;stroke-opacity:0"
           d="m -496.5618,-198.92818 0.5801,3.44329 5.67578,-7.28663 v -2.83964 z"
           id="path91-0-7-6-8-2-0-9-9-6-8-28-6-60" /><path
           style="fill:#000000;fill-opacity:0;stroke:#020202;stroke-width:2.9315;stroke-opacity:0"
           d="m -522.63682,-206.02915 3.16111,-2.54838 27.22834,0.98398 1.94145,1.98239 -6.25588,6.68298 -9.73656,2.11466 -10.5511,-2.91631 z"
           id="path129-6-2-6-3-1-37-7-9-7-6-8-4-0" /><path
           style="fill:#000000;fill-opacity:0;stroke:#020202;stroke-width:2.9315;stroke-opacity:0"
           d="m -492.24737,-207.59355 1.94145,1.98239 -6.25588,6.68298 -9.73656,2.11466 -10.5511,-2.91631 -5.78736,-6.29932 1.58056,-1.27419 0.48103,-0.38779 -0.0817,1.14585 5.03887,5.03285 9.32259,2.89321 9.32259,-2.01912 4.72553,-5.2675"
           id="path130-0-4-4-6-3-0-9-5-7-6-5-1-0-7" /><path
           style="fill:#000000;fill-opacity:0;stroke:#020202;stroke-width:2.9315;stroke-opacity:0"
           d="m -492.24737,-207.05777 1.94145,1.44661 -6.25588,6.68298 -9.73656,2.11466 -10.5511,-2.91631 -5.80745,-6.48014 2.08168,-1.48116 -0.0817,1.14585 5.03887,5.03285 9.32259,2.89321 9.32259,-2.01912 4.72553,-5.2675"
           id="path131-1-7-8-8-0-2-4-8-7-7-4-6-1" /><path
           style="fill:#ffdd55;fill-opacity:1;stroke:#020202;stroke-width:2.9315;stroke-opacity:0"
           d="m -522.65691,-206.20997 1.60065,-1.09337 0.12828,-0.0822 0.0437,0.65085 5.08422,5.04055 9.50455,3.07494 9.32259,-2.01912 4.72553,-5.2675 0.0873,-0.8272 1.85418,1.12188 -6.25588,6.68298 -9.73656,2.11466 -10.5511,-2.91631 z"
           id="path137-3-5-1-88-5-5-2-4-0-6-1-4-0" /><path
           id="path71-3-6-3-9-5-43-4-4-6-2-2-9-9-9-9-2-1-42"
           style="fill:#eacd59;fill-opacity:1;stroke-width:16.1764;stroke-linecap:round"
           inkscape:transform-center-x="2.4056053e-06"
           inkscape:transform-center-y="1.1604396e-05"
           d="m -498.82281,-214.60583 -14.22491,0.005 -10.14289,4.29159 -0.27409,7.92161 10.2232,6.23594 11.92988,1.74804 12.92058,-7.43069 -0.41869,-8.19478 z"
           sodipodi:nodetypes="ccccccccc" /><g
           id="g37-7-0-8-0-3-58-0-5-3-8-5-4-1-3-5-2-5-5-9"
           transform="matrix(0.95610762,0,0,1.1205675,-557.12146,696.28779)"><path
             id="path177-9-46-4-2-18-3-8-8-1-7-9-9-1-7-16-6-7-6-6-0-7-3-1-8-0-5-1-4-3-2-5-4"
             style="fill:#e29733;fill-opacity:1;stroke:#020202;stroke-width:3.85921;stroke-opacity:0"
             d="m 50.071362,-807.97962 -3.500345,9.74247 13.38833,-5.2e-4 -2.978846,-9.74247 z"
             sodipodi:nodetypes="ccccc" /><path
             id="path179-7-12-6-1-1-8-4-02-0-6-2-8-8-3-11-7-3-4-0-3-0-2-3-2-9-6-4-2-90-5-2"
             style="fill:#e5aa5b;fill-opacity:1;stroke:#020202;stroke-width:3.85921;stroke-opacity:0"
             d="m 60.339552,-813.21572 -0.02944,3.11536 8.965556,7.53747 0.02355,-6.00274 z" /><path
             id="path191-30-6-5-8-3-6-5-8-8-3-1-1-6-2-1-9-8-7-4-4-8-2-9-1-6-3-0-3-2-0-7"
             style="fill:#d99a46;fill-opacity:1;stroke:#020202;stroke-width:3.85921;stroke-opacity:0"
             d="m 50.47604,-814.16038 -3.73419,0.94458 v 3.11589 l 3.329512,2.11977 6.909139,-5.2e-4 3.329513,-2.11976 0.02962,-3.11539 -3.998459,-0.94457 z"
             sodipodi:nodetypes="ccccccccc" /><path
             style="fill:#d5851a;fill-opacity:1;stroke:#020202;stroke-width:3.85921;stroke-opacity:0"
             d="m 46.571017,-798.23715 -9.055677,-5.17026 9.22644,-6.69239 3.32982,2.11996 z"
             id="path178-2-8-84-1-0-7-4-1-1-2-0-0-9-2-2-0-9-7-1-8-3-7-7-1-1-4-3-7-6-7-1-0"
             sodipodi:nodetypes="ccccc" /><path
             style="fill:#a66c33;fill-opacity:1;stroke:#020202;stroke-width:3.85921;stroke-opacity:0"
             d="m 37.51534,-803.40741 0.14559,-5.80791 9.08092,-4.00048 -7e-5,3.116 z"
             id="path179-7-12-6-1-1-8-4-02-0-6-2-8-8-2-31-91-1-6-3-4-8-2-5-0-3-3-9-2-9-1-7-8"
             sodipodi:nodetypes="ccccc" /></g><path
           style="fill:#715d0e;fill-opacity:1;stroke:#020202;stroke-width:3.8519;stroke-opacity:0"
           d="m -523.46472,-202.38793 -0.24917,4.95173 -0.46625,-4.94638 0.98953,-7.92702"
           id="path192-2-07-8-0-4-9-1-9-5-4-8-4-9-4-7-1-5-86-4-4-1-7-6-5-2-1-3-6-8-3"
           sodipodi:nodetypes="cccc" /><g
           id="g125-0-4-7-61-6-9-2-7-4-8-12-6-2"
           transform="matrix(0.81,0,0,0.81,-513.74285,-343.10585)"><path
             style="fill:#c59d00;fill-opacity:1;stroke:#020202;stroke-width:3.61913;stroke-opacity:0"
             d="m 0,206.47573 1.8241145,2.17491 2.0813614,0.1637 2.2216779,-0.77174 0.8418991,1.8475 -2.6426276,1.1693 -2.7361716,-0.0935 -2.47892486,-2.362"
             id="path73-7-1-9-1-7-8-8-3-6-5-8-2-3" /><path
             style="fill:#c59d00;fill-opacity:1;stroke:#020202;stroke-width:3.61913;stroke-opacity:0"
             d="m 13.989844,207.63177 0.09922,2.3151 2.811198,1.48828 4.101042,-0.29765 1.422135,-2.8112 -0.959114,-2.38125 -1.819011,2.97656 -3.042708,-0.0661 z"
             id="path75-1-7-6-2-6-9-6-8-8-4-9-3-2" /><path
             style="fill:#c59d00;fill-opacity:1;stroke:#020202;stroke-width:3.61913;stroke-opacity:0"
             d="m 27.384375,203.13385 0.79375,1.9513 2.745052,0.22773 2.364549,-2.34439 -0.810122,-3.04271 -1.256771,-0.95912 0.06615,3.24115 -1.521354,1.05833 z"
             id="path87-75-9-9-25-4-5-9-7-9-6-2-2-0" /><path
             style="fill:#333333;stroke:#020202;stroke-width:3.61913;stroke-opacity:0"
             d="m 2.9583396,211.01265 0.1505145,4.88735 -5.6885416,-3.01792 2.0255387,-3.95944 2.1444025,2.04326 z"
             id="path113-6-0-2-0-4-7-5-9-4-5-4-4-6-7" /><path
             style="fill:#4d4d4d;stroke:#020202;stroke-width:3.61913;stroke-opacity:0"
             d="M 2.8647951,208.73249 6.2673176,195.09713"
             id="path114-8-0-2-0-4-4-9-8-2-6-4-7-6" /><path
             style="fill:#333333;stroke:#020202;stroke-width:3.61913;stroke-opacity:0"
             d="m 1.8241145,208.65064 1.1296737,0.0888 3.3135294,-13.64236 7.7225264,12.53464 2.612762,1.22374 -4.431773,-11.54249 -0.628385,-4.36563 -9.4241439,-0.0831 -2.5849747,3.47305 L 0,206.47573"
             id="path115-6-0-3-5-6-9-5-7-6-8-67-5-7"
             sodipodi:nodetypes="cccccccccc" /><path
             style="fill:#333333;stroke:#020202;stroke-width:3.61913;stroke-opacity:0"
             d="m 16.900262,211.43515 -0.198439,5.58933 -3.952214,-2.92696 1.339455,-4.15065"
             id="path116-7-4-7-8-9-2-8-7-9-4-6-0-1" /><path
             style="fill:#333333;stroke:#020202;stroke-width:3.61913;stroke-opacity:0"
             d="m 30.923177,205.31288 1.504817,3.72449 -4.225065,-0.28939 -0.02479,-3.66283"
             id="path117-9-7-0-19-9-5-1-1-8-5-9-9-3-2" /><path
             style="fill:#333333;stroke:#020202;stroke-width:3.61913;stroke-opacity:0"
             d="m 29.76563,203.26614 -3.004963,-4.74168 -5.526103,-2.0112 6.149811,6.62059"
             id="path118-8-5-3-1-6-1-97-3-8-7-4-8-2" /><path
             style="fill:#4d4d4d;stroke:#020202;stroke-width:3.61913;stroke-opacity:0"
             d="m 32.427994,209.03737 3.703506,-2.9592 -0.82549,-5.75298 -2.828406,-0.39941 0.810122,3.04271 -2.364549,2.34439"
             id="path119-2-4-1-6-4-1-3-2-7-6-0-1-8" /><path
             style="fill:#4d4d4d;stroke:#020202;stroke-width:3.61913;stroke-opacity:0"
             d="m 26.760667,198.52446 3.004962,4.74168 1.521354,-1.05833 -0.06615,-3.24115 -1.157552,-8.31783 -1.802474,-2.89934 -0.01654,-3.54988 -5.988633,6.70896 -7.273606,1.19546 -3.439583,0.84331 0.628385,4.36563 4.431773,11.54254 3.042708,0.0661 1.819011,-2.97656 -0.229761,-9.43179"
             id="path120-4-2-5-12-8-8-5-9-5-2-2-1-5"
             sodipodi:nodetypes="ccccccccccccccc" /><path
             style="fill:#4d4d4d;stroke:#020202;stroke-width:3.61913;stroke-opacity:0"
             d="m 16.900262,211.43515 4.101042,-0.29765 1.422135,-2.8112 1.190623,0.47988 -1.30638,7.58991 -5.605859,0.62839"
             id="path121-4-9-6-8-6-7-6-6-7-4-7-7-5" /><path
             style="fill:#4d4d4d;stroke:#020202;stroke-width:3.61913;stroke-opacity:0"
             d="m 3.1088541,215.9 5.2751302,-3.45045 -1.4149316,-2.55945 -2.6426274,1.1693 -1.3680857,-0.0468"
             id="path122-9-9-2-0-7-7-9-7-0-9-87-7-6" /><path
             style="fill:#4d4d4d;stroke:#020202;stroke-width:3.61913;stroke-opacity:0"
             d="m 6.1271538,208.0426 3.6394874,-7.26568 -3.4993236,-5.67979 -3.3135294,13.64231 0.9516877,0.0749 z"
             id="path123-1-8-6-97-9-6-7-3-4-7-33-9-9" /></g><path
           style="fill:#9d8114;fill-opacity:1;stroke:#020202;stroke-width:4.49685;stroke-opacity:0"
           d="m -523.71389,-197.4362 1.74058,5.65003 8.61152,6.25247 0.12048,-10.6182 -10.22341,-6.23603 z"
           id="path193-1-8-9-3-9-3-9-9-9-4-3-4-1-5-4-9-9-4-9-7-4-6-3-7-0-1-1-5-7-1-0"
           sodipodi:nodetypes="cccccc" /><path
           id="path73-7-1-9-1-7-1-7-22-6-4-0-7-6-2"
           style="fill:#ffcc00;fill-opacity:1;stroke:#020202;stroke-width:2.9315;stroke-opacity:0"
           d="m -488.45395,-181.94295 0.0538,2.62516 -1.23249,0.85731 0.93741,1.65778 1.91565,-1.89859 -0.65629,-2.46497 z m -7.90287,5.65237 -1.4733,2.41122 -2.46445,-0.0538 0.24081,2.0898 3.32177,-0.24133 1.15186,-2.27686 z m -12.42302,1.69912 -1.79937,0.62528 -0.77101,-0.061 0.004,1.84175 1.10795,0.0377 2.14095,-0.94722 z" /><path
           id="path178-2-8-84-1-8-0-9-6-1-6-8-9"
           style="fill:#e2ba1d;fill-opacity:1;stroke:#020202;stroke-width:3.85921;stroke-opacity:0"
           d="m -513.2415,-196.15169 -0.12029,10.61799 16.21549,0.85779 0.50953,1.09347 1.89239,0.30748 2.0836,-1.50379 -0.19121,-2.79569 4.44056,-4.79041 0.0204,-9.46949 -9.94161,5.7171 z m 23.08896,1.00872 -3.10058,2.77089 -0.0708,-2.36123 3.24085,-3.45805 z m -9.85663,3.7265 v 2.67363 l -7.65908,1.22093 -0.28495,-4.48727 z"
           sodipodi:nodetypes="ccccccccccccccccccccc" /><path
           style="fill:#e5aa5b;fill-opacity:1;stroke-width:0.04;stroke-linecap:round"
           d="m -490.88637,-203.03817 -8.90749,4.84677 -2.84811,-10.91768 3.18344,-2.37522 6.4674,3.53868 -0.45832,2.38208 2.56306,2.52537"
           id="path27-7-9-7-2-89-5-0"
           sodipodi:nodetypes="ccccccc" /><path
           style="fill:#f1cb3a;fill-opacity:1;stroke-width:0.04;stroke-linecap:round"
           d="m -494.74437,-183.27496 -3.38335,-21.00229 5.13659,-3.66837 0.33036,23.16687"
           id="path2-3-2-5-8-0-1-1"
           sodipodi:nodetypes="cccc" /><path
           id="path90-6-7-4-5-9-54-7-0"
           style="fill:#927813;fill-opacity:1;stroke-width:0.04;stroke-linecap:round"
           d="m -502.64219,-209.10824 2.84841,10.91664 1.46089,2.0743 0.49868,4.80952 -2.17506,-0.10852 -0.0406,2.14417 2.56729,1.22215 0.33619,3.37384 0.50953,1.09347 1.89239,0.30748 -2.01951,-12.75323 -1.36374,-8.24859 z"
           sodipodi:nodetypes="ccccccccccccc" /><path
           style="fill:#eed677;fill-opacity:1;stroke-width:0.04;stroke-linecap:round"
           d="m -497.48259,-188.04998 -6.45856,0.83331 -3.7271,-0.30524 -0.0665,-1.07465 2.69027,0.007 4.99423,-0.68244"
           id="path117-0-9-0-5-6-9-2-9-3"
           sodipodi:nodetypes="cccccc" /><path
           style="fill:#897111;fill-opacity:1;stroke-width:0.04;stroke-linecap:round"
           d="m -490.08307,-198.19134 -0.005,4.68278 -1.6147,-0.24895 v -2.70483 z"
           id="path117-05-47-2-9-1-2-4-0" /><path
           style="fill:#eed677;fill-opacity:1;stroke-width:0.04;stroke-linecap:round"
           d="m -491.70282,-193.75751 -1.06198,0.94903 0.0233,2.37173 2.65338,-3.07181"
           id="path118-4-1-7-9-3-61-7-0"
           sodipodi:nodetypes="cccc" /><g
           id="g55-7-5-62-0-0-3-3-5-2-2-1-0"
           transform="matrix(0.70529266,0.26719011,-0.25494178,0.7391775,-587.18906,-51.446227)"><g
             id="g53-5-22-3-4-3-2-2-5-9-6-35"><path
               style="fill:#ffe88b;fill-opacity:1;stroke:none;stroke-width:0.264583"
               d="m 1.1693042,-172.44898 9.4012058,-9.5883 7.062597,-10.52374 6.735192,-0.0935 -7.062597,10.52374"
               id="path44-2-4-8-6-0-1-0-4-6-5-3-88"
               sodipodi:nodetypes="ccccc" /><path
               style="fill:#b7b7b7;fill-opacity:1;stroke:none;stroke-width:0.264583"
               d="m 4.2094953,-174.27309 18.7837777,18.70149 -1.384532,2.34598 -20.4394368,-19.22336"
               id="path43-5-7-7-6-0-7-0-3-39-1-3"
               sodipodi:nodetypes="cccc" /><path
               style="fill:#675c78;fill-opacity:1;stroke:none;stroke-width:0.264583"
               d="m 9.5581448,-187.47403 4.9441842,-0.42192 3.394203,-7.05256 z m 4.8846902,1.92047"
               id="path45-3-4-8-18-2-9-9-0-1-1-1-9"
               sodipodi:nodetypes="cccc" /><path
               style="fill:#8d4c01;fill-opacity:1;stroke:none;stroke-width:0.264583"
               d="m 46.36823,-150.44861 4.944185,-0.42192 3.394203,-7.05256 z m 4.884691,1.92047"
               id="path45-1-6-3-8-1-9-3-5-9-68-0-3"
               sodipodi:nodetypes="cccc" /><path
               style="fill:#beb7c8;fill-opacity:1;stroke:none;stroke-width:0.264583"
               d="m 14.502329,-187.89595 36.810086,37.02542 3.394202,-7.05256 -36.810085,-37.02542"
               id="path51-2-0-9-0-4-1-7-2-52-8-2" /><path
               style="fill:#595068;fill-opacity:1;stroke:none;stroke-width:0.264583"
               d="m 9.5581449,-187.47403 36.8100841,37.02542 4.944186,-0.42192 -36.810086,-37.02542"
               id="path52-1-7-1-6-1-1-6-2-3-2-8" /><path
               style="fill:#f1cb3a;fill-opacity:1;stroke:none;stroke-width:0.264583"
               d="m 24.368299,-192.65456 -7.062597,10.52374 -16.1363978,9.68184 20.4394368,19.22336 4.443356,-7.53588 -0.795127,-15.38248 4.677218,-7.34323 0.561266,-2.80633"
               id="path42-9-0-6-1-1-7-1-7-7-0-6" /><path
               style="fill:#ffe88b;fill-opacity:1;stroke:none;stroke-width:0.264583"
               d="m 12.864875,-184.14795 4.944185,-0.42192 3.394203,-7.05256 3.165036,-1.03209 -7.062597,10.5237 -3.142598,1.88556"
               id="path53-9-0-9-8-5-3-5-6-0-1-8" /></g><path
             style="fill:#ffe374;fill-opacity:1;stroke:none;stroke-width:0.264583"
             d="m 7.0475636,-175.97593 4.1972284,9.21393 7.371795,6.62294 6.20989,1.4562 -3.217736,5.45724 -20.4394368,-19.22336"
             id="path54-6-8-1-5-8-6-4-3-0-2-2-05" /></g></g><path
         style="fill:#f0da85;fill-opacity:1;stroke-width:0.04;stroke-linecap:round"
         d="m 3631.6967,580.88892 8.4744,-6.32283 17.2164,9.41996 -13.6737,9.76522"
         id="path23-28-1-6-2-2-1-6" /></g></g></svg>
