<?xml version="1.0" encoding="UTF-8" standalone="no"?>
<!-- Created with Inkscape (http://www.inkscape.org/) -->

<svg
   width="123.98054mm"
   height="96.491013mm"
   viewBox="0 0 123.98054 96.491013"
   version="1.1"
   id="svg1"
   inkscape:version="1.3 (0e150ed6c4, 2023-07-21)"
   sodipodi:docname="Dwarves mina.svg"
   xml:space="preserve"
   xmlns:inkscape="http://www.inkscape.org/namespaces/inkscape"
   xmlns:sodipodi="http://sodipodi.sourceforge.net/DTD/sodipodi-0.dtd"
   xmlns:xlink="http://www.w3.org/1999/xlink"
   xmlns="http://www.w3.org/2000/svg"
   xmlns:svg="http://www.w3.org/2000/svg"><sodipodi:namedview
     id="namedview1"
     pagecolor="#ffffff"
     bordercolor="#000000"
     borderopacity="0.25"
     inkscape:showpageshadow="2"
     inkscape:pageopacity="0.0"
     inkscape:pagecheckerboard="0"
     inkscape:deskcolor="#d1d1d1"
     inkscape:document-units="mm"
     showgrid="false"
     inkscape:zoom="0.03125"
     inkscape:cx="17503.649"
     inkscape:cy="-1089.6468"
     inkscape:window-width="1920"
     inkscape:window-height="991"
     inkscape:window-x="-9"
     inkscape:window-y="-9"
     inkscape:window-maximized="1"
     inkscape:current-layer="layer1"
     showguides="false"
     inkscape:rotation="1"><inkscape:grid
       id="grid1"
       units="mm"
       originx="-25393.491"
       originy="-9755.9348"
       spacingx="0.99999998"
       spacingy="1"
       empcolor="#0099e5"
       empopacity="0.30196078"
       color="#0099e5"
       opacity="0.14901961"
       empspacing="5"
       dotted="false"
       gridanglex="30"
       gridanglez="30"
       visible="false" /><sodipodi:guide
       position="-4132.3808,3860.0991"
       orientation="1,0"
       id="guide117"
       inkscape:locked="false" /></sodipodi:namedview><defs
     id="defs1"><linearGradient
       id="linearGradient504"
       inkscape:collect="always"><stop
         style="stop-color:#422b00;stop-opacity:1;"
         offset="0.58941108"
         id="stop505" /><stop
         style="stop-color:#b7883f;stop-opacity:1;"
         offset="0.8069666"
         id="stop507" /></linearGradient><linearGradient
       id="linearGradient503"
       inkscape:collect="always"><stop
         style="stop-color:#261b10;stop-opacity:1;"
         offset="0"
         id="stop502" /><stop
         style="stop-color:#b7883f;stop-opacity:1;"
         offset="1"
         id="stop503" /></linearGradient><linearGradient
       id="linearGradient501"
       inkscape:collect="always"><stop
         style="stop-color:#b7883f;stop-opacity:1;"
         offset="0.3506614"
         id="stop500" /><stop
         style="stop-color:#261d0f;stop-opacity:1;"
         offset="1"
         id="stop501" /></linearGradient><radialGradient
       inkscape:collect="always"
       xlink:href="#linearGradient501"
       id="radialGradient263-41-1-6-03-6-5-3-8-4"
       cx="-1443.8395"
       cy="1019.3883"
       fx="-1443.8395"
       fy="1019.3883"
       r="11.84665"
       gradientTransform="matrix(1.1563513,0.97557182,-0.8501036,1.0076332,377.03362,1465.9791)"
       gradientUnits="userSpaceOnUse" /><linearGradient
       inkscape:collect="always"
       xlink:href="#linearGradient504"
       id="linearGradient1125"
       gradientUnits="userSpaceOnUse"
       x1="-2252.3667"
       y1="1082.1346"
       x2="-2170.7024"
       y2="1082.1346" /><linearGradient
       inkscape:collect="always"
       xlink:href="#linearGradient503"
       id="linearGradient1126"
       gradientUnits="userSpaceOnUse"
       gradientTransform="translate(-710.28838,69.738894)"
       x1="-1484.6598"
       y1="1008.8232"
       x2="-1475.3933"
       y2="1018.7737" /></defs><g
     inkscape:label="Capa 1"
     inkscape:groupmode="layer"
     id="layer1"
     transform="translate(-6718.6945,-2581.2577)"><g
       id="g279-4-3-6-4-5-5-4-6"
       transform="translate(8980.0882,1512.6057)"><path
         style="fill:#261b0c;fill-opacity:1;stroke-width:0.3;-inkscape-stroke:none"
         d="m -2260.0374,1128.3333 -1.3564,7.2497 9.448,5.2853 4.6772,-5.8933 7.7174,1.5435 -3.3675,-8.1852 -9.7287,4.0692 z"
         id="path187-85-4-7-7-6-3-7-2-9" /><path
         style="fill:#261b0c;fill-opacity:1;stroke-width:0.3;-inkscape-stroke:none"
         d="m -2220.0004,1152.5146 -0.7484,7.0158 8.7932,5.6126 5.6127,-7.7174 7.9513,-0.8886 -3.6951,-7.9981 -10.1027,7.8577 z"
         id="path188-7-5-9-2-4-9-3-6-8" /><path
         style="fill:#261b0c;fill-opacity:1;stroke-width:0.3;-inkscape-stroke:none"
         d="m -2188.0082,1140.9852 -0.8653,5.5191 8.419,4.3732 3.9522,-6.4779 6.1038,-0.1637 -3.3676,-5.6361 -7.3666,4.6305 z"
         id="path189-26-9-0-5-1-2-2-1-3" /><path
         id="path190-7-8-5-8-1-8-0-03-3"
         style="fill:#b7883f;fill-opacity:1;stroke-width:0.3;-inkscape-stroke:none"
         d="m -2161.7924,1076.5114 -2.7119,3.8365 -6.1981,-3.7915 -14.1252,5.8001 2.6954,2.2908 0.3638,8.2021 5.6224,4.2664 -0.1654,9.9219 6.5485,10.3518 12.8581,4.3724 7.2497,-7.6709 3.5843,1.416 0.6955,-3.1229 -3.391,-2.2215 -2.2112,-4.6132 -4.1967,-8.1323 1.4031,-8.6062 3.0168,-2.2334 1.0992,-8.5241 z m -36.5993,32.5768 -12.084,10.7818 -1.3229,4.6302 -0.3907,31.8962 10.1028,-7.8574 -2.8329,-6.907 3.175,-15.0813 11.0463,-2.5797 2.8443,-4.8286 z m -44.8262,5.0271 -8.9958,11.9724 -0.4336,6.3149 9.7286,-4.0696 4.2649,-12.2995 z m 61.664,9.3069 0.4211,19.8081 7.3665,-4.6307 -1.3798,-4.3263 0.3742,-6.9691 z" /><path
         id="path199-2-9-8-0-9-76-3-7-3"
         style="fill:url(#linearGradient1125);fill-opacity:1;stroke-width:0.3;-inkscape-stroke:none"
         d="m -2180.4124,1069.0039 -22.4565,4.0018 -14.8828,9.1281 -2.4826,0.2227 -19.4102,1.9177 -12.7222,6.4544 12.114,4.5367 21.9057,-4.7971 16.5695,-6.5815 0.1653,-5.8209 13.3284,0.9922 3.4562,3.2985 14.1252,-5.8001 z" /><g
         id="g217-3-62-1-1-7-8-8-1-0"
         transform="matrix(0.81,0,0,1,-983.5992,69.738894)"><path
           style="fill:#bca066;fill-opacity:1;stroke-width:0.3;-inkscape-stroke:none"
           d="m -1438.478,1040.4235 3.391,2.2216 5.7296,-3.999 2.5824,-6.6806 -2.3296,-5.4153 -1.4053,-0.1322 0.7984,5.388 -2.7329,5.7644 -7.4368,0.4443"
           id="path201-5-5-9-1-4-8-0-9-8"
           sodipodi:nodetypes="ccccccccc" /><path
           style="fill:#ede4cf;fill-opacity:1;stroke-width:0.3;-inkscape-stroke:none"
           d="m -1436.5837,1049.3335 6.5715,-3.8586 4.1861,-5.7296 1.3641,-7.1142 -2.1416,-4.8984 -2.501,-1.1825 2.3296,5.4153 -2.5824,6.6806 -5.7296,3.999"
           id="path204-82-9-2-1-1-06-4-10-6"
           sodipodi:nodetypes="ccccccccc" /></g><path
         id="path207-3-1-4-4-6-5-8-1-4"
         style="fill:#704900;fill-opacity:1;stroke:none;stroke-width:0.3;-inkscape-stroke:none"
         d="m -2192.8726,1082.1348 -8.9049,1.7519 -17,4.6705 -21.3765,4.7878 -12.2127,-2.6164 -7.4838,19.7843 -0.187,17.8201 7.3902,4.0696 0.4336,-6.3149 8.9958,-11.9724 15.2136,7.6466 3.7041,4.6565 1.3229,8.9297 3.1089,8.9959 -0.1318,8.1705 7.8109,3.8819 0.3907,-31.8962 1.3229,-4.6302 12.084,-10.7818 10.5379,10.0542 -2.8443,4.8286 2.6898,17.014 6.8755,2.2453 -0.4211,-19.8081 6.782,3.882 15.7158,-0.8883 8.4656,-1.8614 3.7182,-5.4819 0.8015,-3.5656 -3.5843,-1.416 -7.2497,7.6709 -12.8581,-4.3724 -6.5485,-10.3518 0.1654,-9.9219 -5.6224,-4.2664 z" /><path
         style="fill:url(#radialGradient263-41-1-6-03-6-5-3-8-4);fill-opacity:1;stroke-width:0.3;-inkscape-stroke:none"
         d="m -2161.7925,1076.5115 10.0795,-7.8594 10.9018,6.6416 -3.2312,9.3077 -9.7286,4.2094 -10.7335,-8.4628 2.712,-3.8365"
         id="path213-9-0-4-9-5-3-8-0-1"
         sodipodi:nodetypes="ccccccc" /><path
         style="fill:url(#linearGradient1126);fill-opacity:1;stroke-width:0.3;-inkscape-stroke:none"
         d="m -2181.7686,1092.8496 -0.3638,-8.2021 -6.1516,-5.5893 -13.3283,-0.9922 -0.5211,11.8674 5.3086,4.9345 7.9045,0.4837"
         id="path214-2-7-7-0-8-9-9-6-9" /><path
         style="fill:#bca066;fill-opacity:1;stroke-width:0.3;-inkscape-stroke:none"
         d="m -2165.0968,1123.1568 -2.7836,1.1655 -5.5245,0.2324 -4.255,-1.9395 -3.2323,-7.0777 1.6041,-6.1846 2.2655,-0.049 -1.8521,5.1593 3.1642,7.1791 5.5866,2.2426 z"
         id="path202-4-0-4-4-4-7-7-1-9"
         sodipodi:nodetypes="ccccccccccc" /><path
         style="fill:#ede4cf;fill-opacity:1;stroke-width:0.3;-inkscape-stroke:none"
         d="m -2165.0968,1123.1568 -1.139,-2.8215 -4.1393,-0.7016 -3.2039,-1.637 -2.783,-3.6482 0.421,-3.8354 -1.0816,-1.2092 -1.8521,5.1593 3.1642,7.1791 5.5866,2.2426 5.0271,-0.7281"
         id="path203-3-6-6-7-9-7-2-4-8"
         sodipodi:nodetypes="ccccccccccc" /><g
         id="g216-8-7-2-2-2-7-2-6-9"
         transform="translate(-710.28838,69.738894)"><path
           style="fill:#ffffff;fill-opacity:1;stroke-width:0.3;-inkscape-stroke:none"
           d="m -1475.2504,1024.0119 7.8789,3.9605 v 7.9375 l -7.8789,-3.5637 z"
           id="path211-1-92-5-9-5-0-8-9-0"
           sodipodi:nodetypes="ccccc" /><path
           style="fill:#000000;fill-opacity:1;stroke-width:0.3;-inkscape-stroke:none"
           d="m -1472.0654,1033.7874 -5e-4,-8.1747 4.6923,2.3597 v 7.9375 z"
           id="path212-3-6-4-7-2-83-5-7-6"
           sodipodi:nodetypes="ccccc" /></g></g></g></svg>
