<?xml version="1.0" encoding="UTF-8" standalone="no"?>
<!-- Created with Inkscape (http://www.inkscape.org/) -->

<svg
   width="169.86301mm"
   height="84.43232mm"
   viewBox="0 0 169.86301 84.43232"
   version="1.1"
   id="svg1"
   inkscape:version="1.3 (0e150ed6c4, 2023-07-21)"
   sodipodi:docname="Dwarves mina.svg"
   xml:space="preserve"
   xmlns:inkscape="http://www.inkscape.org/namespaces/inkscape"
   xmlns:sodipodi="http://sodipodi.sourceforge.net/DTD/sodipodi-0.dtd"
   xmlns:xlink="http://www.w3.org/1999/xlink"
   xmlns="http://www.w3.org/2000/svg"
   xmlns:svg="http://www.w3.org/2000/svg"><sodipodi:namedview
     id="namedview1"
     pagecolor="#ffffff"
     bordercolor="#000000"
     borderopacity="0.25"
     inkscape:showpageshadow="2"
     inkscape:pageopacity="0.0"
     inkscape:pagecheckerboard="0"
     inkscape:deskcolor="#d1d1d1"
     inkscape:document-units="mm"
     showgrid="false"
     inkscape:zoom="0.25"
     inkscape:cx="23201.713"
     inkscape:cy="6886.123"
     inkscape:window-width="1920"
     inkscape:window-height="991"
     inkscape:window-x="-9"
     inkscape:window-y="-9"
     inkscape:window-maximized="1"
     inkscape:current-layer="layer1"
     showguides="false"
     inkscape:rotation="1"><inkscape:grid
       id="grid1"
       units="mm"
       originx="-27086.439"
       originy="-10210.173"
       spacingx="0.99999998"
       spacingy="1"
       empcolor="#0099e5"
       empopacity="0.30196078"
       color="#0099e5"
       opacity="0.14901961"
       empspacing="5"
       dotted="false"
       gridanglex="30"
       gridanglez="30"
       visible="false" /><sodipodi:guide
       position="-4580.3066,3980.283"
       orientation="1,0"
       id="guide117"
       inkscape:locked="false" /></sodipodi:namedview><defs
     id="defs1"><linearGradient
       id="linearGradient1146"
       inkscape:collect="always"><stop
         style="stop-color:#bd7a6d;stop-opacity:1;"
         offset="0"
         id="stop1146" /><stop
         style="stop-color:#faaf9c;stop-opacity:1;"
         offset="1"
         id="stop1147" /></linearGradient><linearGradient
       inkscape:collect="always"
       xlink:href="#linearGradient1146"
       id="linearGradient8"
       gradientUnits="userSpaceOnUse"
       x1="5164.4023"
       y1="1539.5616"
       x2="5189.6821"
       y2="1539.5616" /></defs><g
     inkscape:label="Capa 1"
     inkscape:groupmode="layer"
     id="layer1"
     transform="translate(-7166.6203,-2701.4416)"><g
       id="g1142-9-7"
       transform="matrix(0.9,0,0,0.9,2627.1218,1363.2937)"
       inkscape:export-filename="g1142-9-7.svg"
       inkscape:export-xdpi="96"
       inkscape:export-ydpi="96"><g
         id="g229"
         inkscape:export-filename="Sprites SVG\animal_goblin.svg"
         inkscape:export-xdpi="96"
         inkscape:export-ydpi="96"><path
           style="fill:#f5f5f5;fill-opacity:1;stroke:none;stroke-width:2.39246;-inkscape-stroke:none"
           d="m 5205.4504,1557.1511 0.4319,20.0498 5.8759,-3.0143 2.3393,-14.2946 1.7201,12.31 5.0745,-2.5522 v -7.6041"
           id="path1137-5-8-0" /><g
           id="g1140-5-5-3"
           transform="rotate(-39.189583,4371.5751,2615.4514)"
           inkscape:transform-center-x="-15.849494"
           inkscape:transform-center-y="-1.5997721"><path
             style="fill:#faaf9c;fill-opacity:1;stroke:none;stroke-width:1;-inkscape-stroke:none"
             d="m 5639.14,2234.3751 -9.1665,5.4524 -9.4906,-4.3217 0.7805,-14.856 5.3081,-10.4188 5.4942,-11.2417 -1.7487,-13.487 -9.8341,-7.4254 -16.6676,2.0366 -19.7256,12.0692 17.2641,-4.7789 11.8467,0.061 7.2824,3.0499 0.7805,7.1057 -12.5338,21.4267 -0.5039,19.9453 16.8215,15.0553 18.0827,-4.3482"
             id="path1128-2-4-6"
             sodipodi:nodetypes="cccccccccccccccccc" /><path
             style="fill:#b5695b;fill-opacity:1;stroke:none;stroke-width:1;-inkscape-stroke:none"
             d="m 5636.5729,2242.7466 -12.489,2.7037 -10.168,-8.9678 0.093,-14.1763 11.6437,-23.2543 -1.1468,-11.4561 -7.1708,-4.3471 -12.4277,0.2492 -20.8177,8.6847 17.2642,-4.7788 11.8467,0.061 7.2824,3.0499 0.7805,7.1057 -12.5339,21.4267 -0.5039,19.9453 16.8215,15.0553 18.0827,-4.3482"
             id="path1128-4-1-8-1"
             sodipodi:nodetypes="ccccccccccccccccc" /></g><path
           style="fill:#bd7a6d;fill-opacity:1;stroke:none;stroke-width:1;-inkscape-stroke:none"
           d="m 5125.8931,1553.4113 -3.9973,13.5654 7.5827,9.9234 -1.7628,-10.025 8.3439,8.0578 -0.6905,-9.2498 6.6644,2.7945 -1.4473,-7.1196 -8.813,-4.9139 -11.5464,-10.2976"
           id="path1129-6-2-3" /><path
           style="fill:#bd7a6d;fill-opacity:1;stroke:none;stroke-width:1;-inkscape-stroke:none"
           d="m 5152.2721,1563.8004 8.1349,11.2368 12.2704,5.6075 -4.0928,-7.0735 11.7139,3.329 -8.0933,-8.1553 8.4468,-1.2059 -13.8486,-6.0156 -5.3784,-5.0793"
           id="path1130-1-5-1" /><path
           style="fill:#faaf9c;fill-opacity:1;stroke:none;stroke-width:1;-inkscape-stroke:none"
           d="m 5199.8604,1530.9502 -4.6959,-11.2968 8.6606,-4.1205 h 7.7607 l -1.6575,15.0247 -7.2375,4.027"
           id="path1132-5-2-8"
           sodipodi:nodetypes="cccccc" /><path
           style="fill:#95949a;fill-opacity:1;stroke:none;stroke-width:1;-inkscape-stroke:none"
           d="m 5126.7444,1556.4441 -10.7029,-9.2911 -2.3719,-7.9593 -1.3393,-19.9468 10.9644,-23.7429 26.6218,-6.0218 20.6007,12.8716 12.9889,16.4445 11.6584,9.8297 12.2627,4.4185 11.3773,6.515 3.3268,8.9944 7.2766,7.8882 -3.8203,8.1935 -9.3751,1.0898 -10.2749,-1.5692 -0.2587,3.6001 -11.9861,-4.5791 -13.0407,4.3598 -22.8291,-2.9014 -17.2368,-3.2795"
           id="path1134-4-7-0"
           sodipodi:nodetypes="ccccccccccccccccccccc" /><g
           id="g1128-4-8-2"
           transform="translate(-833.43278,-651.72337)"><path
             style="fill:#d5dfbe;fill-opacity:1;stroke-width:0.3;-inkscape-stroke:none"
             d="m 6036.1236,2196.2695 7.8789,3.9605 v 7.9375 l -7.8789,-3.5637 z"
             id="path211-1-92-5-9-5-0-8-9-0-5-5-8-7"
             sodipodi:nodetypes="ccccc" /><path
             style="fill:#7b0c18;fill-opacity:1;stroke-width:0.3;-inkscape-stroke:none"
             d="m 6039.3086,2206.045 -5e-4,-8.1747 4.6923,2.3597 v 7.9375 z"
             id="path212-3-6-4-7-2-83-5-7-6-2-2-2-4"
             sodipodi:nodetypes="ccccc" /></g><path
           style="fill:url(#linearGradient8);fill-opacity:1;stroke:none;stroke-width:1;-inkscape-stroke:none"
           d="m 5189.6819,1539.0665 -9.0298,-10.4385 -16.2498,2.4119 5.0342,17.6077 11.2156,1.8475 2.2575,-1.0871 2.2574,-1.087 4.5149,-2.1741"
           id="path1131-7-6-8"
           sodipodi:nodetypes="cccccccc" /><path
           style="fill:#424242;fill-opacity:1;stroke:none;stroke-width:1;-inkscape-stroke:none"
           d="m 5195.1644,1528.628 v -8.9746 l 8.6606,-4.1205 -3.3051,6.4951 v 8.5296 z"
           id="path1135-5-7-1" /><path
           style="fill:#424242;fill-opacity:1;stroke:none;stroke-width:1;-inkscape-stroke:none"
           d="m 5189.6819,1539.0665 -9.0298,-10.4385 -16.2498,2.4119 5.0342,17.6077 1.4327,-14.063 h 7.3493 z"
           id="path1136-5-6-5"
           sodipodi:nodetypes="ccccccc" /><path
           style="fill:#000000;fill-opacity:0.218447;stroke:none;stroke-width:1;-inkscape-stroke:none"
           d="m 5149.9166,1489.4822 -26.6218,6.0218 -10.9644,23.7428 1.3392,19.9469 2.3718,7.9592 10.703,9.2912 13.8419,4.9139 40.0658,6.181 13.0408,-4.36 11.986,4.5793 0.2587,-3.6001 10.2748,1.5692 9.3753,-1.0899 1.91,-4.0967 -22.6105,-1.1529 -38.4252,-4.5586 -32.2685,-15.2679 -4.3006,-20.7788 5.2888,-18.6169 z"
           id="path1138-5-4-6"
           sodipodi:nodetypes="cccccccccccccccccccc" /><path
           style="fill:#000000;fill-opacity:0.33;stroke:none;stroke-width:1;-inkscape-stroke:none"
           d="m 5123.2948,1495.5039 -10.9644,23.7429 1.3392,19.9468 2.3718,7.9593 10.703,9.2911 13.8419,4.914 40.0658,6.1809 13.0408,-4.3599 11.986,4.5793 0.2587,-3.6001 10.2748,1.5691 9.3753,-1.0898 0.955,-2.0484 -23.8518,-0.389 -23.3034,-0.6768 -25.5966,-3.6661 -28.872,-13.3111 -4.6921,-21.5009 z"
           id="path1138-5-3-5-3"
           sodipodi:nodetypes="ccccccccccccccccccc" /><path
           style="fill:#faaf9c;fill-opacity:1;stroke:none;stroke-width:1;-inkscape-stroke:none"
           d="m 5226.2656,1558.0102 3.1423,-1.5661 3.216,1.9844 -0.9657,5.3093 -6.0706,0.8997"
           id="path1133-0-0-3" /></g></g></g></svg>
