<?xml version="1.0" encoding="UTF-8" standalone="no"?>
<!-- Created with Inkscape (http://www.inkscape.org/) -->

<svg
   width="151.27757mm"
   height="162.75797mm"
   viewBox="0 0 151.27757 162.75797"
   version="1.1"
   id="svg1"
   inkscape:version="1.3.2 (091e20e, 2023-11-25, custom)"
   sodipodi:docname="berskerer_hea.svg"
   xml:space="preserve"
   xmlns:inkscape="http://www.inkscape.org/namespaces/inkscape"
   xmlns:sodipodi="http://sodipodi.sourceforge.net/DTD/sodipodi-0.dtd"
   xmlns:xlink="http://www.w3.org/1999/xlink"
   xmlns="http://www.w3.org/2000/svg"
   xmlns:svg="http://www.w3.org/2000/svg"><sodipodi:namedview
     id="namedview1"
     pagecolor="#ffffff"
     bordercolor="#000000"
     borderopacity="0.25"
     inkscape:showpageshadow="2"
     inkscape:pageopacity="0.0"
     inkscape:pagecheckerboard="0"
     inkscape:deskcolor="#d1d1d1"
     inkscape:document-units="mm"
     inkscape:zoom="1.28"
     inkscape:cx="228.51563"
     inkscape:cy="249.60938"
     inkscape:window-width="1920"
     inkscape:window-height="1017"
     inkscape:window-x="-8"
     inkscape:window-y="-8"
     inkscape:window-maximized="1"
     inkscape:current-layer="layer1" /><defs
     id="defs1"><linearGradient
       id="linearGradient504"
       inkscape:collect="always"><stop
         style="stop-color:#422b00;stop-opacity:1;"
         offset="0.58941108"
         id="stop505" /><stop
         style="stop-color:#b7883f;stop-opacity:1;"
         offset="0.8069666"
         id="stop507" /></linearGradient><linearGradient
       id="linearGradient501"
       inkscape:collect="always"><stop
         style="stop-color:#b7883f;stop-opacity:1;"
         offset="0.3506614"
         id="stop500" /><stop
         style="stop-color:#261d0f;stop-opacity:1;"
         offset="1"
         id="stop501" /></linearGradient><linearGradient
       id="linearGradient503"
       inkscape:collect="always"><stop
         style="stop-color:#261b10;stop-opacity:1;"
         offset="0"
         id="stop502" /><stop
         style="stop-color:#b7883f;stop-opacity:1;"
         offset="1"
         id="stop503" /></linearGradient><linearGradient
       id="linearGradient257"
       inkscape:collect="always"><stop
         style="stop-color:#493520;stop-opacity:1;"
         offset="0"
         id="stop257" /><stop
         style="stop-color:#7a540b;stop-opacity:1;"
         offset="1"
         id="stop258" /></linearGradient><linearGradient
       inkscape:collect="always"
       xlink:href="#linearGradient504"
       id="linearGradient163"
       gradientUnits="userSpaceOnUse"
       x1="-2252.3667"
       y1="1082.1346"
       x2="-2170.7024"
       y2="1082.1346"
       gradientTransform="translate(3289.2981,-3647.6763)" /><radialGradient
       inkscape:collect="always"
       xlink:href="#linearGradient501"
       id="radialGradient263-41-1-6-03-6-5-3-8-4-4-2-5-7-9-6-5"
       cx="-1443.8395"
       cy="1019.3883"
       fx="-1443.8395"
       fy="1019.3883"
       r="11.84665"
       gradientTransform="matrix(1.1563513,0.97557182,-0.8501036,1.0076332,3666.3317,-2181.6972)"
       gradientUnits="userSpaceOnUse" /><linearGradient
       inkscape:collect="always"
       xlink:href="#linearGradient503"
       id="linearGradient164"
       gradientUnits="userSpaceOnUse"
       gradientTransform="translate(2579.0097,-3577.9374)"
       x1="-1484.6598"
       y1="1008.8232"
       x2="-1475.3933"
       y2="1018.7737" /><linearGradient
       inkscape:collect="always"
       xlink:href="#linearGradient257"
       id="linearGradient165"
       gradientUnits="userSpaceOnUse"
       gradientTransform="matrix(1.0153931,0,0,1.0153931,2601.9424,-3593.6405)"
       x1="-1484.6598"
       y1="1008.8232"
       x2="-1475.2504"
       y2="1024.0118" /></defs><g
     inkscape:label="Capa 1"
     inkscape:groupmode="layer"
     id="layer1"
     transform="translate(-3317.9259,1157.5533)"><g
       id="g170"
       transform="translate(2310.5248,1487.7379)"><path
         style="display:none;fill:#261b0c;fill-opacity:1;stroke-width:0.3;-inkscape-stroke:none"
         d="m 1029.2607,-2519.343 -1.3564,7.2497 9.448,5.2853 4.6772,-5.8933 7.7174,1.5435 -3.3675,-8.1852 -9.7287,4.0692 z"
         id="path187-85-4-7-7-6-3-7-2-9-7-1-9-1-3-2-6" /><path
         style="display:none;fill:#261b0c;fill-opacity:1;stroke-width:0.3;-inkscape-stroke:none"
         d="m 1069.2977,-2495.1617 -0.7484,7.0158 8.7932,5.6126 5.6127,-7.7174 7.9513,-0.8886 -3.6951,-7.9981 -10.1027,7.8577 z"
         id="path188-7-5-9-2-4-9-3-6-8-7-0-6-4-0-6-5" /><path
         style="display:none;fill:#261b0c;fill-opacity:1;stroke-width:0.3;-inkscape-stroke:none"
         d="m 1101.2899,-2506.6911 -0.8653,5.5191 8.419,4.3732 3.9522,-6.4779 6.1038,-0.1637 -3.3676,-5.6361 -7.3666,4.6305 z"
         id="path189-26-9-0-5-1-2-2-1-3-9-5-7-1-0-7-9" /><path
         id="path190-7-8-5-8-1-8-0-03-3-6-6-8-0-5-4-9"
         style="display:none;fill:#b7883f;fill-opacity:1;stroke-width:0.3;-inkscape-stroke:none"
         d="m 1127.5057,-2571.1649 -2.7119,3.8365 -6.1981,-3.7915 -10.4085,0.2298 -3.7167,5.5703 2.6954,2.2908 0.3638,8.2021 5.6224,4.2664 -0.1654,9.9219 6.5485,10.3518 12.8581,4.3724 7.2497,-7.6709 3.5843,1.416 0.6955,-3.1229 -3.391,-2.2215 -2.2112,-4.6132 -4.1967,-8.1323 1.4031,-8.6062 3.0168,-2.2334 1.0992,-8.5241 z m -36.5993,32.5768 -12.084,10.7818 -1.3229,4.6302 -0.3907,31.8962 10.1028,-7.8574 -2.8329,-6.907 3.175,-15.0813 11.0463,-2.5797 2.8443,-4.8286 z m -44.8262,5.0271 -8.9958,11.9724 -0.4336,6.3149 9.7286,-4.0696 4.2649,-12.2995 z m 61.664,9.3069 0.4211,19.8081 7.3665,-4.6307 -1.3798,-4.3263 0.3742,-6.9691 z"
         sodipodi:nodetypes="ccccccccccccccccccccccccccccccccccccccccccc" /><path
         id="path199-2-9-8-0-9-76-3-7-3-6-7-4-3-5-4-7"
         style="display:none;fill:url(#linearGradient163);fill-opacity:1;stroke-width:0.3;-inkscape-stroke:none"
         d="m 1108.8858,-2578.6726 -4.5082,0.8036 1.6624,4.1083 -7.7742,4.9377 2.7486,0.2046 3.4562,3.2985 14.1252,-5.8002 z m -47.04,14.0658 -12.192,1.2046 -12.7223,6.4544 4.7527,1.7797 13.2008,-8.1111 z" /><path
         style="display:none;fill:#bca066;fill-opacity:1;stroke-width:0.27;-inkscape-stroke:none"
         d="m 1140.5317,-2537.5139 2.7467,2.2216 4.641,-3.999 2.0917,-6.6806 -1.8869,-5.4153 -1.1383,-0.1322 0.6467,5.388 -2.2137,5.7644 -6.0238,0.4443"
         id="path201-5-5-9-1-4-8-0-9-8-4-4-3-4-2-5-4"
         sodipodi:nodetypes="ccccccccc" /><path
         style="display:none;fill:#ede4cf;fill-opacity:1;stroke-width:0.27;-inkscape-stroke:none"
         d="m 1142.0661,-2528.6039 5.3229,-3.8586 3.3908,-5.7296 1.1049,-7.1142 -1.7347,-4.8984 -2.0258,-1.1825 1.8869,5.4153 -2.0917,6.6806 -4.641,3.999"
         id="path204-82-9-2-1-1-06-4-10-6-4-5-1-3-0-2-5"
         sodipodi:nodetypes="ccccccccc" /><path
         id="path207-3-1-4-4-6-5-8-1-4-0-5-8-1-8-0-3"
         style="display:none;fill:#704900;fill-opacity:1;stroke:none;stroke-width:0.3;-inkscape-stroke:none"
         d="m 1096.4256,-2565.5416 -4.8183,0.9478 -13.993,8.8878 -2.5244,-1.6351 -0.1214,35.6759 -33.5241,-18.1756 0.07,-15.2229 1.0888,-0.6692 -5.6715,-1.2149 -7.4837,19.7843 -0.1871,17.8201 7.3902,4.0695 0.4336,-6.3148 8.9958,-11.9724 15.2136,7.6465 3.7041,4.6566 1.323,8.9297 3.1088,8.9958 -0.1318,8.1706 7.8109,3.8819 0.3907,-31.8962 1.3229,-4.6302 12.084,-10.7818 10.5379,10.0542 -2.8443,4.8286 2.6898,17.014 6.8755,2.2453 -0.4211,-19.8081 6.782,3.8819 15.7158,-0.8883 8.4657,-1.8614 3.7181,-5.4818 0.8015,-3.5657 -3.5843,-1.4159 -7.2497,7.6708 -12.8581,-4.3723 -6.5485,-10.3518 0.1654,-9.9219 -5.6224,-4.2664 z" /><path
         style="display:none;fill:url(#radialGradient263-41-1-6-03-6-5-3-8-4-4-2-5-7-9-6-5);fill-opacity:1;stroke-width:0.3;-inkscape-stroke:none"
         d="m 1127.5056,-2571.1648 10.0795,-7.8594 10.9018,6.6416 -3.2312,9.3077 -9.7286,4.2094 -10.7335,-8.4628 2.712,-3.8365"
         id="path213-9-0-4-9-5-3-8-0-1-9-7-9-9-7-1-8"
         sodipodi:nodetypes="ccccccc" /><path
         style="display:none;fill:url(#linearGradient164);fill-opacity:1;stroke-width:0.3;-inkscape-stroke:none"
         d="m 1107.5295,-2554.8267 -0.3638,-8.2021 -6.1516,-5.5893 -13.3283,-0.9922 -0.5211,11.8674 5.3086,4.9345 7.9045,0.4837"
         id="path214-2-7-7-0-8-9-9-6-9-8-87-9-5-5-1-6" /><path
         style="display:none;fill:#bca066;fill-opacity:1;stroke-width:0.3;-inkscape-stroke:none"
         d="m 1124.2013,-2524.5195 -2.7836,1.1655 -5.5245,0.2324 -4.255,-1.9395 -3.2323,-7.0777 1.6041,-6.1846 2.2655,-0.049 -1.8521,5.1593 3.1642,7.1791 5.5866,2.2426 z"
         id="path202-4-0-4-4-4-7-7-1-9-2-1-3-1-2-8-6"
         sodipodi:nodetypes="ccccccccccc" /><path
         style="display:none;fill:#ede4cf;fill-opacity:1;stroke-width:0.3;-inkscape-stroke:none"
         d="m 1124.2013,-2524.5195 -1.139,-2.8215 -4.1393,-0.7016 -3.2039,-1.637 -2.783,-3.6482 0.421,-3.8354 -1.0816,-1.2092 -1.8521,5.1593 3.1642,7.1791 5.5866,2.2426 5.0271,-0.7281"
         id="path203-3-6-6-7-9-7-2-4-8-7-5-5-3-3-2-2"
         sodipodi:nodetypes="ccccccccccc" /><path
         style="display:none;fill:#ffffff;fill-opacity:1;stroke-width:0.3;-inkscape-stroke:none"
         d="m 1103.7593,-2553.9255 7.8789,3.9605 v 7.9375 l -7.8789,-3.5637 z"
         id="path211-1-92-5-9-5-0-8-9-0-4-13-3-1-0-7-7"
         sodipodi:nodetypes="ccccc" /><path
         style="display:none;fill:#000000;fill-opacity:1;stroke-width:0.3;-inkscape-stroke:none"
         d="m 1106.9443,-2544.15 -5e-4,-8.1747 4.6923,2.3597 v 7.9375 z"
         id="path212-3-6-4-7-2-83-5-7-6-7-0-8-2-0-0-9"
         sodipodi:nodetypes="ccccc" /><path
         style="display:none;fill:#a9ffff;fill-opacity:1;stroke:none;stroke-width:0.313347"
         d="m 1158.6787,-2582.7392 -6.0478,-14.7083 -3.0648,-14.6936 -7.3496,-3.1015 3.0647,14.6936"
         id="path44-2-0-0-7-6-4-3-6-2-1-5-8-7-8"
         sodipodi:nodetypes="ccccc" /><path
         style="display:none;fill:#b7b7b7;fill-opacity:1;stroke:none;stroke-width:0.313347"
         d="m 1156.1545,-2586.0946 -28.9406,12.1596 0.4748,3.191 30.99,-11.9952"
         id="path43-5-6-5-7-0-4-3-4-2-4-6-0-1-7"
         sodipodi:nodetypes="cccc" /><path
         style="display:none;fill:#8d4c01;fill-opacity:1;stroke:none;stroke-width:0.313347"
         d="m 1156.1627,-2602.9631 -5.238,-2.6645 -0.5846,-9.2509 z m -6.2157,-0.067"
         id="path45-3-4-4-5-6-1-9-75-0-2-7-1-4-0-8"
         sodipodi:nodetypes="cccc" /><path
         style="display:none;fill:#330000;fill-opacity:1;stroke:none;stroke-width:0.313347"
         d="m 1150.9247,-2605.6276 -46.8101,19.9926 -2.8739,-8.3181 49.0994,-20.9254"
         id="path51-2-4-7-4-0-0-6-8-9-2-6-0-6-1"
         sodipodi:nodetypes="cccc" /><path
         style="display:none;fill:#663300;fill-opacity:1;stroke:none;stroke-width:0.313347"
         d="m 1156.1627,-2602.9631 -56.8819,24.2422 5.3556,-5.4052 -0.5218,-1.5089 0.368,-0.1668 46.4421,-19.8258"
         id="path52-1-6-9-1-2-6-5-9-7-0-4-5-5-2"
         sodipodi:nodetypes="cccccc" /><path
         style="display:none;fill:#858585;fill-opacity:1;stroke:none;stroke-width:0.313347"
         d="m 1142.2165,-2615.2427 3.0648,14.6936 13.3974,17.8099 -30.99,11.9952 -1.5208,-10.2485 7.7218,-16.5269 -1.8632,-10.1412 0.6336,-3.3296"
         id="path42-9-3-93-2-0-4-7-2-8-4-8-4-3-6" /><path
         style="display:none;fill:#a9ffff;fill-opacity:1;stroke:none;stroke-width:0.313347"
         d="m 1151.0528,-2600.7854 -5.2379,-2.6644 -0.5846,-9.2509 -3.0138,-2.5419 3.0648,14.6935 2.6091,3.4686"
         id="path53-9-7-8-3-0-7-6-6-2-3-3-3-9-9" /><path
         style="display:none;fill:#808080;fill-opacity:1;stroke-width:0.304619;-inkscape-stroke:none"
         d="m 1104.0511,-2565.4359 14.3425,-5.889 6.2935,3.8499 8.5507,5.6224 2.348,2.9707 -1.4248,8.7385 4.2611,8.2579 -10.3097,-2.1829 -8.7648,14.2052 -6.6494,-10.5113 0.168,-10.0745 -5.709,-4.332 -0.3694,-8.3283 z"
         id="path200-04-1-8-5-8-1-2-1-1-7-3-0-3-2-1-8"
         sodipodi:nodetypes="cccccccccccccc" /><path
         style="display:none;fill:#666666;fill-opacity:1;stroke-width:0.304619;-inkscape-stroke:none"
         d="m 1119.3476,-2529.8632 8.7648,-14.2052 10.3097,2.1829 2.2453,4.6838 3.4433,2.2557 -0.9773,3.1308 -3.6104,-1.4263 -7.1192,7.8178 z"
         id="path205-6-0-1-3-0-7-0-8-0-3-7-3-9-6-8-8"
         sodipodi:nodetypes="ccccccccc" /><path
         style="display:none;fill:#666666;stroke-width:17.7646;stroke-linecap:round"
         d="m 1121.4117,-2549.5603 3.5963,7.0582 14.051,-14.9853 z"
         id="path149-7-9-5-2-8-5-4"
         sodipodi:nodetypes="cccc" /><path
         style="display:none;fill:#4d4d4d;stroke-width:17.7646;stroke-linecap:round"
         d="m 1125.008,-2542.5021 6.209,-3.1326 7.842,-11.8527"
         id="path150-6-9-4-0-7-6-5" /><path
         style="display:none;fill:#000000;fill-opacity:1;stroke:none;stroke-width:0.369182;stroke-opacity:0"
         d="m 1052.2458,-2556.5622 v 15.4187 l -12.5161,-8.1372 2e-4,-14.7196 z"
         id="path1-9-3-3-3-3-7-1-8-5-5-5-9-4-1-4-6-5-0-4"
         sodipodi:nodetypes="ccccc" /><path
         style="display:none;fill:#666666;fill-opacity:1;stroke:none;stroke-width:0.369182;stroke-opacity:0"
         d="m 1064.7622,-2564.0003 -2e-4,14.7196 -12.5162,8.1372 v -15.4187"
         id="path2-0-2-8-9-6-6-0-1-4-4-3-4-5-1-4-3-3-5-9"
         sodipodi:nodetypes="cccc" /><path
         style="display:none;fill:url(#linearGradient165);fill-opacity:1;stroke-width:0.304619;-inkscape-stroke:none"
         d="m 1107.8114,-2554.781 -0.3693,-8.3283 -6.2463,-5.6754 -13.5334,-1.0075 -0.5292,12.0502 5.3903,5.0104 8.0263,0.4911"
         id="path214-2-1-8-6-4-4-4-10-5-5-9-8-1-5-6" /><path
         id="path2-0-9-2-5-2-3-9-6-93-9-5-7-5-8-1-5-8-0-3-5-3-4"
         style="display:inline;fill:#808080;fill-opacity:0;stroke:none;stroke-width:0.559558;stroke-dasharray:none;stroke-opacity:0"
         d="m 1099.4682,-2599.0717 -20.2187,11.7071 -1.635,31.6583 30.8266,-17.4164 z"
         sodipodi:nodetypes="ccccc" /><path
         style="display:inline;fill:#000000;fill-opacity:0.3;stroke:none;stroke-width:0.313347"
         d="m 1060.3321,-2600.958 18.9174,13.5934 20.2187,-11.7071 -18.9652,-13.3847"
         id="path19-9-8-1-3-3-4-1-1-8-1-3-7-5-0-7-7" /><rect
         style="display:inline;fill:#616161;fill-opacity:1;stroke:none;stroke-width:0.0695293;stroke-dasharray:none;stroke-opacity:0"
         id="rect4-4-8-1-1-2-1-9-0-5-0-5-5-8-5-4-4-9-8-9-9-2"
         width="22.183308"
         height="22.18331"
         x="-1880.8759"
         y="-3007.2778"
         transform="matrix(0.80916482,0.58758173,-0.86538932,0.50110011,0,0)" /><path
         style="display:inline;fill:#ffffff;fill-opacity:1;stroke:#020202;stroke-width:1.24135;stroke-dasharray:none;stroke-opacity:0"
         d="m 1081.6764,-2607.3809 6.179,-3.332 -0.503,9.7407 -6.1152,3.5633 z"
         id="path214-0-3-5-7-6-9-6-8-4-9-6-7-7-8-0-4-4-0"
         sodipodi:nodetypes="ccccc" /><path
         style="display:inline;fill:#000000;fill-opacity:0.993007;stroke:#020202;stroke-width:1.24135;stroke-dasharray:none;stroke-opacity:0"
         d="m 1087.6459,-2606.6556 -3.7921,2.2301 -0.2539,5.6399 3.7526,-2.1866"
         id="path215-2-6-2-5-4-5-6-2-7-7-8-3-0-2-6-9-6-6" /><path
         style="display:inline;fill:#ffffff;fill-opacity:1;stroke:#020202;stroke-width:1.24135;stroke-dasharray:none;stroke-opacity:0"
         d="m 1092.015,-2613.3766 6.1791,-3.332 -0.5031,9.7407 -6.1152,3.5632 z"
         id="path214-0-5-2-8-62-1-2-8-4-1-0-8-7-6-3-1-8-0-8"
         sodipodi:nodetypes="ccccc" /><path
         style="display:inline;fill:#000000;fill-opacity:0.993007;stroke:#020202;stroke-width:1.24135;stroke-dasharray:none;stroke-opacity:0"
         d="m 1097.9845,-2612.6514 -3.7921,2.2302 -0.2539,5.6399 3.7526,-2.1866"
         id="path215-2-5-8-3-5-1-1-7-55-3-4-4-8-6-8-5-2-8-6" /><rect
         style="display:inline;fill:#663615;fill-opacity:1;stroke:none;stroke-width:0.0695293;stroke-dasharray:none;stroke-opacity:1"
         id="rect4-9-3-7-9-8-3-7-9-3-4-4-8-1-7-2-1-1-3-7-1-7-0"
         width="22.183308"
         height="22.18331"
         x="-1900.6102"
         y="-3027.0122"
         transform="matrix(0.80916482,0.58758173,-0.86538932,0.50110011,0,0)" /><path
         style="display:inline;fill:#966622;fill-opacity:1;stroke:none;stroke-width:0.548584;stroke-dasharray:none;stroke-opacity:0"
         d="m 1080.4619,-2610.846 -1.1816,22.8811 -17.9499,-13.0345 1.1095,-21.4845 z"
         id="path1-9-9-4-8-1-1-8-3-6-2-8-2-5-4-3-0-8-4"
         sodipodi:nodetypes="ccccc" /><path
         style="display:inline;fill:#c6862d;fill-opacity:1;stroke:none;stroke-width:0.548584;stroke-dasharray:none;stroke-opacity:0"
         d="m 1099.587,-2620.5655 -1.1095,21.4845 -19.1972,11.1161 1.1816,-22.8811"
         id="path2-0-0-8-8-2-7-9-5-8-2-2-2-5-8-4-8-9-6"
         sodipodi:nodetypes="cccc" /><path
         style="display:inline;fill:#782121;fill-opacity:1;stroke:none;stroke-width:0.313347"
         d="m 1089.0959,-2616.3015 15.8368,-14.7135 -11.8778,0.6416 -2.1068,-12.3456 -7.1142,8.0258 -7.7589,-10.5981 -4.9605,11.4316 -13.2417,-2.2674 0.4028,9.37 -0.097,6.4272 -8.9045,3.8254 6.9132,10.4323 -3.6422,9.7681 3.4942,0.8143 5.3464,-5.542 1.0538,-21.4522 9.1214,-5.2817 z"
         id="path84-8-4-5-9-2-0-4-9-9-0-9-5-8"
         sodipodi:nodetypes="cccccccccccccccccc" /><path
         style="display:inline;fill:#c83737;fill-opacity:1;stroke:none;stroke-width:0.313347"
         d="m 1089.0959,-2616.3015 1.8746,-7.512 13.9622,-7.2015 z"
         id="path85-2-6-8-2-2-8-5-6-6-7-9-8-3" /><path
         style="display:inline;fill:#c83737;fill-opacity:1;stroke:none;stroke-width:0.313347"
         d="m 1093.0549,-2630.3734 -2.8583,2.2056 -1.8264,-4.4608 2.5779,-10.0904 z"
         id="path86-8-3-3-8-1-4-7-7-9-4-9-0-7" /><path
         style="display:inline;fill:#c83737;fill-opacity:1;stroke:none;stroke-width:0.313347"
         d="m 1076.075,-2645.2913 7.7589,10.5981 -3.1858,1.6658 -3.611,-3.115"
         id="path88-0-1-5-4-6-7-5-2-4-5-0-6-6" /><path
         style="display:inline;fill:#c83737;fill-opacity:1;stroke:none;stroke-width:0.313347"
         d="m 1057.8728,-2636.1271 13.2417,2.2674 -0.7129,3.1008 -3.4032,0.138 z"
         id="path92-7-8-8-9-1-4-4-6-3-4-6-9-1"
         sodipodi:nodetypes="ccccc" /><path
         style="display:inline;fill:#c83737;fill-opacity:1;stroke:none;stroke-width:0.313347"
         d="m 1058.2756,-2626.7571 -0.097,6.4272 -8.9045,3.8254 z"
         id="path93-6-8-0-4-1-3-0-5-5-6-6-2-7"
         sodipodi:nodetypes="cccc" /><path
         style="display:inline;fill:#ffffff;fill-opacity:1;stroke:#020202;stroke-width:1.24135;stroke-dasharray:none;stroke-opacity:0"
         d="m 1081.6766,-2607.3809 6.1788,-3.332 -0.5031,9.7407 -6.115,3.5633 z"
         id="path214-0-3-5-7-4-8-4-0-3-0-3-9-0-3-9-7-7-6-8-7"
         sodipodi:nodetypes="ccccc" /><path
         style="display:inline;fill:#000000;fill-opacity:0.993007;stroke:#020202;stroke-width:1.24135;stroke-dasharray:none;stroke-opacity:0"
         d="m 1087.6459,-2606.6556 -3.792,2.2302 -0.2533,5.6399 3.7525,-2.1866"
         id="path215-2-6-2-5-2-5-7-1-5-6-8-3-8-0-0-6-3-9-2-7" /><path
         style="display:inline;fill:#ffffff;fill-opacity:1;stroke:#020202;stroke-width:1.24135;stroke-dasharray:none;stroke-opacity:0"
         d="m 1092.0151,-2613.3766 6.179,-3.332 -0.503,9.7407 -6.1153,3.5632 z"
         id="path214-0-5-2-8-62-3-5-0-9-5-0-2-4-5-1-5-3-8-1-0-8"
         sodipodi:nodetypes="ccccc" /><path
         style="display:inline;fill:#000000;fill-opacity:0.993007;stroke:#020202;stroke-width:1.24135;stroke-dasharray:none;stroke-opacity:0"
         d="m 1097.9846,-2612.6514 -3.7922,2.2302 -0.2545,5.6399 3.7527,-2.1867"
         id="path215-2-5-8-3-5-7-1-9-7-2-5-4-7-5-2-1-7-9-1-0-9" /><path
         style="display:inline;fill:#c6862d;fill-opacity:1;stroke:#0c0c0c;stroke-width:0;stroke-linecap:square;stroke-dasharray:none;stroke-opacity:1"
         d="m 1098.1941,-2616.7087 -6.3437,7.2592 -3.8898,1.9713 -6.2842,0.097 -1.2145,-3.4652 19.1251,-9.7194"
         id="path173-1-8-1-8-4-5-6-8"
         sodipodi:nodetypes="cccccc" /><path
         id="path2-0-9-9-4-5-7-5-1-8-24-7-6-8-8-8-9-1-8-4-5-3-7-9"
         style="display:none;fill:#000000;fill-opacity:0.34902;stroke:none;stroke-width:0.559558;stroke-dasharray:none;stroke-opacity:0"
         d="m 1060.9084,-2600.5738 18.341,13.2092 -1.6349,31.6584 -26.6358,-15.422 6.788,-26.1377 z"
         sodipodi:nodetypes="cccccc" /><path
         style="display:inline;fill:#c83737;stroke:#020202;stroke-width:4.59668;stroke-opacity:0"
         d="m 1082.5782,-2570.8408 5.2213,-0.1089 1.988,-3.4726 1.4788,0.6867 -2.1542,9.5416 -7.1518,0.4298"
         id="path121-1-3-0-2-0-1-7-1-1-0-9-9-6-0-7" /><path
         style="display:inline;fill:#782121;fill-opacity:1;stroke:#020202;stroke-width:6.03138;stroke-opacity:0"
         d="m 1060.1998,-2575.5972 -0.8719,4.3388 5.4645,5.1775 0.1293,-6.2092 -1.7323,-0.1488 z"
         id="path212-3-4-6-3-5-8-5-4-7-1-5-4-7-2" /><path
         style="display:inline;fill:#782121;fill-opacity:1;stroke:#020202;stroke-width:6.03138;stroke-opacity:0"
         d="m 1076.2715,-2568.0654 2.8384,-4.8473 3.4683,2.0719 -0.6179,7.0766 z"
         id="path213-0-7-4-2-5-1-4-5-5-7-3-8-0-4" /><path
         style="display:inline;fill:#666666;stroke:#020202;stroke-width:4.59668;stroke-opacity:0"
         d="m 1096.4202,-2580.6835 0.879,2.527 3.4669,0.4687 3.1529,-2.8188 -0.8283,-3.9125 -1.5313,-1.2989 -0.1283,4.1155 -1.9991,1.2428 z"
         id="path87-7-6-2-6-0-6-0-4-2-7-3-9-5-5-4" /><path
         style="display:inline;fill:#4d4d4d;stroke:#020202;stroke-width:4.59668;stroke-opacity:0"
         d="m 1064.9524,-2575.1883 5.209,-17.0725"
         id="path114-5-8-1-6-6-8-6-9-4-5-7-4-3-3-2" /><path
         style="display:inline;fill:#782121;stroke:#020202;stroke-width:4.59668;stroke-opacity:0"
         d="m 1063.6377,-2575.3603 1.4271,0.1866 5.0966,-17.0872 8.9743,16.4051 3.2339,1.7233 -4.8652,-14.931 -0.5111,-5.5786 -6.4695,-6.2649 -4.679,-1.84 0.5333,3.5187 -4.8395,8.0995 -0.072,12.8902"
         id="path115-4-0-7-1-3-8-4-6-2-0-0-1-9-6-9"
         sodipodi:nodetypes="cccccccccccc" /><path
         style="display:inline;fill:#782121;stroke:#020202;stroke-width:4.59668;stroke-opacity:0"
         d="m 1099.432,-2580.3598 -3.501,-6.2112 -6.8776,-2.9131 7.3668,8.8006"
         id="path118-2-3-71-5-8-3-9-2-8-7-2-4-7-8-9" /><path
         style="display:inline;fill:#c83737;stroke:#020202;stroke-width:4.59668;stroke-opacity:0"
         d="m 1095.931,-2586.571 3.501,6.2112 1.999,-1.2427 0.1284,-4.1155 -0.9027,-11.0274 -2.0824,-4.2109 0.1202,-2.4642 -7.3512,0.1509 -1.9683,1.0056 -6.593,6.5156 -5.788,1.1064 0.511,5.5786 4.8653,14.9311 3.8551,0.2829 2.5022,-3.6563 0.3264,-11.9785"
         id="path120-7-1-2-3-5-6-4-5-3-5-8-0-2-2-9"
         sodipodi:nodetypes="cccccccccccccccc" /><path
         style="display:inline;fill:#c83737;stroke:#020202;stroke-width:4.59668;stroke-opacity:0"
         d="m 1069.1356,-2575.8497 5.0923,-8.9775 -4.0665,-7.4336 -5.0966,17.0871 1.2022,0.1574 z"
         id="path123-4-2-0-1-3-3-8-1-6-7-5-0-0-8-6" /><path
         style="display:inline;fill:#c83737;stroke:#020202;stroke-width:4.59668;stroke-opacity:0"
         d="m 1064.7924,-2566.0809 6.9171,-4.0311 -1.6271,-3.3391 -3.4285,1.31 -1.7322,-0.149"
         id="path122-3-1-1-9-4-7-6-6-5-0-3-5-9-3-9" /><path
         style="display:inline;fill:#666666;stroke:#020202;stroke-width:4.59668;stroke-opacity:0"
         d="m 1061.4664,-2578.2385 2.1713,2.8782 2.6293,0.344 2.8686,-0.8334 0.9468,2.3986 -3.4285,1.31 -3.4645,-0.2977 -2.9896,-3.1584"
         id="path73-2-2-7-6-4-2-9-4-6-6-6-0-1-9-9" /><path
         style="display:inline;fill:#666666;stroke:#020202;stroke-width:4.59668;stroke-opacity:0"
         d="m 1079.1357,-2575.8557 -0.026,2.943 3.4683,2.0719 5.2213,-0.1089 1.988,-3.4726 -1.0606,-3.0833 -2.5022,3.6564 -3.8551,-0.283 z"
         id="path75-8-0-1-6-7-7-3-8-5-2-1-8-6-3-4" /><path
         style="display:inline;fill:#782121;stroke:#020202;stroke-width:4.59668;stroke-opacity:0"
         d="m 1100.7661,-2577.6878 1.6648,4.8228 -5.3402,-0.6439 0.2086,-4.6476"
         id="path117-2-8-7-3-8-2-6-2-3-3-8-5-1-4-8" /><path
         style="display:inline;fill:#c83737;stroke:#020202;stroke-width:4.59668;stroke-opacity:0"
         d="m 1102.4309,-2572.865 4.8914,-3.5109 -0.6701,-7.3513 -3.5615,-0.6919 0.8283,3.9125 -3.1529,2.8188"
         id="path119-5-5-3-8-4-4-1-2-6-3-3-1-1-7-3" /><path
         style="display:none;fill:#a9ffff;fill-opacity:1;stroke:none;stroke-width:0.313347"
         d="m 1007.4011,-2621.7599 15.2468,-4.5217 13.3633,-6.8349 7.0271,3.7759 -13.3634,6.8349"
         id="path44-2-4-8-6-4-8-4-9-5-2-5-9-2"
         sodipodi:nodetypes="ccccc" /><path
         style="display:none;fill:#b7b7b7;fill-opacity:1;stroke:none;stroke-width:0.313347"
         d="m 1011.5976,-2621.9004 8.6947,30.1632 -2.7824,1.6328 -10.1088,-31.6555"
         id="path43-5-7-7-6-5-3-8-4-3-4-3-2-6"
         sodipodi:nodetypes="cccc" /><path
         style="display:none;fill:#8d4c01;fill-opacity:1;stroke:none;stroke-width:0.313347"
         d="m 1024.7258,-2632.4927 5.3616,2.4061 7.5693,-5.3503 z m 3.9531,4.7971"
         id="path45-3-4-8-18-2-0-3-5-7-5-0-5-3-4"
         sodipodi:nodetypes="cccc" /><path
         style="display:none;fill:#8d4c01;fill-opacity:1;stroke:none;stroke-width:0.313347"
         d="m 1041.5481,-2572.9927 5.3616,2.406 7.5693,-5.3503 z m 3.9531,4.797"
         id="path45-1-6-3-8-1-3-6-5-0-8-0-8-3-2"
         sodipodi:nodetypes="cccc" /><path
         style="display:none;fill:#663300;fill-opacity:1;stroke:none;stroke-width:0.313347"
         d="m 1030.0874,-2630.0866 16.8223,59.4999 7.5693,-5.3503 -16.8223,-59.4999"
         id="path51-2-0-9-0-5-7-0-8-9-9-0-1-0" /><path
         style="display:none;fill:#330000;fill-opacity:1;stroke:none;stroke-width:0.313347"
         d="m 1024.7258,-2632.4927 16.8223,59.5 5.3616,2.406 -16.8223,-59.4999"
         id="path52-1-7-1-6-0-6-7-8-9-7-1-2-3" /><path
         style="display:none;fill:#858585;fill-opacity:1;stroke:none;stroke-width:0.313347"
         d="m 1043.0383,-2629.3407 -13.3633,6.8349 -22.2739,0.7459 10.1088,31.6555 8.9335,-5.2474 8.0216,-16.3836 9.0649,-4.9135 2.1947,-2.5828"
         id="path42-9-0-6-1-6-3-2-6-7-4-9-3-0" /><path
         style="display:none;fill:#a9ffff;fill-opacity:1;stroke:none;stroke-width:0.313347"
         d="m 1026.237,-2627.1477 5.3616,2.4061 7.5693,-5.3503 3.8704,0.7513 -13.3633,6.8348 -4.3379,0.1453"
         id="path53-9-0-9-8-7-5-5-2-1-7-5-8-4" /><rect
         style="display:none;fill:#333333;fill-opacity:1;stroke:none;stroke-width:0.0467912;stroke-dasharray:none;stroke-opacity:1"
         id="rect4-9-3-7-9-8-8-9-6-8-0-7-9-7-6-4-3-4-1-3-3-3-4-9"
         width="14.928728"
         height="14.928728"
         x="-1731.9346"
         y="-2987.0098"
         transform="matrix(0.83839296,0.54506627,-0.83839296,0.54506627,0,0)" /></g></g></svg>
