<?xml version="1.0" encoding="UTF-8" standalone="no"?>
<!-- Created with Inkscape (http://www.inkscape.org/) -->

<svg
   width="217.4911mm"
   height="171.70711mm"
   viewBox="0 0 217.4911 171.70711"
   version="1.1"
   id="svg1"
   inkscape:version="1.3 (0e150ed6c4, 2023-07-21)"
   sodipodi:docname="Dwarves mina.svg"
   xml:space="preserve"
   xmlns:inkscape="http://www.inkscape.org/namespaces/inkscape"
   xmlns:sodipodi="http://sodipodi.sourceforge.net/DTD/sodipodi-0.dtd"
   xmlns="http://www.w3.org/2000/svg"
   xmlns:svg="http://www.w3.org/2000/svg"><sodipodi:namedview
     id="namedview1"
     pagecolor="#ffffff"
     bordercolor="#000000"
     borderopacity="0.25"
     inkscape:showpageshadow="2"
     inkscape:pageopacity="0.0"
     inkscape:pagecheckerboard="0"
     inkscape:deskcolor="#d1d1d1"
     inkscape:document-units="mm"
     showgrid="false"
     inkscape:zoom="0.03125"
     inkscape:cx="17503.649"
     inkscape:cy="-1089.6468"
     inkscape:window-width="1920"
     inkscape:window-height="991"
     inkscape:window-x="-9"
     inkscape:window-y="-9"
     inkscape:window-maximized="1"
     inkscape:current-layer="layer1"
     showguides="false"
     inkscape:rotation="1"><inkscape:grid
       id="grid1"
       units="mm"
       originx="-26140.893"
       originy="-10158.285"
       spacingx="0.99999998"
       spacingy="1"
       empcolor="#0099e5"
       empopacity="0.30196078"
       color="#0099e5"
       opacity="0.14901961"
       empspacing="5"
       dotted="false"
       gridanglex="30"
       gridanglez="30"
       visible="false" /><sodipodi:guide
       position="-4330.1308,3966.5542"
       orientation="1,0"
       id="guide117"
       inkscape:locked="false" /></sodipodi:namedview><defs
     id="defs1" /><g
     inkscape:label="Capa 1"
     inkscape:groupmode="layer"
     id="layer1"
     transform="translate(-6916.4445,-2687.7128)"><g
       id="g74-4-5-2-7-6-1-4-1-2-6"
       transform="translate(9794.0563,1809.8253)"><g
         id="g184-64-6-1-9-4-5-1-2-3-6-2-4-0-5-0-2-1"
         transform="translate(-1683.0999,12.790023)"><path
           style="fill:#28b152;fill-opacity:1;stroke-width:0.3;-inkscape-stroke:none"
           d="m -1104.7582,1001.9928 1.3097,-25.06985 -7.4046,-4.8899 -7.3422,-8.2683 -0.066,-14.4859 1.9182,-9.1281 3.9688,-2.5797 5.8208,3.4396 -0.3307,13.7583 6.4822,6.0193 -0.2645,-49.87404 3.9026,-6.08541 6.4823,0.19843 3.5057,5.35782 0.066,42.7303 3.3073,-1.1907 0.1984,-14.2939 4.8949,-4.8222 5.4901,1.9182 1.7198,2.8443 0.6614,19.1823 -3.9687,12.0385 -12.7,9.062 3.4395,19.7776 -3.7041,6.08535 -11.6417,1.6537 -5.9531,-2.9766"
           id="path83-5-8-3-1-67-5-7-3-3-8-8-1-57-2-9-2-6"
           sodipodi:nodetypes="ccccccccccccccccccccccccccc" /><path
           id="path84-3-7-9-7-1-0-8-0-6-1-0-8-3-8-8-7-3"
           style="fill:#2e5b4b;fill-opacity:1;stroke-width:0.3;-inkscape-stroke:none"
           d="m -1100.6667,910.91442 0.2646,49.87396 2.5797,2.97657 v -50.0724 z m -15.6765,29.23646 -1.9183,9.12813 0.066,14.48594 2.4474,-1.78594 1.6536,-17.39636 z" /><path
           id="path86-97-8-1-36-31-0-7-7-6-2-6-0-0-0-4-17-0"
           style="fill:#86e9a4;fill-opacity:1;stroke-width:0.3;-inkscape-stroke:none"
           d="m -1096.7641,904.82901 -3.9026,6.08541 2.8443,2.77813 2.7781,0.26458 8.2683,-3.57187 -3.5058,-5.35781 z m 18.4547,27.97969 -4.8948,4.82192 2.712,2.52026 7.6729,-5.42396 z m -34.0651,4.7625 -3.9687,2.57968 2.2489,4.43177 4.4814,-2.19935 0.1488,-3.09231 z"
           sodipodi:nodetypes="cccccccccccccccccc" /><path
           id="path93-5-3-7-0-51-5-8-8-0-7-6-2-76-9-7-3-0"
           style="fill:#86e9a4;fill-opacity:1;stroke-width:0.3;-inkscape-stroke:none"
           d="m -1086.776,910.38526 -4.1672,6.81302 -0.6615,37.50469 1.1906,5.15937 2.3813,-1.45521 1.3229,-5.29166 z m 15.6765,27.18594 -3.638,3.43958 0.3307,27.78125 3.9688,-12.03854 z m -35.4541,3.43958 -2.9105,3.57187 v 12.96459 l 6.8131,7.47448 2.2489,-4.23334 -6.4823,-6.01927 z m 19.6343,37.92084 -3.0979,2.49426 2.6458,22.29112 3.7042,-6.08539 z"
           sodipodi:nodetypes="cccccccccccccccccccccccc" /><path
           id="path94-8-3-0-62-6-7-3-2-8-8-4-4-7-7-0-3-0"
           style="fill:#148234;fill-opacity:1;stroke-width:0.3;-inkscape-stroke:none"
           d="m -1086.776,910.38526 -8.2683,3.57187 -2.7781,7.14375 6.8792,-3.9026 z m -4.3047,14.61461 -6.7417,13.72888 6.2957,11.53314 z m 10.5885,18.98747 -0.3969,11.9724 -2.5135,-4.0349 -3.3073,1.19063 -1.3229,5.29166 6.0854,-0.85989 6.4823,-5.58933 -5.0271,-7.37526 z m -17.3302,11.9724 v 7.80521 l 3.4727,-5.55625 z m 0,7.80521 -2.5797,-2.97657 -2.2489,4.23334 -0.7974,11.90108 z m -11.65,-6.43268 -6.2755,4.64674 6.2755,10.7211 z m 34.9262,-0.25215 -8.8564,5.89108 8.9958,5.82083 z m 0.1394,11.71191 -18.8515,2.44739 3.2411,10.18646 z m -17.8578,20.37292 -4.2008,15.84345 9.094,-1.2914 z"
           sodipodi:nodetypes="ccccccccccccccccccccccccccccccccccccccccccc" /><path
           style="fill:#86e9a4;fill-opacity:1;stroke-width:0.3;-inkscape-stroke:none"
           d="m -1086.7759,910.38505 0.066,42.7303 -1.3229,5.2916 -2.3812,1.4552 -1.1907,-5.1594 0.6615,-37.50468 4.1673,-6.81302"
           id="path101-94-3-6-42-7-6-3-7-3-6-2-0-6-23-3-8-9" /><path
           style="fill:#2e5b4b;fill-opacity:1;stroke-width:0.3;-inkscape-stroke:none"
           d="m -1080.4922,940.15075 -0.3968,15.8088 -2.5136,-4.0349 0.1984,-14.2939"
           id="path105-08-1-5-6-13-10-6-6-7-3-5-3-1-7-4-93-9" /><path
           style="fill:#2e5b4b;fill-opacity:1;stroke-width:0.3;-inkscape-stroke:none"
           d="m -1103.5092,978.08395 4.7608,9.824 -6.2177,14.48595 z"
           id="path182-2-1-3-40-1-6-8-0-5-5-7-3-4-3-7-6-7" /></g><g
         id="g184-41-28-1-0-4-6-93-9-9-1-4-6-2-5-9-3-1-6"
         transform="matrix(-1.2308118,0,0,1.2342327,-4036.4899,-198.10304)"><path
           style="fill:#d4346d;fill-opacity:1;stroke-width:0.3;-inkscape-stroke:none"
           d="m -1104.7582,1001.9928 1.3097,-25.06985 -7.4046,-4.8899 -7.3422,-8.2683 -0.066,-14.4859 1.9182,-9.1281 3.9688,-2.5797 5.8208,3.4396 -0.3307,13.7583 6.4822,6.0193 -0.2645,-49.87404 3.9026,-6.08541 6.4823,0.19843 3.5057,5.35782 0.066,42.7303 3.3073,-1.1907 0.1984,-14.2939 4.8949,-4.8222 5.4901,1.9182 1.7198,2.8443 0.6614,19.1823 -3.9687,12.0385 -12.7,9.062 3.4395,19.7776 -3.7041,6.08535 -11.6417,1.6537 -5.9531,-2.9766"
           id="path83-0-87-3-4-6-5-7-7-0-2-3-5-7-8-4-6-86-2"
           sodipodi:nodetypes="ccccccccccccccccccccccccccc" /><path
           id="path84-5-0-4-1-4-9-6-4-5-7-6-7-8-6-8-9-9-2"
           style="fill:#f4a9c4;fill-opacity:1;stroke-width:0.3;-inkscape-stroke:none"
           d="m -1100.6667,910.91442 0.2646,49.87396 2.5797,2.97657 v -50.0724 z m -15.6765,29.23646 -1.9183,9.12813 0.066,14.48594 2.4474,-1.78594 1.6536,-17.39636 z" /><path
           id="path86-1-48-9-3-9-98-1-2-2-3-0-9-5-4-04-3-3-2"
           style="fill:#f4a9c4;fill-opacity:1;stroke-width:0.3;-inkscape-stroke:none"
           d="m -1096.7641,904.82901 -3.9026,6.08541 2.8443,2.77813 2.7781,0.26458 8.2683,-3.57187 -3.5058,-5.35781 z m 18.4547,27.97969 -4.8948,4.82192 2.712,2.52026 7.6729,-5.42396 z m -34.0651,4.7625 -3.9687,2.57968 2.2489,4.43177 4.4814,-2.19935 0.1488,-3.09231 z"
           sodipodi:nodetypes="cccccccccccccccccc" /><path
           id="path93-1-58-0-7-6-1-4-9-0-1-7-7-2-65-4-00-4-9"
           style="fill:#50192c;fill-opacity:1;stroke-width:0.3;-inkscape-stroke:none"
           d="m -1086.776,910.38526 -4.1672,6.81302 -0.6615,37.50469 1.1906,5.15937 2.3813,-1.45521 1.3229,-5.29166 z m 15.6765,27.18594 -3.638,3.43958 0.3307,27.78125 3.9688,-12.03854 z m -35.4541,3.43958 -2.9105,3.57187 v 12.96459 l 6.8131,7.47448 2.2489,-4.23334 -6.4823,-6.01927 z m 19.6343,37.92084 -3.0979,2.49426 2.6458,22.29112 3.7042,-6.08539 z"
           sodipodi:nodetypes="cccccccccccccccccccccccc" /><path
           id="path94-1-9-4-9-5-36-7-8-2-9-4-0-2-2-5-3-6-1"
           style="fill:#96203f;fill-opacity:1;stroke-width:0.3;-inkscape-stroke:none"
           d="m -1086.776,910.38526 -8.2683,3.57187 -2.7781,7.14375 6.8792,-3.9026 z m -4.3047,14.61461 -6.7417,13.72888 6.2957,11.53314 z m 10.5885,18.98747 -0.3969,11.9724 -2.5135,-4.0349 -3.3073,1.19063 -1.3229,5.29166 6.0854,-0.85989 6.4823,-5.58933 -5.0271,-7.37526 z m -17.3302,11.9724 v 7.80521 l 3.4727,-5.55625 z m 0,7.80521 -2.5797,-2.97657 -2.2489,4.23334 -0.7974,11.90108 z m -11.65,-6.43268 -6.2755,4.64674 6.2755,10.7211 z m 34.9262,-0.25215 -8.8564,5.89108 8.9958,5.82083 z m 0.1394,11.71191 -18.8515,2.44739 3.2411,10.18646 z m -17.8578,20.37292 -4.2008,15.84345 9.094,-1.2914 z"
           sodipodi:nodetypes="ccccccccccccccccccccccccccccccccccccccccccc" /><path
           style="fill:#50192c;fill-opacity:1;stroke-width:0.3;-inkscape-stroke:none"
           d="m -1086.7759,910.38505 0.066,42.7303 -1.3229,5.2916 -2.3812,1.4552 -1.1907,-5.1594 0.6615,-37.50468 4.1673,-6.81302"
           id="path101-1-50-5-8-96-7-0-3-0-1-7-8-0-6-8-1-3-1" /><path
           style="fill:#b76584;fill-opacity:1;stroke-width:0.3;-inkscape-stroke:none"
           d="m -1080.4922,940.15075 -0.3968,15.8088 -2.5136,-4.0349 0.1984,-14.2939"
           id="path105-0-7-3-4-2-4-8-3-4-9-2-5-3-6-4-74-3-2" /><path
           style="fill:#f4a9c4;fill-opacity:1;stroke-width:0.3;-inkscape-stroke:none"
           d="m -1103.5092,978.08395 4.7608,9.824 -6.2177,14.48595 z"
           id="path182-84-0-3-1-66-05-0-3-4-8-5-1-4-3-0-3-7-9" /></g><g
         id="g184-41-8-3-1-6-52-64-0-3-6-3-2-3-0-87-3-4-4-0"
         transform="matrix(-0.78422845,0,0,0.77223783,-3675.7551,179.14451)"
         inkscape:transform-center-x="-20.205576"
         inkscape:transform-center-y="-26.192414"><path
           style="fill:#339fb8;fill-opacity:1;stroke-width:0.3;-inkscape-stroke:none"
           d="m -1104.7582,1001.9928 1.3097,-25.06985 -7.4046,-4.8899 -7.3422,-8.2683 -0.066,-14.4859 1.9182,-9.1281 3.9688,-2.5797 5.8208,3.4396 -0.3307,13.7583 6.4822,6.0193 -0.2645,-49.87404 3.9026,-6.08541 6.4823,0.19843 3.5057,5.35782 0.066,42.7303 3.3073,-1.1907 0.1984,-14.2939 4.8949,-4.8222 5.4901,1.9182 1.7198,2.8443 0.6614,19.1823 -3.9687,12.0385 -12.7,9.062 3.4395,19.7776 -3.7041,6.08535 -11.6417,1.6537 -5.9531,-2.9766"
           id="path83-0-1-98-6-8-1-7-3-5-5-9-1-1-3-6-7-3-3-8"
           sodipodi:nodetypes="ccccccccccccccccccccccccccc" /><path
           id="path84-5-8-9-6-4-2-34-5-7-5-0-1-3-7-7-0-6-4-2"
           style="fill:#8fd9e9;fill-opacity:1;stroke-width:0.3;-inkscape-stroke:none"
           d="m -1100.6667,910.91442 0.2646,49.87396 2.5797,2.97657 v -50.0724 z m -15.6765,29.23646 -1.9183,9.12813 0.066,14.48594 2.4474,-1.78594 1.6536,-17.39636 z" /><path
           id="path86-1-7-2-6-2-7-0-6-7-8-2-6-9-8-0-1-8-40-2"
           style="fill:#8fd9e9;fill-opacity:1;stroke-width:0.3;-inkscape-stroke:none"
           d="m -1096.7641,904.82901 -3.9026,6.08541 2.8443,2.77813 2.7781,0.26458 8.2683,-3.57187 -3.5058,-5.35781 z m 18.4547,27.97969 -4.8948,4.82192 2.712,2.52026 7.6729,-5.42396 z m -34.0651,4.7625 -3.9687,2.57968 2.2489,4.43177 4.4814,-2.19935 0.1488,-3.09231 z"
           sodipodi:nodetypes="cccccccccccccccccc" /><path
           id="path93-1-5-74-9-7-0-3-1-8-3-5-1-0-2-3-9-6-5-3"
           style="fill:#1a4350;fill-opacity:1;stroke-width:0.3;-inkscape-stroke:none"
           d="m -1086.776,910.38526 -4.1672,6.81302 -0.6615,37.50469 1.1906,5.15937 2.3813,-1.45521 1.3229,-5.29166 z m 15.6765,27.18594 -3.638,3.43958 0.3307,27.78125 3.9688,-12.03854 z m -35.4541,3.43958 -2.9105,3.57187 v 12.96459 l 6.8131,7.47448 2.2489,-4.23334 -6.4823,-6.01927 z m 19.6343,37.92084 -3.0979,2.49426 2.6458,22.29112 3.7042,-6.08539 z"
           sodipodi:nodetypes="cccccccccccccccccccccccc" /><path
           id="path94-1-7-4-4-6-15-09-3-2-6-3-7-2-8-3-0-1-0-0"
           style="fill:#177e8f;fill-opacity:1;stroke-width:0.3;-inkscape-stroke:none"
           d="m -1086.776,910.38526 -8.2683,3.57187 -2.7781,7.14375 6.8792,-3.9026 z m -4.3047,14.61461 -6.7417,13.72888 6.2957,11.53314 z m 10.5885,18.98747 -0.3969,11.9724 -2.5135,-4.0349 -3.3073,1.19063 -1.3229,5.29166 6.0854,-0.85989 6.4823,-5.58933 -5.0271,-7.37526 z m -17.3302,11.9724 v 7.80521 l 3.4727,-5.55625 z m 0,7.80521 -2.5797,-2.97657 -2.2489,4.23334 -0.7974,11.90108 z m -11.65,-6.43268 -6.2755,4.64674 6.2755,10.7211 z m 34.9262,-0.25215 -8.8564,5.89108 8.9958,5.82083 z m 0.1394,11.71191 -18.8515,2.44739 3.2411,10.18646 z m -17.8578,20.37292 -4.2008,15.84345 9.094,-1.2914 z"
           sodipodi:nodetypes="ccccccccccccccccccccccccccccccccccccccccccc" /><path
           style="fill:#1a4350;fill-opacity:1;stroke-width:0.3;-inkscape-stroke:none"
           d="m -1086.7759,910.38505 0.066,42.7303 -1.3229,5.2916 -2.3812,1.4552 -1.1907,-5.1594 0.6615,-37.50468 4.1673,-6.81302"
           id="path101-1-5-9-0-1-2-3-2-0-8-6-3-6-3-1-2-5-13-7" /><path
           style="fill:#67b0c1;fill-opacity:1;stroke-width:0.3;-inkscape-stroke:none"
           d="m -1080.4922,940.15075 -0.3968,15.8088 -2.5136,-4.0349 0.1984,-14.2939"
           id="path105-0-4-6-8-3-14-9-3-0-3-2-6-8-7-3-81-2-2-5" /><path
           style="fill:#8fd9e9;fill-opacity:1;stroke-width:0.3;-inkscape-stroke:none"
           d="m -1103.5092,978.08395 4.7608,9.824 -6.2177,14.48595 z"
           id="path182-84-5-6-5-3-9-3-65-2-1-7-6-4-7-0-3-6-2-3" /></g><g
         id="g184-41-2-2-8-3-46-2-7-0-5-4-3-9-9-7-4-6-11-6"
         transform="matrix(-0.99568075,0,0,1.005423,-3943.4264,38.772083)"><path
           style="fill:#355f51;fill-opacity:1;stroke-width:0.3;-inkscape-stroke:none"
           d="m -1104.7582,1001.9928 1.3097,-25.06985 -7.4046,-4.8899 -7.3422,-8.2683 -0.066,-14.4859 1.9182,-9.1281 3.9688,-2.5797 5.8208,3.4396 -0.3307,13.7583 6.4822,6.0193 -0.2645,-49.87404 3.9026,-6.08541 6.4823,0.19843 3.5057,5.35782 0.066,42.7303 3.3073,-1.1907 0.1984,-14.2939 4.8949,-4.8222 5.4901,1.9182 1.7198,2.8443 0.6614,19.1823 -3.9687,12.0385 -12.7,9.062 3.4395,19.7776 -3.7041,6.08535 -11.6417,1.6537 -5.9531,-2.9766"
           id="path83-0-8-8-8-3-2-6-6-8-7-5-2-7-2-5-2-4-8-6"
           sodipodi:nodetypes="ccccccccccccccccccccccccccc" /><path
           id="path84-5-1-1-1-8-7-3-7-5-5-1-2-5-9-6-6-1-2-8"
           style="fill:#6bcfb0;fill-opacity:1;stroke-width:0.3;-inkscape-stroke:none"
           d="m -1100.6667,910.91442 0.2646,49.87396 2.5797,2.97657 v -50.0724 z m -15.6765,29.23646 -1.9183,9.12813 0.066,14.48594 2.4474,-1.78594 1.6536,-17.39636 z" /><path
           id="path86-1-6-8-3-5-55-07-8-6-1-3-6-0-0-8-0-4-10-4"
           style="fill:#6bcfb0;fill-opacity:1;stroke-width:0.3;-inkscape-stroke:none"
           d="m -1096.7641,904.82901 -3.9026,6.08541 2.8443,2.77813 2.7781,0.26458 8.2683,-3.57187 -3.5058,-5.35781 z m 18.4547,27.97969 -4.8948,4.82192 2.712,2.52026 7.6729,-5.42396 z m -34.0651,4.7625 -3.9687,2.57968 2.2489,4.43177 4.4814,-2.19935 0.1488,-3.09231 z"
           sodipodi:nodetypes="cccccccccccccccccc" /><path
           id="path93-1-4-6-0-4-2-7-3-9-4-1-3-4-9-9-7-9-4-0"
           style="fill:#192d27;fill-opacity:1;stroke-width:0.3;-inkscape-stroke:none"
           d="m -1086.776,910.38526 -4.1672,6.81302 -0.6615,37.50469 1.1906,5.15937 2.3813,-1.45521 1.3229,-5.29166 z m 15.6765,27.18594 -3.638,3.43958 0.3307,27.78125 3.9688,-12.03854 z m -35.4541,3.43958 -2.9105,3.57187 v 12.96459 l 6.8131,7.47448 2.2489,-4.23334 -6.4823,-6.01927 z m 19.6343,37.92084 -3.0979,2.49426 2.6458,22.29112 3.7042,-6.08539 z"
           sodipodi:nodetypes="cccccccccccccccccccccccc" /><path
           id="path94-1-72-9-2-2-38-6-2-0-7-2-4-7-8-4-7-7-6-2"
           style="fill:#088c60;fill-opacity:1;stroke-width:0.3;-inkscape-stroke:none"
           d="m -1086.776,910.38526 -8.2683,3.57187 -2.7781,7.14375 6.8792,-3.9026 z m -4.3047,14.61461 -6.7417,13.72888 6.2957,11.53314 z m 10.5885,18.98747 -0.3969,11.9724 -2.5135,-4.0349 -3.3073,1.19063 -1.3229,5.29166 6.0854,-0.85989 6.4823,-5.58933 -5.0271,-7.37526 z m -17.3302,11.9724 v 7.80521 l 3.4727,-5.55625 z m 0,7.80521 -2.5797,-2.97657 -2.2489,4.23334 -0.7974,11.90108 z m -11.65,-6.43268 -6.2755,4.64674 6.2755,10.7211 z m 34.9262,-0.25215 -8.8564,5.89108 8.9958,5.82083 z m 0.1394,11.71191 -18.8515,2.44739 3.2411,10.18646 z m -17.8578,20.37292 -4.2008,15.84345 9.094,-1.2914 z"
           sodipodi:nodetypes="ccccccccccccccccccccccccccccccccccccccccccc" /><path
           style="fill:#192d27;fill-opacity:1;stroke-width:0.3;-inkscape-stroke:none"
           d="m -1086.7759,910.38505 0.066,42.7303 -1.3229,5.2916 -2.3812,1.4552 -1.1907,-5.1594 0.6615,-37.50468 4.1673,-6.81302"
           id="path101-1-8-4-7-0-0-2-0-1-2-4-4-6-2-0-1-9-3-6" /><path
           style="fill:#6bcfb0;fill-opacity:1;stroke-width:0.3;-inkscape-stroke:none"
           d="m -1080.4922,940.15075 -0.3968,15.8088 -2.5136,-4.0349 0.1984,-14.2939"
           id="path105-0-3-5-6-0-08-40-1-7-8-5-4-1-8-1-3-3-5-4" /><path
           style="fill:#6bcfb0;fill-opacity:1;stroke-width:0.3;-inkscape-stroke:none"
           d="m -1103.5092,978.08395 4.7608,9.824 -6.2177,14.48595 z"
           id="path182-84-6-2-9-4-8-1-5-6-5-1-4-3-9-6-2-7-5-1" /></g></g></g></svg>
