<?xml version="1.0" encoding="UTF-8" standalone="no"?>
<!-- Created with Inkscape (http://www.inkscape.org/) -->

<svg
   width="128.95285mm"
   height="104.90549mm"
   viewBox="0 0 128.95285 104.90549"
   version="1.1"
   id="svg1"
   inkscape:version="1.3 (0e150ed6c4, 2023-07-21)"
   sodipodi:docname="Dwarves mina.svg"
   xml:space="preserve"
   xmlns:inkscape="http://www.inkscape.org/namespaces/inkscape"
   xmlns:sodipodi="http://sodipodi.sourceforge.net/DTD/sodipodi-0.dtd"
   xmlns="http://www.w3.org/2000/svg"
   xmlns:svg="http://www.w3.org/2000/svg"><sodipodi:namedview
     id="namedview1"
     pagecolor="#ffffff"
     bordercolor="#000000"
     borderopacity="0.25"
     inkscape:showpageshadow="2"
     inkscape:pageopacity="0.0"
     inkscape:pagecheckerboard="0"
     inkscape:deskcolor="#d1d1d1"
     inkscape:document-units="mm"
     showgrid="false"
     inkscape:zoom="0.03125"
     inkscape:cx="17503.649"
     inkscape:cy="-1089.6468"
     inkscape:window-width="1920"
     inkscape:window-height="991"
     inkscape:window-x="-9"
     inkscape:window-y="-9"
     inkscape:window-maximized="1"
     inkscape:current-layer="layer1"
     showguides="false"
     inkscape:rotation="1"><inkscape:grid
       id="grid1"
       units="mm"
       originx="-25336.711"
       originy="-10813.951"
       spacingx="0.99999998"
       spacingy="1"
       empcolor="#0099e5"
       empopacity="0.30196078"
       color="#0099e5"
       opacity="0.14901961"
       empspacing="5"
       dotted="false"
       gridanglex="30"
       gridanglez="30"
       visible="false" /><sodipodi:guide
       position="-4117.3579,4140.0325"
       orientation="1,0"
       id="guide117"
       inkscape:locked="false" /></sodipodi:namedview><defs
     id="defs1" /><g
     inkscape:label="Capa 1"
     inkscape:groupmode="layer"
     id="layer1"
     transform="translate(-6703.6715,-2861.1911)"><g
       id="g212-1-8-6-6-0-4"
       transform="matrix(1.11,0,0,1.11,8298.8317,2172.5487)"
       inkscape:export-filename="SVG\fruit_acorn.svg"
       inkscape:export-xdpi="96"
       inkscape:export-ydpi="96"><g
         id="g206-3-8-8-6-4-6-2"
         transform="rotate(-54.741712,-1910.4432,904.64788)"><g
           id="g200-9-6-16-6-5-9-2-3-5"
           transform="translate(-15.6105,105.10574)"><path
             style="fill:#773916;fill-opacity:0.980392;stroke-width:0.264583;stroke-opacity:0.49481"
             d="m -1346.2911,1099.6349 -8.8857,5.5914 -16.3702,2.3386 -12.4452,-4.1258 -4.1122,-2.111 -3.3393,-6.6146 2.1828,-12.2039 8.0036,-10.9471 2.3151,-1.9182 5.1263,-3.2082 3.9357,1.0253 8.0698,2.6459 6.4823,4.6963 8.4005,8.1525 3.5057,5.0543 z"
             id="path200-02-8-0-5-7-5-0-1-9"
             sodipodi:nodetypes="cccccccccccccccc" /><path
             style="fill:#381c00;fill-opacity:1;stroke-width:0.264583;stroke-opacity:0.49481"
             d="m -1384.763,1098.7717 12.3693,5.6653 16.1396,-2.7782 8.8635,-8.9296 -7.5406,-6.1516 -14.949,-0.6615 -11.3771,6.6808 -3.5718,6.1748"
             id="path96-9-1-0-0-7-8-2-0-5" /><path
             style="fill:#3f0a00;fill-opacity:1;stroke-width:0.264583;stroke-opacity:0.49481"
             d="m -1370.3432,1078.4417 0.463,7.4744 14.949,0.6615 z"
             id="path98-7-6-6-8-5-3-3-7-0" /><path
             style="fill:#e05c1b;fill-opacity:1;stroke-width:0.264583;stroke-opacity:0.49481"
             d="m -1370.3432,1078.4417 16.4042,1.9843 -0.9922,6.1516"
             id="path99-5-2-2-4-9-0-4-0-64" /><path
             style="fill:#3f0a00;fill-opacity:1;stroke-width:0.264583;stroke-opacity:0.49481"
             d="m -1347.3906,1092.7292 -6.5484,-12.3032 -0.9922,6.1516 7.5406,6.1516"
             id="path100-5-1-91-3-8-6-0-2-7" /><path
             style="fill:#d8875f;fill-opacity:1;stroke-width:0.264583;stroke-opacity:0.49481"
             d="m -1347.3906,1092.7292 3.9687,-4.7188 -10.5171,-7.5844"
             id="path101-0-5-8-5-7-5-3-0-9" /><path
             style="fill:#482400;fill-opacity:1;stroke-width:0.264583;stroke-opacity:0.49481"
             d="m -1355.3281,1074.8036 1.3891,5.6224 10.5171,7.5844 z"
             id="path102-4-0-8-1-2-4-1-6-5" /><path
             style="fill:#3f0a00;fill-opacity:1;stroke-width:0.264583;stroke-opacity:0.49481"
             d="m -1370.3432,1078.4417 -1.7198,-6.4162 18.124,8.4005 -16.4042,-1.9843"
             id="path103-9-1-9-8-2-5-6-4-4" /><path
             style="fill:#1d1d1d;fill-opacity:1;stroke-width:0.264583;stroke-opacity:0.49481"
             d="m -1385.1599,1078.0448 0.5953,7.5406 14.2214,-7.1437 z"
             id="path104-6-4-0-7-9-6-0-1-4" /><path
             style="fill:#1d1d1d;fill-opacity:1;stroke-width:0.264583;stroke-opacity:0.49481"
             d="m -1384.5646,1085.5854 h -5.4239 l -1.4552,9.1281"
             id="path105-11-7-3-6-2-0-3-6-7" /><path
             style="fill:#1d1d1d;fill-opacity:1;stroke-width:0.264583;stroke-opacity:0.49481"
             d="m -1381.2573,1092.5969 -10.1864,2.1166 6.6146,4.0582 z"
             id="path106-3-0-2-4-2-1-0-4-0" /><path
             style="fill:#1d1d1d;fill-opacity:1;stroke-width:0.264583;stroke-opacity:0.49481"
             d="m -1381.2573,1092.5969 -3.3073,-7.0115 14.6844,0.3307 z"
             id="path134-3-2-1-0-8-2-1-4-6" /><path
             style="fill:#1d1d1d;fill-opacity:1;stroke-width:0.264583;stroke-opacity:0.49481"
             d="m -1385.1599,1078.0448 13.0969,-6.0193 -9.1943,-0.463"
             id="path138-78-5-4-5-2-4-1-6-8" /><path
             style="fill:#1d1d1d;fill-opacity:1;stroke-width:0.264583;stroke-opacity:0.49481"
             d="m -1384.8291,1098.7717 -3.2753,2.5564 4.1122,2.111 -0.8369,-2.9378 z"
             id="path144-0-4-6-5-0-4-6-9-4"
             sodipodi:nodetypes="ccccc" /><path
             style="fill:#3f0a00;fill-opacity:1;stroke-width:0.264583;stroke-opacity:0.49481"
             d="m -1343.4219,1088.0104 -2.8692,11.6245 -1.0995,-6.9057"
             id="path145-67-9-0-2-0-4-8-1-2"
             sodipodi:nodetypes="ccc" /><path
             style="fill:#3f0a00;fill-opacity:1;stroke-width:0.264583;stroke-opacity:0.49481"
             d="m -1372.063,1072.0255 -1.3891,-4.1672 18.124,6.9453 -16.7349,-2.7781"
             id="path182-1-8-6-6-5-0-1-8-8" /><path
             style="fill:#1d1d1d;fill-opacity:1;stroke-width:0.264583;stroke-opacity:0.49481"
             d="m -1378.9422,1069.6443 5.4901,-1.786 -0.7276,-2.8443 -2.5135,-4.0348 0.1323,-4.6964 3.1088,-8.5328 -1.9843,-0.8599 -3.7042,8.9297 0.1984,6.4161 2.3813,3.0427 z"
             id="path183-2-3-8-6-4-8-2-3-6" /><path
             style="fill:#cf5a21;fill-opacity:1;stroke-width:0.264583;stroke-opacity:0.49481"
             d="m -1353.939,1080.426 -1.3891,-5.6224 -16.7349,-2.7781 18.124,8.4005"
             id="path184-8-1-6-4-1-4-7-7-3" /><path
             style="fill:#ab4308;fill-opacity:1;stroke-width:0.264583;stroke-opacity:0.49481"
             d="m -1370.3432,1078.4417 0.463,7.4744 -14.6844,-0.3307 14.2214,-7.1437"
             id="path185-1-5-1-0-5-6-6-5-6" /><path
             style="fill:#ab4308;fill-opacity:1;stroke-width:0.264583;stroke-opacity:0.49481"
             d="m -1372.063,1072.0255 -13.0969,6.0193 14.8167,0.3969"
             id="path186-7-3-9-7-5-9-7-2-9" /><path
             style="fill:#ab4308;fill-opacity:1;stroke-width:0.264583;stroke-opacity:0.49481"
             d="m -1373.4521,1067.8583 1.3891,4.1672 -9.1943,-0.463 2.3151,-1.9182"
             id="path187-1-9-4-2-3-9-10-4-0" /><path
             style="fill:#ab4308;fill-opacity:1;stroke-width:0.264583;stroke-opacity:0.49481"
             d="m -1385.1599,1078.0448 0.5953,7.5406 h -5.4239 l 0.7276,-3.0758 4.101,-4.4648"
             id="path188-1-5-7-1-7-7-3-4-5" /><path
             style="fill:#ab4308;fill-opacity:1;stroke-width:0.264583;stroke-opacity:0.49481"
             d="m -1384.5646,1085.5854 3.3073,7.0115 -10.1864,2.1166 6.8791,-9.1281 v 0"
             id="path189-1-6-9-5-4-3-4-1-20" /><path
             style="fill:#ab4308;fill-opacity:1;stroke-width:0.264583;stroke-opacity:0.49481"
             d="m -1384.8291,1098.7717 -3.2753,2.5564 -3.3393,-6.6146 z"
             id="path190-0-3-5-1-4-8-3-7-2" /><path
             style="fill:#3f0a00;fill-opacity:1;stroke-width:0.264583;stroke-opacity:0.49481"
             d="m -1343.4219,1088.0104 -4.2664,-6.9229 -7.6398,-6.2839 z"
             id="path197-84-9-6-5-5-1-4-2-2"
             sodipodi:nodetypes="cccc" /><path
             style="fill:#c1501a;fill-opacity:1;stroke-width:0.264583;stroke-opacity:0.49481"
             d="m -1355.3281,1074.8036 -6.4823,-4.6963 -8.0698,-2.6459 -3.5719,0.3969 z"
             id="path198-0-2-4-8-9-7-0-5-2" /><path
             style="fill:#83360a;fill-opacity:0.980392;stroke-width:0.264583;stroke-opacity:0.49481"
             d="m -1373.4521,1067.8583 3.5719,-0.3969 -1.7198,-3.3734 -1.8521,-3.4396 v -5.0271 l 2.0506,-7.4744 -2.0506,-0.3969 -3.1088,8.5328 -0.1323,4.6964 2.5135,4.0348"
             id="path199-98-3-58-8-4-5-0-9-7" /></g><g
           id="g205-9-8-0-7-7-7-1-6"
           transform="translate(116.00673,18.251833)"><g
             id="g203-3-6-1-0-5-0-7-5"><path
               style="fill:#b56701;fill-opacity:1;stroke-width:0.264583;stroke-opacity:0.49481"
               d="m -1516.4463,1185.6256 3.5718,-6.1748 6.6057,22.0579 -5.0514,4.0224 -5.1261,-18.1759"
               id="path36-4-6-0-7-4-7-0-2-6"
               sodipodi:nodetypes="ccccc" /><path
               style="fill:#d27801;fill-opacity:1;stroke-width:0.264583;stroke-opacity:0.49481"
               d="m -1511.3202,1205.5311 8.6997,12.8157 2.9934,-4.7708 -6.6417,-12.0673 z"
               id="path39-3-2-7-4-8-2-2-4-6" /><path
               style="fill:#d27801;fill-opacity:1;stroke-width:0.264583;stroke-opacity:0.49481"
               d="m -1506.2688,1201.5087 11.1318,-4.3029 -6.3604,-24.4358 -11.3771,6.6808"
               id="path40-6-8-3-5-5-9-2-0-5"
               sodipodi:nodetypes="cccc" /><path
               style="fill:#ee8801;fill-opacity:1;stroke-width:0.264583;stroke-opacity:0.49481"
               d="m -1495.137,1197.2058 2.7128,12.7219 -7.2029,3.6483 -6.6417,-12.0673 11.1318,-4.3029"
               id="path41-7-7-6-8-2-9-3-5-6" /><path
               style="fill:#fe9b17;fill-opacity:1;stroke-width:0.264583;stroke-opacity:0.49481"
               d="m -1492.4242,1209.9277 7.6239,0.4912 2.1047,-13.7744 -12.4414,0.5613"
               id="path43-6-0-6-3-7-9-3-7-7" /><path
               style="fill:#ffaa39;fill-opacity:0.995146;stroke-width:0.264583;stroke-opacity:0.49481"
               d="m -1484.8003,1210.4189 4.7707,2.3152 4.1627,-13.4236 -6.8287,-2.666 z"
               id="path44-09-6-8-8-3-2-6-0-8" /><path
               style="fill:#fe9b17;fill-opacity:1;stroke-width:0.264583;stroke-opacity:0.49481"
               d="m -1482.6956,1196.6445 -3.8528,-23.213 7.5406,6.1516 3.1409,19.7274"
               id="path49-2-5-4-9-3-7-8-8-7"
               sodipodi:nodetypes="cccc" /></g><g
             id="g204-3-6-4-2-8-6-7-8"><path
               style="fill:#ee8801;fill-opacity:1;stroke-width:0.264583;stroke-opacity:0.49481"
               d="m -1501.4974,1172.77 14.949,0.6615 3.8528,23.213 -12.4414,0.5613"
               id="path42-56-8-16-1-6-5-29-2-7"
               sodipodi:nodetypes="cccc" /><path
               id="path50-2-6-2-8-3-8-6-4-2"
               style="fill:#fecb86;fill-opacity:1;stroke-width:0.264583;stroke-opacity:0.49481"
               d="m -1480.0298,1212.734 -4.7703,-2.3152 -3.3355,10.8359 -10e-5,7e-4 v 6.3259 l 0.5581,-0.1633 1.1402,-5.0384 z" /><path
               id="path51-4-0-5-6-4-9-0-6-3"
               style="fill:#fdad41;fill-opacity:1;stroke-width:0.264583;stroke-opacity:0.49481"
               d="m -1484.8001,1210.4188 -7.6241,-0.4909 2.5023,11.658 1.7859,-0.3308 z m -3.3359,10.8363 -1.7856,0.3312 1.4146,6.0657 0.3713,-0.071 z" /><path
               id="path83-72-9-2-0-6-9-0-5-5"
               style="fill:#fe9b17;fill-opacity:1;stroke-width:0.264583;stroke-opacity:0.49481"
               d="m -1492.4242,1209.9279 -7.2031,3.6482 7.8342,8.9567 1.8712,-0.9469 z m 2.5023,11.658 -1.8708,0.9473 2.8529,5.1451 0.4328,-0.026 z" /><path
               id="path84-92-7-5-0-8-4-4-5-20"
               style="fill:#ee8801;fill-opacity:1;stroke-width:0.264583;stroke-opacity:0.49481"
               d="m -1491.7931,1222.5328 -7.8342,-8.9567 -2.993,4.7706 9.7284,5.9166 z m -1.0988,1.7305 3.6978,3.3888 0.2543,0.026 -2.8529,-5.1451 z" /></g></g></g><g
         id="g206-5-5-2-2-7-8-8-0"
         transform="rotate(-1.366304,-23654.696,2193.8398)"><g
           id="g200-9-6-1-9-4-4-3-3-6-2"
           transform="translate(-15.6105,105.10574)"><path
             style="fill:#773916;fill-opacity:0.980392;stroke-width:0.264583;stroke-opacity:0.49481"
             d="m -1346.2911,1099.6349 -8.8857,5.5914 -16.3702,2.3386 -12.4452,-4.1258 -4.1122,-2.111 -3.3393,-6.6146 2.1828,-12.2039 8.0036,-10.9471 2.3151,-1.9182 5.1263,-3.2082 3.9357,1.0253 8.0698,2.6459 6.4823,4.6963 8.4005,8.1525 3.5057,5.0543 z"
             id="path200-02-8-5-9-8-9-5-7-1-9"
             sodipodi:nodetypes="cccccccccccccccc" /><path
             style="fill:#381c00;fill-opacity:1;stroke-width:0.264583;stroke-opacity:0.49481"
             d="m -1384.763,1098.7717 12.3693,5.6653 16.1396,-2.7782 8.8635,-8.9296 -7.5406,-6.1516 -14.949,-0.6615 -11.3771,6.6808 -3.5718,6.1748"
             id="path96-9-1-5-5-6-6-0-3-5-4" /><path
             style="fill:#482400;fill-opacity:1;stroke-width:0.264583;stroke-opacity:0.49481"
             d="m -1370.3432,1078.4417 0.463,7.4744 14.949,0.6615 z"
             id="path98-7-6-9-8-9-7-9-8-1-7" /><path
             style="fill:#e05c1b;fill-opacity:1;stroke-width:0.264583;stroke-opacity:0.49481"
             d="m -1370.3432,1078.4417 16.4042,1.9843 -0.9922,6.1516"
             id="path99-5-2-6-3-1-1-0-8-4-42" /><path
             style="fill:#482400;fill-opacity:1;stroke-width:0.264583;stroke-opacity:0.49481"
             d="m -1347.3906,1092.7292 -6.5484,-12.3032 -0.9922,6.1516 7.5406,6.1516"
             id="path100-5-1-9-9-7-1-2-1-1-6" /><path
             style="fill:#d8875f;fill-opacity:1;stroke-width:0.264583;stroke-opacity:0.49481"
             d="m -1347.3906,1092.7292 3.9687,-4.7188 -10.5171,-7.5844"
             id="path101-0-5-6-7-9-7-5-2-1-3" /><path
             style="fill:#482400;fill-opacity:1;stroke-width:0.264583;stroke-opacity:0.49481"
             d="m -1355.3281,1074.8036 1.3891,5.6224 10.5171,7.5844 z"
             id="path102-4-0-0-4-9-6-5-2-7-6" /><path
             style="fill:#482400;fill-opacity:1;stroke-width:0.264583;stroke-opacity:0.49481"
             d="m -1370.3432,1078.4417 -1.7198,-6.4162 18.124,8.4005 -16.4042,-1.9843"
             id="path103-9-1-7-2-2-4-6-3-4-6" /><path
             style="fill:#1d1d1d;fill-opacity:1;stroke-width:0.264583;stroke-opacity:0.49481"
             d="m -1385.1599,1078.0448 0.5953,7.5406 14.2214,-7.1437 z"
             id="path104-6-4-5-0-0-9-6-8-4-8" /><path
             style="fill:#1d1d1d;fill-opacity:1;stroke-width:0.264583;stroke-opacity:0.49481"
             d="m -1384.5646,1085.5854 h -5.4239 l -1.4552,9.1281"
             id="path105-11-7-5-6-2-6-3-4-2-7" /><path
             style="fill:#1d1d1d;fill-opacity:1;stroke-width:0.264583;stroke-opacity:0.49481"
             d="m -1381.2573,1092.5969 -10.1864,2.1166 6.6146,4.0582 z"
             id="path106-3-0-0-9-0-7-9-8-2-9" /><path
             style="fill:#1d1d1d;fill-opacity:1;stroke-width:0.264583;stroke-opacity:0.49481"
             d="m -1381.2573,1092.5969 -3.3073,-7.0115 14.6844,0.3307 z"
             id="path134-3-2-7-8-2-2-7-8-7-8" /><path
             style="fill:#1d1d1d;fill-opacity:1;stroke-width:0.264583;stroke-opacity:0.49481"
             d="m -1385.1599,1078.0448 13.0969,-6.0193 -9.1943,-0.463"
             id="path138-78-5-8-7-0-9-9-7-3-1" /><path
             style="fill:#1d1d1d;fill-opacity:1;stroke-width:0.264583;stroke-opacity:0.49481"
             d="m -1384.8291,1098.7717 -3.2753,2.5564 4.1122,2.111 -0.8369,-2.9378 z"
             id="path144-0-4-5-6-5-3-5-9-4-6"
             sodipodi:nodetypes="ccccc" /><path
             style="fill:#5f2809;fill-opacity:1;stroke-width:0.264583;stroke-opacity:0.49481"
             d="m -1343.4219,1088.0104 -2.8692,11.6245 -1.0995,-6.9057"
             id="path145-67-9-6-3-5-9-7-9-6-4"
             sodipodi:nodetypes="ccc" /><path
             style="fill:#482400;fill-opacity:1;stroke-width:0.264583;stroke-opacity:0.49481"
             d="m -1372.063,1072.0255 -1.3891,-4.1672 18.124,6.9453 -16.7349,-2.7781"
             id="path182-1-8-7-1-1-9-2-1-4-3" /><path
             style="fill:#1d1d1d;fill-opacity:1;stroke-width:0.264583;stroke-opacity:0.49481"
             d="m -1378.9422,1069.6443 5.4901,-1.786 -0.7276,-2.8443 -2.5135,-4.0348 0.1323,-4.6964 3.1088,-8.5328 -1.9843,-0.8599 -3.7042,8.9297 0.1984,6.4161 2.3813,3.0427 z"
             id="path183-2-3-3-0-3-1-3-04-0-9" /><path
             style="fill:#cf5a21;fill-opacity:1;stroke-width:0.264583;stroke-opacity:0.49481"
             d="m -1353.939,1080.426 -1.3891,-5.6224 -16.7349,-2.7781 18.124,8.4005"
             id="path184-8-1-4-6-0-7-2-9-1-9" /><path
             style="fill:#ab4308;fill-opacity:1;stroke-width:0.264583;stroke-opacity:0.49481"
             d="m -1370.3432,1078.4417 0.463,7.4744 -14.6844,-0.3307 14.2214,-7.1437"
             id="path185-1-5-4-2-2-9-0-7-9-4" /><path
             style="fill:#ab4308;fill-opacity:1;stroke-width:0.264583;stroke-opacity:0.49481"
             d="m -1372.063,1072.0255 -13.0969,6.0193 14.8167,0.3969"
             id="path186-7-3-6-5-5-0-9-9-5-0" /><path
             style="fill:#ab4308;fill-opacity:1;stroke-width:0.264583;stroke-opacity:0.49481"
             d="m -1373.4521,1067.8583 1.3891,4.1672 -9.1943,-0.463 2.3151,-1.9182"
             id="path187-1-9-2-6-5-7-5-7-2-5" /><path
             style="fill:#ab4308;fill-opacity:1;stroke-width:0.264583;stroke-opacity:0.49481"
             d="m -1385.1599,1078.0448 0.5953,7.5406 h -5.4239 l 0.7276,-3.0758 4.101,-4.4648"
             id="path188-1-5-2-2-6-0-6-2-1-3" /><path
             style="fill:#ab4308;fill-opacity:1;stroke-width:0.264583;stroke-opacity:0.49481"
             d="m -1384.5646,1085.5854 3.3073,7.0115 -10.1864,2.1166 6.8791,-9.1281 v 0"
             id="path189-1-6-5-5-5-9-0-8-5-9" /><path
             style="fill:#ab4308;fill-opacity:1;stroke-width:0.264583;stroke-opacity:0.49481"
             d="m -1384.8291,1098.7717 -3.2753,2.5564 -3.3393,-6.6146 z"
             id="path190-0-3-0-6-7-8-6-1-8-0" /><path
             style="fill:#dc865c;fill-opacity:1;stroke-width:0.264583;stroke-opacity:0.49481"
             d="m -1343.4219,1088.0104 -4.2664,-6.9229 -7.6398,-6.2839 z"
             id="path197-84-9-4-9-1-6-5-1-6-8"
             sodipodi:nodetypes="cccc" /><path
             style="fill:#c1501a;fill-opacity:1;stroke-width:0.264583;stroke-opacity:0.49481"
             d="m -1355.3281,1074.8036 -6.4823,-4.6963 -8.0698,-2.6459 -3.5719,0.3969 z"
             id="path198-0-2-1-2-5-4-1-3-3-3" /><path
             style="fill:#83360a;fill-opacity:0.980392;stroke-width:0.264583;stroke-opacity:0.49481"
             d="m -1373.4521,1067.8583 3.5719,-0.3969 -1.7198,-3.3734 -1.8521,-3.4396 v -5.0271 l 2.0506,-7.4744 -2.0506,-0.3969 -3.1088,8.5328 -0.1323,4.6964 2.5135,4.0348"
             id="path199-98-3-5-8-6-8-0-4-5-6" /></g><g
           id="g205-9-3-7-4-9-3-2-9-27"
           transform="translate(116.00673,18.251833)"><g
             id="g203-3-0-5-5-2-3-3-4-5"><path
               style="fill:#b56701;fill-opacity:1;stroke-width:0.264583;stroke-opacity:0.49481"
               d="m -1516.4463,1185.6256 3.5718,-6.1748 6.6057,22.0579 -5.0514,4.0224 -5.1261,-18.1759"
               id="path36-4-6-8-6-5-7-5-0-9-4"
               sodipodi:nodetypes="ccccc" /><path
               style="fill:#d27801;fill-opacity:1;stroke-width:0.264583;stroke-opacity:0.49481"
               d="m -1511.3202,1205.5311 8.6997,12.8157 2.9934,-4.7708 -6.6417,-12.0673 z"
               id="path39-3-2-4-6-4-6-5-1-5-1" /><path
               style="fill:#d27801;fill-opacity:1;stroke-width:0.264583;stroke-opacity:0.49481"
               d="m -1506.2688,1201.5087 11.1318,-4.3029 -6.3604,-24.4358 -11.3771,6.6808"
               id="path40-6-8-1-3-5-2-8-7-9-0"
               sodipodi:nodetypes="cccc" /><path
               style="fill:#ee8801;fill-opacity:1;stroke-width:0.264583;stroke-opacity:0.49481"
               d="m -1495.137,1197.2058 2.7128,12.7219 -7.2029,3.6483 -6.6417,-12.0673 11.1318,-4.3029"
               id="path41-7-7-9-7-2-9-0-29-5-2" /><path
               style="fill:#fe9b17;fill-opacity:1;stroke-width:0.264583;stroke-opacity:0.49481"
               d="m -1492.4242,1209.9277 7.6239,0.4912 2.1047,-13.7744 -12.4414,0.5613"
               id="path43-6-0-5-8-9-2-6-6-2-61" /><path
               style="fill:#ffaa39;fill-opacity:0.995146;stroke-width:0.264583;stroke-opacity:0.49481"
               d="m -1484.8003,1210.4189 4.7707,2.3152 4.1627,-13.4236 -6.8287,-2.666 z"
               id="path44-09-6-4-0-3-8-9-5-7-4" /><path
               style="fill:#fe9b17;fill-opacity:1;stroke-width:0.264583;stroke-opacity:0.49481"
               d="m -1482.6956,1196.6445 -3.8528,-23.213 7.5406,6.1516 3.1409,19.7274"
               id="path49-2-5-1-4-1-9-8-2-2-1"
               sodipodi:nodetypes="cccc" /></g><g
             id="g204-3-7-9-2-4-2-80-2-8"><path
               style="fill:#ee8801;fill-opacity:1;stroke-width:0.264583;stroke-opacity:0.49481"
               d="m -1501.4974,1172.77 14.949,0.6615 3.8528,23.213 -12.4414,0.5613"
               id="path42-56-8-1-1-9-9-3-9-7-0"
               sodipodi:nodetypes="cccc" /><path
               id="path50-2-6-7-9-5-1-5-0-3-07"
               style="fill:#fecb86;fill-opacity:1;stroke-width:0.264583;stroke-opacity:0.49481"
               d="m -1480.0298,1212.734 -4.7703,-2.3152 -3.3355,10.8359 -10e-5,7e-4 v 6.3259 l 0.5581,-0.1633 1.1402,-5.0384 z" /><path
               id="path51-4-0-7-9-0-4-2-3-8-12"
               style="fill:#fdad41;fill-opacity:1;stroke-width:0.264583;stroke-opacity:0.49481"
               d="m -1484.8001,1210.4188 -7.6241,-0.4909 2.5023,11.658 1.7859,-0.3308 z m -3.3359,10.8363 -1.7856,0.3312 1.4146,6.0657 0.3713,-0.071 z" /><path
               id="path83-72-9-7-4-5-4-6-9-4-3"
               style="fill:#fe9b17;fill-opacity:1;stroke-width:0.264583;stroke-opacity:0.49481"
               d="m -1492.4242,1209.9279 -7.2031,3.6482 7.8342,8.9567 1.8712,-0.9469 z m 2.5023,11.658 -1.8708,0.9473 2.8529,5.1451 0.4328,-0.026 z" /><path
               id="path84-92-7-7-9-5-3-2-1-5-6"
               style="fill:#ee8801;fill-opacity:1;stroke-width:0.264583;stroke-opacity:0.49481"
               d="m -1491.7931,1222.5328 -7.8342,-8.9567 -2.993,4.7706 9.7284,5.9166 z m -1.0988,1.7305 3.6978,3.3888 0.2543,0.026 -2.8529,-5.1451 z" /></g></g></g></g></g></svg>
