<?xml version="1.0" encoding="UTF-8" standalone="no"?>
<!-- Created with Inkscape (http://www.inkscape.org/) -->

<svg
   width="78.791054mm"
   height="75.704361mm"
   viewBox="0 0 78.791054 75.704361"
   version="1.1"
   id="svg1"
   inkscape:version="1.3 (0e150ed6c4, 2023-07-21)"
   sodipodi:docname="DWARF - GOBLINS all sprites.svg"
   inkscape:dataloss="true"
   xmlns:inkscape="http://www.inkscape.org/namespaces/inkscape"
   xmlns:sodipodi="http://sodipodi.sourceforge.net/DTD/sodipodi-0.dtd"
   xmlns="http://www.w3.org/2000/svg"
   xmlns:svg="http://www.w3.org/2000/svg">
  <sodipodi:namedview
     id="namedview1"
     pagecolor="#ffffff"
     bordercolor="#000000"
     borderopacity="0.25"
     inkscape:showpageshadow="2"
     inkscape:pageopacity="0.0"
     inkscape:pagecheckerboard="0"
     inkscape:deskcolor="#d1d1d1"
     inkscape:document-units="mm"
     inkscape:zoom="0.24535703"
     inkscape:cx="8760.7029"
     inkscape:cy="-3397.0904"
     inkscape:window-width="1920"
     inkscape:window-height="991"
     inkscape:window-x="-9"
     inkscape:window-y="-9"
     inkscape:window-maximized="1"
     inkscape:current-layer="layer1" />
  <defs
     id="defs1">
    <filter
       style="color-interpolation-filters:sRGB"
       inkscape:label="Blur"
       id="filter186"
       x="-inf"
       y="-inf"
       width="inf"
       height="inf">
      <feGaussianBlur
         stdDeviation="5 5"
         result="blur"
         id="feGaussianBlur186" />
    </filter>
    <filter
       style="color-interpolation-filters:sRGB"
       inkscape:label="Blur"
       id="filter187"
       x="-0.21901419"
       y="-0.23208856"
       width="1.4380284"
       height="1.4641771">
      <feGaussianBlur
         stdDeviation="5 5"
         result="blur"
         id="feGaussianBlur187" />
    </filter>
    <filter
       style="color-interpolation-filters:sRGB"
       inkscape:label="Blur"
       id="filter188"
       x="-0.21901419"
       y="-0.23208856"
       width="1.4380284"
       height="1.4641771">
      <feGaussianBlur
         stdDeviation="5 5"
         result="blur"
         id="feGaussianBlur188" />
    </filter>
  </defs>
  <g
     inkscape:label="Capa 1"
     inkscape:groupmode="layer"
     id="layer1"
     transform="translate(-3054.6392,883.06675)">
    <g
       id="g188"
       transform="translate(2285.1312,2164.1469)">
      <path
         d="M 770.71724,-3014.6381"
         style="fill:#d38d5f;fill-opacity:1;stroke-width:17.5611;stroke-linecap:round;filter:url(#filter186)"
         id="path1-1-19-8-3-1-3-2-8-9-8-9-6-6-1" />
      <path
         id="path60-8-7-2-3-0-7-3-7"
         style="fill:#ffffff;fill-opacity:1;stroke-width:4.25742;stroke-linecap:round;stroke-opacity:0.624204;filter:url(#filter187)"
         d="m 810.70655,-3035.2137 -9.95234,5.5227 -6.22339,8.9209 -0.0134,0.1018 h -0.003 l -0.37879,2.9187 h -5.2e-4 l -0.39274,3.0293 -0.74672,5.7542 -0.35192,2.7094 -11.13575,-1.9953 2.56625,4.4318 5.7521,1.91 -3.63182,1.374 1.41284,2.0562 2.99206,0.9959 -0.85111,0.4718 0.53692,1.6929 0.20257,0.051 -0.43511,0.4072 -0.41135,3.4009 1.87017,2.8701 3.27784,0.9963 3.15123,-1.3436 1.55029,-3.0551 -0.25373,-1.0904 0.23048,0.057 0.96014,4.1331 2.096,-2.3229 12.0168,7.7065 19.0391,-12.1 v -11.6944 l 2.3865,-2.8133 -0.5509,-1.6888 -0.9664,0.1132 1.8501,-2.5533 -0.052,-2.4944 -2.1782,0.5813 -0.2966,-1.3389 2.2825,-3.1466 -0.4992,-5.0968 -3.6897,3.7977 -8.2253,-8.7556 -12.9496,-4.4121 -0.038,0.021 z m -17.63353,40.595 3.63441,0.9079 0.32142,1.3813 -0.79426,1.5638 -1.61334,0.6883 -1.67845,-0.5101 -0.95757,-1.4696 0.21084,-1.741 z" />
      <path
         id="path60-8-7-2-3-0-7-3-2"
         style="fill:#ffffff;fill-opacity:1;stroke-width:4.25742;stroke-linecap:round;stroke-opacity:0.624204;filter:url(#filter188)"
         d="m 810.70655,-3035.2137 -9.95234,5.5227 -6.22339,8.9209 -0.0134,0.1018 h -0.003 l -0.37879,2.9187 h -5.2e-4 l -0.39274,3.0293 -0.74672,5.7542 -0.35192,2.7094 -11.13575,-1.9953 2.56625,4.4318 5.7521,1.91 -3.63182,1.374 1.41284,2.0562 2.99206,0.9959 -0.85111,0.4718 0.53692,1.6929 0.20257,0.051 -0.43511,0.4072 -0.41135,3.4009 1.87017,2.8701 3.27784,0.9963 3.15123,-1.3436 1.55029,-3.0551 -0.25373,-1.0904 0.23048,0.057 0.96014,4.1331 2.096,-2.3229 12.0168,7.7065 19.0391,-12.1 v -11.6944 l 2.3865,-2.8133 -0.5509,-1.6888 -0.9664,0.1132 1.8501,-2.5533 -0.052,-2.4944 -2.1782,0.5813 -0.2966,-1.3389 2.2825,-3.1466 -0.4992,-5.0968 -3.6897,3.7977 -8.2253,-8.7556 -12.9496,-4.4121 -0.038,0.021 z m -17.63353,40.595 3.63441,0.9079 0.32142,1.3813 -0.79426,1.5638 -1.61334,0.6883 -1.67845,-0.5101 -0.95757,-1.4696 0.21084,-1.741 z" />
    </g>
  </g>
</svg>
