<?xml version="1.0" encoding="UTF-8" standalone="no"?>
<!-- Created with Inkscape (http://www.inkscape.org/) -->

<svg
   width="87.90303mm"
   height="88.212448mm"
   viewBox="0 0 87.90303 88.212448"
   version="1.1"
   id="svg1"
   xml:space="preserve"
   xmlns:xlink="http://www.w3.org/1999/xlink"
   xmlns="http://www.w3.org/2000/svg"
   xmlns:svg="http://www.w3.org/2000/svg"><defs
     id="defs1"><linearGradient
       xlink:href="#linearGradient77-0"
       id="linearGradient69-4"
       gradientUnits="userSpaceOnUse"
       x1="79.187881"
       y1="122.68185"
       x2="133.67856"
       y2="122.68185"
       gradientTransform="matrix(1.5,0,0,1.5,-1590.8676,1082.2825)" /><linearGradient
       id="linearGradient77-0"><stop
         style="stop-color:#d9ff3e;stop-opacity:1;"
         offset="0"
         id="stop76-6" /><stop
         style="stop-color:#fff7fe;stop-opacity:1;"
         offset="1"
         id="stop77" /></linearGradient><linearGradient
       xlink:href="#linearGradient81-7"
       id="linearGradient70-5"
       gradientUnits="userSpaceOnUse"
       x1="119.72517"
       y1="141.33592"
       x2="130.35402"
       y2="137.27631"
       gradientTransform="matrix(1.5,0,0,1.5,-1590.8676,1082.2825)" /><linearGradient
       id="linearGradient81-7"><stop
         style="stop-color:#dcfe4e;stop-opacity:1;"
         offset="0"
         id="stop78" /><stop
         style="stop-color:#effaaf;stop-opacity:1;"
         offset="1"
         id="stop81" /></linearGradient></defs><g
     id="layer1"
     transform="translate(1471.5733,-1239.2237)"><g
       id="g87"
       transform="translate(0.51247705)"><path
         style="fill:url(#linearGradient69-4);stroke:#020202;stroke-width:5.42869;stroke-opacity:0"
         d="m -1425.5692,1290.245 30.2326,-20.4997 -35.7888,-22.1892 -37.6039,-5.1345 5.3578,28.7734 z"
         id="path150-1-2-1" /><g
         id="g201-5-4-7"
         transform="matrix(1.5,0,0,1.5,-1594.0949,1050.7113)"><path
           style="fill:#beb7c8;fill-opacity:1;stroke:#020202;stroke-width:3.61913;stroke-opacity:0"
           d="m 107.75664,181.27553 12.51862,-7.8 -8.19705,-12.47443 -10.7697,1.48541 z"
           id="path201-4-2-5" /><path
           style="fill:#7c6f91;fill-opacity:1;stroke:#020202;stroke-width:3.61912;stroke-opacity:0"
           d="m 87.71999,169.67122 7.640815,-9.69465 11.839105,6.06241 0.55673,15.23655 z"
           id="path200-0-0-5" /></g><path
         style="fill:#84a500;fill-opacity:1;stroke:#020202;stroke-width:5.42869;stroke-opacity:0"
         d="m -1468.7293,1242.4216 5.3578,28.7734 37.8023,19.05 -0.3968,18.7735 h -8.832 l -21.9863,-11.0714 -11.1513,-12.8615 z"
         id="path145-9-1-7" /><path
         id="path147-8-0-8"
         style="fill:#b8dc11;fill-opacity:1;stroke:#020202;stroke-width:5.42869;stroke-opacity:0"
         d="m -1387.9651,1290.4934 -3.3735,2.6192 v -0.039 l -11.3109,8.7808 -0.099,6.1516 3.3758,-2.7262 v 0.1466 l 11.4101,-9.2157 z" /><path
         style="fill:#b8dc11;fill-opacity:1;stroke:#020202;stroke-width:5.42869;stroke-opacity:0"
         d="m -1395.4563,1280.5712 0.1197,-10.8259 -30.2326,20.4997 -0.3969,18.7735 h 4.7626 l 25.8669,-20.8215 z"
         id="path149-7-3-6" /><path
         style="fill:#84a500;fill-opacity:1;stroke:#020202;stroke-width:5.42869;stroke-opacity:0"
         d="m -1421.2517,1297.6804 18.6021,4.1732 -0.099,6.1516 -18.4547,1.0133 z"
         id="path146-2-9-9" /><path
         style="fill:url(#linearGradient70-5);stroke:#020202;stroke-width:5.42869;stroke-opacity:0"
         d="m -1402.6496,1301.8536 14.6843,-11.3606 -7.491,-9.9218 -25.7954,17.1092"
         id="path148-54-5-5" /><g
         id="g86"
         transform="translate(-10.539524,-2.2590631)"><path
           style="fill:#5d5d5d;fill-opacity:1;stroke:#020202;stroke-width:5.42869;stroke-opacity:0"
           d="m -1429.3415,1259.9101 47.1461,-3.9476 -0.987,6.7749 -44.2614,1.4115"
           id="path155-1-4-4" /><path
           style="fill:#808080;fill-opacity:1;stroke:#020202;stroke-width:5.42869;stroke-opacity:0"
           d="m -1382.1954,1255.9625 -3.2007,-5.2802 -45.4122,5.9515 1.4668,3.2763 z"
           id="path156-8-5-2" /><path
           style="fill:#5d5d5d;fill-opacity:1;stroke:none;stroke-width:0.0499999;stroke-linecap:round;stroke-miterlimit:2.7"
           d="m -1427.4438,1264.1489 -10.8196,7.7774 -12.8662,-5.3576 3.5721,-8.0354 1.3766,6.6875 7.1088,1.6411 5.7961,-6.3932 -9.0986,-0.5515 -4.7566,-3.762 2.8694,-6.1331 1.4154,5.2461 2.2241,2.0328 9.814,-0.6672 7.1044,3.2834"
           id="path82" /></g></g></g></svg>
