<?xml version="1.0" encoding="UTF-8" standalone="no"?>
<!-- Created with Inkscape (http://www.inkscape.org/) -->

<svg
   width="66.147125mm"
   height="216.75281mm"
   viewBox="0 0 66.147125 216.75281"
   version="1.1"
   id="svg1"
   xml:space="preserve"
   xmlns:xlink="http://www.w3.org/1999/xlink"
   xmlns="http://www.w3.org/2000/svg"
   xmlns:svg="http://www.w3.org/2000/svg"><defs
     id="defs1"><linearGradient
       id="linearGradient95"><stop
         style="stop-color:#564c64;stop-opacity:1;"
         offset="0"
         id="stop95" /><stop
         style="stop-color:#8db100;stop-opacity:1;"
         offset="1"
         id="stop96" /></linearGradient><linearGradient
       id="linearGradient90"><stop
         style="stop-color:#675869;stop-opacity:1;"
         offset="0"
         id="stop91" /><stop
         style="stop-color:#9a9d7d;stop-opacity:1;"
         offset="1"
         id="stop94" /></linearGradient><linearGradient
       xlink:href="#linearGradient108"
       id="linearGradient114"
       x1="-223.36041"
       y1="-654.81512"
       x2="-203.7881"
       y2="-647.78815"
       gradientUnits="userSpaceOnUse"
       gradientTransform="matrix(1.9970368,0,0,1.6780139,-983.06452,1644.478)" /><linearGradient
       id="linearGradient108"><stop
         style="stop-color:#675869;stop-opacity:1;"
         offset="0.01629328"
         id="stop129" /><stop
         style="stop-color:#aeb885;stop-opacity:1;"
         offset="0.52342159"
         id="stop113" /><stop
         style="stop-color:#998da6;stop-opacity:1;"
         offset="1"
         id="stop114" /></linearGradient><linearGradient
       xlink:href="#linearGradient104-6"
       id="linearGradient106"
       x1="-231.94885"
       y1="-630.03723"
       x2="-223.36041"
       y2="-632.21704"
       gradientUnits="userSpaceOnUse"
       gradientTransform="matrix(2.0187066,0,0,1.6099067,-978.15922,1602.6958)" /><linearGradient
       id="linearGradient104-6"><stop
         style="stop-color:#84a500;stop-opacity:1;"
         offset="0"
         id="stop104" /><stop
         style="stop-color:#6b5f7d;stop-opacity:1;"
         offset="1"
         id="stop105" /></linearGradient><linearGradient
       xlink:href="#linearGradient90"
       id="linearGradient94"
       x1="-1303.0117"
       y1="578.49445"
       x2="-1310.7478"
       y2="543.91351"
       gradientUnits="userSpaceOnUse" /><linearGradient
       xlink:href="#linearGradient95"
       id="linearGradient96"
       x1="-1300.215"
       y1="557.9397"
       x2="-1291.2554"
       y2="530.9259"
       gradientUnits="userSpaceOnUse" /></defs><g
     id="layer1"
     transform="translate(1462.5213,-418.30394)"><g
       id="g102"><path
         style="fill:#35461e;fill-opacity:1;stroke:#020202;stroke-width:1.5028;stroke-opacity:0"
         d="m -1428.525,607.1317 0.051,15.20976 -22.2527,-14.09272 -0.05,-15.20968 10.8687,-8.29478 z"
         id="path190-3-4-3-9-3-2-9" /><path
         style="fill:#66953f;fill-opacity:1;stroke:#020202;stroke-width:1.5028;stroke-opacity:0"
         d="m -1428.4749,607.1317 -0.051,15.20976 22.2527,-14.09272 0.051,-15.20968 -10.8686,-8.29478 z"
         id="path190-2-9-5-3-81-5-2-7" /><path
         style="fill:#35461e;fill-opacity:1;stroke:#020202;stroke-width:1.5028;stroke-opacity:0"
         d="m -1428.525,522.74412 0.051,15.20978 -22.2527,-14.09274 -0.05,-15.20968 10.8687,-8.29476 z"
         id="path190-3-4-3-8-1-1-6-3" /><path
         style="fill:#66953f;fill-opacity:1;stroke:#020202;stroke-width:1.5028;stroke-opacity:0"
         d="m -1428.4749,522.74412 -0.051,15.20978 22.2527,-14.09274 0.051,-15.20968 -10.8686,-8.29476 z"
         id="path190-2-9-5-3-8-5-0-1-0" /><path
         style="fill:url(#linearGradient114);stroke:#020202;stroke-width:1.53928;stroke-opacity:0"
         d="m -1428.7132,613.19099 17.7902,-8.37364 V 478.77561 l -17.7902,8.37367 v 0"
         id="path76-4-9-5-3-3" /><path
         style="fill:url(#linearGradient106);stroke:#020202;stroke-width:1.51842;stroke-opacity:0"
         d="m -1428.4155,613.26582 -17.9804,-8.06193 V 483.85396 l 17.9804,8.06196 v 0"
         id="path76-6-8-9-9-0-9" /><path
         style="fill:#66953f;fill-opacity:1;stroke:#020202;stroke-width:1.69739;stroke-opacity:0"
         d="m -1427.9791,616.33228 -0.014,-8.79202 -9.0979,-18.17386 -3.7468,1.67964 z"
         id="path184-1-3-2-5-4-8-9" /><path
         style="fill:#35461e;fill-opacity:1;stroke:#020202;stroke-width:1.69739;stroke-opacity:0"
         d="m -1427.9791,616.33228 0.057,17.17912 -25.134,-15.91746 -0.057,-17.1791 12.2758,-9.3688 z"
         id="path190-3-5-5-1-0-1-7" /><path
         style="fill:#66953f;fill-opacity:1;stroke:#020202;stroke-width:1.69739;stroke-opacity:0"
         d="m -1443.4436,603.55132 2.9259,-1.0632 8.68,17.05158 -2.8602,1.41344"
         id="path185-5-0-8-5-4-4-2" /><path
         style="fill:#66953f;fill-opacity:1;stroke:#020202;stroke-width:1.69739;stroke-opacity:0"
         d="m -1434.6804,620.93866 0.02,11.90266 2.7753,-1.83844 0.045,-11.46318 z"
         id="path187-2-9-5-9-5-7-0-1" /><path
         style="fill:#8db100;fill-opacity:1;stroke:#020202;stroke-width:1.69739;stroke-opacity:0"
         d="m -1434.6587,632.84132 -17.094,-10.82564 -0.039,-11.88818 8.3483,-6.57618 8.7457,17.40182"
         id="path189-0-6-5-0-2-9-4-9" /><path
         style="fill:#9f592c;fill-opacity:1;stroke:#020202;stroke-width:1.69739;stroke-opacity:0"
         d="m -1441.2354,626.02988 0.02,6.10718 2.6273,-1.784 -0.098,-5.67878 z m 3.3068,5.004"
         id="path187-1-8-9-8-6-0-8" /><path
         style="fill:#423c4d;fill-opacity:1;stroke:#020202;stroke-width:1.69739;stroke-opacity:0"
         d="m -1441.215,632.13706 -8.4235,-5.33444 -0.02,-6.10722 4.1037,-3.4897 4.3196,8.82418"
         id="path188-8-4-8-96-8-4-9" /><path
         style="fill:#9f592c;fill-opacity:1;stroke:#020202;stroke-width:1.69739;stroke-opacity:0"
         d="m -1445.5458,617.2057 2.5964,-1.19426 4.2629,8.66284 -2.5489,1.3556"
         id="path186-8-2-9-2-0-9-5" /><path
         style="fill:#35461e;fill-opacity:1;stroke:#020202;stroke-width:1.69739;stroke-opacity:0"
         d="m -1427.9224,616.33228 0.014,-8.79202 9.0979,-18.17386 3.7469,1.67964 z"
         id="path184-6-4-0-4-4-0-5-0" /><path
         style="fill:#66953f;fill-opacity:1;stroke:#020202;stroke-width:1.69739;stroke-opacity:0"
         d="m -1427.9224,616.33228 -0.057,17.17912 25.1341,-15.91746 0.057,-17.1791 -12.2759,-9.3688 z"
         id="path190-2-9-2-0-0-0-1-6" /><path
         style="fill:#35461e;fill-opacity:1;stroke:#020202;stroke-width:1.69739;stroke-opacity:0"
         d="m -1412.4578,603.55132 -2.9259,-1.0632 -8.68,17.05158 2.8602,1.41344"
         id="path185-3-8-0-0-18-9-5-3" /><path
         style="fill:#35461e;fill-opacity:1;stroke:#020202;stroke-width:1.69739;stroke-opacity:0"
         d="m -1421.221,620.93866 -0.02,11.90266 -2.7753,-1.83844 -0.045,-11.46318 z"
         id="path187-2-2-9-5-4-7-4-3-9" /><path
         style="fill:#d9ff3e;fill-opacity:1;stroke:#020202;stroke-width:1.69739;stroke-opacity:0"
         d="m -1421.2427,632.84132 17.094,-10.82564 0.039,-11.88818 -8.3482,-6.57618 -8.7457,17.40182"
         id="path189-6-0-2-2-6-9-8-4" /><path
         style="fill:#502d16;fill-opacity:1;stroke:#020202;stroke-width:1.69739;stroke-opacity:0"
         d="m -1414.666,626.02988 -0.021,6.10718 -2.6273,-1.784 0.098,-5.67878 z m -3.3068,5.004"
         id="path187-4-0-8-6-0-1-7-3" /><path
         style="fill:#5a5169;fill-opacity:1;stroke:#020202;stroke-width:1.69739;stroke-opacity:0"
         d="m -1414.6864,632.13706 8.4234,-5.33444 0.02,-6.10722 -4.1037,-3.4897 -4.3195,8.82418"
         id="path188-1-0-0-8-0-6-4-4" /><path
         style="fill:#502d16;fill-opacity:1;stroke:#020202;stroke-width:1.69739;stroke-opacity:0"
         d="m -1410.3557,617.2057 -2.5964,-1.19426 -4.2628,8.66284 2.5488,1.3556"
         id="path186-3-1-3-0-6-7-5-1" /><path
         style="fill:#66953f;fill-opacity:1;stroke:#020202;stroke-width:1.69739;stroke-opacity:0"
         d="m -1428.8612,533.33538 -0.014,-8.792 -9.0979,-18.17388 -3.7469,1.67966 z"
         id="path184-1-3-4-5-4-1" /><path
         style="fill:#35461e;fill-opacity:1;stroke:#020202;stroke-width:1.69739;stroke-opacity:0"
         d="m -1428.8612,533.33538 0.057,17.17914 -25.134,-15.91746 -0.057,-17.1791 12.2758,-9.3688 z"
         id="path190-3-5-8-0-4-6" /><path
         style="fill:#35461e;fill-opacity:1;stroke:#020202;stroke-width:1.69739;stroke-opacity:0"
         d="m -1444.3258,520.55444 2.9259,-1.0632 8.68,17.05158 -2.8602,1.41344"
         id="path185-5-0-33-8-7-9" /><path
         style="fill:#35461e;fill-opacity:1;stroke:#020202;stroke-width:1.69739;stroke-opacity:0"
         d="m -1435.5626,537.94176 0.02,11.90268 2.7754,-1.83844 0.045,-11.46318 z"
         id="path187-2-9-5-6-7-4-1-4" /><path
         style="fill:#8db100;fill-opacity:1;stroke:#020202;stroke-width:1.69739;stroke-opacity:0"
         d="m -1435.5408,549.84444 -17.094,-10.82566 -0.039,-11.88816 8.3483,-6.57618 8.7456,17.40182"
         id="path189-0-6-1-8-4-3" /><path
         style="fill:#9f592c;fill-opacity:1;stroke:#020202;stroke-width:1.69739;stroke-opacity:0"
         d="m -1442.1175,543.033 0.02,6.10718 2.6272,-1.78402 -0.098,-5.67876 z m 3.3067,5.004"
         id="path187-1-8-6-5-5-0" /><path
         style="fill:#423c4d;fill-opacity:1;stroke:#020202;stroke-width:1.69739;stroke-opacity:0"
         d="m -1442.0972,549.14018 -8.4235,-5.33446 -0.021,-6.1072 4.1038,-3.4897 4.3196,8.82418"
         id="path188-8-4-3-8-2-4" /><path
         style="fill:#9f592c;fill-opacity:1;stroke:#020202;stroke-width:1.69739;stroke-opacity:0"
         d="m -1446.4279,534.20882 2.5964,-1.19428 4.2628,8.66286 -2.5488,1.3556"
         id="path186-8-2-1-2-7-4" /><path
         style="fill:#35461e;fill-opacity:1;stroke:#020202;stroke-width:1.69739;stroke-opacity:0"
         d="m -1428.8045,533.33538 0.014,-8.792 9.0979,-18.17388 3.7468,1.67966 z"
         id="path184-6-4-0-46-9-2-3" /><path
         style="fill:#66953f;fill-opacity:1;stroke:#020202;stroke-width:1.69739;stroke-opacity:0"
         d="m -1428.8045,533.33538 -0.057,17.17914 25.134,-15.91746 0.057,-17.1791 -12.2758,-9.3688 z"
         id="path190-2-9-2-7-5-3-8" /><path
         style="fill:#35461e;fill-opacity:1;stroke:#020202;stroke-width:1.69739;stroke-opacity:0"
         d="m -1413.34,520.55444 -2.9259,-1.0632 -8.68,17.05158 2.8602,1.41344"
         id="path185-3-8-0-4-9-5-4" /><path
         style="fill:#35461e;fill-opacity:1;stroke:#020202;stroke-width:1.69739;stroke-opacity:0"
         d="m -1422.1032,537.94176 -0.02,11.90268 -2.7753,-1.83844 -0.045,-11.46318 z"
         id="path187-2-2-9-5-5-1-6-0" /><path
         style="fill:#d9ff3e;fill-opacity:1;stroke:#020202;stroke-width:1.69739;stroke-opacity:0"
         d="m -1422.1249,549.84444 17.094,-10.82566 0.04,-11.88816 -8.3483,-6.57618 -8.7457,17.40182"
         id="path189-6-0-2-4-4-0-7-0" /><path
         style="fill:#502d16;fill-opacity:1;stroke:#020202;stroke-width:1.69739;stroke-opacity:0"
         d="m -1415.5482,543.033 -0.021,6.10718 -2.6273,-1.78402 0.098,-5.67876 z m -3.3068,5.004"
         id="path187-4-0-8-5-5-0-7" /><path
         style="fill:#5a5169;fill-opacity:1;stroke:#020202;stroke-width:1.69739;stroke-opacity:0"
         d="m -1415.5686,549.14018 8.4235,-5.33446 0.021,-6.1072 -4.1037,-3.4897 -4.3196,8.82418"
         id="path188-1-0-0-6-1-7-5" /><path
         style="fill:#502d16;fill-opacity:1;stroke:#020202;stroke-width:1.69739;stroke-opacity:0"
         d="m -1411.2378,534.20882 -2.5964,-1.19428 -4.2629,8.66286 2.5489,1.3556"
         id="path186-3-1-3-9-2-1-6" /><g
         id="g99"
         transform="translate(-117.48162,-101.92441)"><path
           style="fill:#5d5d5d;fill-opacity:1;stroke:none;stroke-width:0.0499999;stroke-linecap:round;stroke-miterlimit:2.7"
           d="m -1345.0392,592.18709 51.9761,-26.88261 7.8664,-45.07613 -21.2333,37.49099 -19.0806,9.90605 -11.024,-24.04395 -8.505,48.60565"
           id="path87" /><path
           style="fill:url(#linearGradient94);fill-opacity:1;stroke:none;stroke-width:0.0499999;stroke-linecap:round;stroke-miterlimit:2.7"
           d="m -1326.1647,603.05618 15.2748,-0.10158 17.5683,-9.99067 14.4292,-16.79036 -6.3043,-55.94522 -8.39,48.36008 -17.3472,9.90605 -25.6007,-34.91304 10.3695,59.47474"
           id="path87-19" /><path
           style="fill:url(#linearGradient96);fill-opacity:1;stroke:none;stroke-width:0.0499999;stroke-linecap:round;stroke-miterlimit:2.7"
           d="m -1285.1967,520.22835 -8.39,48.36006 -17.3472,9.90605 -9.8929,-13.49152 14.3968,-7.28361 21.2333,-37.49098"
           id="path88" /><path
           style="fill:#564c64;fill-opacity:1;stroke:none;stroke-width:0.0499999;stroke-linecap:round;stroke-miterlimit:2.7"
           d="m -1345.0392,592.18708 18.8745,10.86911 -10.3699,-59.47477 -8.5046,48.60566"
           id="path89" /><g
           id="g197-9-3-1-5"
           transform="matrix(1.874048,0,0,1.874048,-1433.0149,566.92341)"><path
             style="fill:#8db100;fill-opacity:1;stroke:#000000;stroke-width:0.247512;stroke-dasharray:none;stroke-opacity:0"
             id="path4-8-2-9-2-8-9-8-8-6-9-5-7"
             d="M 109.12934,75.301158 96.440255,82.23648 82.563702,78.167954 75.62838,65.478867 l 4.068527,-13.876552 12.689086,-6.935322 13.876557,4.068526 6.93532,12.689087 z"
             transform="matrix(0.42587209,-3.4106313e-5,-0.01379165,0.27067732,25.272874,-33.195672)" /><path
             style="fill:#8db100;fill-opacity:1;stroke:#020202;stroke-width:0.349999;stroke-opacity:0"
             d="m 60.560975,-16.834535 -1.204588,4.794336 -2.778558,-3.43441 2.038156,-3.764013"
             id="path3-6-8-5-6-0-7-1" /><path
             style="fill:#b4e200;fill-opacity:1;stroke:#020202;stroke-width:0.349999;stroke-opacity:0"
             d="m 64.658439,-16.063987 0.551467,5.124573 -5.853519,-1.100785 1.204588,-4.794337 z"
             id="path26-0-4-3-5-4-2-4" /><path
             style="fill:#d9ff3e;fill-opacity:1;stroke:#020202;stroke-width:0.349999;stroke-opacity:0"
             d="m 64.658439,-16.063988 3.849706,-1.314364 2.201339,4.561273 -5.499578,1.877665 z"
             id="path27-4-0-1-2-5-9-6" /><path
             style="fill:#eeffab;fill-opacity:1;stroke:#020202;stroke-width:0.349999;stroke-opacity:0"
             d="m 70.709484,-12.817079 1.924055,-3.756206 -2.778559,-3.434413 -1.346835,2.629346"
             id="path71-7-5-3-4-0-9-5" /><path
             style="fill:#b4e200;fill-opacity:1;stroke:#020202;stroke-width:0.349999;stroke-opacity:0"
             d="m 65.209913,-10.939414 -0.604226,9.147656 6.103797,-11.025321"
             id="path72-8-8-0-7-3-6-8-2" /><path
             style="fill:#8db100;fill-opacity:1;stroke:#020202;stroke-width:0.349999;stroke-opacity:0"
             d="m 64.605687,-1.791758 -5.2493,-10.248441 5.853519,1.100785"
             id="path73-8-7-7-01-0-0-8" /><path
             style="fill:#718e00;fill-opacity:1;stroke:#020202;stroke-width:0.349999;stroke-opacity:0"
             d="m 64.605687,-1.791758 -8.027858,-13.682851 2.778558,3.43441"
             id="path75-3-9-9-8-1-4-0" /><path
             style="fill:#b4e200;fill-opacity:1;stroke:#000000;stroke-width:0.247512;stroke-dasharray:none;stroke-opacity:0"
             id="path4-8-2-9-2-8-3-9-1-2-6-6-5-9"
             d="M 109.12934,75.301158 96.440255,82.23648 82.563702,78.167954 75.62838,65.478867 l 4.068527,-13.876552 12.689086,-6.935322 13.876557,4.068526 6.93532,12.689087 z"
             transform="matrix(0.29811046,-2.387442e-5,-0.00965416,0.18947412,36.702517,-31.643367)" /><path
             style="fill:#718e00;fill-opacity:1;stroke:#020202;stroke-width:0.349999;stroke-opacity:0"
             d="m 56.577829,-15.474609 2.038156,-3.764013 1.34684,-2.629345 -1.460945,2.637152 z"
             id="path2-3-5-6-8-0-4-1" /></g></g></g></g></svg>
