<?xml version="1.0" encoding="UTF-8" standalone="no"?>
<!-- Created with Inkscape (http://www.inkscape.org/) -->

<svg
   width="206.78821mm"
   height="186.2635mm"
   viewBox="0 0 206.78821 186.2635"
   version="1.1"
   id="svg1"
   xml:space="preserve"
   xmlns="http://www.w3.org/2000/svg"
   xmlns:svg="http://www.w3.org/2000/svg"><defs
     id="defs1"><linearGradient
       id="swatch30"><stop
         style="stop-color:#797979;stop-opacity:0.57692307;"
         offset="0"
         id="stop30" /></linearGradient></defs><g
     id="layer1"
     transform="translate(1030.8666,765.88914)"><g
       id="g97"
       transform="translate(1305.3236,-1083.7413)"><g
         id="g177-10-7-4-9-05-6-3"
         transform="matrix(1.3122,0,0,1.3122,-1789.8229,1089.3402)"><path
           style="fill:#66953f;fill-opacity:1;stroke:#020202;stroke-width:0.694934;stroke-opacity:0"
           d="m -405.54308,-494.44802 7.36224,-4.12414 -0.0183,-39.21159 -7.36224,4.12415"
           id="path76-4-3-5-8-0-19-4-3" /><path
           style="fill:#35461e;fill-opacity:1;stroke:#020202;stroke-width:0.696096;stroke-opacity:0"
           d="m -405.44973,-494.44845 -7.36106,-4.1386 -0.11165,-39.21116 7.36106,4.13861"
           id="path76-6-8-55-1-5-7-9-3-6" /><path
           style="fill:#66953f;fill-opacity:1;stroke:#020202;stroke-width:0.7014;stroke-opacity:0"
           d="m -405.23413,-493.15506 -0.006,-3.63306 -3.75947,-7.50987 -1.54828,0.69407 z"
           id="path184-1-3-2-97-7-9-0-8-8-9" /><path
           style="fill:#502d16;fill-opacity:1;stroke:#020202;stroke-width:0.7014;stroke-opacity:0"
           d="m -405.23413,-493.15506 0.0235,7.09882 -10.38596,-6.57747 -0.0234,-7.0988 5.07266,-3.87141 z"
           id="path190-3-5-5-7-4-9-5-1-6-0" /><path
           style="fill:#8db100;fill-opacity:1;stroke:#020202;stroke-width:0.7014;stroke-opacity:0"
           d="m -407.14525,-487.28144 -7.06363,-4.47341 -0.0163,-4.91246 3.44969,-2.71743 3.61393,7.19083"
           id="path189-0-6-5-14-9-7-6-5-7-5" /><path
           style="fill:#502d16;fill-opacity:1;stroke:#020202;stroke-width:0.7014;stroke-opacity:0"
           d="m -408.93667,-488.41599 -3.48078,-2.20432 -0.008,-2.52363 1.69576,-1.44203 1.78494,3.64636"
           id="path188-8-4-8-64-7-3-2-65-0-4" /><path
           style="fill:#35461e;fill-opacity:1;stroke:#020202;stroke-width:0.7014;stroke-opacity:0"
           d="m -405.21071,-493.15506 0.006,-3.63306 3.75947,-7.50987 1.54828,0.69407 z"
           id="path184-6-4-0-4-5-7-5-5-2-9-9" /><path
           style="fill:#9f592c;fill-opacity:1;stroke:#020202;stroke-width:0.7014;stroke-opacity:0"
           d="m -405.21071,-493.15506 -0.0235,7.09882 10.38596,-6.57747 0.0235,-7.0988 -5.07266,-3.87141 z"
           id="path190-2-9-2-0-64-0-2-8-2-6-5" /><path
           style="fill:#d9ff3e;fill-opacity:1;stroke:#020202;stroke-width:0.7014;stroke-opacity:0"
           d="m -403.40892,-487.2122 7.06363,-4.47341 0.0163,-4.91246 -3.4497,-2.71743 -3.61393,7.19083"
           id="path189-6-0-2-2-70-9-6-1-9-2-0" /><path
           style="fill:#9f592c;fill-opacity:1;stroke:#020202;stroke-width:0.7014;stroke-opacity:0"
           d="m -401.36115,-488.50909 3.48078,-2.20432 0.008,-2.52363 -1.69575,-1.44203 -1.78495,3.64636"
           id="path188-1-0-0-8-2-9-3-3-4-0-3" /><path
           style="fill:#9f592c;fill-opacity:1;stroke:#020202;stroke-width:0.7014;stroke-opacity:0"
           d="m -395.19892,-533.13825 -0.035,-7.14602 -10.32746,6.62467 -0.0234,7.0988 5.07266,3.87141 z"
           id="path190-3-5-5-6-4-95-1-3-3-3-66" /><path
           style="fill:#d9ff3e;fill-opacity:1;stroke:#020202;stroke-width:0.7014;stroke-opacity:0"
           d="m -396.82485,-539.08111 -7.06363,4.47341 -0.0163,4.91246 3.44969,2.71743 3.61393,-7.19083"
           id="path189-0-6-5-08-3-7-7-2-8-2-5" /><path
           style="fill:#9f592c;fill-opacity:1;stroke:#020202;stroke-width:0.7014;stroke-opacity:0"
           d="m -398.62538,-538.00275 -3.48078,2.20432 -0.008,2.52363 1.69576,1.44203 1.78494,-3.64636"
           id="path188-8-4-8-6-9-7-9-0-3-5-8" /><path
           style="fill:#502d16;fill-opacity:1;stroke:#020202;stroke-width:0.7014;stroke-opacity:0"
           d="m -416.02419,-533.3747 0.0106,-6.09109 10.45221,5.80619 0.0235,7.0988 -5.07266,3.87141 z"
           id="path190-2-9-2-0-26-15-9-7-0-1-2-15" /><path
           style="fill:#8db100;fill-opacity:1;stroke:#020202;stroke-width:0.7014;stroke-opacity:0"
           d="m -414.40398,-539.54922 7.06363,4.47341 0.0163,4.91246 -3.4497,2.71743 -3.61393,-7.19083"
           id="path189-6-0-2-2-83-2-93-6-7-3-9-1" /><path
           style="fill:#502d16;fill-opacity:1;stroke:#020202;stroke-width:0.7014;stroke-opacity:0"
           d="m -412.60345,-537.78422 3.48078,2.20432 0.008,2.52363 -1.69575,1.44203 -1.78495,-3.64636"
           id="path188-1-0-0-8-3-0-8-6-0-8-3-2" /><g
           id="g182-1-2-0-6-7-7-0-6"
           transform="matrix(1.9918641,0,0,1.9918641,-624.74349,-930.89194)"><path
             style="fill:#6b5e7c;fill-opacity:1;stroke:#020202;stroke-width:0.13923;stroke-opacity:0"
             d="m 110.03896,200.30705 5.18137,-2.99755 0.0384,-2.16045 -5.25627,0.28375 v 0"
             id="path76-01-35-0-0-1-0-7-0-4-2" /><path
             style="fill:#3a3343;fill-opacity:1;stroke:#020202;stroke-width:0.13923;stroke-opacity:0"
             d="m 110.03896,200.30705 -5.2436,-2.99755 0.0384,-2.16045 5.23105,0.28375 v 0"
             id="path76-6-36-2-6-8-2-0-0-7-1-2" /><path
             style="fill:#9f592c;fill-opacity:1;stroke:#020202;stroke-width:0.499999;stroke-opacity:0"
             d="m 104.83379,195.14905 5.2436,2.99755 5.18137,-2.99755 -5.2436,-2.99754 -5.18137,2.99754"
             id="path77-6-4-2-3-6-8-4-0-3" /></g></g><g
         id="g177-10-7-4-9-05-6-3-4"
         transform="matrix(1.3122,0,0,1.3122,-1612.1789,1089.5003)"><path
           style="fill:#66953f;fill-opacity:1;stroke:#020202;stroke-width:0.694934;stroke-opacity:0"
           d="m -405.54308,-494.44802 7.36224,-4.12414 -0.0183,-39.21159 -7.36224,4.12415"
           id="path76-4-3-5-8-0-19-4-3-6" /><path
           style="fill:#35461e;fill-opacity:1;stroke:#020202;stroke-width:0.696096;stroke-opacity:0"
           d="m -405.44973,-494.44845 -7.36106,-4.1386 -0.11165,-39.21116 7.36106,4.13861"
           id="path76-6-8-55-1-5-7-9-3-6-0" /><path
           style="fill:#66953f;fill-opacity:1;stroke:#020202;stroke-width:0.7014;stroke-opacity:0"
           d="m -405.23413,-493.15506 -0.006,-3.63306 -3.75947,-7.50987 -1.54828,0.69407 z"
           id="path184-1-3-2-97-7-9-0-8-8-9-91" /><path
           style="fill:#502d16;fill-opacity:1;stroke:#020202;stroke-width:0.7014;stroke-opacity:0"
           d="m -405.23413,-493.15506 0.0235,7.09882 -10.38596,-6.57747 -0.0234,-7.0988 5.07266,-3.87141 z"
           id="path190-3-5-5-7-4-9-5-1-6-0-96" /><path
           style="fill:#8db100;fill-opacity:1;stroke:#020202;stroke-width:0.7014;stroke-opacity:0"
           d="m -407.14525,-487.28144 -7.06363,-4.47341 -0.0163,-4.91246 3.44969,-2.71743 3.61393,7.19083"
           id="path189-0-6-5-14-9-7-6-5-7-5-13" /><path
           style="fill:#502d16;fill-opacity:1;stroke:#020202;stroke-width:0.7014;stroke-opacity:0"
           d="m -408.93667,-488.41599 -3.48078,-2.20432 -0.008,-2.52363 1.69576,-1.44203 1.78494,3.64636"
           id="path188-8-4-8-64-7-3-2-65-0-4-4" /><path
           style="fill:#35461e;fill-opacity:1;stroke:#020202;stroke-width:0.7014;stroke-opacity:0"
           d="m -405.21071,-493.15506 0.006,-3.63306 3.75947,-7.50987 1.54828,0.69407 z"
           id="path184-6-4-0-4-5-7-5-5-2-9-9-2" /><path
           style="fill:#9f592c;fill-opacity:1;stroke:#020202;stroke-width:0.7014;stroke-opacity:0"
           d="m -405.21071,-493.15506 -0.0235,7.09882 10.38596,-6.57747 0.0235,-7.0988 -5.07266,-3.87141 z"
           id="path190-2-9-2-0-64-0-2-8-2-6-5-8" /><path
           style="fill:#d9ff3e;fill-opacity:1;stroke:#020202;stroke-width:0.7014;stroke-opacity:0"
           d="m -403.40892,-487.2122 7.06363,-4.47341 0.0163,-4.91246 -3.4497,-2.71743 -3.61393,7.19083"
           id="path189-6-0-2-2-70-9-6-1-9-2-0-1" /><path
           style="fill:#9f592c;fill-opacity:1;stroke:#020202;stroke-width:0.7014;stroke-opacity:0"
           d="m -401.36115,-488.50909 3.48078,-2.20432 0.008,-2.52363 -1.69575,-1.44203 -1.78495,3.64636"
           id="path188-1-0-0-8-2-9-3-3-4-0-3-8" /><path
           style="fill:#9f592c;fill-opacity:1;stroke:#020202;stroke-width:0.7014;stroke-opacity:0"
           d="m -395.19892,-533.13825 -0.035,-7.14602 -10.32746,6.62467 -0.0234,7.0988 5.07266,3.87141 z"
           id="path190-3-5-5-6-4-95-1-3-3-3-66-18" /><path
           style="fill:#d9ff3e;fill-opacity:1;stroke:#020202;stroke-width:0.7014;stroke-opacity:0"
           d="m -396.82485,-539.08111 -7.06363,4.47341 -0.0163,4.91246 3.44969,2.71743 3.61393,-7.19083"
           id="path189-0-6-5-08-3-7-7-2-8-2-5-33" /><path
           style="fill:#9f592c;fill-opacity:1;stroke:#020202;stroke-width:0.7014;stroke-opacity:0"
           d="m -398.62538,-538.00275 -3.48078,2.20432 -0.008,2.52363 1.69576,1.44203 1.78494,-3.64636"
           id="path188-8-4-8-6-9-7-9-0-3-5-8-6" /><path
           style="fill:#502d16;fill-opacity:1;stroke:#020202;stroke-width:0.7014;stroke-opacity:0"
           d="m -416.02419,-533.3747 0.0106,-6.09109 10.45221,5.80619 0.0235,7.0988 -5.07266,3.87141 z"
           id="path190-2-9-2-0-26-15-9-7-0-1-2-15-4" /><path
           style="fill:#8db100;fill-opacity:1;stroke:#020202;stroke-width:0.7014;stroke-opacity:0"
           d="m -414.40398,-539.54922 7.06363,4.47341 0.0163,4.91246 -3.4497,2.71743 -3.61393,-7.19083"
           id="path189-6-0-2-2-83-2-93-6-7-3-9-1-1" /><path
           style="fill:#502d16;fill-opacity:1;stroke:#020202;stroke-width:0.7014;stroke-opacity:0"
           d="m -412.60345,-537.78422 3.48078,2.20432 0.008,2.52363 -1.69575,1.44203 -1.78495,-3.64636"
           id="path188-1-0-0-8-3-0-8-6-0-8-3-2-8" /><g
           id="g182-1-2-0-6-7-7-0-6-2"
           transform="matrix(1.9918641,0,0,1.9918641,-624.74349,-930.89194)"><path
             style="fill:#6b5e7c;fill-opacity:1;stroke:#020202;stroke-width:0.13923;stroke-opacity:0"
             d="m 110.03896,200.30705 5.18137,-2.99755 0.0384,-2.16045 -5.25627,0.28375 v 0"
             id="path76-01-35-0-0-1-0-7-0-4-2-0" /><path
             style="fill:#3a3343;fill-opacity:1;stroke:#020202;stroke-width:0.13923;stroke-opacity:0"
             d="m 110.03896,200.30705 -5.2436,-2.99755 0.0384,-2.16045 5.23105,0.28375 v 0"
             id="path76-6-36-2-6-8-2-0-0-7-1-2-25" /><path
             style="fill:#9f592c;fill-opacity:1;stroke:#020202;stroke-width:0.499999;stroke-opacity:0"
             d="m 104.83379,195.14905 5.2436,2.99755 5.18137,-2.99755 -5.2436,-2.99754 -5.18137,2.99754"
             id="path77-6-4-2-3-6-8-4-0-3-9" /></g></g><g
         id="g177-10-7-4-9-05-6"
         transform="matrix(1.3122,0,0,1.3122,-1700.4564,1037.8913)"><path
           style="fill:#66953f;fill-opacity:1;stroke:#020202;stroke-width:0.694934;stroke-opacity:0"
           d="m -405.54308,-494.44802 7.36224,-4.12414 -0.0183,-39.21159 -7.36224,4.12415"
           id="path76-4-3-5-8-0-19-4" /><path
           style="fill:#35461e;fill-opacity:1;stroke:#020202;stroke-width:0.696096;stroke-opacity:0"
           d="m -405.44973,-494.44845 -7.36106,-4.1386 -0.11165,-39.21116 7.36106,4.13861"
           id="path76-6-8-55-1-5-7-9-3" /><path
           style="fill:#66953f;fill-opacity:1;stroke:#020202;stroke-width:0.7014;stroke-opacity:0"
           d="m -405.23413,-493.15506 -0.006,-3.63306 -3.75947,-7.50987 -1.54828,0.69407 z"
           id="path184-1-3-2-97-7-9-0-8-8" /><path
           style="fill:#502d16;fill-opacity:1;stroke:#020202;stroke-width:0.7014;stroke-opacity:0"
           d="m -405.23413,-493.15506 0.0235,7.09882 -10.38596,-6.57747 -0.0234,-7.0988 5.07266,-3.87141 z"
           id="path190-3-5-5-7-4-9-5-1-6" /><path
           style="fill:#8db100;fill-opacity:1;stroke:#020202;stroke-width:0.7014;stroke-opacity:0"
           d="m -407.14525,-487.28144 -7.06363,-4.47341 -0.0163,-4.91246 3.44969,-2.71743 3.61393,7.19083"
           id="path189-0-6-5-14-9-7-6-5-7" /><path
           style="fill:#502d16;fill-opacity:1;stroke:#020202;stroke-width:0.7014;stroke-opacity:0"
           d="m -408.93667,-488.41599 -3.48078,-2.20432 -0.008,-2.52363 1.69576,-1.44203 1.78494,3.64636"
           id="path188-8-4-8-64-7-3-2-65-0" /><path
           style="fill:#35461e;fill-opacity:1;stroke:#020202;stroke-width:0.7014;stroke-opacity:0"
           d="m -405.21071,-493.15506 0.006,-3.63306 3.75947,-7.50987 1.54828,0.69407 z"
           id="path184-6-4-0-4-5-7-5-5-2-9" /><path
           style="fill:#9f592c;fill-opacity:1;stroke:#020202;stroke-width:0.7014;stroke-opacity:0"
           d="m -405.21071,-493.15506 -0.0235,7.09882 10.38596,-6.57747 0.0235,-7.0988 -5.07266,-3.87141 z"
           id="path190-2-9-2-0-64-0-2-8-2-6" /><path
           style="fill:#d9ff3e;fill-opacity:1;stroke:#020202;stroke-width:0.7014;stroke-opacity:0"
           d="m -403.40892,-487.2122 7.06363,-4.47341 0.0163,-4.91246 -3.4497,-2.71743 -3.61393,7.19083"
           id="path189-6-0-2-2-70-9-6-1-9-2" /><path
           style="fill:#9f592c;fill-opacity:1;stroke:#020202;stroke-width:0.7014;stroke-opacity:0"
           d="m -401.36115,-488.50909 3.48078,-2.20432 0.008,-2.52363 -1.69575,-1.44203 -1.78495,3.64636"
           id="path188-1-0-0-8-2-9-3-3-4-0" /><path
           style="fill:#9f592c;fill-opacity:1;stroke:#020202;stroke-width:0.7014;stroke-opacity:0"
           d="m -395.19892,-533.13825 -0.035,-7.14602 -10.32746,6.62467 -0.0234,7.0988 5.07266,3.87141 z"
           id="path190-3-5-5-6-4-95-1-3-3-3" /><path
           style="fill:#d9ff3e;fill-opacity:1;stroke:#020202;stroke-width:0.7014;stroke-opacity:0"
           d="m -396.82485,-539.08111 -7.06363,4.47341 -0.0163,4.91246 3.44969,2.71743 3.61393,-7.19083"
           id="path189-0-6-5-08-3-7-7-2-8-2" /><path
           style="fill:#9f592c;fill-opacity:1;stroke:#020202;stroke-width:0.7014;stroke-opacity:0"
           d="m -398.62538,-538.00275 -3.48078,2.20432 -0.008,2.52363 1.69576,1.44203 1.78494,-3.64636"
           id="path188-8-4-8-6-9-7-9-0-3-5" /><path
           style="fill:#502d16;fill-opacity:1;stroke:#020202;stroke-width:0.7014;stroke-opacity:0"
           d="m -416.02419,-533.3747 0.0106,-6.09109 10.45221,5.80619 0.0235,7.0988 -5.07266,3.87141 z"
           id="path190-2-9-2-0-26-15-9-7-0-1-2" /><path
           style="fill:#8db100;fill-opacity:1;stroke:#020202;stroke-width:0.7014;stroke-opacity:0"
           d="m -414.40398,-539.54922 7.06363,4.47341 0.0163,4.91246 -3.4497,2.71743 -3.61393,-7.19083"
           id="path189-6-0-2-2-83-2-93-6-7-3-9" /><path
           style="fill:#502d16;fill-opacity:1;stroke:#020202;stroke-width:0.7014;stroke-opacity:0"
           d="m -412.60345,-537.78422 3.48078,2.20432 0.008,2.52363 -1.69575,1.44203 -1.78495,-3.64636"
           id="path188-1-0-0-8-3-0-8-6-0-8-3" /><g
           id="g182-1-2-0-6-7-7-0"
           transform="matrix(1.9918641,0,0,1.9918641,-624.74349,-930.89194)"><path
             style="fill:#6b5e7c;fill-opacity:1;stroke:#020202;stroke-width:0.13923;stroke-opacity:0"
             d="m 110.03896,200.30705 5.18137,-2.99755 0.0384,-2.16045 -5.25627,0.28375 v 0"
             id="path76-01-35-0-0-1-0-7-0-4" /><path
             style="fill:#3a3343;fill-opacity:1;stroke:#020202;stroke-width:0.13923;stroke-opacity:0"
             d="m 110.03896,200.30705 -5.2436,-2.99755 0.0384,-2.16045 5.23105,0.28375 v 0"
             id="path76-6-36-2-6-8-2-0-0-7-1" /><path
             style="fill:#9f592c;fill-opacity:1;stroke:#020202;stroke-width:0.499999;stroke-opacity:0"
             d="m 104.83379,195.14905 5.2436,2.99755 5.18137,-2.99755 -5.2436,-2.99754 -5.18137,2.99754"
             id="path77-6-4-2-3-6-8-4-0" /></g></g><g
         id="g178-4-9-2-2"
         transform="matrix(1.62,0,0,1.62,-1757.0634,1019.5581)"><path
           style="fill:#a298b0;fill-opacity:1;stroke:none;stroke-width:1.55792;stroke-opacity:0"
           d="m -305.124,-375.69651 11.8268,6.7265 11.65113,-6.7094 -11.65113,-6.70931 z"
           id="path108-5-6-6-46-5-7-8" /><path
           style="fill:#a298b0;fill-opacity:1;stroke:none;stroke-width:1.55792;stroke-opacity:0"
           d="m -322.60752,-365.80344 11.8268,6.7265 11.65113,-6.7094 -11.65113,-6.70931 z"
           id="path108-5-6-6-6-57-8-7-0" /><path
           style="fill:#66953f;fill-opacity:1;stroke:none;stroke-width:0.745155;stroke-opacity:0"
           d="m -316.61311,-355.95308 5.65672,3.21727 5.5727,-3.20911 -5.5727,-3.20903 z"
           id="path108-5-6-2-8-4-1-4-6" /><path
           style="fill:#a298b0;fill-opacity:1;stroke:none;stroke-width:1.55792;stroke-opacity:0"
           d="m -340.04903,-355.9579 11.8268,6.7265 11.65113,-6.7094 -11.65113,-6.70931 z"
           id="path108-5-6-6-6-5-2-6-1-1" /><path
           style="fill:#66953f;fill-opacity:1;stroke:none;stroke-width:0.745155;stroke-opacity:0"
           d="m -299.12958,-365.7945 5.65672,3.21727 5.57269,-3.20911 -5.57269,-3.20902 z"
           id="path108-5-6-3-6-7-5-4" /><path
           style="fill:#a298b0;fill-opacity:1;stroke:none;stroke-width:1.55792;stroke-opacity:0"
           d="m -287.90017,-365.78634 11.8268,6.7265 11.65113,-6.7094 -11.65113,-6.70931 z"
           id="path108-5-6-6-2-3-8-8-0" /><path
           style="fill:#a298b0;fill-opacity:1;stroke:none;stroke-width:1.55792;stroke-opacity:0"
           d="m -305.38369,-355.89327 11.8268,6.7265 11.65113,-6.7094 -11.65113,-6.70931 z"
           id="path108-5-6-6-6-0-0-4-3-1" /><path
           style="fill:#a298b0;fill-opacity:1;stroke:none;stroke-width:1.55792;stroke-opacity:0"
           d="m -322.8252,-346.04773 11.8268,6.7265 11.65113,-6.7094 -11.65113,-6.70931 z"
           id="path108-5-6-6-6-5-9-4-1-8-78" /><path
           style="fill:#d4aa00;fill-opacity:1;stroke:none;stroke-width:0.745155;stroke-opacity:0"
           d="m -299.38928,-346.03883 5.65672,3.21726 5.5727,-3.20911 -5.5727,-3.20902 z"
           id="path108-5-6-2-8-5-4-3-0-1" /><path
           style="fill:#66953f;fill-opacity:1;stroke:none;stroke-width:0.745155;stroke-opacity:0"
           d="m -281.90576,-355.86723 5.65672,3.21727 5.57269,-3.20911 -5.57269,-3.20902 z"
           id="path108-5-6-3-7-7-7-0-9" /><path
           style="fill:#a298b0;fill-opacity:1;stroke:none;stroke-width:1.55792;stroke-opacity:0"
           d="m -270.67634,-355.87617 11.8268,6.7265 11.65113,-6.7094 -11.65113,-6.70931 z"
           id="path108-5-6-6-2-9-7-3-4-4" /><path
           style="fill:#a298b0;fill-opacity:1;stroke:none;stroke-width:1.55792;stroke-opacity:0"
           d="m -288.15986,-345.9831 11.8268,6.7265 11.65113,-6.7094 -11.65113,-6.70931 z"
           id="path108-5-6-6-6-0-2-7-3-6-7" /><path
           style="fill:#a298b0;fill-opacity:1;stroke:none;stroke-width:1.55792;stroke-opacity:0"
           d="m -305.60137,-336.13756 11.8268,6.7265 11.65113,-6.7094 -11.65113,-6.70931 z"
           id="path108-5-6-6-6-5-9-1-1-7-7-8" /></g><path
         style="fill:#66953f;fill-opacity:1;stroke:none;stroke-width:1.20715;stroke-opacity:0"
         d="m -2298.2178,458.97528 9.1639,5.21198 9.0277,-5.19876 -9.0277,-5.19864 z"
         id="path108-5-6-2-8-8-2-7-8-9" /><path
         style="fill:#66953f;fill-opacity:1;stroke:none;stroke-width:1.20715;stroke-opacity:0"
         d="m -2269.8945,475.02974 9.1639,5.21198 9.0277,-5.19876 -9.0277,-5.19864 z"
         id="path108-5-6-2-8-7-1-7-2-2" /><path
         style="fill:#66953f;fill-opacity:1;stroke:none;stroke-width:1.20715;stroke-opacity:0"
         d="m -2213.961,475.13446 9.1638,5.21198 9.0278,-5.19876 -9.0278,-5.19864 z"
         id="path108-5-6-2-8-54-6-8-0-4" /><path
         style="fill:#66953f;fill-opacity:1;stroke:none;stroke-width:1.20715;stroke-opacity:0"
         d="m -2185.9301,459.07998 9.1639,5.21198 9.0277,-5.19876 -9.0277,-5.19864 z"
         id="path108-5-6-2-8-56-0-5-5-6" /><path
         style="fill:#66953f;fill-opacity:1;stroke:none;stroke-width:1.20715;stroke-opacity:0"
         d="m -2185.6377,427.02642 9.1638,5.21198 9.0278,-5.19876 -9.0278,-5.19864 z"
         id="path108-5-6-2-8-70-97-7-7-9" /><path
         style="fill:#66953f;fill-opacity:1;stroke:none;stroke-width:1.20715;stroke-opacity:0"
         d="m -2213.5403,410.97194 9.1639,5.21198 9.0277,-5.19876 -9.0277,-5.19864 z"
         id="path108-5-6-2-8-9-4-3-8-3" /><path
         style="fill:#66953f;fill-opacity:1;stroke:none;stroke-width:1.20715;stroke-opacity:0"
         d="m -2269.7662,410.79848 9.1639,5.21198 9.0277,-5.19876 -9.0277,-5.19864 z"
         id="path108-5-6-2-8-2-1-5-7-8" /><path
         style="fill:#66953f;fill-opacity:1;stroke:none;stroke-width:1.20715;stroke-opacity:0"
         d="m -2297.2482,426.86632 9.1639,5.21198 9.0278,-5.19876 -9.0278,-5.19864 z"
         id="path108-5-6-2-8-3-4-5-5-9" /><g
         id="g177-10-7-4-9-05-6-3-5"
         transform="matrix(1.3122,0,0,1.3122,-1700.7875,1141.0807)"><path
           style="fill:#66953f;fill-opacity:1;stroke:#020202;stroke-width:0.694934;stroke-opacity:0"
           d="m -405.54308,-494.44802 7.36224,-4.12414 -0.0183,-39.21159 -7.36224,4.12415"
           id="path76-4-3-5-8-0-19-4-3-7" /><path
           style="fill:#35461e;fill-opacity:1;stroke:#020202;stroke-width:0.696096;stroke-opacity:0"
           d="m -405.44973,-494.44845 -7.36106,-4.1386 -0.11165,-39.21116 7.36106,4.13861"
           id="path76-6-8-55-1-5-7-9-3-6-4" /><path
           style="fill:#66953f;fill-opacity:1;stroke:#020202;stroke-width:0.7014;stroke-opacity:0"
           d="m -405.23413,-493.15506 -0.006,-3.63306 -3.75947,-7.50987 -1.54828,0.69407 z"
           id="path184-1-3-2-97-7-9-0-8-8-9-9" /><path
           style="fill:#502d16;fill-opacity:1;stroke:#020202;stroke-width:0.7014;stroke-opacity:0"
           d="m -405.23413,-493.15506 0.0235,7.09882 -10.38596,-6.57747 -0.0234,-7.0988 5.07266,-3.87141 z"
           id="path190-3-5-5-7-4-9-5-1-6-0-9" /><path
           style="fill:#8db100;fill-opacity:1;stroke:#020202;stroke-width:0.7014;stroke-opacity:0"
           d="m -407.14525,-487.28144 -7.06363,-4.47341 -0.0163,-4.91246 3.44969,-2.71743 3.61393,7.19083"
           id="path189-0-6-5-14-9-7-6-5-7-5-1" /><path
           style="fill:#502d16;fill-opacity:1;stroke:#020202;stroke-width:0.7014;stroke-opacity:0"
           d="m -408.93667,-488.41599 -3.48078,-2.20432 -0.008,-2.52363 1.69576,-1.44203 1.78494,3.64636"
           id="path188-8-4-8-64-7-3-2-65-0-4-5" /><path
           style="fill:#35461e;fill-opacity:1;stroke:#020202;stroke-width:0.7014;stroke-opacity:0"
           d="m -405.21071,-493.15506 0.006,-3.63306 3.75947,-7.50987 1.54828,0.69407 z"
           id="path184-6-4-0-4-5-7-5-5-2-9-9-4" /><path
           style="fill:#9f592c;fill-opacity:1;stroke:#020202;stroke-width:0.7014;stroke-opacity:0"
           d="m -405.21071,-493.15506 -0.0235,7.09882 10.38596,-6.57747 0.0235,-7.0988 -5.07266,-3.87141 z"
           id="path190-2-9-2-0-64-0-2-8-2-6-5-7" /><path
           style="fill:#d9ff3e;fill-opacity:1;stroke:#020202;stroke-width:0.7014;stroke-opacity:0"
           d="m -403.40892,-487.2122 7.06363,-4.47341 0.0163,-4.91246 -3.4497,-2.71743 -3.61393,7.19083"
           id="path189-6-0-2-2-70-9-6-1-9-2-0-8" /><path
           style="fill:#9f592c;fill-opacity:1;stroke:#020202;stroke-width:0.7014;stroke-opacity:0"
           d="m -401.36115,-488.50909 3.48078,-2.20432 0.008,-2.52363 -1.69575,-1.44203 -1.78495,3.64636"
           id="path188-1-0-0-8-2-9-3-3-4-0-3-9" /><path
           style="fill:#9f592c;fill-opacity:1;stroke:#020202;stroke-width:0.7014;stroke-opacity:0"
           d="m -395.19892,-533.13825 -0.035,-7.14602 -10.32746,6.62467 -0.0234,7.0988 5.07266,3.87141 z"
           id="path190-3-5-5-6-4-95-1-3-3-3-66-1" /><path
           style="fill:#d9ff3e;fill-opacity:1;stroke:#020202;stroke-width:0.7014;stroke-opacity:0"
           d="m -396.82485,-539.08111 -7.06363,4.47341 -0.0163,4.91246 3.44969,2.71743 3.61393,-7.19083"
           id="path189-0-6-5-08-3-7-7-2-8-2-5-3" /><path
           style="fill:#9f592c;fill-opacity:1;stroke:#020202;stroke-width:0.7014;stroke-opacity:0"
           d="m -398.62538,-538.00275 -3.48078,2.20432 -0.008,2.52363 1.69576,1.44203 1.78494,-3.64636"
           id="path188-8-4-8-6-9-7-9-0-3-5-8-0" /><path
           style="fill:#502d16;fill-opacity:1;stroke:#020202;stroke-width:0.7014;stroke-opacity:0"
           d="m -416.02419,-533.3747 0.0106,-6.09109 10.45221,5.80619 0.0235,7.0988 -5.07266,3.87141 z"
           id="path190-2-9-2-0-26-15-9-7-0-1-2-15-2" /><path
           style="fill:#8db100;fill-opacity:1;stroke:#020202;stroke-width:0.7014;stroke-opacity:0"
           d="m -414.40398,-539.54922 7.06363,4.47341 0.0163,4.91246 -3.4497,2.71743 -3.61393,-7.19083"
           id="path189-6-0-2-2-83-2-93-6-7-3-9-1-6" /><path
           style="fill:#502d16;fill-opacity:1;stroke:#020202;stroke-width:0.7014;stroke-opacity:0"
           d="m -412.60345,-537.78422 3.48078,2.20432 0.008,2.52363 -1.69575,1.44203 -1.78495,-3.64636"
           id="path188-1-0-0-8-3-0-8-6-0-8-3-2-7" /><g
           id="g182-1-2-0-6-7-7-0-6-0"
           transform="matrix(1.9918641,0,0,1.9918641,-624.74349,-930.89194)"><path
             style="fill:#6b5e7c;fill-opacity:1;stroke:#020202;stroke-width:0.13923;stroke-opacity:0"
             d="m 110.03896,200.30705 5.18137,-2.99755 0.0384,-2.16045 -5.25627,0.28375 v 0"
             id="path76-01-35-0-0-1-0-7-0-4-2-3" /><path
             style="fill:#3a3343;fill-opacity:1;stroke:#020202;stroke-width:0.13923;stroke-opacity:0"
             d="m 110.03896,200.30705 -5.2436,-2.99755 0.0384,-2.16045 5.23105,0.28375 v 0"
             id="path76-6-36-2-6-8-2-0-0-7-1-2-2" /><path
             style="fill:#9f592c;fill-opacity:1;stroke:#020202;stroke-width:0.499999;stroke-opacity:0"
             d="m 104.83379,195.14905 5.2436,2.99755 5.18137,-2.99755 -5.2436,-2.99754 -5.18137,2.99754"
             id="path77-6-4-2-3-6-8-4-0-3-4" /></g></g></g></g></svg>
