<?xml version="1.0" encoding="UTF-8" standalone="no"?>
<!-- Created with Inkscape (http://www.inkscape.org/) -->

<svg
   width="91.588463mm"
   height="93.637566mm"
   viewBox="0 0 91.588463 93.637566"
   version="1.1"
   id="svg1"
   inkscape:version="1.3 (0e150ed6c4, 2023-07-21)"
   sodipodi:docname="Dwarves mina.svg"
   xml:space="preserve"
   xmlns:inkscape="http://www.inkscape.org/namespaces/inkscape"
   xmlns:sodipodi="http://sodipodi.sourceforge.net/DTD/sodipodi-0.dtd"
   xmlns="http://www.w3.org/2000/svg"
   xmlns:svg="http://www.w3.org/2000/svg"><sodipodi:namedview
     id="namedview1"
     pagecolor="#ffffff"
     bordercolor="#000000"
     borderopacity="0.25"
     inkscape:showpageshadow="2"
     inkscape:pageopacity="0.0"
     inkscape:pagecheckerboard="0"
     inkscape:deskcolor="#d1d1d1"
     inkscape:document-units="mm"
     showgrid="false"
     inkscape:zoom="0.1767767"
     inkscape:cx="11962.591"
     inkscape:cy="-8788.734"
     inkscape:window-width="1920"
     inkscape:window-height="991"
     inkscape:window-x="-9"
     inkscape:window-y="-9"
     inkscape:window-maximized="1"
     inkscape:current-layer="layer1"
     showguides="false"
     inkscape:rotation="1"><inkscape:grid
       id="grid1"
       units="mm"
       originx="-12987.292"
       originy="8539.8441"
       spacingx="0.99999998"
       spacingy="1"
       empcolor="#0099e5"
       empopacity="0.30196078"
       color="#0099e5"
       opacity="0.14901961"
       empspacing="5"
       dotted="false"
       gridanglex="30"
       gridanglez="30"
       visible="false" /><sodipodi:guide
       position="-849.90734,-980.65903"
       orientation="1,0"
       id="guide117"
       inkscape:locked="false" /></sodipodi:namedview><defs
     id="defs1" /><g
     inkscape:label="Capa 1"
     inkscape:groupmode="layer"
     id="layer1"
     transform="translate(-3436.221,2259.5004)"><g
       id="g232"
       transform="translate(15.466653,-10.814945)"><path
         style="fill:#aaa1b7;fill-opacity:1;stroke:none;stroke-width:3.61913;stroke-opacity:0"
         d="m 3440.657,-2177.5177 18.1417,9.6733 -14.2193,-40.3913 -13.2487,11.1567 -7.7434,4.7515 -1.5828,6.6105 v 3.063 l 1.6974,2.2995 z"
         id="path159-9-8-97-4-0-7-90-4-8-0-2-0-1-9-4-3-53-4"
         sodipodi:nodetypes="ccccccccc" /><path
         style="fill:#c4b7c8;stroke:none;stroke-width:3.61913;stroke-opacity:0"
         d="m 3458.7987,-2167.8444 -11.0484,-16.2689 -3.1402,-14.7698 19.741,-13.6282 25.0053,10.2899 4.9551,3.16 -16.1158,30.516 z"
         id="path161-3-1-9-3-62-3-3-63-3-9-99-2-20-6-7-4-0-7"
         sodipodi:nodetypes="cccccccc" /><path
         style="fill:#dedbe3;stroke:none;stroke-width:3.61913;stroke-opacity:0"
         d="m 3477.391,-2165.0825 -3.0079,-5.5239 12.0763,-13.1562 -0.406,-9.2875 8.2581,-6.0113 12.2554,7.8157 5.776,5.9688 -8.5598,13.5466 h -12.4521 z"
         id="path159-4-2-5-9-0-5-8-0-50-9-2-64-5-9-5-1-72-1-58"
         sodipodi:nodetypes="cccccccccc" /><path
         style="fill:#c4b7c8;stroke:none;stroke-width:3.61913;stroke-opacity:0"
         d="m 3457.2947,-2165.0825 h 20.0963 l -3.0079,-5.5239 -14.0804,1e-4 z"
         id="path160-7-5-2-7-7-7-7-8-2-1-7-9-2-6-31-00-0-6" /><path
         id="path198-9-7-1-7-34-9-0-0-8-9-39-26-9-1"
         style="fill:#66953f;fill-opacity:1;stroke:#000000;stroke-width:3;stroke-opacity:0"
         d="m 3426.5654,-2190.8639 -3.9695,2.1354 c 1.4495,4.1122 4.1163,4.4079 5.9875,8.5201 l 3.2341,1.7354 3.9983,3.6632 -1.6145,-4.1632 21.2029,15.5992 7.4833,5.7189 3.9246,-3.0072 0.1403,-9.5025 z"
         sodipodi:nodetypes="ccccccccccc" /><path
         id="path198-9-7-8-4-8-8-5-8-4-19-5-0-9"
         style="fill:#35461e;fill-opacity:1;stroke:#000000;stroke-width:3;stroke-opacity:0"
         d="m 3422.5959,-2188.7285 -0.1061,7.4344 40.3977,23.6392 0.05,-8.6443 z"
         sodipodi:nodetypes="ccccc" /><path
         style="fill:#c4b7c8;fill-opacity:1;stroke:none;stroke-width:7.65055;stroke-linecap:round;stroke-dasharray:none;stroke-opacity:0.624204"
         d="m 3443.5651,-2214.1898 5.5398,-34.4958 h 3.9081 l 5.9466,16.3999 2.4188,17.0018 8.2354,4.5046 -7.3612,13.4647 -16.0774,4.9871 -10.9825,-8.3186"
         id="path877-4-9-2-4-4-0-0-2"
         sodipodi:nodetypes="ccccccccc" /><path
         style="fill:#675c78;fill-opacity:1;stroke:none;stroke-width:7.65055;stroke-linecap:round;stroke-dasharray:none;stroke-opacity:0.624204"
         d="m 3443.5651,-2214.1898 5.5398,-34.4958 2.8517,9.592 -1.8389,13.2445 v 19.8185 l -3.9425,13.7031 -10.9825,-8.3186"
         id="path877-7-4-47-0-7-6-6-5-7"
         sodipodi:nodetypes="ccccccc" /><path
         style="fill:#c4b7c8;fill-opacity:1;stroke:none;stroke-width:5.22598;stroke-linecap:round;stroke-dasharray:none;stroke-opacity:0.624204"
         d="m 3462.5515,-2206.7306 4.4479,-20.0474 h 3.1378 l 4.7746,9.5309 1.942,9.8807 6.6122,2.6179 -5.9103,7.8251 -12.9084,2.8982 -8.8178,-4.8343"
         id="path877-4-9-2-4-4-0-5-1"
         sodipodi:nodetypes="ccccccccc" /><path
         style="fill:#675c78;fill-opacity:1;stroke:none;stroke-width:5.22598;stroke-linecap:round;stroke-dasharray:none;stroke-opacity:0.624204"
         d="m 3462.5515,-2206.7306 4.4479,-20.0474 2.2896,5.5745 -1.4763,7.6972 v 11.5175 l -3.1654,7.9636 -8.8178,-4.8343"
         id="path877-7-4-47-0-7-6-6-2-2"
         sodipodi:nodetypes="ccccccc" /><path
         style="fill:#c4b7c8;fill-opacity:1;stroke:none;stroke-width:5.22598;stroke-linecap:round;stroke-dasharray:none;stroke-opacity:0.624204"
         d="m 3468.851,-2184.4357 4.4479,-20.0474 h 3.1378 l 4.7746,9.5309 1.942,9.8807 6.6122,2.6178 -5.9103,7.8252 -12.9084,2.8982 -8.8178,-4.8343"
         id="path877-4-9-2-4-4-0-5-3-9"
         sodipodi:nodetypes="ccccccccc" /><path
         style="fill:#675c78;fill-opacity:1;stroke:none;stroke-width:5.22598;stroke-linecap:round;stroke-dasharray:none;stroke-opacity:0.624204"
         d="m 3468.851,-2184.4357 4.4479,-20.0474 2.2896,5.5745 -1.4763,7.6972 v 11.5175 l -3.1654,7.9636 -8.8178,-4.8343"
         id="path877-7-4-47-0-7-6-6-2-6-6"
         sodipodi:nodetypes="ccccccc" /><g
         id="g231"
         transform="rotate(-8.0200892,3687.8515,-1450.5889)"><path
           style="fill:#9f592c;fill-opacity:1;stroke:none;stroke-width:0.1;stroke-dasharray:none;stroke-opacity:1"
           d="m 3607.9489,-2206.625 4.6829,8.6816 -30.4719,17.7395 -4.2387,-10.4368"
           id="path138-50-6-22-6-6-6-5"
           sodipodi:nodetypes="cccc" /><path
           style="fill:#0f1409;fill-opacity:1;stroke:#c87137;stroke-width:0.1;stroke-dasharray:none;stroke-opacity:0"
           d="m 3577.9212,-2190.6407 -2.2802,1.267 3.7935,10.1495 2.7254,-0.9797"
           id="path182-2-8-68-7-6-8-7" /></g></g></g></svg>
