<?xml version="1.0" encoding="UTF-8" standalone="no"?>
<!-- Created with Inkscape (http://www.inkscape.org/) -->

<svg
   width="108.71817mm"
   height="83.817886mm"
   viewBox="0 0 108.71817 83.817886"
   version="1.1"
   id="svg1"
   inkscape:version="1.3 (0e150ed6c4, 2023-07-21)"
   sodipodi:docname="Dwarves mina.svg"
   xml:space="preserve"
   xmlns:inkscape="http://www.inkscape.org/namespaces/inkscape"
   xmlns:sodipodi="http://sodipodi.sourceforge.net/DTD/sodipodi-0.dtd"
   xmlns:xlink="http://www.w3.org/1999/xlink"
   xmlns="http://www.w3.org/2000/svg"
   xmlns:svg="http://www.w3.org/2000/svg"><sodipodi:namedview
     id="namedview1"
     pagecolor="#ffffff"
     bordercolor="#000000"
     borderopacity="0.25"
     inkscape:showpageshadow="2"
     inkscape:pageopacity="0.0"
     inkscape:pagecheckerboard="0"
     inkscape:deskcolor="#d1d1d1"
     inkscape:document-units="mm"
     showgrid="false"
     inkscape:zoom="0.1767767"
     inkscape:cx="11962.591"
     inkscape:cy="-8788.734"
     inkscape:window-width="1920"
     inkscape:window-height="991"
     inkscape:window-x="-9"
     inkscape:window-y="-9"
     inkscape:window-maximized="1"
     inkscape:current-layer="layer1"
     showguides="false"
     inkscape:rotation="1"><inkscape:grid
       id="grid1"
       units="mm"
       originx="-12937.984"
       originy="9303.2109"
       spacingx="0.99999998"
       spacingy="1"
       empcolor="#0099e5"
       empopacity="0.30196078"
       color="#0099e5"
       opacity="0.14901961"
       empspacing="5"
       dotted="false"
       gridanglex="30"
       gridanglez="30"
       visible="false" /><sodipodi:guide
       position="-836.86119,-1182.6331"
       orientation="1,0"
       id="guide117"
       inkscape:locked="false" /></sodipodi:namedview><defs
     id="defs1"><linearGradient
       id="linearGradient553"
       inkscape:collect="always"><stop
         style="stop-color:#df8036;stop-opacity:1;"
         offset="0"
         id="stop552" /><stop
         style="stop-color:#d38545;stop-opacity:1;"
         offset="1"
         id="stop553" /></linearGradient><linearGradient
       id="linearGradient551"
       inkscape:collect="always"><stop
         style="stop-color:#c66452;stop-opacity:1;"
         offset="0"
         id="stop550" /><stop
         style="stop-color:#e29733;stop-opacity:1;"
         offset="0.66908562"
         id="stop551" /></linearGradient><linearGradient
       inkscape:collect="always"
       xlink:href="#linearGradient553"
       id="linearGradient229"
       gradientUnits="userSpaceOnUse"
       gradientTransform="translate(4592.8529,-1862.6761)"
       x1="-1116.4065"
       y1="-618.98962"
       x2="-1072.9125"
       y2="-633.79279" /><linearGradient
       inkscape:collect="always"
       xlink:href="#linearGradient551"
       id="linearGradient230"
       gradientUnits="userSpaceOnUse"
       gradientTransform="translate(4588.3008,-1872.742)"
       x1="-1114.7078"
       y1="-631.61328"
       x2="-1079.3386"
       y2="-646.28101" /></defs><g
     inkscape:label="Capa 1"
     inkscape:groupmode="layer"
     id="layer1"
     transform="translate(-3423.1749,2461.4745)"><g
       id="g230"
       transform="translate(-10.64189,71.992267)"><path
         style="fill:#ff80e5;fill-opacity:1;stroke:#020202;stroke-width:7.89092;stroke-opacity:0"
         d="m 3484.2818,-2474.1484 -0.7317,-17.5538 16.7663,-0.2631 8.652,16.0957 z"
         id="path177-9-2-4-0-9-9-6-3-1-2-0-8-3-3-1-1-8-1-5-5-2-2-9-3-9-8"
         sodipodi:nodetypes="ccccc" /><path
         style="fill:url(#linearGradient229);fill-opacity:1;stroke:#020202;stroke-width:7.89092;stroke-opacity:0"
         d="m 3484.2818,-2474.1484 -0.7317,-17.5538 16.7663,-0.2631 8.6519,16.0957 z"
         id="path177-9-2-4-0-9-0-013-2-3-5-3-2-9-7-6-9-9-3-0-6-6-54-2-5-9-2-8-7-3-8-3-1"
         sodipodi:nodetypes="ccccc" /><path
         style="fill:#9d93ac;fill-opacity:1;stroke:#502d16;stroke-width:0.145722;stroke-opacity:0"
         d="m 3500.7604,-2501.597 4.3463,-27.6373 4.8985,-4.1504 4.2767,1.4487 -1.5054,4.7724 -0.8775,3.964 4.4681,-1.9724 4.2764,1.4486 -3.1143,2.555 -2.0637,6.2093 4.0657,-2.5265 4.2766,1.4484 -4.1484,3.9015 -6.9417,14.2681 -9.2971,-0.3278 z"
         id="path248-89-7-8-0-3-0-06-1-5-6-6-0-7-0-7-5-4-9-43-35"
         sodipodi:nodetypes="cccccccccccccccc" /><path
         style="fill:#dedbe3;fill-opacity:1;stroke:#502d16;stroke-width:0.145722;stroke-opacity:0"
         d="m 3505.037,-2500.1489 4.3463,-27.637 4.8986,-4.1502 2.7712,6.2209 -0.8775,3.964 4.4679,-1.9723 1.1622,4.0035 -2.0637,6.2093 4.0658,-2.5266 0.1281,5.3499 -6.9414,14.2682 z"
         id="path248-8-7-35-9-8-0-3-93-3-3-2-1-8-6-0-3-1-7-7-9-75" /><path
         style="fill:#e29733;fill-opacity:1;stroke:#020202;stroke-width:12.3322;stroke-opacity:0"
         d="m 3533.3004,-2472.4884 -13.1066,-25.6945 -11.7604,-10.3668 0.4186,8.468 z"
         id="path179-7-9-9-6-4-2-5-1-10-5-1-8-3-2-1-4-2-6-1-93-2-6-4-4-2-40-20"
         sodipodi:nodetypes="ccccc" /><path
         style="fill:#ecc086;fill-opacity:1;stroke:#020202;stroke-width:12.3322;stroke-opacity:0"
         d="m 3508.9683,-2475.8695 12.5221,-9.7164 -12.6383,-14.4958 -8.5357,8.1165 z"
         id="path178-2-1-7-1-1-1-2-6-0-23-0-7-4-2-6-9-2-0-2-1-1-1-17-0-0-9-36"
         sodipodi:nodetypes="ccccc" /><path
         style="fill:#e2ba1d;fill-opacity:1;stroke:#020202;stroke-width:12.3322;stroke-opacity:0"
         d="m 3533.3241,-2472.5041 0.145,-8.5081 -3.5595,-6.5769 -9.7158,-10.5938 1.3006,12.597 z"
         id="path179-7-9-9-6-4-2-5-1-10-5-1-8-3-2-1-4-2-6-1-93-2-2-4-7-3-8-61-4"
         sodipodi:nodetypes="cccccc" /><path
         style="fill:#d400aa;fill-opacity:1;stroke:#020202;stroke-width:7.89092;stroke-opacity:0"
         d="m 3471.7509,-2509.5671 10.5897,-5.9559 15.8422,0.091 10.2506,6.8826 0.4187,8.468 -8.5357,8.1166 -16.7663,0.2631 -12.1816,-12.3627 z"
         id="path191-30-6-54-0-2-10-7-9-6-2-3-0-7-5-2-2-1-3-7-6-4-23-9-7-9-6"
         sodipodi:nodetypes="ccccccccc" /><path
         style="fill:url(#linearGradient230);fill-opacity:1;stroke:#020202;stroke-width:7.89092;stroke-opacity:0"
         d="m 3471.7509,-2509.5671 10.513,-5.9563 15.9189,0.091 10.2506,6.8826 0.4186,8.4681 -8.5356,8.1166 -16.7663,0.2638 -11.549,-13.2779 z"
         id="path191-30-6-54-0-2-4-7-1-13-1-77-1-5-1-3-1-3-4-9-4-1-0-6-6-4-8-7-5-0-0-45"
         sodipodi:nodetypes="ccccccccc" /><path
         style="fill:#a05b4e;fill-opacity:1;stroke:#020202;stroke-width:12.3322;stroke-opacity:0"
         d="m 3472.4134,-2497.4202 -0.6625,-12.1469 -21.4086,17.1858 0.445,14.4154"
         id="path181-5-0-9-7-0-17-4-0-1-0-5-8-6-0-1-3-8-20-1-7-51-65"
         sodipodi:nodetypes="cccc" /><path
         style="fill:#a66c33;fill-opacity:1;stroke:#020202;stroke-width:12.3322;stroke-opacity:0"
         d="m 3483.55,-2491.7017 -11.1366,-5.7185 -20.1673,20.0485 32.7455,20.25"
         id="path180-6-9-0-6-9-6-9-4-4-89-2-0-3-1-9-3-3-8-2-1-5-2"
         sodipodi:nodetypes="cccc" /><path
         style="fill:#aa8800;fill-opacity:1;stroke:#020202;stroke-width:12.3322;stroke-opacity:0"
         d="m 3462.9841,-2488.0826 -2.0186,-14.3774 -10.6231,10.0786 -3.9322,13.256"
         id="path181-5-0-9-7-0-17-4-0-1-0-5-8-6-0-1-3-9-6-3-7-4-4-86"
         sodipodi:nodetypes="cccc" /><path
         style="fill:#bc9b18;fill-opacity:1;stroke:#020202;stroke-width:12.3322;stroke-opacity:0"
         d="m 3484.2818,-2474.1484 -21.2977,-13.9342 -16.5739,8.9573 38.6986,22.5547"
         id="path180-6-9-0-6-9-6-9-4-4-89-2-0-3-1-9-3-5-8-6-8-8-2-27"
         sodipodi:nodetypes="cccc" /><path
         style="fill:#9d93ac;fill-opacity:1;stroke:#502d16;stroke-width:0.128911;stroke-opacity:0"
         d="m 3482.3157,-2495.6199 -24.3632,-24.7253 -6.0921,0.5706 0.209,3.6879 0.209,3.6881 1.2344,3.9178 8.6295,6.4045 -5.5809,-2.0803 -6.053,0.027 2.5088,8.7662 8.2054,6.2635 -5.4423,-1.2196 -5.7172,1.1157 2.4688,7.8355 11.5964,5.9172 19.4218,-16.2504 z"
         id="path250-3-6-8-9-6-7-3-5-8-8-4-8-3-3-9-0-9"
         sodipodi:nodetypes="ccccccccccccccccc" /><path
         style="fill:#dedbe3;fill-opacity:1;stroke:#502d16;stroke-width:0.128911;stroke-opacity:0"
         d="m 3483.5501,-2491.7022 -24.3632,-24.7253 -6.0921,0.5707 0.418,7.3761 9.8638,10.3222 -5.5808,-2.0801 -6.0529,0.027 2.5087,8.7662 8.2054,6.2634 -5.4424,-1.2196 -5.7171,1.1157 2.4688,7.8355 11.5964,5.9172 z"
         id="path250-2-4-7-5-5-8-3-1-2-6-5-1-91-8-7-2-6-8"
         sodipodi:nodetypes="cccccccccccccc" /><path
         style="fill:#dedbe3;fill-opacity:1;stroke:#502d16;stroke-width:0.128911;stroke-opacity:0"
         d="m 3483.5501,-2491.7022 -24.3632,-24.7253 -6.0921,0.5707 0.418,7.3761 9.8638,10.3222 -5.5808,-2.0802 -6.0529,0.027 2.5087,8.7663 8.2054,6.2634 -5.4424,-1.2196 -5.7171,1.1156 2.4688,7.8356 11.5964,5.9171 z"
         id="path250-2-4-7-5-5-8-3-1-2-6-5-1-91-0-2-1-3-0-5-5-4-5-1-36"
         sodipodi:nodetypes="cccccccccccccc" /><path
         style="fill:#e2ba1d;fill-opacity:1;stroke:#020202;stroke-width:12.3322;stroke-opacity:0"
         d="m 3533.4751,-2472.5042 -0.01,-8.5081 -3.5595,-6.5769 -9.7158,-10.5939 1.3006,12.5971 z"
         id="path179-7-9-9-6-4-2-5-1-10-5-1-8-3-2-1-4-2-6-1-93-2-2-4-2-2-6-2-3-01-1-7-9-6-3-4"
         sodipodi:nodetypes="cccccc" /><path
         style="fill:#ebd169;fill-opacity:1;stroke:#020202;stroke-width:12.3322;stroke-opacity:0"
         d="m 3516.5187,-2459.3087 16.9564,-13.1955 -11.9807,-13.0819 -12.526,9.7164 z"
         id="path178-2-1-7-1-1-1-2-6-0-23-0-7-4-2-6-9-2-0-2-1-1-7-3-7-4-6-5-5-96-9-0-3-3-3-37"
         sodipodi:nodetypes="ccccc" /><path
         style="fill:#e7c542;fill-opacity:1;stroke:#020202;stroke-width:12.3322;stroke-opacity:0"
         d="m 3485.1087,-2456.5706 -0.827,-17.5779 24.6866,-1.7212 7.5504,16.561 z"
         id="path177-9-2-4-0-9-0-013-2-3-5-3-2-4-8-2-7-7-5-5-34-5-6-8-5-8-3-9-2-81-7-4-9-9-0-1"
         sodipodi:nodetypes="ccccc" /></g></g></svg>
