<?xml version="1.0" encoding="UTF-8" standalone="no"?>
<!-- Created with Inkscape (http://www.inkscape.org/) -->

<svg
   width="226.63681mm"
   height="137.45129mm"
   viewBox="0 0 226.63681 137.45129"
   version="1.1"
   id="svg1"
   inkscape:version="1.3 (0e150ed6c4, 2023-07-21)"
   sodipodi:docname="Dwarves mina.svg"
   xml:space="preserve"
   xmlns:inkscape="http://www.inkscape.org/namespaces/inkscape"
   xmlns:sodipodi="http://sodipodi.sourceforge.net/DTD/sodipodi-0.dtd"
   xmlns:xlink="http://www.w3.org/1999/xlink"
   xmlns="http://www.w3.org/2000/svg"
   xmlns:svg="http://www.w3.org/2000/svg"><sodipodi:namedview
     id="namedview1"
     pagecolor="#ffffff"
     bordercolor="#000000"
     borderopacity="0.25"
     inkscape:showpageshadow="2"
     inkscape:pageopacity="0.0"
     inkscape:pagecheckerboard="0"
     inkscape:deskcolor="#d1d1d1"
     inkscape:document-units="mm"
     showgrid="false"
     inkscape:zoom="0.03125"
     inkscape:cx="17503.649"
     inkscape:cy="-1089.6468"
     inkscape:window-width="1920"
     inkscape:window-height="991"
     inkscape:window-x="-9"
     inkscape:window-y="-9"
     inkscape:window-maximized="1"
     inkscape:current-layer="layer1"
     showguides="false"
     inkscape:rotation="1"><inkscape:grid
       id="grid1"
       units="mm"
       originx="-25237.556"
       originy="-11367.266"
       spacingx="0.99999998"
       spacingy="1"
       empcolor="#0099e5"
       empopacity="0.30196078"
       color="#0099e5"
       opacity="0.14901961"
       empspacing="5"
       dotted="false"
       gridanglex="30"
       gridanglez="30"
       visible="false" /><sodipodi:guide
       position="-4091.123,4286.4304"
       orientation="1,0"
       id="guide117"
       inkscape:locked="false" /></sodipodi:namedview><defs
     id="defs1"><linearGradient
       id="linearGradient110"
       inkscape:collect="always"><stop
         style="stop-color:#5d536c;stop-opacity:1;"
         offset="0"
         id="stop109" /><stop
         style="stop-color:#000000;stop-opacity:1;"
         offset="1"
         id="stop110" /></linearGradient><linearGradient
       id="linearGradient99"
       inkscape:collect="always"><stop
         style="stop-color:#5d536c;stop-opacity:1;"
         offset="0"
         id="stop99" /><stop
         style="stop-color:#766b92;stop-opacity:1;"
         offset="1"
         id="stop102" /></linearGradient><linearGradient
       inkscape:collect="always"
       xlink:href="#linearGradient99"
       id="linearGradient25"
       gradientUnits="userSpaceOnUse"
       gradientTransform="matrix(-1,0,0,1,10268.507,-532.39834)"
       x1="7694.168"
       y1="2232.4348"
       x2="7690.1602"
       y2="2242.6094" /><linearGradient
       inkscape:collect="always"
       xlink:href="#linearGradient110"
       id="linearGradient27"
       gradientUnits="userSpaceOnUse"
       gradientTransform="matrix(-0.63999998,0,0,0.63999998,7035.0893,1166.5836)"
       x1="7000.6221"
       y1="839.13086"
       x2="7006.6138"
       y2="825.94482" /><linearGradient
       inkscape:collect="always"
       xlink:href="#linearGradient99"
       id="linearGradient29"
       gradientUnits="userSpaceOnUse"
       gradientTransform="matrix(-1,0,0,1,15811.265,-144.66876)"
       x1="7694.168"
       y1="2232.4348"
       x2="7690.1602"
       y2="2242.6094" /><linearGradient
       inkscape:collect="always"
       xlink:href="#linearGradient110"
       id="linearGradient58"
       gradientUnits="userSpaceOnUse"
       gradientTransform="matrix(-0.63999998,0,0,0.63999998,12577.847,1554.3132)"
       x1="7000.6221"
       y1="839.13086"
       x2="7006.6138"
       y2="825.94482" /></defs><g
     inkscape:label="Capa 1"
     inkscape:groupmode="layer"
     id="layer1"
     transform="translate(-6677.4367,-3007.589)"><g
       id="g632-9-6-4-1-7-7"
       transform="translate(4281.6432,1425.1655)"><path
         style="fill:#beb7c8;fill-opacity:1;stroke-width:0.04;stroke-linecap:round"
         d="m 2469.2128,1617.5848 39.9619,-14.6445 39.8536,14.6445 -39.8539,24.8317 -39.9616,-24.8317 v 0"
         id="path83-9-96-4-3-9-8-5"
         sodipodi:nodetypes="cccccc" /><path
         style="fill:#7c6f91;fill-opacity:1;stroke-width:0.04;stroke-linecap:round"
         d="m 2469.213,1617.5839 39.9616,-15.6095 v 40.4412 l -39.9616,-24.8317 v 0"
         id="path83-3-5-02-4-6-7-9-2"
         sodipodi:nodetypes="ccccc" /><path
         id="path97-3-59-6-6-9-7-4-7-9-54-4-5-2-9-9-70-5-2-3-6-2-5-8-1-47-7-2-1-3-5"
         style="fill:#7c6f91;fill-opacity:1;stroke:#020202;stroke-width:0.218821;stroke-opacity:0"
         d="m 2509.0853,1654.6305 14.3621,-2.7442 c 4.6475,17.7432 6.2253,23.7662 13.0428,49.794 l -27.3663,-21.6116 z"
         sodipodi:nodetypes="ccccc" /><path
         id="path40-50-5-7-2-0-7-3-9-2-2-02-6-6-9-0-96-0-47-29-2-6-3-0-1-5-2-3-9-2-3-6-9"
         style="fill:#733100;fill-opacity:1;stroke-width:0.340162;stroke-opacity:0.970874"
         d="m 2509.0465,1639.6693 0.039,14.9612 14.3615,-2.7445 -1.4393,-5.4973 z"
         sodipodi:nodetypes="ccccc" /><path
         id="path97-3-59-6-6-9-7-4-7-9-54-4-5-2-9-9-9-2-9-5-2-6-0-8-9-3-3-3-8-8-9"
         style="fill:#beb7c8;fill-opacity:1;stroke:#020202;stroke-width:0.218821;stroke-opacity:0"
         d="m 2494.7939,1651.8864 -13.0032,49.6469 27.2937,-21.3525 v -25.5503 z"
         sodipodi:nodetypes="ccccc" /><path
         style="fill:#b26531;fill-opacity:1;stroke:#000000;stroke-width:3.168;stroke-opacity:0"
         d="m 2451.6617,1619.4372 17.5511,-1.8524 22.6725,12.0433 c -7.2358,12.6485 -12.9229,-4.9959 -26.1646,-1.694"
         id="path144-8-5-8-3-2-5-43-4-44-8-8-5-6-8-0-1-7-0-9-9-9-3-2-1-3"
         sodipodi:nodetypes="cccc" /><path
         id="path40-12-83-5-5-9-6-7-7-1-2-3-3-5-5-7-6-1-2-6-8-6-8-1-9-8-1-0"
         style="fill:#7c6f91;fill-opacity:1;stroke-width:3.27509;stroke-opacity:0.970874"
         d="m 2444.78,1658.8876 -8.3965,32.0411 41.1166,14.3577 4.6855,-3.9533 4.6466,-19.0384 z"
         sodipodi:nodetypes="cccccc" /><path
         id="path186-2-1-0-1-5-9-58-3-9-8-0-7-7-0-6-0-3-9-7-87-4-4-3-0-7"
         style="fill:#000000;fill-opacity:1;stroke:#000000;stroke-width:3.168;stroke-opacity:0"
         d="m 2448.4261,1698.9487 16.4204,9.1472 7.3197,-12.2945 -2.9354,-3.1538 6.7135,-11.2765 -20.2036,-13.8333 z"
         sodipodi:nodetypes="ccccccc" /><path
         id="path199-7-8-4-8-4-7-4-8-1-4-7-0-9-9-3-64-4-5-4-8-4-7-94-6-4-4-9-6-8"
         style="fill:#ebd169;fill-opacity:1;stroke:#bc9b18;stroke-width:0.0487053;stroke-dasharray:none;stroke-opacity:0"
         d="m 2448.0134,1681.2286 -4.873,2.8887 1.0952,11.5407 -0.6825,6.1794 4.873,-2.8887 8.9359,-34.2836 z m 24.1528,14.5729 -4.8731,2.8887 1.095,11.5417 4.665,-2.9405 4.8729,-2.8887 0.9347,-4.5615 z"
         sodipodi:nodetypes="cccccccccccccc" /><path
         style="fill:#502d16;fill-opacity:1;stroke:#000000;stroke-width:0.055968;stroke-dasharray:none;stroke-opacity:0"
         d="m 2477.7664,1688.2973 -8.5834,3.1755 -1.8891,7.2152 8.5836,-3.1755 m -18.6391,-2.4328"
         id="path219-5-6-1-5-2-0-3-61-8-0-7-5-45-1-5-3-5-0-2-6-52-7-3-2-1-3"
         sodipodi:nodetypes="cccc" /><path
         id="path199-7-8-4-8-4-7-4-8-1-2-1-1-06-3-6-9-7-6-4-6-4-4-7-6-9-7-3-2-8"
         style="fill:#ebd169;fill-opacity:1;stroke:#bc9b18;stroke-width:0.0487053;stroke-dasharray:none;stroke-opacity:0"
         d="m 2451.7915,1666.7982 -4.8731,2.8888 z m 24.1528,14.5729 -4.8732,2.8887 1.0951,11.5418 1.8215,6.9284 4.873,-2.8887 3.778,-14.4305 z"
         sodipodi:nodetypes="cccccccccc" /><path
         id="path199-7-8-4-8-4-0-1-7-50-2-9-1-6-3-3-4-6-7-10-3-0-7-3-6-65-7-2-7-7-6"
         style="fill:#bc9b18;fill-opacity:1;stroke:#bc9b18;stroke-width:0.0487053;stroke-dasharray:none;stroke-opacity:0"
         d="m 2444.4143,1668.9384 -3.7779,14.4294 6.6946,4.0396 3.7779,-14.4299 z m 26.6568,15.3214 -3.778,14.4305 -0.2487,0.9082 0.8337,-0.514 6.1096,3.6455 3.7781,-14.4305 z"
         sodipodi:nodetypes="cccccccccccc" /><path
         id="path40-12-83-5-84-43-7-6-2-8-9-3-1-7-3-4-4-9-3-9-0-89-0-3-1-6-8"
         style="fill:#7c6f91;fill-opacity:1;stroke-width:3.27509;stroke-opacity:0.970874"
         d="m 2454.2363,1622.7676 -10.2842,39.2807 41.6091,25.1068 10.2844,-39.2818 z"
         sodipodi:nodetypes="ccccc" /><path
         style="fill:#7c6f91;fill-opacity:1;stroke-width:0.340162;stroke-opacity:0.970874"
         d="m 2455.9833,1622.0445 -1.4393,5.4973 -4.3216,-2.6075 1.4393,-5.4974 z"
         id="path40-51-7-89-4-7-8-2-5-3-4-9-3-0-3-1-4-4-1-1-2-00-0-8-85-2-3-9-4-4-5" /><path
         id="path186-2-5-11-6-6-5-7-7-2-8-3-2-1-1-8-0-5-14-6-2-2-4-6-9"
         style="fill:#000000;fill-opacity:1;stroke:#000000;stroke-width:3.168;stroke-opacity:0"
         d="m 2463.8413,1631.2146 -9.6849,36.9919 19.0205,11.4765 9.6881,-37.0042 z" /><path
         style="fill:#000000;fill-opacity:1;stroke:#000000;stroke-width:3.168;stroke-opacity:0"
         d="m 2486.9134,1655.1926 2.0637,-7.0223 -6.5668,-3.7545 -2.649,6.6818 -0.2878,4.5352"
         id="path187-7-8-1-6-15-0-4-5-3-73-0-0-5-2-2-3-95-03-1-8-9-4-8"
         sodipodi:nodetypes="ccccc" /><path
         style="fill:#010101;fill-opacity:1;stroke:#000000;stroke-width:3.168;stroke-opacity:0"
         d="m 2456.8592,1628.9854 6.5521,3.9071 -0.4045,5.085 -2.5198,6.1277 -5.2224,-8.1797"
         id="path188-5-97-0-1-2-2-9-1-1-0-8-0-8-2-3-0-2-86-0-9-9-1-7"
         sodipodi:nodetypes="ccccc" /><path
         id="path198-9-7-1-3-5-0-9-4-9-0-0-4-2-6-25-8-3-5-4-2-7-1-7-0-6-4"
         style="fill:#ebd169;fill-opacity:1;stroke:#000000;stroke-width:3.168;stroke-opacity:0"
         d="m 2453.0965,1651.5121 -4.8811,2.9076 4.2196,8.8979 8.59,-2.1447 9.5782,1.4119 7.862,9.1731 -2.5114,9.5926 1.812,6.9491 4.882,-2.9071 3.8791,-14.8164 v 0 l 0.087,-0.3329 -13.7697,-16.2261 z"
         sodipodi:nodetypes="cccccccccccccc" /><path
         id="path19-94-1-6-3-0-6-6-0-0-5-3-9-5-2-3-9-5-0-3-9-8-5-1-6-9-5-3-9"
         style="fill:#000000;fill-opacity:0.851942;stroke-width:0.349618;stroke-opacity:0.970874"
         d="m 2465.7802,1634.9507 -1.5631,0.8827 -1.2101,2.1441 -0.3955,2.5858 0.5705,2.0406 1.3191,0.7153 1.5636,-0.8834 1.2104,-2.1441 0.3955,-2.5858 -0.5714,-2.04 z m -0.2301,1.5061 0.8442,0.4577 0.3651,1.3061 -0.2526,1.6548 -0.7749,1.372 -1.0007,0.5651 -0.8442,-0.4576 -0.3651,-1.3056 0.2529,-1.6549 0.7748,-1.3726 z" /><path
         id="path19-94-1-6-5-6-2-0-9-5-3-3-6-9-6-11-7-4-7-4-9-9-6-64-0-3-9-8-0"
         style="fill:#000000;fill-opacity:0.851942;stroke-width:0.349618;stroke-opacity:0.970874"
         d="m 2468.7645,1623.6372 -1.5629,0.8827 -1.2103,2.1441 -0.3955,2.5858 0.5706,2.0406 1.319,0.7153 1.5637,-0.8834 1.2103,-2.1441 0.3955,-2.5858 -0.5712,-2.0401 z m -0.23,1.5061 0.8442,0.4576 0.365,1.3062 -0.2524,1.6547 -0.7751,1.3721 -1.0006,0.5651 -0.8442,-0.4576 -0.3652,-1.3056 0.253,-1.6549 0.7747,-1.3726 z" /><path
         id="path19-94-1-6-6-8-0-4-2-1-4-0-7-8-0-3-5-6-9-3-7-9-8-8-0-3-7-9-6"
         style="fill:#000000;fill-opacity:0.851942;stroke-width:0.349618;stroke-opacity:0.970874"
         d="m 2462.8191,1646.2621 -1.563,0.8827 -1.2102,2.144 -0.3955,2.5858 0.5706,2.0407 1.3189,0.7152 1.5638,-0.8834 1.2103,-2.144 0.3955,-2.5858 -0.5712,-2.0401 z m -0.2301,1.5061 0.8442,0.4576 0.3651,1.3062 -0.2525,1.6547 -0.775,1.3721 -1.0007,0.5651 -0.8442,-0.4577 -0.3652,-1.3055 0.2531,-1.655 0.7747,-1.3725 z" /><path
         id="path40-50-5-7-2-0-2-3-5-7-0-1-1-7-5-2-28-0-4-9-4-6-7-3-3-3-3-26-7-2-2-3-6"
         style="fill:#733100;fill-opacity:1;stroke-width:0.340162;stroke-opacity:0.970874"
         d="m 2451.6617,1619.4372 -1.4392,5.4972 4.3215,2.6074 4.3215,2.6075 0.3044,0.1835 0.7916,0.4775 3.5297,2.1305 4.322,2.6073 4.3214,2.6076 1.4393,-5.4972 -4.3214,-2.6076 -4.3219,-2.6079 -0.3038,-0.1836 -4.0177,-2.4239 -0.3044,-0.1835 -4.3214,-2.6075 z" /><path
         style="fill:#9d93ac;fill-opacity:1;stroke:#000000;stroke-width:3.168;stroke-opacity:0"
         d="m 2468.0338,1619.0981 4.322,2.6074 15.9993,-2.2683 -4.3208,-2.608 z"
         id="path99-2-2-6-7-28-4-3-1-4-35-8-3-9-6-4-5-03-8-9-1-0-7-0-6-5-8"
         sodipodi:nodetypes="ccccc" /><path
         id="path40-50-5-7-2-0-7-3-9-2-2-02-6-6-9-0-96-0-6-93-9-97-6-8-3-6-1-2-9-1-3-5-6"
         style="fill:#a05a2c;fill-opacity:1;stroke-width:0.340162;stroke-opacity:0.970874"
         d="m 2509.1947,1639.6693 -0.1094,14.9612 -14.2909,-2.7445 1.4393,-5.4973 z"
         sodipodi:nodetypes="ccccc" /><path
         style="fill:#7c6f91;fill-opacity:1;stroke-width:0.340162;stroke-opacity:0.970874"
         d="m 2562.2579,1622.0445 1.4393,5.4973 4.3216,-2.6075 -1.4393,-5.4974 z"
         id="path40-51-7-89-4-7-8-2-5-3-4-9-3-0-3-1-0-25-3-0-2-2-6-1-6-81-1-7-7-2-4" /><path
         style="fill:#9d93ac;fill-opacity:1;stroke:#000000;stroke-width:3.168;stroke-opacity:0"
         d="m 2550.2075,1619.0981 -4.322,2.6074 -15.9994,-2.2683 4.3209,-2.608 z"
         id="path99-2-2-6-7-28-4-3-1-4-35-8-7-1-7-0-5-69-9-8-0-27-6-4-1-1-7"
         sodipodi:nodetypes="ccccc" /><path
         style="fill:#b26531;fill-opacity:1;stroke:#000000;stroke-width:3.168;stroke-opacity:0"
         d="m 2566.5795,1619.4372 -17.5511,-1.8524 -22.6725,12.0433 c 7.2359,12.6485 12.9229,-4.9959 26.1647,-1.694"
         id="path144-8-5-8-3-2-5-43-4-44-8-6-87-2-1-6-3-1-9-1-4-3-4-0-8-6"
         sodipodi:nodetypes="cccc" /><path
         id="path40-12-83-5-5-9-6-7-7-1-2-3-3-0-25-6-4-8-1-5-9-02-47-7-4-3-4-3"
         style="fill:#beb7c8;fill-opacity:1;stroke-width:3.27509;stroke-opacity:0.970874"
         d="m 2573.4612,1658.8876 8.3966,32.0411 -45.3346,10.884 -4.6709,-17.8193 z"
         sodipodi:nodetypes="ccccc" /><path
         id="path186-2-1-0-1-5-9-58-3-9-8-1-0-3-1-4-2-9-9-2-1-5-1-9-3-0"
         style="fill:#000000;fill-opacity:1;stroke:#000000;stroke-width:3.168;stroke-opacity:0"
         d="m 2569.8151,1698.9487 -16.4204,9.1472 -7.3196,-12.2945 2.9353,-3.1538 -6.7134,-11.2765 20.2036,-13.8333 z"
         sodipodi:nodetypes="ccccccc" /><path
         id="path199-7-8-4-8-4-7-4-8-1-4-7-0-9-9-8-7-3-7-1-0-0-7-1-70-7-5-6-7-8"
         style="fill:#bc9b18;fill-opacity:1;stroke:#bc9b18;stroke-width:0.0487053;stroke-dasharray:none;stroke-opacity:0"
         d="m 2570.2279,1681.2286 4.8729,2.8887 -1.0952,11.5407 0.6826,6.1794 -4.8731,-2.8887 -8.9359,-34.2836 z m -24.1528,14.5729 4.873,2.8887 -1.095,11.5417 -9.0423,-4.9277 -1.4303,-5.463 z"
         sodipodi:nodetypes="ccccccccccccc" /><path
         style="fill:#502d16;fill-opacity:1;stroke:#000000;stroke-width:0.055968;stroke-dasharray:none;stroke-opacity:0"
         d="m 2540.4748,1688.2973 8.5835,3.1755 1.889,7.2152 -8.5835,-3.1755 m 18.639,-2.4328"
         id="path219-5-6-1-5-2-0-3-61-8-0-7-8-7-0-2-7-0-5-3-9-6-6-2-1-8-9"
         sodipodi:nodetypes="cccc" /><path
         id="path199-7-8-4-8-4-7-4-8-1-2-1-1-06-3-0-6-8-9-0-7-6-2-7-0-1-5-4-7-3"
         style="fill:#bc9b18;fill-opacity:1;stroke:#bc9b18;stroke-width:0.0487053;stroke-dasharray:none;stroke-opacity:0"
         d="m 2566.4498,1666.7982 4.873,2.8888 z m -24.1528,14.5729 4.8731,2.8887 -1.095,11.5418 -1.8216,6.9284 -4.873,-2.8887 -3.778,-14.4305 z"
         sodipodi:nodetypes="cccccccccc" /><path
         id="path199-7-8-4-8-4-0-1-7-50-2-9-1-6-3-3-1-8-1-0-7-3-9-5-3-6-4-8-2-6-6"
         style="fill:#ebd169;fill-opacity:1;stroke:#bc9b18;stroke-width:0.0487053;stroke-dasharray:none;stroke-opacity:0"
         d="m 2573.827,1668.9384 3.7778,14.4294 -6.6945,4.0396 -3.778,-14.4299 z m -26.6569,15.3214 3.7781,14.4305 -6.6947,4.0397 -3.778,-14.4305 z"
         sodipodi:nodetypes="cccccccccc" /><path
         style="fill:#502d16;fill-opacity:1;stroke:#000000;stroke-width:0.055968;stroke-dasharray:none;stroke-opacity:0"
         d="m 2536.6967,1673.8668 8.5836,3.1755 1.8889,7.2152 -8.5834,-3.1755 m 18.639,-2.4328"
         id="path219-5-6-1-5-2-0-1-6-0-9-3-02-49-3-0-1-3-6-1-5-0-9-0-3-7-3"
         sodipodi:nodetypes="cccc" /><path
         id="path40-12-83-5-84-43-7-6-2-8-9-3-9-6-6-7-4-5-1-5-1-1-5-8-4-5-1"
         style="fill:#beb7c8;fill-opacity:1;stroke-width:3.27509;stroke-opacity:0.970874"
         d="m 2564.005,1622.7676 10.2841,39.2807 -41.6091,25.1068 -10.2844,-39.2818 z"
         sodipodi:nodetypes="ccccc" /><path
         id="path186-2-5-11-6-6-5-7-7-2-9-2-1-3-1-2-0-2-3-5-2-5-5-4-0"
         style="fill:#000000;fill-opacity:1;stroke:#000000;stroke-width:3.168;stroke-opacity:0"
         d="m 2554.3999,1631.2146 9.6849,36.9919 -19.0205,11.4765 -9.688,-37.0042 z" /><path
         style="fill:#000000;fill-opacity:1;stroke:#000000;stroke-width:3.168;stroke-opacity:0"
         d="m 2531.3279,1655.1926 -2.0637,-7.0223 6.5668,-3.7545 2.6489,6.6818 0.2879,4.5352"
         id="path187-7-8-1-6-15-0-4-5-1-6-9-6-5-4-8-5-1-8-2-1-6-1-5"
         sodipodi:nodetypes="ccccc" /><path
         style="fill:#010101;fill-opacity:1;stroke:#000000;stroke-width:3.168;stroke-opacity:0"
         d="m 2561.382,1628.9854 -6.5521,3.9071 0.4045,5.085 2.5199,6.1277 5.2224,-8.1797"
         id="path188-5-97-0-1-2-2-9-1-6-8-9-8-0-2-1-8-1-2-6-2-2-5-2"
         sodipodi:nodetypes="ccccc" /><path
         id="path198-9-7-1-3-5-0-9-4-9-0-0-42-2-1-87-9-23-3-7-1-2-4-8-8-6-5"
         style="fill:#bc9b18;fill-opacity:1;stroke:#000000;stroke-width:3.168;stroke-opacity:0"
         d="m 2565.1447,1651.5121 4.8812,2.9076 -4.2196,8.8979 -8.59,-2.1447 -9.5783,1.4119 -7.862,9.1731 2.5115,9.5926 -1.812,6.9491 -4.882,-2.9071 -3.8792,-14.8164 v 0 l -0.087,-0.3329 13.7698,-16.2261 z"
         sodipodi:nodetypes="cccccccccccccc" /><path
         id="path198-9-7-8-2-4-8-35-7-7-0-1-5-0-4-9-8-5-7-8-8-8-9-9-1-2"
         style="fill:#ebd169;fill-opacity:1;stroke:#000000;stroke-width:3.168;stroke-opacity:0"
         d="m 2570.0259,1654.4197 3.8745,14.7991 -6.694,4.0418 -1.5882,-6.0663 -0.9324,-3.5616 -12.1667,1.859 -7.862,9.1731 2.5115,9.5927 -6.6942,4.0419 -3.8791,-14.8164 v 0 l -0.087,-0.3328 13.7698,-16.2262 z"
         sodipodi:nodetypes="cccccccccccccc" /><path
         id="path19-94-1-6-3-0-6-6-0-0-5-3-9-5-7-5-1-6-8-1-0-1-3-68-3-5-9-9-6"
         style="fill:#000000;fill-opacity:0.851942;stroke-width:0.349618;stroke-opacity:0.970874"
         d="m 2552.4611,1634.9507 1.563,0.8827 1.2102,2.1441 0.3955,2.5858 -0.5706,2.0406 -1.319,0.7153 -1.5637,-0.8834 -1.2103,-2.1441 -0.3955,-2.5858 0.5713,-2.04 z m 0.23,1.5061 -0.8441,0.4577 -0.3651,1.3061 0.2525,1.6548 0.775,1.372 1.0006,0.5651 0.8443,-0.4576 0.3651,-1.3056 -0.253,-1.6549 -0.7748,-1.3726 z" /><path
         id="path19-94-1-6-5-6-2-0-9-5-3-3-6-9-1-26-0-9-1-2-4-0-7-1-9-9-1-8-1"
         style="fill:#000000;fill-opacity:0.851942;stroke-width:0.349618;stroke-opacity:0.970874"
         d="m 2549.4767,1623.6372 1.5629,0.8827 1.2103,2.1441 0.3956,2.5858 -0.5707,2.0406 -1.3189,0.7153 -1.5638,-0.8834 -1.2102,-2.1441 -0.3956,-2.5858 0.5712,-2.0401 z m 0.23,1.5061 -0.8441,0.4576 -0.3651,1.3062 0.2524,1.6547 0.7752,1.3721 1.0005,0.5651 0.8443,-0.4576 0.3652,-1.3056 -0.2531,-1.6549 -0.7747,-1.3726 z" /><path
         id="path19-94-1-6-6-8-0-4-2-1-4-0-7-8-8-3-0-7-7-3-8-8-3-0-50-1-6-2-1"
         style="fill:#000000;fill-opacity:0.851942;stroke-width:0.349618;stroke-opacity:0.970874"
         d="m 2555.4221,1646.2621 1.563,0.8827 1.2103,2.144 0.3954,2.5858 -0.5705,2.0407 -1.319,0.7152 -1.5638,-0.8834 -1.2103,-2.144 -0.3954,-2.5858 0.5712,-2.0401 z m 0.2302,1.5061 -0.8443,0.4576 -0.3651,1.3062 0.2526,1.6547 0.7749,1.3721 1.0007,0.5651 0.8442,-0.4577 0.3652,-1.3055 -0.253,-1.655 -0.7748,-1.3725 z" /><path
         id="path40-50-5-7-2-0-2-3-5-7-0-1-1-7-5-2-28-0-5-6-3-4-9-0-6-1-3-6-44-0-8-1-1"
         style="fill:#a05a2c;fill-opacity:1;stroke-width:0.340162;stroke-opacity:0.970874"
         d="m 2566.5795,1619.4372 1.4392,5.4972 -4.3215,2.6074 -4.3214,2.6075 -0.3044,0.1835 -0.7916,0.4775 -3.5298,2.1305 -4.322,2.6073 -4.3213,2.6076 -1.4393,-5.4972 4.3213,-2.6076 4.322,-2.6079 0.3037,-0.1836 4.0177,-2.4239 0.3045,-0.1835 4.3213,-2.6075 z" /><path
         id="path40-12-8-4-8-4-0-9-3-3-0-6-7-1-9-6-8-3-2-1-8-6-3-6-6-3-8-9-55-2-8-3-3-3"
         style="fill:#beb7c8;fill-opacity:1;stroke-width:0.340162;stroke-opacity:0.970874"
         d="m 2550.207,1619.0973 1.4382,5.4934 v 0.011 l 1.4381,5.4929 1.4393,5.4972 0.5456,2.0838 v 0.011 l 0.5439,2.0777 0.8943,3.4157 0.5438,2.077 v 0.011 l 0.8927,3.4096 0.5455,2.0837 2.5032,9.561 -4.3215,2.6074 -2.5031,-9.5609 -0.5456,-2.0838 -0.8925,-3.409 v -0.011 l -0.5438,-2.0771 -0.8943,-3.4158 -0.5437,-2.0771 v -0.011 l -0.5456,-2.0838 -1.4392,-5.4972 -1.4381,-5.4927 v -0.011 l -1.4383,-5.4934 z"
         sodipodi:nodetypes="ccccccccccccccccccccccccccccc" /><path
         style="fill:#7c6f91;fill-opacity:1;stroke:#000000;stroke-width:3.168;stroke-opacity:0"
         d="m 2545.8859,1621.7059 c -8.9521,-1.2696 -11.612,-1.6466 -15.9998,-2.2687 l 2.6689,26.177 7.9296,-4.0079 3.6492,13.8996 12.5461,7.4233"
         id="path96-1-9-1-9-4-6-6-49-8-3-0-56-9-3-4-7-71-4-4-70-7-6-7-9-4-2"
         sodipodi:nodetypes="cccccc" /><path
         id="path40-50-5-7-2-0-7-9-5-0-1-7-8-63-6-5-2-6-97-6-0-8-1-4-3-1-0-8-2-3-2-9"
         style="fill:#a05a2c;fill-opacity:1;stroke-width:0.340162;stroke-opacity:0.970874"
         d="m 2543.9202,1633.1678 1.4393,5.4972 -4.3216,2.6075 -4.3214,2.6074 -0.3045,0.1835 -0.7915,0.4776 -3.5298,2.1304 -4.322,2.6074 -4.3214,2.6075 -1.4393,-5.4972 4.3215,-2.6076 4.3219,-2.6079 0.3037,-0.1836 4.0176,-2.4239 0.3045,-0.1835 4.3215,-2.6074 z" /><path
         style="fill:#5d536c;fill-opacity:1;stroke-width:0.24;stroke-dasharray:none"
         d="m 2569.8151,1698.9487 -19.4688,-2.6574 3.0484,11.8046"
         id="path153-0-6-0-2-25-7-3-9-7-2-6-5-1-1-21-3-9-0-4-6-2"
         sodipodi:nodetypes="ccc" /><path
         style="fill:#9d93ac;fill-opacity:1;stroke:#000000;stroke-width:3.168;stroke-opacity:0"
         d="m 2550.2075,1619.0982 -4.322,2.6073 -15.9994,-2.2683 4.3209,-2.608 z"
         id="path99-2-2-6-7-28-4-3-1-4-35-8-3-9-6-6-36-2-0-0-5-8-2-4-4-7-1-3"
         sodipodi:nodetypes="ccccc" /><path
         style="fill:url(#linearGradient25);stroke:none;stroke-width:0.04;stroke-linecap:round"
         d="m 2573.826,1713.8775 -22.9689,-5.7817 18.1715,-9.0881 0.7865,-0.059 11.5676,-1.151 35.8163,-8.5481"
         id="path84-0-94-0-9-3-9-1-9-8-4-1"
         sodipodi:nodetypes="cccccc" /><path
         id="rect4-9-3-9-3-8-4-9-2-5-3-3-6-4-3-6-1-8-3-8"
         style="fill:#aca4b9;fill-opacity:1;stroke:#000000;stroke-width:0.0500918;stroke-dasharray:none;stroke-opacity:0"
         d="m 2574.2721,1662.0823 48.1182,20.709 -5.1913,6.4582 -41.7107,-13.8476 -1.2064,-4.6267 1.8909,-1.5403 z"
         sodipodi:nodetypes="ccccccc" /><path
         style="fill:#7c6f91;fill-opacity:1;stroke:none;stroke-width:0.04;stroke-linecap:round"
         d="m 2574.8851,1673.0886 6.3574,24.7431 35.9565,-8.5821"
         id="path82-1-5-8-3-3-8-8-7-9-4-2"
         sodipodi:nodetypes="ccc" /><path
         style="fill:url(#linearGradient27);fill-opacity:1;stroke:none;stroke-width:0.192;stroke-dasharray:none"
         d="m 2565.8923,1698.4172 -15.5751,-2.1259 2.4387,9.4437"
         id="path153-0-6-0-2-25-7-4-8-3-02-8-9-2-1-7-6-2-9-6-9-6-4"
         sodipodi:nodetypes="ccc" /><g
         id="g105-2-6-2-7-0-6"
         transform="matrix(-1,0,0,1,10560.982,-387.76361)"><path
           style="fill:#5d536c;fill-opacity:1;stroke-width:0.24;stroke-dasharray:none"
           d="m 8112.5727,2086.6783 -19.4688,-2.6574 3.0484,11.8046"
           id="path153-0-6-0-2-25-7-3-9-7-2-6-5-1-1-21-5-2-1-1-1-3-3"
           sodipodi:nodetypes="ccc" /><path
           style="fill:url(#linearGradient29);stroke:none;stroke-width:0.04;stroke-linecap:round"
           d="m 8116.4286,2101.6625 -22.8139,-5.8371 18.1715,-9.0881 0.7865,-0.059 11.5676,-1.151 35.8163,-8.5481"
           id="path84-0-94-0-9-3-1-9-1-1-7-6-1"
           sodipodi:nodetypes="cccccc" /><path
           style="fill:url(#linearGradient58);fill-opacity:1;stroke:none;stroke-width:0.192;stroke-dasharray:none"
           d="m 8108.6499,2086.1468 -15.5751,-2.1259 2.4387,9.4437"
           id="path153-0-6-0-2-25-7-4-8-3-02-8-9-2-1-7-6-7-6-9-8-8-5-7"
           sodipodi:nodetypes="ccc" /></g><path
         id="path40-12-8-9-7-8-4-10-4-8-6-0-2-5-5-7-0-2-8-4-0-5-8-1-2"
         style="fill:#beb7c8;stroke-width:0.322123;stroke-opacity:0.970874"
         d="m 2514.0246,1612.2201 -4.85,2.8273 v 5.0826 0.01 5.0824 5.0865 l 4.85,-2.8273 v -5.0864 -5.0826 -0.01 z" /><rect
         style="fill:#9d93ac;fill-opacity:1;stroke:#000000;stroke-width:0.0175958;stroke-dasharray:none;stroke-opacity:0"
         id="rect4-9-3-9-3-8-5-5-3-7-0-88-0-9-3-1-3-6-4-6-6-5-2-5-7-4-5-5-5"
         width="5.6139612"
         height="5.6139612"
         x="145.57808"
         y="3049.991"
         transform="matrix(-0.86391801,0.50363248,0.86391801,0.50363248,0,0)" /><path
         id="path40-12-8-4-8-4-5-7-88-9-60-9-8-5-53-8-5-6-1-6-6-1-3-5-2-8"
         style="fill:#7c6f91;stroke-width:0.322123;stroke-opacity:0.970874"
         d="m 2504.3245,1612.2201 4.8501,2.8273 v 5.0826 0.01 5.0824 5.0865 l -4.8501,-2.8273 v -5.0864 -5.0826 -0.01 z" /><path
         id="path40-12-8-9-4-4-5-3-9-4-5-0-2-8-0-2-4-5-12-2-5-2-9-7"
         style="fill:#beb7c8;stroke-width:0.322123;stroke-opacity:0.970874"
         d="m 2514.0246,1600.113 -4.85,2.8273 v 5.0826 0.01 5.0824 5.0865 l 4.85,-2.8273 v -5.0864 -5.0826 -0.01 z" /><rect
         style="fill:#9d93ac;fill-opacity:1;stroke:#000000;stroke-width:0.0175958;stroke-dasharray:none;stroke-opacity:0"
         id="rect4-9-3-9-3-8-5-5-53-3-73-6-1-2-2-9-11-1-3-1-5-2-5-9-8-0-1-1"
         width="5.6139612"
         height="5.6139612"
         x="133.55855"
         y="3037.9714"
         transform="matrix(-0.86391801,0.50363248,0.86391801,0.50363248,0,0)" /><path
         id="path40-12-8-4-8-03-1-40-1-9-19-5-5-5-6-6-5-4-7-0-0-5-4-0-7"
         style="fill:#7c6f91;stroke-width:0.322123;stroke-opacity:0.970874"
         d="m 2504.3245,1600.113 4.8501,2.8273 v 5.0826 0.01 5.0824 5.0865 l -4.8501,-2.8273 v -5.0864 -5.0826 -0.01 z" /><g
         id="g109-3-2-9-4-2-7"
         transform="translate(-5618.1776,-379.08021)"><path
           id="path40-12-8-9-7-8-4-1-5-3-14-69-9-7-26-6-2-0-1-0-8-6-0-5-9-4"
           style="fill:#ebd169;fill-opacity:1;stroke-width:0.322123;stroke-opacity:0.970874"
           d="m 8132.2221,1964.3396 -4.8498,2.8277 v 51.5831 l 4.8498,-2.8272 z"
           sodipodi:nodetypes="ccccc" /><path
           id="path40-12-8-4-8-4-5-7-8-1-5-6-4-1-69-7-8-63-1-9-1-1-9-7-2-9-9"
           style="fill:#bc9b18;fill-opacity:1;stroke-width:0.322123;stroke-opacity:0.970874"
           d="m 8122.5219,1964.3396 v 51.5827 l 4.8504,2.8272 v -46.4907 -0.01 -5.0824 z"
           sodipodi:nodetypes="ccccccc" /><rect
           style="fill:#ffdd55;fill-opacity:1;stroke:#000000;stroke-width:0.0175958;stroke-dasharray:none;stroke-opacity:0"
           id="rect4-9-3-9-3-8-5-5-53-3-3-29-1-8-4-9-8-8-0-2-5-0-4-3-0-0-9-4-9"
           width="5.6139612"
           height="5.6139612"
           x="-2756.4219"
           y="6651.1519"
           transform="matrix(-0.86391801,0.50363248,0.86391801,0.50363248,0,0)" /><rect
           style="fill:#000000;fill-opacity:1;stroke:#000000;stroke-width:0.053;stroke-dasharray:none;stroke-opacity:0"
           id="rect207-2-9-8-60-9-4-6-9-1-6-3-7-1-6-6-2-0-9"
           width="20.273024"
           height="14.592916"
           x="8129.7969"
           y="1967.0062" /><rect
           style="fill:#e1e1e1;fill-opacity:1;stroke:#000000;stroke-width:0.0265;stroke-dasharray:none;stroke-opacity:0"
           id="rect207-0-9-9-8-68-7-5-52-6-6-9-2-3-1-4-1-3-4-2"
           width="10.136512"
           height="7.2964578"
           x="8129.7969"
           y="1967.0062" /><rect
           style="fill:#e1e1e1;fill-opacity:1;stroke:#000000;stroke-width:0.0265;stroke-dasharray:none;stroke-opacity:0"
           id="rect207-0-8-32-8-68-8-7-58-7-9-9-4-1-18-6-5-2-3-9-6"
           width="10.136512"
           height="7.2964578"
           x="8139.9468"
           y="1974.3159" /></g><path
         style="fill:#bc9b18;fill-opacity:1;stroke-width:12;stroke-linecap:round"
         d="m 2574.6882,1701.8373 -4.8731,-2.8886 -9.0862,-34.7054 3.9598,-0.6103"
         id="path96-3-0-2-46-7-8-9-1-3-5-2-73-2-4-3-8-4"
         sodipodi:nodetypes="cccc" /><path
         id="path199-7-8-4-8-4-0-1-7-50-2-7-3-2-3-5-4-8-9-9-1-7-1-5-8-2-87-7-7-9-1"
         style="fill:#ebd169;fill-opacity:1;stroke:#bc9b18;stroke-width:0.0487053;stroke-dasharray:none;stroke-opacity:0"
         d="m 2577.6049,1683.3683 3.7778,14.4294 -6.6945,4.0397 -3.7779,-14.43 z m -26.6568,15.3219 3.7781,14.4304 -10.4727,-10.3907 z"
         sodipodi:nodetypes="ccccccccc" /><path
         id="rect4-9-3-9-3-8-4-9-2-2-2-6-1-0-8-0-6-3-4-1-4"
         style="fill:#aca4b9;fill-opacity:1;stroke:#000000;stroke-width:0.0500918;stroke-dasharray:none;stroke-opacity:0"
         d="m 2536.931,1690.3937 36.895,23.4838 -14.7858,4.9396 -12.9938,-9.3649 -5.2595,-4.1908 -31.6172,-25.1927 0.025,-4.4696 24.7554,16.3669 z"
         sodipodi:nodetypes="ccccccccc" /><path
         id="rect4-9-3-9-3-8-4-9-2-6-9-3-9-8-4-7-6-2-2"
         style="fill:#9d93ac;fill-opacity:1;stroke:#000000;stroke-width:0.0500918;stroke-dasharray:none;stroke-opacity:0"
         d="m 2443.9521,1662.0483 -48.1182,20.709 5.1913,6.4583 41.7107,-13.8477 1.2064,-4.6267 -1.8707,-1.5185 z"
         sodipodi:nodetypes="ccccccc" /><path
         style="fill:#beb7c8;fill-opacity:1;stroke:none;stroke-width:0.04;stroke-linecap:round"
         d="m 2443.3391,1673.0546 -6.4806,24.743 -35.8333,-8.582"
         id="path82-12-5-6-3-55-2-7-6-6-4"
         sodipodi:nodetypes="ccc" /><path
         id="path198-9-7-8-2-4-8-35-7-7-0-7-52-5-5-6-8-1-0-5-45-3-1-3-4-2"
         style="fill:#bc9b18;fill-opacity:1;stroke:#000000;stroke-width:3.168;stroke-opacity:0"
         d="m 2448.2154,1654.4197 -3.8746,14.7991 6.694,4.0418 1.5883,-6.0663 0.9324,-3.5616 12.1667,1.859 7.862,9.1731 -2.5115,9.5927 6.6941,4.0419 3.8791,-14.8164 v 0 l 0.087,-0.3328 -13.7699,-16.2262 z"
         sodipodi:nodetypes="cccccccccccccc" /><path
         style="fill:#ebd169;fill-opacity:1;stroke-width:12;stroke-linecap:round"
         d="m 2443.5531,1701.8373 4.873,-2.8886 9.0862,-34.7054 -3.9597,-0.6103"
         id="path96-3-0-8-3-4-42-4-9-7-0-8-06-5-3-0-6-6"
         sodipodi:nodetypes="cccc" /><path
         id="rect4-9-3-9-3-8-4-9-2-2-8-0-9-3-550-2-4-2-6-9"
         style="fill:#9d93ac;fill-opacity:1;stroke:#000000;stroke-width:0.0500918;stroke-dasharray:none;stroke-opacity:0"
         d="m 2481.4335,1690.3936 -36.8798,23.5053 14.6474,5.9471 49.9936,-39.7774 -0.025,-4.4696 -24.7554,16.3669 z"
         sodipodi:nodetypes="ccccccc" /><path
         id="path219-5-6-1-5-4-5-8-4-1-1-2-9-7-5-1-1-7-77-3-9-0-4-6-3-0-5-6-5-5-4-7-2"
         style="fill:#a05a2c;fill-opacity:1;stroke:#000000;stroke-width:0.055968;stroke-dasharray:none;stroke-opacity:0"
         d="m 2571.9918,1662.0241 -7.4806,16.7789 2.8618,10.8179 7.399,-17.0729 z m -37.9377,17.4842 2.7606,10.5286 13.1899,5.0483 -2.8345,-10.8252 z m 43.5508,3.8598 -7.1375,15.9675 4.2209,2.5016 3.0283,-1.788 2.6685,-6.1572 z" /><path
         id="path40-12-8-4-8-4-0-9-3-3-0-6-7-1-9-6-8-3-2-7-4-6-4-8-8-6-5-2-1-9-7-7-6-8"
         style="fill:#7c6f91;stroke-width:0.340162;stroke-opacity:0.970874"
         d="m 2468.0343,1619.0973 -1.4383,5.4934 v 0.011 l -1.4381,5.4929 -1.4392,5.4972 -0.5456,2.0838 v 0.011 l -0.544,2.0777 -0.8943,3.4157 -0.5437,2.077 v 0.011 l -0.8928,3.4096 -0.5455,2.0837 -2.5032,9.561 4.3215,2.6074 2.5032,-9.5609 0.5456,-2.0838 0.8924,-3.409 v -0.011 l 0.5438,-2.0771 0.8943,-3.4158 0.5438,-2.0771 v -0.011 l 0.5455,-2.0838 1.4393,-5.4972 1.4381,-5.4927 v -0.011 l 1.4382,-5.4934 z"
         sodipodi:nodetypes="ccccccccccccccccccccccccccccc" /><path
         style="fill:#beb7c8;fill-opacity:1;stroke:#000000;stroke-width:3.168;stroke-opacity:0"
         d="m 2472.3554,1621.7059 15.9997,-2.2687 -2.6688,26.177 -7.9296,-4.0079 -3.6492,13.8996 -12.5461,7.4233"
         id="path96-1-9-1-9-4-6-6-49-8-3-0-5-055-0-7-9-8-2-4-4-4-5-1-3-6-2"
         sodipodi:nodetypes="cccccc" /><path
         id="path40-50-5-7-2-0-7-9-5-0-1-7-8-63-6-5-2-8-02-8-9-2-5-8-4-8-81-5-1-3-6-7"
         style="fill:#733100;fill-opacity:1;stroke-width:0.340162;stroke-opacity:0.970874"
         d="m 2474.3211,1633.1678 -1.4393,5.4972 4.3216,2.6075 4.3213,2.6074 0.3045,0.1835 0.7915,0.4776 3.5298,2.1304 4.322,2.6074 4.3214,2.6075 1.4393,-5.4972 -4.3214,-2.6076 -4.3219,-2.6079 -0.3038,-0.1836 -4.0176,-2.4239 -0.3045,-0.1835 -4.3214,-2.6074 z" /><path
         style="fill:#b26531;fill-opacity:1;stroke:#000000;stroke-width:3.168;stroke-opacity:0"
         d="m 2509.1947,1639.6693 -18.2356,-10.5785 -16.638,4.0768 21.9123,13.2215"
         id="path138-1-4-9-3-8-37-6-9-9-8-7-3-9-3-7-1-5-8-02-70-5-6-1-6-1"
         sodipodi:nodetypes="cccc" /><path
         id="path199-7-8-4-8-4-0-1-7-50-2-7-3-2-3-5-6-12-3-8-8-3-6-4-0-5-4-7-1-3-0"
         style="fill:#bc9b18;fill-opacity:1;stroke:#bc9b18;stroke-width:0.0487053;stroke-dasharray:none;stroke-opacity:0"
         d="m 2440.6363,1683.3683 -3.7778,14.4294 6.6946,4.0397 3.7779,-14.43 z"
         sodipodi:nodetypes="ccccccc" /><path
         id="path219-5-6-1-5-4-5-8-4-1-1-2-9-7-5-1-1-7-77-3-9-0-4-6-3-0-5-1-7-5-1-8-6-3"
         style="fill:#733100;fill-opacity:1;stroke:#000000;stroke-width:0.055968;stroke-dasharray:none;stroke-opacity:0"
         d="m 2446.2496,1662.0243 7.4806,16.7789 -2.8618,10.8179 -7.399,-17.0729 z m 37.9377,17.4842 -2.7606,10.5286 -13.1899,5.0483 2.8345,-10.8252 z m -43.5508,3.8598 7.1375,15.9675 -4.2209,2.5015 -3.0283,-1.7879 -2.6685,-6.1572 z"
         sodipodi:nodetypes="cccccccccccccccc" /><path
         style="fill:#b26531;fill-opacity:1;stroke:#000000;stroke-width:3.168;stroke-opacity:0"
         d="m 2509.0465,1639.6693 18.2357,-10.5785 16.638,4.0768 -21.9123,13.2215"
         id="path138-1-4-9-3-8-37-6-9-9-8-8-24-9-9-5-0-4-2-1-6-1-6-4-5-1"
         sodipodi:nodetypes="cccc" /></g></g></svg>
