<?xml version="1.0" encoding="UTF-8" standalone="no"?>
<!-- Created with Inkscape (http://www.inkscape.org/) -->

<svg
   width="95.543777mm"
   height="82.737068mm"
   viewBox="0 0 95.543777 82.737068"
   version="1.1"
   id="svg1"
   inkscape:version="1.3 (0e150ed6c4, 2023-07-21)"
   sodipodi:docname="DWARF - GOBLINS all sprites.svg"
   xml:space="preserve"
   xmlns:inkscape="http://www.inkscape.org/namespaces/inkscape"
   xmlns:sodipodi="http://sodipodi.sourceforge.net/DTD/sodipodi-0.dtd"
   xmlns="http://www.w3.org/2000/svg"
   xmlns:svg="http://www.w3.org/2000/svg"><sodipodi:namedview
     id="namedview1"
     pagecolor="#ffffff"
     bordercolor="#000000"
     borderopacity="0.25"
     inkscape:showpageshadow="2"
     inkscape:pageopacity="0.0"
     inkscape:pagecheckerboard="0"
     inkscape:deskcolor="#d1d1d1"
     inkscape:document-units="mm"
     inkscape:zoom="0.12267851"
     inkscape:cx="10873.95"
     inkscape:cy="2058.2251"
     inkscape:window-width="1920"
     inkscape:window-height="991"
     inkscape:window-x="-9"
     inkscape:window-y="-9"
     inkscape:window-maximized="1"
     inkscape:current-layer="layer1" /><defs
     id="defs1" /><g
     inkscape:label="Capa 1"
     inkscape:groupmode="layer"
     id="layer1"
     transform="translate(-2407.8104,-449.5895)"><g
       id="g10"
       transform="translate(1985.3694,1901.0937)"><g
         id="g14-9-4-8-0-1-3-2-8-9-6-4-9-6-0-4-1"
         transform="matrix(1.1156684,0,0,1.1156684,326.59332,-1771.5447)"><path
           id="rect4-4-8-1-1-4-57-5-12-33-7-1-8-7-6-4-5-9-3-2-7-9-9-3"
           style="fill:#616161;stroke-width:0.0354132;stroke-opacity:0"
           transform="matrix(0.83839296,0.54506627,-0.83839296,0.54506627,0,0)"
           d="m 403.57425,236.1683 h 11.29859 v 11.2986 h -11.29859 z" /><path
           style="fill:#000000;fill-opacity:1;stroke:none;stroke-width:0.27941;stroke-opacity:0"
           d="m 140.35178,349.34956 v 11.66949 l -9.47264,-6.15847 1.7e-4,-11.1403 z"
           id="path1-9-3-3-3-3-0-76-6-0-5-6-3-5-47-1-7-1-3-72-7"
           sodipodi:nodetypes="ccccc" /><path
           style="fill:#666666;fill-opacity:1;stroke:none;stroke-width:0.27941;stroke-opacity:0"
           d="m 149.82462,343.72027 -1.8e-4,11.14028 -9.47266,6.1585 v -11.66949"
           id="path2-0-2-8-9-6-3-8-0-9-6-5-6-0-08-3-1-8-1-0-7"
           sodipodi:nodetypes="cccc" /><path
           id="rect4-9-3-7-9-8-8-9-6-8-02-7-6-0-1-4-3-7-2-3-5-4-8-0-0"
           style="fill:#454545;stroke-width:0.0354132"
           transform="matrix(0.83839296,0.54506627,-0.83839296,0.54506627,0,0)"
           d="m 393.35504,225.9491 h 11.29859 v 11.29859 h -11.29859 z" /></g><g
         id="g15-5-1-6-4-0-3-4-8-7-50-9-1-3-4-2-4"
         transform="matrix(1.1156684,0,0,1.1156684,326.59332,-1771.5447)"><path
           id="rect4-4-8-1-1-4-5-6-0-8-51-9-3-2-0-1-35-8-3-5-68-8-7-6-2"
           style="fill:#616161;stroke-width:0.0354132;stroke-opacity:0"
           transform="matrix(0.83839296,0.54506627,-0.83839296,0.54506627,0,0)"
           d="m 404.90198,211.58455 h 11.29859 v 11.29859 h -11.29859 z" /><path
           style="fill:#000000;fill-opacity:1;stroke:none;stroke-width:0.27941;stroke-opacity:0"
           d="m 162.07578,336.67348 v 11.66949 l -9.47264,-6.15847 1.7e-4,-11.1403 z"
           id="path1-9-3-0-1-8-20-4-0-8-0-7-4-2-0-0-1-2-4-4-4-4"
           sodipodi:nodetypes="ccccc" /><path
           style="fill:#666666;fill-opacity:1;stroke:none;stroke-width:0.27941;stroke-opacity:0"
           d="m 171.54862,331.04419 -1.8e-4,11.14028 -9.47266,6.1585 v -11.66949"
           id="path2-0-2-0-2-5-9-9-4-4-0-7-2-5-6-0-6-24-7-08-4-1"
           sodipodi:nodetypes="cccc" /><path
           id="rect4-9-3-7-9-8-8-6-4-3-5-1-6-4-3-4-1-93-4-9-1-1-7-7-58-6"
           style="fill:#454545;stroke-width:0.0354132"
           transform="matrix(0.83839296,0.54506627,-0.83839296,0.54506627,0,0)"
           d="m 394.68277,201.36534 h 11.29859 v 11.29859 h -11.29859 z" /></g><g
         id="g19-9-1-0-6-7-3-5-9-9-6-3-5-6-7-0-5"
         transform="translate(521.13049,-1552.4735)"
         style="fill:#ffd42a"><path
           id="path2-0-9-2-5-2-3-9-2-4-7-6-1-2-2-5-4-8-02-7-5-0-3"
           style="fill:#ffffff;fill-opacity:1;stroke:none;stroke-width:0.472478;stroke-dasharray:none;stroke-opacity:1"
           d="m -28.417671,122.92348 -16.508553,10.57403 -6.266801,24.19904 22.811011,13.20747 25.2361856,-16.029 -8.6966266,-21.49119 z" /></g><g
         id="g19-9-9-8-0-1-7-9-5-9-9-4-4-5-8-68-7-7"
         transform="translate(521.13064,-1552.4735)"><path
           id="path2-0-9-2-5-2-3-9-6-2-9-2-7-0-8-5-2-3-3-6-9-2-5-7"
           style="fill:#808080;fill-opacity:0;stroke:none;stroke-width:0.472478;stroke-dasharray:none;stroke-opacity:0"
           d="m -11.842525,133.38401 -16.539707,10.75255 v 26.76725 l 25.2362199,-16.02898 z"
           sodipodi:nodetypes="ccccc" /><path
           id="path2-0-9-9-4-5-7-5-1-8-27-9-0-0-0-9-6-2-8-2-1-6-35-3-9"
           style="fill:#000000;fill-opacity:0.35;stroke:none;stroke-width:0.472478;stroke-dasharray:none;stroke-opacity:0"
           d="m -44.926352,133.49772 16.54412,10.63884 v 26.76725 L -51.193114,157.6964 Z"
           sodipodi:nodetypes="ccccc" /><path
           style="fill:#000000;fill-opacity:0.3;stroke:none;stroke-width:0.264583"
           d="m -44.926355,133.49772 16.544126,10.63884 16.539706,-10.75255 -16.575377,-10.46075"
           id="path19-9-8-3-0-0-9-8-5-7-0-0-4-2-4-4-3-0" /></g><g
         id="g18-4-5-4-9-5-3-7-4-2-6-1-1-9-2-8"
         transform="translate(594.26388,-1559.3432)"><path
           id="rect4-4-8-1-1-2-1-9-2-5-9-7-6-9-34-8-5-5-9-0-7-9-5"
           style="fill:#616161;stroke-width:0.058709;stroke-opacity:0"
           transform="matrix(0.8383929,0.54506637,-0.8383929,0.54506637,0,0)"
           d="m 58.782562,179.86607 h 18.731085 v 18.73109 H 58.782562 Z" /><path
           id="rect4-9-3-7-9-8-3-7-9-7-0-6-7-4-1-9-5-9-8-7-3-1-3-2"
           style="fill:#663615;stroke-width:0.058709"
           transform="matrix(0.8383929,0.54506637,-0.8383929,0.54506637,0,0)"
           d="M 42.119263,163.20282 H 60.850348 V 181.9339 H 42.119263 Z" /><g
           id="g16-5-9-1-0-6-3-8-1-7-8-9-4-4-4-1-0"
           transform="matrix(1.1156684,0,0,1.1156684,-267.67055,-212.20146)"><path
             style="fill:#000000;fill-opacity:0.993007;stroke:#020202;stroke-width:0.939499;stroke-dasharray:none;stroke-opacity:0"
             d="m 154.52205,310.64325 -2.77911,1.83366 0.0282,4.27268 2.75095,-1.79918"
             id="path215-2-6-2-5-2-5-5-3-5-5-2-5-4-7-0-6-1-5-0" /></g></g><g
         id="g18-4-5-4-9-5-3-7-4-0-5-9-7-4-9-7-9-8"
         transform="translate(594.26377,-1559.3433)"><path
           id="rect4-4-8-1-1-2-1-9-2-5-9-7-6-9-34-8-7-9-8-9-7-9-2-6-1"
           style="fill:#616161;stroke-width:0.058709;stroke-opacity:0"
           transform="matrix(0.8383929,0.54506637,-0.8383929,0.54506637,0,0)"
           d="m 58.782562,179.86607 h 18.731085 v 18.73109 H 58.782562 Z" /><path
           id="rect4-9-3-7-9-8-3-7-9-7-0-6-7-4-1-9-5-4-0-4-4-9-9-7-7-5"
           style="fill:#663615;stroke-width:0.058709"
           transform="matrix(0.8383929,0.54506637,-0.8383929,0.54506637,0,0)"
           d="M 42.119263,163.20282 H 60.850348 V 181.9339 H 42.119263 Z" /><g
           id="g16-5-9-1-0-6-3-8-1-7-5-7-4-7-7-4-8-4-2"
           transform="matrix(1.1156684,0,0,1.1156684,-267.67055,-212.20146)" /></g><g
         id="g16-1-8-1-8-5-3-5-6-2"
         transform="translate(-412.0521,-651.95928)"><g
           id="g27-5-8-2-2-5-1-18-8"
           transform="translate(-10.243366,2.4642406)"><path
             style="fill:#000000;fill-opacity:1;stroke:none;stroke-width:0.311729;stroke-opacity:0"
             d="m 887.73998,-752.03402 v 13.01929 l -10.56833,-6.87081 1.9e-4,-12.42889 z"
             id="path1-9-3-3-3-3-0-76-6-0-5-6-8-2-3-9-3-6-6-4-5-65-7"
             sodipodi:nodetypes="ccccc" /><path
             style="fill:#666666;fill-opacity:1;stroke:none;stroke-width:0.311729;stroke-opacity:0"
             d="m 898.30852,-758.31444 -2e-4,12.42886 -10.56834,6.87085 v -13.01929"
             id="path2-0-2-8-9-6-3-8-0-9-6-5-3-73-2-1-23-2-0-2-3-8-5"
             sodipodi:nodetypes="cccc" /><path
             id="rect4-9-3-7-9-8-8-9-6-8-02-7-6-0-1-4-5-7-9-1-5-4-8-9-5-2-1"
             style="fill:#454545;stroke-width:0.0395094"
             transform="matrix(0.83839296,0.54506627,-0.83839296,0.54506627,0,0)"
             d="m -172.48982,-1231.3491 h 12.60548 v 12.6055 h -12.60548 z" /></g></g><g
         id="g6"
         transform="translate(-80.056914,67.673554)"><g
           id="g1"
           transform="translate(46.943322,3.7564796)"><path
             style="fill:none;fill-opacity:1;stroke:#0c0c0c;stroke-width:3.2768;stroke-linecap:square;stroke-dasharray:none;stroke-opacity:1"
             d="m 477.43127,-1472.0464 1.21447,-2.8169 -0.22855,-18.7287 6.72136,-3.4182 9.7859,8.5663"
             id="path156-3-4-5"
             sodipodi:nodetypes="ccccc" /><path
             style="fill:#de0000;fill-opacity:1;stroke-width:8.12793;stroke-linecap:round"
             d="m 462.17849,-1458.0979 7.06394,-3.6032 1.53562,-3.8895 8.13592,-4.5849 -6.54161,-1.8892 -10.20205,3.8217 -1.57077,6.836 -5.04492,3.6427"
             id="path152-4-5-5"
             sodipodi:nodetypes="cccccccc" /><path
             style="fill:#ffcc00;fill-opacity:1;stroke-width:8.12793;stroke-linecap:round"
             d="m 462.17031,-1468.243 5.96541,1.3335 4.23664,-5.1552"
             id="path153-3-1-1" /><path
             style="fill:#ff9900;fill-opacity:1;stroke-width:8.12793;stroke-linecap:round"
             d="m 455.55462,-1457.7643 5.04492,-3.6427 7.53618,-5.5025 4.23664,-5.1552 -1.59431,6.4741 -1.53562,3.8895 -7.06394,3.6032"
             id="path154-9-9-4" /><path
             style="fill:#ffcc00;fill-opacity:1;stroke-width:8.12793;stroke-linecap:round"
             d="m 462.17849,-1458.0979 3.63465,-7.1157 3.42929,3.5125"
             id="path155-0-3-0"
             sodipodi:nodetypes="ccc" /></g><path
           id="path1"
           style="fill:#481506"
           inkscape:transform-center-x="-0.3712966"
           inkscape:transform-center-y="0.16841043"
           transform="translate(-0.27983789)"
           d="m 563.27307,-1458.1428 -10.88421,5.5181 -11.88472,-2.7692 -7.32424,-9.7607 0.66334,-12.185 8.34052,-8.9079 12.1151,-1.4626 10.22087,6.667 3.5442,11.677 z" /><path
           id="path1-69"
           style="fill:#700b16"
           inkscape:transform-center-x="-0.3712966"
           inkscape:transform-center-y="0.16841043"
           transform="matrix(0.8048749,0,0,0.8048749,109.87213,-288.9887)"
           d="m 563.27307,-1458.1428 -10.88421,5.5181 -11.88472,-2.7692 -7.32424,-9.7607 0.66334,-12.185 8.34052,-8.9079 12.1151,-1.4626 10.22087,6.667 3.5442,11.677 z" /><path
           id="path1-7"
           style="fill:#a21010"
           inkscape:transform-center-x="-0.3712966"
           inkscape:transform-center-y="0.16841043"
           transform="matrix(0.59049,0,0,0.59049,230.89664,-606.50198)"
           d="m 563.27307,-1458.1428 -10.88421,5.5181 -11.88472,-2.7692 -7.32424,-9.7607 0.66334,-12.185 8.34052,-8.9079 12.1151,-1.4626 10.22087,6.667 3.5442,11.677 z" /></g><g
         id="g135-4-70-8-1-5"
         transform="matrix(0.36709633,0,0,0.36709633,-1567.282,-1905.7626)"><g
           id="g65-7-1-6-1-3-1-4"
           transform="matrix(-0.91791614,0.22523723,0.17465833,0.64972032,10665.501,-839.71003)"
           inkscape:transform-center-x="77.310988"
           inkscape:transform-center-y="16.379268"><path
             style="fill:#35461e;fill-opacity:1;stroke-width:12;stroke-linecap:round;stroke-opacity:0.624204"
             d="m 5693.2985,1256.0809 41.5764,36.068 9.0519,24.2267 -11.5805,14.1575 -2.5403,-30.3902 z"
             id="path60-8-7-2-3-0-03-8" /><path
             id="path61-5-7-9-7-9-45-0"
             style="fill:#62803b;fill-opacity:1;stroke-width:12;stroke-linecap:round;stroke-opacity:0.624204"
             d="m 5693.2987,1256.0812 2.0001,16.9363 11.2027,13.0856 -9.2343,-0.2641 1.422,8.1359 5.8256,6.8119 -2.29,0.4031 -0.2229,5.9175 18.5182,18.5466 0.7083,10.2004 11.1175,-5.3212 -2.54,-30.3905 z"
             sodipodi:nodetypes="ccccccccccccc" /><path
             style="fill:#2a3020;fill-opacity:1;stroke-width:12;stroke-linecap:round;stroke-opacity:0.624204"
             d="m 5715.759,1283.1891 2.0709,26.5151 13.5615,9.4062 -1.5854,-18.9675 z"
             id="path62-9-1-1-7-8-4-3" /></g><g
           id="g38-98-8-2-4-1"
           transform="translate(-47.454297,83.445213)"><g
             id="g29-6-7-9-14-4"
             transform="matrix(0.94301175,0,0,0.98632018,337.28494,13.767312)"
             inkscape:transform-center-x="42.749527"
             inkscape:transform-center-y="0.43110714"><path
               style="fill:#89c639;fill-opacity:1;stroke:none;stroke-width:12;stroke-linecap:round;stroke-opacity:0.624204"
               d="m 5643.6743,1225.2479 45.1692,-26.3319 v 47.3721 l -45.3743,27.5703 z"
               id="path26-5-91-1-3-7"
               sodipodi:nodetypes="ccccc" /><path
               style="fill:#5f862a;fill-opacity:1;stroke:none;stroke-width:12;stroke-linecap:round;stroke-opacity:0.624204"
               d="m 5643.6743,1225.2479 -45.1691,-26.3319 v 47.3721 l 44.964,27.5703"
               id="path28-0-6-3-51-1"
               sodipodi:nodetypes="cccc" /><path
               style="fill:#839867;fill-opacity:1;stroke:none;stroke-width:12;stroke-linecap:round;stroke-opacity:0.624204"
               d="m 5643.6743,1172.584 45.1692,26.332 -45.1692,26.3319 -45.1691,-26.3319"
               id="path29-6-9-6-9-5" /></g><g
             id="g33-7-43-3-3-8"
             transform="translate(-95.07911,-83.256116)"><g
               id="g30-0-2-2-3-7"><path
                 style="fill:#d5dfbe;fill-opacity:1;stroke:none;stroke-width:12;stroke-linecap:round;stroke-opacity:0.624204"
                 d="m 5781.4981,1293.3651 13.1917,-8.4152 0.1126,22.1104 -13.2654,8.4554 z"
                 id="path30-04-04-7-1-4-0"
                 sodipodi:nodetypes="ccccc" /><path
                 style="fill:#7b0c18;fill-opacity:1;stroke:none;stroke-width:7.31104;stroke-linecap:round;stroke-opacity:0.624204"
                 d="m 5786.6992,1298.7165 8.0372,-5.1272 0.066,13.471 -8.0822,5.1514 z"
                 id="path30-04-6-7-2-9-8-7"
                 sodipodi:nodetypes="ccccc" /></g><g
               id="g30-5-3-3-2-2-6"
               transform="translate(-22.994322,14.610686)"><path
                 style="fill:#d5dfbe;fill-opacity:1;stroke:none;stroke-width:12;stroke-linecap:round;stroke-opacity:0.624204"
                 d="m 5781.4981,1293.3651 13.1917,-8.4152 0.1126,22.1104 -13.2654,8.4554 z"
                 id="path30-04-9-04-3-4-9-2"
                 sodipodi:nodetypes="ccccc" /><path
                 style="fill:#7b0c18;fill-opacity:1;stroke:none;stroke-width:7.31104;stroke-linecap:round;stroke-opacity:0.624204"
                 d="m 5786.6992,1298.7165 8.0372,-5.1272 0.066,13.471 -8.0822,5.1514 z"
                 id="path30-04-6-6-6-0-1-9-6"
                 sodipodi:nodetypes="ccccc" /></g></g></g><path
           style="fill:#333333;fill-opacity:1;stroke:none;stroke-width:12;stroke-linecap:round;stroke-opacity:0.624204"
           d="m 5582.4641,1306.1029 13.6801,12.066 15.7377,-7.413 21.2975,4.9489 -0.079,12.8247 19.4365,-5.9722 -7.2264,-13.6964 11.6292,-22.4233 -3.6059,-16.2843 -21.1953,-22.5616 -29.103,-9.9157 -22.3668,12.4113 -13.986,20.0476 -4.2195,32.5099"
           id="path37-9-1-3-5-8"
           sodipodi:nodetypes="cccccccccccccc" /><g
           id="g65-7-9-1-1-8-9"
           transform="matrix(0.87703994,-0.35228226,0.23697966,0.62966869,246.53673,2512.7719)"
           inkscape:transform-center-x="77.310988"
           inkscape:transform-center-y="16.379268"><path
             style="fill:#3f5323;fill-opacity:1;stroke-width:12;stroke-linecap:round;stroke-opacity:0.624204"
             d="m 5693.2985,1256.0809 41.5764,36.068 9.0519,24.2267 -11.5805,14.1575 -2.5403,-30.3902 z"
             id="path60-8-8-7-7-0-1" /><path
             id="path61-5-9-3-6-5-3"
             style="fill:#4c6729;fill-opacity:1;stroke-width:12;stroke-linecap:round;stroke-opacity:0.624204"
             d="m 5693.2987,1256.0812 2.0001,16.9363 11.2027,13.0856 -9.2343,-0.2641 1.422,8.1359 5.8256,6.8119 -2.29,0.4031 -0.2229,5.9175 18.5182,18.5466 -1.3246,14.0094 13.1504,-9.1302 -2.54,-30.3905 z"
             sodipodi:nodetypes="ccccccccccccc" /><path
             style="fill:#32421c;fill-opacity:1;stroke-width:12;stroke-linecap:round;stroke-opacity:0.624204"
             d="m 5715.759,1283.1891 2.0709,26.5151 13.5615,9.4062 -1.5854,-18.9675 z"
             id="path62-9-5-5-3-3-7" /></g><path
           id="path34-5-5-7-0-5"
           style="fill:#ffcc00;fill-opacity:1;stroke:none;stroke-width:12;stroke-linecap:round;stroke-opacity:0.624204"
           d="m 5565.0836,1322.68 -2.8055,0.1917 -5.6224,5.2602 -0.925,7.6434 4.2033,6.4503 7.366,2.2386 7.0822,-3.0195 3.4841,-6.8657 -0.57,-2.4515 -5.685,-1.4201 0.722,3.1047 -1.7844,3.5151 -3.6262,1.5471 -3.7718,-1.1467 -2.1524,-3.3026 0.4744,-3.9129 2.8789,-2.6929 1.2961,-0.07 z" /><path
           style="fill:#ca1628;fill-opacity:1;stroke:none;stroke-width:14.3767;stroke-linecap:round;stroke-opacity:0.624204"
           d="m 5563.9764,1290.997 19.5186,3.2428 40.3216,-3.8477 12.2462,-12.6331 -22.5133,8.9583 -26.3041,-3.3151 -21.415,-6.7078"
           id="path38-54-3-7-9-8"
           sodipodi:nodetypes="ccccccc" /><path
           style="fill:#ca1628;fill-opacity:1;stroke:none;stroke-width:11.787;stroke-linecap:round;stroke-opacity:0.624204"
           d="m 5642.7353,1258.8725 -17.8374,8.0335 -28.2969,4.0405 -11.4929,-9.34 17.5212,4.021 16.9868,-8.0051 12.5215,-10.0307"
           id="path38-9-2-0-3-6-5"
           sodipodi:nodetypes="ccccccc" /><path
           style="fill:#000000;fill-opacity:0.412776;stroke:none;stroke-width:12;stroke-linecap:round;stroke-opacity:0.624204"
           d="m 5582.4641,1306.1029 13.6801,12.066 -4.6126,-20.5633 -0.6771,-31.3291 12.2178,-28.84 -22.3668,12.4113 -13.986,20.0476 -4.2572,32.7494 20.0018,3.4581"
           id="path37-8-0-4-3-8-2"
           sodipodi:nodetypes="ccccccccc" /></g></g></g></svg>
