<?xml version="1.0" encoding="UTF-8" standalone="no"?>
<!-- Created with Inkscape (http://www.inkscape.org/) -->

<svg
   width="180.19391mm"
   height="148.91457mm"
   viewBox="0 0 180.19391 148.91457"
   version="1.1"
   id="svg1"
   inkscape:version="1.3 (0e150ed6c4, 2023-07-21)"
   sodipodi:docname="DWARF - GOBLINS all sprites.svg"
   xml:space="preserve"
   xmlns:inkscape="http://www.inkscape.org/namespaces/inkscape"
   xmlns:sodipodi="http://sodipodi.sourceforge.net/DTD/sodipodi-0.dtd"
   xmlns="http://www.w3.org/2000/svg"
   xmlns:svg="http://www.w3.org/2000/svg"><sodipodi:namedview
     id="namedview1"
     pagecolor="#ffffff"
     bordercolor="#000000"
     borderopacity="0.25"
     inkscape:showpageshadow="2"
     inkscape:pageopacity="0.0"
     inkscape:pagecheckerboard="0"
     inkscape:deskcolor="#d1d1d1"
     inkscape:document-units="mm"
     inkscape:zoom="0.12267851"
     inkscape:cx="10873.95"
     inkscape:cy="2058.2251"
     inkscape:window-width="1920"
     inkscape:window-height="991"
     inkscape:window-x="-9"
     inkscape:window-y="-9"
     inkscape:window-maximized="1"
     inkscape:current-layer="layer1" /><defs
     id="defs1" /><g
     inkscape:label="Capa 1"
     inkscape:groupmode="layer"
     id="layer1"
     transform="translate(-3355.9339,696.52067)"><g
       id="g264-6-7-1"
       transform="translate(5157.31,42.871986)"><g
         id="g164-4-2-04-0"
         transform="matrix(-0.1093305,0.99400545,0.99400545,0.1093305,-1251.5422,1124.6277)"><path
           style="fill:#d7f4e3;fill-opacity:1;stroke-width:23.3846;stroke-linecap:round;stroke-opacity:0.624204"
           d="m -1779.6486,-706.56654 6.1367,-2.75402 4.374,4.94743 -12.2947,10.06313 -4.4017,9.85854 0.66,-12.6228 z"
           id="path157-6-2-2-6-3-8-9" /><path
           style="fill:#93ac9d;fill-opacity:1;stroke-width:23.3846;stroke-linecap:round;stroke-opacity:0.624204"
           d="m -1773.512,-709.32104 7.0253,4.44051 -12.6685,9.45325 -6.6791,10.97547 6.0257,-16.61293 z"
           id="path158-1-4-0-5-2-2-6" /></g><g
         id="g163-5-70-1"
         transform="rotate(-28.388158,-1783.0034,-721.29268)"><path
           style="fill:#d7f4e3;fill-opacity:1;stroke-width:23.3846;stroke-linecap:round;stroke-opacity:0.624204"
           d="m -1786.8829,-716.74922 5.3862,4.0287 -2.2027,6.22554 -14.7656,-5.86531 -10.7559,0.93631 11.3567,-5.5494 z"
           id="path157-6-2-4-7-2-6" /><path
           style="fill:#93ac9d;fill-opacity:1;stroke-width:23.3846;stroke-linecap:round;stroke-opacity:0.624204"
           d="m -1781.4962,-712.72079 -0.4727,8.29754 -14.4139,-6.48814 -12.8378,-0.51277 17.4496,-2.79468 z"
           id="path158-1-4-4-1-7-0" /></g><path
         style="fill:#35461e;fill-opacity:1;stroke-width:6.23328;stroke-linecap:round;stroke-opacity:0.624204"
         d="m -1671.8708,-728.20608 -20.7587,21.36762 -2.6564,11.58289 8.5361,4.29328 -1.9389,-13.23628 z"
         id="path60-8-7-2-3-9-9-7-6" /><path
         id="path61-5-7-9-7-4-9-6-3"
         style="fill:#62803b;fill-opacity:1;stroke-width:6.23328;stroke-linecap:round;stroke-opacity:0.624204"
         d="m -1671.8708,-728.20592 0.731,7.46226 -5.2103,7.18271 5.4921,-1.46681 0.075,3.65242 -2.7086,3.73816 1.4153,-0.16541 0.8066,2.47205 -8.9636,10.56768 0.7371,4.42155 -7.2538,-0.621 -1.9391,-13.23636 z"
         sodipodi:nodetypes="ccccccccccccc" /><path
         style="fill:#2a3020;fill-opacity:1;stroke-width:6.23328;stroke-linecap:round;stroke-opacity:0.624204"
         d="m -1682.2177,-713.43597 1.7787,11.52715 -7.0395,5.97142 -1.2102,-8.26117 z"
         id="path62-9-1-1-7-0-3-7-7" /><g
         id="g48-3-3-6-6-9-0"
         transform="translate(-1088.6855,-829.02657)"><path
           style="fill:#666666;fill-opacity:1;stroke:none;stroke-width:0.433999;stroke-dasharray:none;stroke-opacity:0"
           d="m -641.15253,223.31267 18.70733,-12.16225 v 15.23576 l -18.70702,12.16228 z"
           id="path46-2-1-8-9-8-3" /><path
           style="fill:#000000;fill-opacity:1;stroke:none;stroke-width:0.433999;stroke-dasharray:none;stroke-opacity:0"
           d="m -641.15253,223.31267 -19.39653,-12.50278 -2.1e-4,15.23582 19.39668,12.50252"
           id="path47-3-4-5-8-85-7" /></g><g
         id="g48-1-0-4-8-3-2-6"
         transform="translate(-1043.0926,-842.24793)"><path
           style="fill:#666666;fill-opacity:1;stroke:none;stroke-width:0.433999;stroke-dasharray:none;stroke-opacity:0"
           d="m -641.15253,223.31267 18.70733,-12.16225 v 15.23576 l -18.70702,12.16228 z"
           id="path46-6-7-0-8-2-6-6" /><path
           id="path47-6-4-6-1-6-3-8"
           style="fill:#000000;fill-opacity:1;stroke:none;stroke-width:0.433999;stroke-dasharray:none;stroke-opacity:0"
           d="m -660.54914,214.56059 v 11.48509 l 19.39675,12.50259 V 223.31251 L -657.26975,212.924 Z"
           sodipodi:nodetypes="cccccc" /><path
           id="path161"
           style="fill:#000000;fill-opacity:1;stroke:none;stroke-width:0.433999;stroke-dasharray:none;stroke-opacity:0"
           d="m -660.54914,214.56059 3.27939,-1.63659 z"
           sodipodi:nodetypes="ccc" /></g><g
         id="g41-7-1-5-8-0-1-8-5"
         transform="translate(-1283.7235,-944.95221)"><g
           id="g43-8-7-5-7-8-7-3-9"><path
             style="fill:#ffffff;fill-opacity:1;stroke:none;stroke-width:0.433999;stroke-dasharray:none;stroke-opacity:0"
             d="m -357.15563,302.47868 19.69672,-12.80546 v -20.83697 l -19.69672,12.80546 z"
             id="path40-0-9-7-8-4-3-9-9"
             sodipodi:nodetypes="ccccc" /></g></g><path
         style="fill:#ffffff;fill-opacity:1;stroke:none;stroke-width:0.224968;stroke-opacity:0"
         d="m -1662.7513,-658.9131 v 9.39571 l -7.6269,-4.9585 2e-4,-8.96964 z"
         id="path1-9-3-3-3-7-8-8-7-4-9-1-3-6"
         sodipodi:nodetypes="ccccc" /><path
         style="fill:#ffffff;fill-opacity:1;stroke:none;stroke-width:0.224968;stroke-opacity:0"
         d="m -1655.1641,-665.10084 0.04,10.62492 -7.627,4.95853 v -9.39571"
         id="path2-0-2-8-9-0-3-0-1-7-5-4-5-2"
         sodipodi:nodetypes="cccc" /><path
         style="fill:#ffffff;fill-opacity:1;stroke:none;stroke-width:0.224968;stroke-opacity:0"
         d="m -1662.7913,-660.56841 v 9.39571 l -7.6269,-4.9585 2e-4,-8.96964 z"
         id="path1-9-3-3-3-7-8-0-6-4-5-0-0-7-9"
         sodipodi:nodetypes="ccccc" /><path
         style="fill:#ffffff;fill-opacity:1;stroke:none;stroke-width:0.224968;stroke-opacity:0"
         d="m -1655.1642,-665.10085 -10e-5,8.96962 -7.627,4.95853 v -9.39571"
         id="path2-0-2-8-9-0-3-4-6-1-4-0-2-1-2"
         sodipodi:nodetypes="cccc" /><rect
         style="fill:#ffffff;fill-opacity:1;stroke:none;stroke-width:0.028513;stroke-dasharray:none;stroke-opacity:1"
         id="rect4-9-3-7-9-8-8-9-6-5-9-4-8-6-1-9-0-6-5"
         width="9.097085"
         height="9.097085"
         x="-1606.3124"
         y="376.99518"
         transform="matrix(0.83839296,0.54506627,-0.83839296,0.54506627,0,0)" /><path
         style="fill:#ffffff;fill-opacity:1;stroke:none;stroke-width:0.433999;stroke-dasharray:none;stroke-opacity:0"
         d="m -1670.418,-665.10086 v -10.45596 l 15.2539,10.45597"
         id="path43-9-3-1-9-7-4-8"
         sodipodi:nodetypes="ccc" /><path
         style="fill:#000000;fill-opacity:0.35;stroke:none;stroke-width:0.593551;stroke-dasharray:none;stroke-opacity:0"
         d="m -1723.9676,-617.54266 -19.2449,-8.89823 -12.3117,-27.13306 8.4032,-27.41481 25.5668,8.08676 -14.7251,28.22628 z"
         id="path17-9-2-8-3-3-0-4-8"
         sodipodi:nodetypes="ccccccc" /><path
         id="path1-9-9-4-8-7-7-8-5-8-5-4-3-7-8"
         style="fill:#5f862a;fill-opacity:1;stroke:none;stroke-width:0.768267;stroke-dasharray:none;stroke-opacity:0"
         d="m -1728.543,-705.83265 2e-4,2.3e-4 -7.4551,4.19167 10e-4,29.13067 28.7281,30.45595 0.3027,-19.98988 -10.6061,-5.54503 12.9714,3.54287 2.9967,-27.30713 z"
         sodipodi:nodetypes="cccccccccc" /><path
         style="fill:#89c639;fill-opacity:1;stroke:none;stroke-width:0.768267;stroke-dasharray:none;stroke-opacity:0"
         d="m -1674.6662,-705.8324 1.5479,18.77741 -30.9903,18.52421 2.5041,-20.92916"
         id="path2-0-0-8-8-7-9-9-9-5-2-7-0-4-4"
         sodipodi:nodetypes="cccc" /><path
         id="rect4-9-3-7-9-8-3-7-9-2-9-0-3-3-7-9-4-5-5"
         style="fill:#6d9a30;fill-opacity:1;stroke:none;stroke-width:0.0930891;stroke-dasharray:none;stroke-opacity:1"
         d="m -1701.6046,-722.2049 -34.3933,20.56413 34.3933,12.18066 26.9384,-16.37214 z" /><g
         id="g16-5-1-7-6-1-7-5-6-5-88-6"
         transform="matrix(1.9137951,0,0,1.7891105,-1986.7268,-1242.1286)"><g
           id="g22-6-4-6-4-0-3-0-7"><path
             id="path214-0-3-5-7-5-8-4-4-4-8-0-9-7-1"
             style="fill:#d5dfbe;fill-opacity:1;stroke:#020202;stroke-width:0.939499;stroke-dasharray:none;stroke-opacity:0"
             d="m 162.10197,302.6333 -4.49223,4.08192 0.01,6.23167 4.48241,-2.93161 z m -7.60367,6.36396 -4.51652,1.33066 0.0574,7.55458 4.48293,-2.93212 z" /><path
             id="path215-2-6-2-5-4-5-0-2-1-6-9-6-3-8"
             style="fill:#7b0c18;fill-opacity:1;stroke:#020202;stroke-width:0.939499;stroke-dasharray:none;stroke-opacity:0"
             d="m 162.10197,305.70805 -2.77864,1.83348 0.0279,4.27261 2.75125,-1.79886 z m -7.5799,4.9351 -2.77916,1.834 0.0284,4.2726 2.75073,-1.79937 z" /></g></g><path
         style="fill:#89c639;fill-opacity:1;stroke:none;stroke-width:0.768267;stroke-dasharray:none;stroke-opacity:0"
         d="m -1707.0733,-662.30672 -0.1955,20.25259 39.3737,-34.07135 7.0485,-13.16918 -12.9072,-5.46908 0.6354,7.70875 1.7394,-0.50522"
         id="path2-0-0-8-8-0-2-8-6-2-4-2-3-2-2"
         sodipodi:nodetypes="ccccccc" /><path
         style="fill:#6d9a30;fill-opacity:1;stroke:none;stroke-width:0.433999;stroke-dasharray:none;stroke-opacity:0"
         d="m -1717.5722,-667.58904 12.9715,3.54288 32.5998,-22.56084 1.2441,-1.90642 -2.5456,-0.78125 -0.4514,-5.46908 12.9073,5.46908 -6.448,6.6064 -39.8765,30.50784 z"
         id="path45-5-1-9-1-5-4-3"
         sodipodi:nodetypes="cccccccccc" /><path
         id="path20-6-2-7-4-8-0-0-5-7"
         style="fill:#000000;fill-opacity:1;stroke:none;stroke-width:0.803073;stroke-dasharray:none;stroke-opacity:0"
         d="m -1673.3024,-689.29466 0.1839,2.11721 -30.9901,18.64667 -8.2447,-2.2498 -5.2189,3.19154 11.9264,9.45229 36.2613,-28.4488 -0.7289,-2.35491 z"
         sodipodi:nodetypes="ccccccccc" /><path
         id="path1-8-0-1-58-0"
         style="fill:#89c639;fill-opacity:1;stroke:none;stroke-width:0.264583;stroke-opacity:1"
         d="m -1640.2173,-688.94049 -22.5738,3.17138 -5.1039,9.64363 -7.7073,6.66126 0.59,2.46641 -0.835,2.00084 5.4293,0.93713 0.04,9.58391 7.6269,4.95887 7.6269,-4.95887 -0.02,-5.31234 3.5636,2.29134 v 8.13903 l 10.7011,6.88434 19.697,-12.80542 v -20.83697 z"
         sodipodi:nodetypes="ccccccccccccccccc" /><path
         id="path1-5-8-8-5"
         style="fill:#000000;fill-opacity:0.3;stroke:none;stroke-width:0.264583;stroke-opacity:1"
         d="m -1640.2173,-688.94049 -22.5738,3.17138 -5.1039,9.64363 -1.4895,1.25192 10.7875,0.0444 17.7177,11.51868 19.697,-12.80542 z m -30.2007,14.93998 v 8.89991 l 7.6269,4.95835 7.6269,-4.95835 -14.2203,-9.77296 z"
         sodipodi:nodetypes="cccccccccccccc" /><path
         id="path3-1-6-8-4"
         style="fill:#000000;fill-opacity:0.35;stroke:none;stroke-width:0.264583;stroke-opacity:1"
         d="m -1675.6023,-669.46422 0.59,2.46641 -0.835,2.00084 5.4293,0.93713 0.04,9.58391 7.6269,4.95887 -0.04,-10.62519 -7.6269,-4.95835 v -8.89991 z m 6.2178,-5.40934 14.2203,9.77296 0.02,5.31234 3.5636,2.29133 v 8.13904 l 10.7012,6.88433 v -20.83697 l -17.7178,-11.51868 z"
         sodipodi:nodetypes="ccccccccccccccccccc" /><path
         style="fill:#d5dfbe;fill-opacity:1;stroke-width:1;-inkscape-stroke:none"
         d="m -1711.609,-662.86289 4.8223,-15.32019 8.2014,14.50697 -7.0605,5.53937 z"
         id="path151-9-0-9"
         sodipodi:nodetypes="ccccc" /><path
         style="fill:#9fa989;fill-opacity:1;stroke-width:1;-inkscape-stroke:none"
         d="m -1706.7867,-678.18306 1.1409,20.04634 -7.8889,-6.25236 z"
         id="path157-8-26-7"
         sodipodi:nodetypes="cccc" /><g
         id="g41-6-3-3-0-48-8-7-3-5"
         transform="matrix(1.6203716,1.0825405,-1.0825405,1.6203716,-1809.3145,-318.17011)"><path
           style="fill:#663300;fill-opacity:1;stroke:none;stroke-width:0.264583"
           d="m -90.552775,-191.87843 22.041385,31.60392 1.122532,7.95127 -31.582877,-34.34351"
           id="path38-7-0-9-1-8-6-7-5-1"
           sodipodi:nodetypes="cccc" /><path
           style="fill:#330000;fill-opacity:1;stroke:none;stroke-width:0.264583"
           d="m -103.49909,-176.47577 4.527355,-10.19098 31.582877,34.34351 -7.568305,0.91674"
           id="path39-6-5-8-3-3-1-6-9-7"
           sodipodi:nodetypes="cccc" /><path
           style="fill:#994c00;fill-opacity:1;stroke:none;stroke-width:0.264583"
           d="m -90.552775,-191.87843 -13.706985,1.57818 5.288025,3.6335"
           id="path40-5-6-1-7-8-6-9-1-0"
           sodipodi:nodetypes="ccc" /><path
           style="fill:#590101;fill-opacity:1;stroke:none;stroke-width:0.264583"
           d="m -98.971735,-186.66675 -4.527355,10.19098 -0.76067,-13.82448"
           id="path41-0-1-2-0-7-0-2-0-8"
           sodipodi:nodetypes="ccc" /></g><path
         style="fill:#d7f4e3;fill-opacity:1;stroke-width:23.3846;stroke-linecap:round;stroke-opacity:0.624204"
         d="m -1752.9624,-717.00024 -5.3863,4.0287 2.2027,6.22554 14.7656,-5.86531 10.7559,0.93631 -11.3567,-5.5494 z"
         id="path157-6-2-9-67-1" /><path
         style="fill:#93ac9d;fill-opacity:1;stroke-width:23.3846;stroke-linecap:round;stroke-opacity:0.624204"
         d="m -1758.3491,-712.97181 0.4727,8.29754 14.4138,-6.48814 12.8378,-0.51277 -17.4496,-2.79468 z"
         id="path158-1-4-46-4-7" /><g
         id="g164-2-5-3"><path
           style="fill:#d7f4e3;fill-opacity:1;stroke-width:23.3846;stroke-linecap:round;stroke-opacity:0.624204"
           d="m -1779.6486,-706.56654 6.1367,-2.75402 4.374,4.94743 -12.2947,10.06313 -4.4017,9.85854 0.66,-12.6228 z"
           id="path157-6-2-2-5-9-3" /><path
           style="fill:#93ac9d;fill-opacity:1;stroke-width:23.3846;stroke-linecap:round;stroke-opacity:0.624204"
           d="m -1773.512,-709.32104 7.0253,4.44051 -12.6685,9.45325 -6.6791,10.97547 6.0257,-16.61293 z"
           id="path158-1-4-0-2-4-7" /></g><g
         id="g40-2-2-8-4-4-7-7"
         transform="rotate(-65.996626,-1752.3386,901.85436)"><g
           id="g41-5-1-9-6-0-0-4"><g
             id="g43-2-09-9-3-8-6-3"><path
               id="path38-0-5-3-0-3-3-7"
               style="fill:#89c639;fill-opacity:1;stroke:none;stroke-width:0.433999;stroke-dasharray:none;stroke-opacity:0"
               d="m -347.93815,243.29369 -12.97906,3.91862 -13.95625,22.91075 -0.1111,12.74909 7.12721,4.58318 v 8.13904 l 10.70167,6.88433 26.57667,-17.27853 V 264.3632 l -17.71778,-11.51868 z" /></g></g></g><g
         id="g160-2-3-5"
         transform="rotate(-65.996626,-1702.2636,-704.14632)"><path
           style="fill:#010500;fill-opacity:0.35;stroke:none;stroke-width:0.264583;stroke-opacity:1"
           d="m -1794.567,-695.96085 v -20.83697 l -17.7178,-11.51887 -0.1109,12.7495 7.1272,4.58304 v 8.139 z"
           id="path4-6-5-2-8" /><path
           style="fill:#000000;fill-opacity:0.3;stroke:none;stroke-width:0.264583;stroke-opacity:1"
           d="m -1794.567,-716.79782 26.5767,-17.27835 -17.7178,-11.51889 0.3584,-9.55058 -12.979,3.91864 -13.956,22.91029"
           id="path5-6-2-8-4" /></g><path
         style="fill:#4c6729;fill-opacity:1;stroke-width:1;-inkscape-stroke:none"
         d="m -1769.9757,-656.27868 -12.6755,7.28731 8.579,4.2124 6.2121,-3.99774"
         id="path162-62-7-4" /><g
         id="g65-7-9-1-3-5-9-0"
         transform="matrix(0.57137233,-0.22950419,0.15438706,0.41021537,-5202.9673,96.075893)"
         inkscape:transform-center-x="77.310988"
         inkscape:transform-center-y="16.379268"><path
           style="fill:#3f5323;fill-opacity:1;stroke-width:12;stroke-linecap:round;stroke-opacity:0.624204"
           d="m 5693.2985,1256.0809 41.5764,36.068 9.0519,24.2267 -11.5805,14.1575 -2.5403,-30.3902 z"
           id="path60-8-8-7-4-1-9-9" /><path
           id="path61-5-9-3-3-3-27-4"
           style="fill:#4c6729;fill-opacity:1;stroke-width:12;stroke-linecap:round;stroke-opacity:0.624204"
           d="m 5693.2987,1256.0812 2.0001,16.9363 11.2027,13.0856 -9.2343,-0.2641 1.422,8.1359 5.8256,6.8119 -2.29,0.4031 -0.2229,5.9175 18.5182,18.5466 -1.3246,14.0094 13.1504,-9.1302 -2.54,-30.3905 z"
           sodipodi:nodetypes="ccccccccccccc" /><path
           style="fill:#32421c;fill-opacity:1;stroke-width:12;stroke-linecap:round;stroke-opacity:0.624204"
           d="m 5715.759,1283.1891 2.0709,26.5151 13.5615,9.4062 -1.5854,-18.9675 z"
           id="path62-9-5-5-0-5-9-3" /></g><path
         id="path34-5-5-7-8-9-2"
         style="fill:#ffcc00;fill-opacity:1;stroke:none;stroke-width:7.81774;stroke-linecap:round;stroke-opacity:0.624204"
         d="m -1738.0503,-679.24293 -1.8278,0.12489 -3.6627,3.4269 -0.6027,4.9795 2.7384,4.20223 4.7987,1.45841 4.614,-1.96715 2.2697,-4.47284 -0.3712,-1.5971 -3.7038,-0.92516 0.4704,2.02263 -1.1625,2.29002 -2.3624,1.0079 -2.4572,-0.74706 -1.4022,-2.15157 0.3091,-2.54917 1.8755,-1.75436 0.8443,-0.0457 z" /></g></g></svg>
