<?xml version="1.0" encoding="UTF-8" standalone="no"?>
<!-- Created with Inkscape (http://www.inkscape.org/) -->

<svg
   width="170.23637mm"
   height="131.88123mm"
   viewBox="0 0 170.23637 131.88123"
   version="1.1"
   id="svg1"
   inkscape:version="1.3 (0e150ed6c4, 2023-07-21)"
   sodipodi:docname="DWARF - GOBLINS all sprites.svg"
   xml:space="preserve"
   xmlns:inkscape="http://www.inkscape.org/namespaces/inkscape"
   xmlns:sodipodi="http://sodipodi.sourceforge.net/DTD/sodipodi-0.dtd"
   xmlns:xlink="http://www.w3.org/1999/xlink"
   xmlns="http://www.w3.org/2000/svg"
   xmlns:svg="http://www.w3.org/2000/svg"><sodipodi:namedview
     id="namedview1"
     pagecolor="#ffffff"
     bordercolor="#000000"
     borderopacity="0.25"
     inkscape:showpageshadow="2"
     inkscape:pageopacity="0.0"
     inkscape:pagecheckerboard="0"
     inkscape:deskcolor="#d1d1d1"
     inkscape:document-units="mm"
     inkscape:zoom="0.12267851"
     inkscape:cx="10873.95"
     inkscape:cy="2058.2251"
     inkscape:window-width="1920"
     inkscape:window-height="991"
     inkscape:window-x="-9"
     inkscape:window-y="-9"
     inkscape:window-maximized="1"
     inkscape:current-layer="layer1" /><defs
     id="defs1"><linearGradient
       id="linearGradient245"
       inkscape:collect="always"><stop
         style="stop-color:#c47307;stop-opacity:1;"
         offset="0"
         id="stop244" /><stop
         style="stop-color:#e9982c;stop-opacity:1;"
         offset="1"
         id="stop245" /></linearGradient><linearGradient
       id="linearGradient247"
       inkscape:collect="always"><stop
         style="stop-color:#523003;stop-opacity:1;"
         offset="0"
         id="stop246" /><stop
         style="stop-color:#854e05;stop-opacity:1;"
         offset="1"
         id="stop247" /></linearGradient><linearGradient
       id="linearGradient261"
       inkscape:collect="always"><stop
         style="stop-color:#c47307;stop-opacity:1;"
         offset="0.2790224"
         id="stop254" /><stop
         style="stop-color:#f5d0a0;stop-opacity:1;"
         offset="1"
         id="stop261" /></linearGradient><linearGradient
       id="linearGradient86"
       inkscape:collect="always"><stop
         style="stop-color:#b36b06;stop-opacity:1;"
         offset="0"
         id="stop85" /><stop
         style="stop-color:#e9b672;stop-opacity:1;"
         offset="1"
         id="stop86" /></linearGradient><linearGradient
       id="linearGradient241"
       inkscape:collect="always"><stop
         style="stop-color:#854e05;stop-opacity:1;"
         offset="0.10604271"
         id="stop240" /><stop
         style="stop-color:#e4a34a;stop-opacity:1;"
         offset="0.72506279"
         id="stop241" /></linearGradient><linearGradient
       id="linearGradient233-6"
       inkscape:collect="always"><stop
         style="stop-color:#854e05;stop-opacity:1;"
         offset="0.00203666"
         id="stop232" /><stop
         style="stop-color:#a66c33;stop-opacity:1;"
         offset="1"
         id="stop233" /></linearGradient><linearGradient
       id="linearGradient237"
       inkscape:collect="always"><stop
         style="stop-color:#e9982c;stop-opacity:1;"
         offset="0"
         id="stop237" /><stop
         style="stop-color:#f5d0a0;stop-opacity:1;"
         offset="1"
         id="stop236" /></linearGradient><linearGradient
       id="linearGradient88"
       inkscape:collect="always"><stop
         style="stop-color:#eba13f;stop-opacity:1;"
         offset="0"
         id="stop89" /><stop
         style="stop-color:#f7dcba;stop-opacity:1;"
         offset="0.40928882"
         id="stop88" /><stop
         style="stop-color:#eda341;stop-opacity:1;"
         offset="1"
         id="stop90" /></linearGradient><linearGradient
       inkscape:collect="always"
       xlink:href="#linearGradient235"
       id="linearGradient229-2-8"
       gradientUnits="userSpaceOnUse"
       x1="-628.88696"
       y1="154.83072"
       x2="-575.38531"
       y2="142.31134" /><linearGradient
       id="linearGradient235"
       inkscape:collect="always"><stop
         style="stop-color:#c47307;stop-opacity:1;"
         offset="0.81262732"
         id="stop234" /><stop
         style="stop-color:#e9982c;stop-opacity:1;"
         offset="1"
         id="stop235" /></linearGradient><linearGradient
       inkscape:collect="always"
       xlink:href="#linearGradient231"
       id="linearGradient230-9-2"
       gradientUnits="userSpaceOnUse"
       x1="-647.62195"
       y1="122.46599"
       x2="-585.7262"
       y2="122.46599" /><linearGradient
       id="linearGradient231"
       inkscape:collect="always"><stop
         style="stop-color:#ca6b4e;stop-opacity:1;"
         offset="0"
         id="stop230" /><stop
         style="stop-color:#e29733;stop-opacity:1;"
         offset="1"
         id="stop231" /></linearGradient><linearGradient
       inkscape:collect="always"
       xlink:href="#linearGradient245"
       id="linearGradient35"
       gradientUnits="userSpaceOnUse"
       x1="-641.15253"
       y1="224.84944"
       x2="-622.44519"
       y2="224.84944" /><linearGradient
       inkscape:collect="always"
       xlink:href="#linearGradient247"
       id="linearGradient36"
       gradientUnits="userSpaceOnUse"
       x1="-650.85095"
       y1="232.29697"
       x2="-641.15253"
       y2="224.67906" /><linearGradient
       inkscape:collect="always"
       xlink:href="#linearGradient261"
       id="linearGradient38"
       gradientUnits="userSpaceOnUse"
       x1="-660.54907"
       y1="210.98016"
       x2="-622.44519"
       y2="210.98016" /><linearGradient
       inkscape:collect="always"
       xlink:href="#linearGradient245"
       id="linearGradient39"
       gradientUnits="userSpaceOnUse"
       x1="-641.15253"
       y1="224.84944"
       x2="-622.44519"
       y2="224.84944" /><linearGradient
       inkscape:collect="always"
       xlink:href="#linearGradient247"
       id="linearGradient40"
       gradientUnits="userSpaceOnUse"
       x1="-650.85095"
       y1="232.29697"
       x2="-641.15253"
       y2="224.67906" /><linearGradient
       inkscape:collect="always"
       xlink:href="#linearGradient261"
       id="linearGradient41"
       gradientUnits="userSpaceOnUse"
       x1="-660.54907"
       y1="210.98016"
       x2="-622.44519"
       y2="210.98016" /><linearGradient
       inkscape:collect="always"
       xlink:href="#linearGradient86"
       id="linearGradient42"
       gradientUnits="userSpaceOnUse"
       x1="15.49477"
       y1="143.97389"
       x2="46.642479"
       y2="129.63126" /><linearGradient
       inkscape:collect="always"
       xlink:href="#linearGradient241"
       id="linearGradient43"
       gradientUnits="userSpaceOnUse"
       x1="-4.2755747"
       y1="128.61232"
       x2="19.981649"
       y2="121.45135" /><linearGradient
       inkscape:collect="always"
       xlink:href="#linearGradient233-6"
       id="linearGradient44"
       gradientUnits="userSpaceOnUse"
       x1="162.98334"
       y1="13.481386"
       x2="180.95464"
       y2="13.481386" /><linearGradient
       inkscape:collect="always"
       xlink:href="#linearGradient237"
       id="linearGradient45"
       gradientUnits="userSpaceOnUse"
       x1="185.11865"
       y1="11.751735"
       x2="194.54387"
       y2="-2.5265627" /><linearGradient
       inkscape:collect="always"
       xlink:href="#linearGradient88"
       id="linearGradient47"
       gradientUnits="userSpaceOnUse"
       x1="179.06984"
       y1="27.061441"
       x2="208.66142"
       y2="28.302013" /></defs><g
     inkscape:label="Capa 1"
     inkscape:groupmode="layer"
     id="layer1"
     transform="translate(-2412.6341,443.12816)"><g
       id="g265-9-8"
       transform="translate(2791.8098,487.93949)"><g
         id="g49-1-4-0"
         inkscape:export-filename="Dwarf_unit_mineral_gollem.png"
         inkscape:export-xdpi="96"
         inkscape:export-ydpi="96"
         transform="translate(323.55748,-1037.0111)"><g
           id="g48-0-0-5-0"
           transform="translate(45.592669,-13.945117)"><path
             style="fill:url(#linearGradient35);stroke:none;stroke-width:0.433999;stroke-dasharray:none;stroke-opacity:0"
             d="m -641.15253,223.31267 18.70733,-12.16225 v 15.23576 l -18.70702,12.16228 z"
             id="path46-9-0-1-9" /><path
             style="fill:url(#linearGradient36);stroke:none;stroke-width:0.433999;stroke-dasharray:none;stroke-opacity:0"
             d="m -641.15253,223.31267 -19.39653,-12.50278 -2.1e-4,15.23582 19.39668,12.50252"
             id="path47-7-9-7-5" /><path
             style="fill:url(#linearGradient38);stroke:none;stroke-width:0.433999;stroke-dasharray:none;stroke-opacity:0"
             d="m -660.54906,210.80989 18.70729,-12.16223 19.39657,12.50276 -18.70733,12.16225"
             id="path48-7-5-4-2" /></g><g
           id="g48-5-0-4"
           transform="translate(-2.2e-4,-0.72376)"><path
             style="fill:url(#linearGradient39);stroke:none;stroke-width:0.433999;stroke-dasharray:none;stroke-opacity:0"
             d="m -641.15253,223.31267 18.70733,-12.16225 v 15.23576 l -18.70702,12.16228 z"
             id="path46-93-2-3" /><path
             style="fill:url(#linearGradient40);stroke:none;stroke-width:0.433999;stroke-dasharray:none;stroke-opacity:0"
             d="m -641.15253,223.31267 -19.39653,-12.50278 -2.1e-4,15.23582 19.39668,12.50252"
             id="path47-17-2-4" /><path
             style="fill:url(#linearGradient41);stroke:none;stroke-width:0.433999;stroke-dasharray:none;stroke-opacity:0"
             d="m -660.54906,210.80989 18.70729,-12.16223 19.39657,12.50276 -18.70733,12.16225"
             id="path48-1-4-1" /></g><g
           id="g40-3-5-9-2-5"
           transform="translate(-195.03829,-116.64941)"><g
             id="g41-7-1-03-5-1"><g
               id="g43-8-7-4-5-2"><path
                 id="path38-3-4-6-9-6"
                 style="fill:#ffffff;fill-opacity:1;stroke:none;stroke-width:0.433999;stroke-dasharray:none;stroke-opacity:0"
                 d="m -356.49384,256.01201 -30.92524,4.14806 -16.08016,7.97058 1.08934,0.076 -1.73374,9.66969 17.44906,2.98949 v 7.95507 l 0.0398,0.0258 v 1.62988 l 7.62693,4.95835 7.62692,-4.95835 -0.0202,-5.31286 3.56412,2.29185 v 8.13904 l 10.70116,6.88434 19.69699,-12.80594 v -20.83697 z" /></g></g></g><g
           id="g45-40-99-1-7"
           transform="translate(-331.4371,-115.60027)" /><g
           id="g33-4-8-3-8-9"
           transform="matrix(1.367631,0,0,1.367631,-660.99156,-1.16534)"><path
             style="fill:#b26806;fill-opacity:1;stroke:none;stroke-width:0.371421;stroke-dasharray:none;stroke-opacity:0"
             d="m 6.9238904,145.11958 -11.199465,-16.50726 7.576109,-24.72499 14.4960616,-7.595259 18.93763,0.1616 3.78806,15.836929 -9.64397,23.10898 z"
             id="path16-5-6-4-2-8" /><path
             style="fill:url(#linearGradient42);stroke:none;stroke-width:0.371421;stroke-dasharray:none;stroke-opacity:0"
             d="m 18.79835,154.95809 -9.0022266,-19.83946 7.5761126,-24.72499 14.49606,-7.59526 18.93762,0.1616 3.78806,15.83693 -9.64397,23.10898 z"
             id="path16-9-1-1-4-3-4"
             sodipodi:nodetypes="cccccccc" /><path
             style="fill:url(#linearGradient43);stroke:none;stroke-width:0.433999;stroke-dasharray:none;stroke-opacity:0"
             d="M 18.79835,154.95809 4.7266544,148.45178 -4.2755745,128.61232 3.3005344,103.88733 19.98165,116.25819 9.7961232,135.11863 Z"
             id="path17-9-2-6-2-2"
             sodipodi:nodetypes="ccccccc" /></g><g
           id="g23-6-2-0-2-4"
           transform="matrix(1.9137951,0,0,1.7891105,-959.22935,130.23973)"><path
             id="path1-9-9-4-8-7-7-8-5-28-4-4"
             style="fill:url(#linearGradient44);stroke:none;stroke-width:0.415189;stroke-dasharray:none;stroke-opacity:0"
             d="m 166.8787,-4.342702 7e-5,1.3e-4 -3.89544,2.34288 5.2e-4,16.282208 15.01105,17.022957 0.1582,-11.173082 -5.54195,-3.099322 6.77788,1.980241 1.56561,-14.2046978 z"
             sodipodi:nodetypes="cccccccccc" /><path
             style="fill:url(#linearGradient45);stroke:none;stroke-width:0.415189;stroke-dasharray:none;stroke-opacity:0"
             d="m 195.03051,-4.34256 0.80877,10.495386 -16.19309,10.353868 1.30845,-11.698088"
             id="path2-0-0-8-8-7-9-9-9-7-5-0"
             sodipodi:nodetypes="cccc" /><rect
             style="fill:#9b2aff;fill-opacity:1;stroke:none;stroke-width:0.0526222;stroke-dasharray:none;stroke-opacity:1"
             id="rect4-9-3-7-9-8-3-7-9-2-9-0-3-7-2-1"
             width="16.789112"
             height="16.789112"
             x="95.539482"
             y="-120.29564"
             transform="matrix(0.8383929,0.54506637,-0.8383929,0.54506637,0,0)" /><g
             id="g16-5-1-7-6-1-33-8-8"
             transform="translate(31.97197,-304.09833)"><g
               id="g22-6-4-8-3-3"><path
                 id="path214-0-3-5-7-5-8-4-4-3-0-9"
                 style="fill:#3a302d;fill-opacity:1;stroke:#020202;stroke-width:0.939499;stroke-dasharray:none;stroke-opacity:0"
                 d="m 162.10197,302.6333 -4.49223,4.08192 0.01,6.23167 4.48241,-2.93161 z m -7.60367,6.36396 -4.51652,1.33066 0.0574,7.55458 4.48293,-2.93212 z" /><path
                 id="path215-2-6-2-5-4-5-0-2-97-9-5"
                 style="fill:#ff00ff;fill-opacity:1;stroke:#020202;stroke-width:0.939499;stroke-dasharray:none;stroke-opacity:0"
                 d="m 162.10197,305.70805 -2.77864,1.83348 0.0279,4.27261 2.75125,-1.79886 z m -7.5799,4.9351 -2.77916,1.834 0.0284,4.2726 2.75073,-1.79937 z" /></g></g><path
             style="fill:url(#linearGradient47);fill-opacity:1;stroke:none;stroke-width:0.415189;stroke-dasharray:none;stroke-opacity:0"
             d="m 178.09707,19.98555 -0.10217,11.319923 20.57366,-19.043738 3.68299,-7.3607422 -6.74433,-3.0568711 0.33203,4.3087043 0.9089,-0.2823833"
             id="path2-0-0-8-8-0-2-8-6-3-9-2"
             sodipodi:nodetypes="ccccccc" /><path
             style="fill:#4e3a30;fill-opacity:1;stroke:none;stroke-width:0.433999;stroke-dasharray:none;stroke-opacity:0"
             d="m 180.95464,-13.493751 -17.97131,11.494058 17.97131,6.808299 v -18.302357"
             id="path21-3-9-5-0-2-5" /></g><g
           id="g40-2-9-6-4"
           transform="translate(-327.74893,-111.02704)"><g
             id="g41-5-35-1-8"><g
               id="g43-2-8-8-8"><path
                 id="path38-0-2-3-1"
                 style="fill:#ffffff;fill-opacity:1;stroke:none;stroke-width:0.433999;stroke-dasharray:none;stroke-opacity:0"
                 d="m -347.93841,243.29394 -12.97905,3.91863 -13.95574,22.91023 -0.1111,12.74961 7.12721,4.58318 v 8.13904 l 10.70167,6.88382 26.57667,-17.27802 v -20.83697 l -17.71778,-11.51919 z" /></g></g></g><path
           style="fill:url(#linearGradient229-2-8);stroke:none;stroke-width:0.433999;stroke-dasharray:none;stroke-opacity:0"
           d="m -628.88698,160.71377 12.97149,3.54288 32.59977,-22.56084 1.24414,-1.90642 -2.5456,-0.78125 -0.45141,-5.46908 12.90727,5.46908 -6.44796,6.6064 -39.87654,30.50784 z"
           id="path45-5-7-1-8"
           sodipodi:nodetypes="cccccccccc" /><path
           id="path20-6-2-7-99-9-6"
           style="fill:#000000;fill-opacity:1;stroke:none;stroke-width:0.803073;stroke-dasharray:none;stroke-opacity:0"
           d="m -584.61718,139.00815 0.18391,2.11721 -30.99009,18.64667 -8.24477,-2.2498 -5.21885,3.19154 11.92637,9.45229 36.2613,-28.4488 -0.7289,-2.35491 z"
           sodipodi:nodetypes="ccccccccc" /><path
           style="fill:url(#linearGradient230-9-2);fill-opacity:1;stroke:#020202;stroke-width:0.264583;stroke-opacity:0"
           d="m -612.91924,138.84286 26.93834,-16.37245 -26.93834,-16.37249 -34.3934,20.56414 z"
           id="path32-2-2-7" /></g><g
         id="g17-2-2-4"
         transform="translate(78.554035,-818.83515)"><path
           id="path1-57-4-4"
           style="fill:#000000;fill-opacity:0.3;stroke:none;stroke-width:0.264583;stroke-opacity:1"
           d="m -306.52829,-78.81381 -22.57377,3.171384 -5.10394,9.643625 -1.4895,1.251922 10.78746,0.04435 17.71778,11.51868 19.69699,-12.80542 z m -30.2007,14.939976 -4e-5,8.899914 7.62693,4.95835 7.62692,-4.95835 -14.22032,-9.772959 z"
           sodipodi:nodetypes="cccccccccccccc" /><path
           id="path3-31-6-1"
           style="fill:#000000;fill-opacity:0.35;stroke:none;stroke-width:0.264583;stroke-opacity:1"
           d="m -341.91328,-59.337539 0.58994,2.466406 -0.835,2.000841 5.42931,0.937132 0.0398,9.58391 7.62693,4.95887 -0.0398,-10.62519 -7.62693,-4.95835 4e-5,-8.899914 z m 6.21778,-5.40934 14.22032,9.772959 0.0202,5.31234 3.56361,2.29133 v 8.13904 l 10.70116,6.88433 v -20.83697 l -17.71783,-11.51868 z"
           sodipodi:nodetypes="ccccccccccccccccccc" /><path
           style="fill:#010500;fill-opacity:0.35;stroke:none;stroke-width:0.264583;stroke-opacity:1"
           d="m -439.90089,-26.724485 v -20.836969 l -17.7178,-11.518865 -0.11095,12.749495 7.12725,4.583041 v 8.138999 z"
           id="path4-7-4-8" /><path
           style="fill:#000000;fill-opacity:0.3;stroke:none;stroke-width:0.264583;stroke-opacity:1"
           d="m -439.90089,-47.561454 26.57669,-17.278345 -17.71781,-11.51889 0.35841,-9.55058 -12.97897,3.91864 -13.95608,22.91029"
           id="path5-9-0-5" /></g></g></g></svg>
