<?xml version="1.0" encoding="UTF-8" standalone="no"?>
<!-- Created with Inkscape (http://www.inkscape.org/) -->

<svg
   width="183.83115mm"
   height="142.04469mm"
   viewBox="0 0 183.83115 142.04469"
   version="1.1"
   id="svg1"
   inkscape:version="1.3 (0e150ed6c4, 2023-07-21)"
   sodipodi:docname="DWARF - GOBLINS all sprites.svg"
   xml:space="preserve"
   xmlns:inkscape="http://www.inkscape.org/namespaces/inkscape"
   xmlns:sodipodi="http://sodipodi.sourceforge.net/DTD/sodipodi-0.dtd"
   xmlns="http://www.w3.org/2000/svg"
   xmlns:svg="http://www.w3.org/2000/svg"><sodipodi:namedview
     id="namedview1"
     pagecolor="#ffffff"
     bordercolor="#000000"
     borderopacity="0.25"
     inkscape:showpageshadow="2"
     inkscape:pageopacity="0.0"
     inkscape:pagecheckerboard="0"
     inkscape:deskcolor="#d1d1d1"
     inkscape:document-units="mm"
     inkscape:zoom="0.12267851"
     inkscape:cx="10873.95"
     inkscape:cy="2058.2251"
     inkscape:window-width="1920"
     inkscape:window-height="991"
     inkscape:window-x="-9"
     inkscape:window-y="-9"
     inkscape:window-maximized="1"
     inkscape:current-layer="layer1" /><defs
     id="defs1"><linearGradient
       id="linearGradient52"
       inkscape:collect="always"
       gradientTransform="scale(1.0752006,0.93005899)"
       x1="4803.1987"
       y1="1643.5818"
       x2="4826.7104"
       y2="1643.5818"
       gradientUnits="userSpaceOnUse"><stop
         style="stop-color:#493520;stop-opacity:1;"
         offset="0"
         id="stop51-0" /><stop
         style="stop-color:#b7883f;stop-opacity:1;"
         offset="1"
         id="stop52" /></linearGradient></defs><g
     inkscape:label="Capa 1"
     inkscape:groupmode="layer"
     id="layer1"
     transform="translate(-2392.6219,914.85074)"><g
       id="g55"
       transform="translate(-312.90884,-700.19428)"><g
         id="g1142-9-3-8"
         transform="matrix(0.9,0,0,0.9,-1833.9677,-1495.192)"><path
           style="fill:#f5f5f5;fill-opacity:1;stroke:none;stroke-width:2.39246;-inkscape-stroke:none"
           d="m 5205.4504,1557.1511 0.4319,20.0498 5.8759,-3.0143 2.3393,-14.2946 1.7201,12.31 5.0745,-2.5522 v -7.6041"
           id="path1137-5-8-5-5" /><g
           id="g1140-5-5-4-5"
           transform="rotate(-39.189583,4371.5751,2615.4514)"
           inkscape:transform-center-x="-15.849494"
           inkscape:transform-center-y="-1.5997721"><path
             style="fill:#faaf9c;fill-opacity:1;stroke:none;stroke-width:1;-inkscape-stroke:none"
             d="m 5639.14,2234.3751 -9.1665,5.4524 -9.4906,-4.3217 0.7805,-14.856 5.3081,-10.4188 5.4942,-11.2417 -1.7487,-13.487 -9.8341,-7.4254 -16.6676,2.0366 -19.7256,12.0692 17.2641,-4.7789 11.8467,0.061 7.2824,3.0499 0.7805,7.1057 -12.5338,21.4267 -0.5039,19.9453 16.8215,15.0553 18.0827,-4.3482"
             id="path1128-2-4-6-7"
             sodipodi:nodetypes="cccccccccccccccccc" /><path
             style="fill:#b5695b;fill-opacity:1;stroke:none;stroke-width:1;-inkscape-stroke:none"
             d="m 5636.5729,2242.7466 -12.489,2.7037 -10.168,-8.9678 0.093,-14.1763 11.6437,-23.2543 -1.1468,-11.4561 -7.1708,-4.3471 -12.4277,0.2492 -20.8177,8.6847 17.2642,-4.7788 11.8467,0.061 7.2824,3.0499 0.7805,7.1057 -12.5339,21.4267 -0.5039,19.9453 16.8215,15.0553 18.0827,-4.3482"
             id="path1128-4-1-8-9-8"
             sodipodi:nodetypes="ccccccccccccccccc" /></g><path
           style="fill:#bd7a6d;fill-opacity:1;stroke:none;stroke-width:1;-inkscape-stroke:none"
           d="m 5125.8931,1553.4113 -3.9973,13.5654 7.5827,9.9234 -1.7628,-10.025 8.3439,8.0578 -0.6905,-9.2498 6.6644,2.7945 -1.4473,-7.1196 -8.813,-4.9139 -11.5464,-10.2976"
           id="path1129-6-2-7-6" /><path
           style="fill:#bd7a6d;fill-opacity:1;stroke:none;stroke-width:1;-inkscape-stroke:none"
           d="m 5152.2721,1563.8004 8.1349,11.2368 12.2704,5.6075 -4.0928,-7.0735 11.7139,3.329 -8.0933,-8.1553 8.4468,-1.2059 -13.8486,-6.0156 -5.3784,-5.0793"
           id="path1130-1-5-4-1" /><path
           style="fill:#faaf9c;fill-opacity:1;stroke:none;stroke-width:1;-inkscape-stroke:none"
           d="m 5199.8604,1530.9502 -4.6959,-11.2968 8.6606,-4.1205 h 7.7607 l -1.6575,15.0247 -7.2375,4.027"
           id="path1132-5-2-2-1"
           sodipodi:nodetypes="cccccc" /><path
           style="fill:#95949a;fill-opacity:1;stroke:none;stroke-width:1;-inkscape-stroke:none"
           d="m 5126.7444,1556.4441 -10.7029,-9.2911 -2.3719,-7.9593 -1.3393,-19.9468 10.9644,-23.7429 26.6218,-6.0218 20.6007,12.8716 12.9889,16.4445 11.6584,9.8297 12.2627,4.4185 11.3773,6.515 3.3268,8.9944 7.2766,7.8882 -3.8203,8.1935 -9.3751,1.0898 -10.2749,-1.5692 -0.2587,3.6001 -11.9861,-4.5791 -13.0407,4.3598 -22.8291,-2.9014 -17.2368,-3.2795"
           id="path1134-4-7-5-4"
           sodipodi:nodetypes="ccccccccccccccccccccc" /><g
           id="g1128-4-8-1-1"
           transform="translate(-833.43278,-651.72337)"><path
             style="fill:#d5dfbe;fill-opacity:1;stroke-width:0.3;-inkscape-stroke:none"
             d="m 6036.1236,2196.2695 7.8789,3.9605 v 7.9375 l -7.8789,-3.5637 z"
             id="path211-1-92-5-9-5-0-8-9-0-5-5-8-8-6"
             sodipodi:nodetypes="ccccc" /><path
             style="fill:#7b0c18;fill-opacity:1;stroke-width:0.3;-inkscape-stroke:none"
             d="m 6039.3086,2206.045 -5e-4,-8.1747 4.6923,2.3597 v 7.9375 z"
             id="path212-3-6-4-7-2-83-5-7-6-2-2-2-2-3"
             sodipodi:nodetypes="ccccc" /></g><path
           style="fill:url(#linearGradient52);fill-opacity:1;stroke:none;stroke-width:1;-inkscape-stroke:none"
           d="m 5189.6819,1539.0665 -9.0298,-10.4385 -16.2498,2.4119 5.0342,17.6077 11.2156,1.8475 2.2575,-1.0871 2.2574,-1.087 4.5149,-2.1741"
           id="path1131-7-6-9-6"
           sodipodi:nodetypes="cccccccc" /><path
           style="fill:#424242;fill-opacity:1;stroke:none;stroke-width:1;-inkscape-stroke:none"
           d="m 5195.1644,1528.628 v -8.9746 l 8.6606,-4.1205 -3.3051,6.4951 v 8.5296 z"
           id="path1135-5-7-4-6" /><path
           style="fill:#424242;fill-opacity:1;stroke:none;stroke-width:1;-inkscape-stroke:none"
           d="m 5189.6819,1539.0665 -9.0298,-10.4385 -16.2498,2.4119 5.0342,17.6077 1.4327,-14.063 h 7.3493 z"
           id="path1136-5-6-2-8"
           sodipodi:nodetypes="ccccccc" /><path
           style="fill:#000000;fill-opacity:0.218447;stroke:none;stroke-width:1;-inkscape-stroke:none"
           d="m 5149.9166,1489.4822 -26.6218,6.0218 -10.9644,23.7428 1.3392,19.9469 2.3718,7.9592 10.703,9.2912 13.8419,4.9139 40.0658,6.181 13.0408,-4.36 11.986,4.5793 0.2587,-3.6001 10.2748,1.5692 9.3753,-1.0899 1.91,-4.0967 -22.6105,-1.1529 -38.4252,-4.5586 -32.2685,-15.2679 -4.3006,-20.7788 5.2888,-18.6169 z"
           id="path1138-5-4-6-9"
           sodipodi:nodetypes="cccccccccccccccccccc" /><path
           style="fill:#000000;fill-opacity:0.33;stroke:none;stroke-width:1;-inkscape-stroke:none"
           d="m 5123.2948,1495.5039 -10.9644,23.7429 1.3392,19.9468 2.3718,7.9593 10.703,9.2911 13.8419,4.914 40.0658,6.1809 13.0408,-4.3599 11.986,4.5793 0.2587,-3.6001 10.2748,1.5691 9.3753,-1.0898 0.955,-2.0484 -23.8518,-0.389 -23.3034,-0.6768 -25.5966,-3.6661 -28.872,-13.3111 -4.6921,-21.5009 z"
           id="path1138-5-3-5-7-2"
           sodipodi:nodetypes="ccccccccccccccccccc" /><path
           style="fill:#faaf9c;fill-opacity:1;stroke:none;stroke-width:1;-inkscape-stroke:none"
           d="m 5226.2656,1558.0102 3.1423,-1.5661 3.216,1.9844 -0.9657,5.3093 -6.0706,0.8997"
           id="path1133-0-0-9-0" /></g><g
         id="g19-9-1-6-38-1-3-1-3-4-7-4"
         transform="matrix(1.1676721,0,0,1.1676721,2841.4387,-325.7845)"><path
           id="path2-0-9-2-5-2-3-9-2-2-74-4-1-2-7-3-9-3"
           style="fill:#ffffff;fill-opacity:1;stroke:none;stroke-width:0.472478;stroke-dasharray:none;stroke-opacity:1"
           d="m -28.417671,122.92348 -16.508553,10.57403 -6.266801,24.19904 22.811011,13.20747 25.2361856,-16.029 -8.6966266,-21.49119 z" /></g><path
         style="fill:#ffffff;fill-opacity:1;stroke:none;stroke-width:0.308946"
         d="m 2785.5682,-133.7976 -13.3706,8.2157 -0.07,15.2226 33.5241,18.1758 0.1544,-45.4731"
         id="path77-9-9-6-3-8-3-9-3-4-9-3"
         sodipodi:nodetypes="ccccc" /><g
         id="g19-9-1-6-8-0-4-0-7-7-8-3"
         transform="matrix(1.1263745,0,0,1.1263745,2840.2667,-318.7265)"
         style="fill:#ffffff;fill-opacity:1"
         inkscape:transform-center-x="-1.2104125"
         inkscape:transform-center-y="-23.984439"><path
           id="path2-0-9-2-5-2-3-9-2-2-76-0-5-2-5-2-5-8"
           style="fill:#ffffff;fill-opacity:1;stroke:none;stroke-width:0.472478;stroke-dasharray:none;stroke-opacity:1"
           d="m -38.209327,129.38556 -5.516143,1.34369 -7.178604,25.58703 22.52206,14.58774 25.2361856,-16.029 -8.6966266,-21.49119 z"
           sodipodi:nodetypes="ccccccc" /></g><g
         id="g53-5-5-8-72-6-4-9-6-4-4-8-0-5-4"
         transform="matrix(-1.0974151,-0.44526075,-0.44526075,1.0974151,2813.8604,36.5112)"><path
           style="fill:#a9ffff;fill-opacity:1;stroke:none;stroke-width:0.264583"
           d="m 1.1693042,-172.44898 9.4012058,-9.5883 7.062597,-10.52374 6.735192,-0.0935 -7.062597,10.52374"
           id="path44-2-0-0-7-6-4-3-6-2-1-5-8-7-1"
           sodipodi:nodetypes="ccccc" /><path
           style="fill:#b7b7b7;fill-opacity:1;stroke:none;stroke-width:0.264583"
           d="m 4.2094953,-174.27309 18.7837777,18.70149 -1.384532,2.34598 -20.4394368,-19.22336"
           id="path43-5-6-5-7-0-4-3-4-2-4-6-0-1-8"
           sodipodi:nodetypes="cccc" /><path
           style="fill:#8d4c01;fill-opacity:1;stroke:none;stroke-width:0.264583"
           d="m 9.5581448,-187.47403 4.9441842,-0.42192 3.394203,-7.05256 z m 4.8846902,1.92047"
           id="path45-3-4-4-5-6-1-9-75-0-2-7-1-4-0-6"
           sodipodi:nodetypes="cccc" /><path
           style="fill:#330000;fill-opacity:1;stroke:none;stroke-width:0.264583"
           d="m 14.502329,-187.89595 30.278722,30.50302 4.889256,-5.59593 -31.773775,-31.95965"
           id="path51-2-4-7-4-0-0-6-8-9-2-6-0-6-3"
           sodipodi:nodetypes="cccc" /><path
           style="fill:#663300;fill-opacity:1;stroke:none;stroke-width:0.264583"
           d="m 9.5581449,-187.47403 32.8318461,33.02391 1.503798,-1.92784 0.887262,-1.01497 -0.234964,-0.2473 -30.043758,-30.25572"
           id="path52-1-6-9-1-2-6-5-9-7-0-4-5-5-7"
           sodipodi:nodetypes="cccccc" /><path
           style="fill:#858585;fill-opacity:1;stroke:none;stroke-width:0.264583"
           d="m 24.368299,-192.65456 -7.062597,10.52374 -16.1363978,9.68184 20.4394368,19.22336 4.443356,-7.53588 -0.795127,-15.38248 4.677218,-7.34323 0.561266,-2.80633"
           id="path42-9-3-93-2-0-4-7-2-8-4-8-4-3-0" /><path
           style="fill:#a9ffff;fill-opacity:1;stroke:none;stroke-width:0.264583"
           d="m 12.864875,-184.14795 4.944185,-0.42192 3.394203,-7.05256 3.165036,-1.03209 -7.062597,10.5237 -3.142598,1.88556"
           id="path53-9-7-8-3-0-7-6-6-2-3-3-3-9-7" /></g><g
         id="g24-4-2-0-5-5-8"
         transform="matrix(1.176808,-0.13304169,0.13304169,1.176808,-106.2898,1447.3731)"><path
           style="fill:#9f592c;fill-opacity:1;stroke-width:0.257213;-inkscape-stroke:none"
           d="m 2615.9476,-1054.2123 12.262,11.7927 3.598,6.9728 -8.7053,-1.8432 -6.0713,9.7384 -5.9275,-8.6533 -0.8747,-6.4727 -7.0499,-5.2898 z"
           id="path200-04-1-8-5-8-1-2-1-1-7-3-0-3-2-1-3"
           sodipodi:nodetypes="ccccccccc" /><path
           style="fill:#502d16;fill-opacity:1;stroke-width:0.257213;-inkscape-stroke:none"
           d="m 2617.0308,-1027.4499 6.0715,-9.8401 8.7053,1.8432 1.8959,3.9549 2.9074,1.9047 -0.8252,2.6435 -3.0485,-1.2043 -6.0113,6.6012 -10.0242,-3.4085 z"
           id="path205-6-0-1-3-0-7-0-8-0-3-7-3-9-6-8-6"
           sodipodi:nodetypes="cccccccccc" /><g
           id="g153-2-4-6-4-8-8-0"
           transform="rotate(-24.189528,1045.1811,-3865.994)"><path
             style="fill:#666666;stroke-width:15;stroke-linecap:round"
             d="m 1320.8541,-649.69152 0.328,6.68073 16.0073,-6.68073 z"
             id="path149-7-9-5-2-8-5-2"
             sodipodi:nodetypes="cccc" /><path
             style="fill:#4d4d4d;stroke-width:15;stroke-linecap:round"
             d="m 1321.1821,-643.01079 5.8662,-0.26459 10.1411,-6.41614"
             id="path150-6-9-4-0-7-6-4" /></g></g><path
         style="fill:#000000;fill-opacity:1;stroke:none;stroke-width:0.369182;stroke-opacity:0"
         d="m 2782.9292,-127.0806 v 15.4187 l -12.5161,-8.1372 2e-4,-14.7196 z"
         id="path1-9-3-3-3-3-7-1-8-5-5-5-9-4-1-4-6-5-0-0"
         sodipodi:nodetypes="ccccc" /><path
         style="fill:#666666;fill-opacity:1;stroke:none;stroke-width:0.369182;stroke-opacity:0"
         d="m 2795.4456,-134.5187 -2e-4,14.7196 -12.5162,8.1372 v -15.4187"
         id="path2-0-2-8-9-6-6-0-1-4-4-3-4-5-1-4-3-3-5-4"
         sodipodi:nodetypes="cccc" /><g
         id="g19-9-9-7-2-3-1-2-3-8-4-0-8-7-1-9-8"
         transform="matrix(1.1827283,0.06108148,-0.06108148,1.1827283,2852.3053,-326.6238)"><path
           id="path2-0-9-2-5-2-3-9-6-93-9-5-7-5-8-1-5-8-0-3-5-3-1"
           style="fill:#808080;fill-opacity:0;stroke:none;stroke-width:0.472478;stroke-dasharray:none;stroke-opacity:0"
           d="m -11.842525,133.38401 -16.539707,10.75255 v 26.76725 l 25.2362199,-16.02898 z"
           sodipodi:nodetypes="ccccc" /></g><g
         id="g18-6-7-9-1-3-4-4-7-0-4-5-4-5-1"
         transform="matrix(1.1827283,0.06108148,-0.06108148,1.1827283,2939.2217,-330.2817)"><g
           id="g16-5-2-6-5-0-6-7-7-4-3-0-6-7-6-6"
           transform="matrix(1.1156684,0,0,1.1156684,-267.67055,-212.20146)"><path
             style="fill:#ffffff;fill-opacity:1;stroke:#020202;stroke-width:0.939499;stroke-dasharray:none;stroke-opacity:0"
             d="m 149.98182,310.3281 4.54023,-2.75959 v 7.3819 l -4.48292,2.93192 z"
             id="path214-0-3-5-7-6-9-6-8-4-9-6-7-7-8-0-4-4-3"
             sodipodi:nodetypes="ccccc" /><path
             style="fill:#000000;fill-opacity:0.993007;stroke:#020202;stroke-width:0.939499;stroke-dasharray:none;stroke-opacity:0"
             d="m 154.52205,310.64325 -2.77911,1.83366 0.0282,4.27268 2.75095,-1.79918"
             id="path215-2-6-2-5-4-5-6-2-7-7-8-3-0-2-6-9-6-1" /><path
             style="fill:#ffffff;fill-opacity:1;stroke:#020202;stroke-width:0.939499;stroke-dasharray:none;stroke-opacity:0"
             d="m 157.56199,305.39279 4.54023,-2.75959 v 7.3819 l -4.48292,2.93192 z"
             id="path214-0-5-2-8-62-1-2-8-4-1-0-8-7-6-3-1-8-0-3"
             sodipodi:nodetypes="ccccc" /><path
             style="fill:#000000;fill-opacity:0.993007;stroke:#020202;stroke-width:0.939499;stroke-dasharray:none;stroke-opacity:0"
             d="m 162.10222,305.70794 -2.77911,1.83366 0.0282,4.27268 2.75095,-1.79918"
             id="path215-2-5-8-3-5-1-1-7-55-3-4-4-8-6-8-5-2-8-7" /></g></g><path
         style="fill:#ffffff;fill-opacity:1;stroke:#020202;stroke-width:1.24135;stroke-dasharray:none;stroke-opacity:0"
         d="m 2812.36,-177.8993 6.1788,-3.332 -0.5031,9.7407 -6.115,3.5633 z"
         id="path214-0-3-5-7-4-8-4-0-3-0-3-9-0-3-9-7-7-6-8-4"
         sodipodi:nodetypes="ccccc" /><path
         style="fill:#000000;fill-opacity:0.993007;stroke:#020202;stroke-width:1.24135;stroke-dasharray:none;stroke-opacity:0"
         d="m 2818.3293,-177.174 -3.792,2.2302 -0.2533,5.6399 3.7524,-2.1866"
         id="path215-2-6-2-5-2-5-7-1-5-6-8-3-8-0-0-6-3-9-2-0" /><path
         style="fill:#ffffff;fill-opacity:1;stroke:#020202;stroke-width:1.24135;stroke-dasharray:none;stroke-opacity:0"
         d="m 2822.6984,-183.895 6.179,-3.332 -0.5029,9.7407 -6.1153,3.5632 z"
         id="path214-0-5-2-8-62-3-5-0-9-5-0-2-4-5-1-5-3-8-1-0-7"
         sodipodi:nodetypes="ccccc" /><path
         style="fill:#000000;fill-opacity:0.993007;stroke:#020202;stroke-width:1.24135;stroke-dasharray:none;stroke-opacity:0"
         d="m 2828.6679,-183.1698 -3.7921,2.2302 -0.2545,5.6399 3.7527,-2.1867"
         id="path215-2-5-8-3-5-7-1-9-7-2-5-4-7-5-2-1-7-9-1-0-3" /><path
         style="fill:#c6862d;fill-opacity:1;stroke:#0c0c0c;stroke-width:0;stroke-linecap:square;stroke-dasharray:none;stroke-opacity:1"
         d="m 2828.8774,-187.2271 -6.3436,7.2592 -3.8898,1.9713 -6.2842,0.097 -1.2145,-3.4652 19.1251,-9.7194"
         id="path173-1-8-1-8-4-5-6-1"
         sodipodi:nodetypes="cccccc" /><path
         id="path2-0-9-9-4-5-7-5-1-8-24-7-6-8-8-8-9-1-8-4-5-3-7-6"
         style="fill:#000000;fill-opacity:0.34902;stroke:none;stroke-width:0.559558;stroke-dasharray:none;stroke-opacity:0"
         d="m 2789.6688,-172.4771 20.264,14.5941 -1.6349,31.6584 -26.6359,-15.422 z"
         sodipodi:nodetypes="ccccc" /><g
         id="g53-5-22-3-4-1-8-5-2-5-1-6-0-5"
         transform="matrix(1.0353563,0.57499085,-0.57499085,1.0353563,2637.7172,-14.4045)"><path
           style="fill:#a9ffff;fill-opacity:1;stroke:none;stroke-width:0.264583"
           d="m 1.1693042,-172.44898 9.4012058,-9.5883 7.062597,-10.52374 6.735192,-0.0935 -7.062597,10.52374"
           id="path44-2-4-8-6-4-8-4-9-5-2-5-9-6"
           sodipodi:nodetypes="ccccc" /><path
           style="fill:#b7b7b7;fill-opacity:1;stroke:none;stroke-width:0.264583"
           d="m 4.2094953,-174.27309 18.7837777,18.70149 -1.384532,2.34598 -20.4394368,-19.22336"
           id="path43-5-7-7-6-5-3-8-4-3-4-3-2-5"
           sodipodi:nodetypes="cccc" /><path
           style="fill:#8d4c01;fill-opacity:1;stroke:none;stroke-width:0.264583"
           d="m 9.5581448,-187.47403 4.9441842,-0.42192 3.394203,-7.05256 z m 4.8846902,1.92047"
           id="path45-3-4-8-18-2-0-3-5-7-5-0-5-3-6"
           sodipodi:nodetypes="cccc" /><path
           style="fill:#8d4c01;fill-opacity:1;stroke:none;stroke-width:0.264583"
           d="m 46.36823,-150.44861 4.944185,-0.42192 3.394203,-7.05256 z m 4.884691,1.92047"
           id="path45-1-6-3-8-1-3-6-5-0-8-0-8-3-9"
           sodipodi:nodetypes="cccc" /><path
           style="fill:#663300;fill-opacity:1;stroke:none;stroke-width:0.264583"
           d="m 14.502329,-187.89595 36.810086,37.02542 3.394202,-7.05256 -36.810085,-37.02542"
           id="path51-2-0-9-0-5-7-0-8-9-9-0-1-4" /><path
           style="fill:#330000;fill-opacity:1;stroke:none;stroke-width:0.264583"
           d="m 9.5581449,-187.47403 36.8100841,37.02542 4.944186,-0.42192 -36.810086,-37.02542"
           id="path52-1-7-1-6-0-6-7-8-9-7-1-2-8" /><path
           style="fill:#858585;fill-opacity:1;stroke:none;stroke-width:0.264583"
           d="m 24.368299,-192.65456 -7.062597,10.52374 -16.1363978,9.68184 20.4394368,19.22336 4.443356,-7.53588 -0.795127,-15.38248 4.677218,-7.34323 0.561266,-2.80633"
           id="path42-9-0-6-1-6-3-2-6-7-4-9-3-1" /><path
           style="fill:#a9ffff;fill-opacity:1;stroke:none;stroke-width:0.264583"
           d="m 12.864875,-184.14795 4.944185,-0.42192 3.394203,-7.05256 3.165036,-1.03209 -7.062597,10.5237 -3.142598,1.88556"
           id="path53-9-0-9-8-7-5-5-2-1-7-5-8-7" /></g><rect
         style="fill:#333333;fill-opacity:1;stroke:none;stroke-width:0.0467912;stroke-dasharray:none;stroke-opacity:1"
         id="rect4-9-3-7-9-8-8-9-6-8-0-7-9-7-6-4-3-4-1-3-3-3-4-1"
         width="14.928728"
         height="14.928728"
         x="1528.8199"
         y="-1790.5417"
         transform="matrix(0.83839296,0.54506627,-0.83839296,0.54506627,0,0)" /><g
         id="g65-7-1-6-1-3-9"
         transform="matrix(-0.4084436,0.10022343,0.07771742,0.28910496,5058.7502,-1134.4568)"
         inkscape:transform-center-x="77.310988"
         inkscape:transform-center-y="16.379268"><path
           style="fill:#35461e;fill-opacity:1;stroke-width:12;stroke-linecap:round;stroke-opacity:0.624204"
           d="m 5693.2985,1256.0809 41.5764,36.068 9.0519,24.2267 -11.5805,14.1575 -2.5403,-30.3902 z"
           id="path60-8-7-2-3-0-1" /><path
           id="path61-5-7-9-7-9-8"
           style="fill:#62803b;fill-opacity:1;stroke-width:12;stroke-linecap:round;stroke-opacity:0.624204"
           d="m 5693.2987,1256.0812 2.0001,16.9363 11.2027,13.0856 -9.2343,-0.2641 1.422,8.1359 5.8256,6.8119 -2.29,0.4031 -0.2229,5.9175 18.5182,18.5466 0.7083,10.2004 11.1175,-5.3212 -2.54,-30.3905 z"
           sodipodi:nodetypes="ccccccccccccc" /><path
           style="fill:#2a3020;fill-opacity:1;stroke-width:12;stroke-linecap:round;stroke-opacity:0.624204"
           d="m 5715.759,1283.1891 2.0709,26.5151 13.5615,9.4062 -1.5854,-18.9675 z"
           id="path62-9-1-1-7-8-3" /></g><g
         id="g38-98-8-2-89"
         transform="matrix(0.44496832,0,0,0.44496832,291.8244,-723.6819)"><g
           id="g29-6-7-9-8"
           transform="matrix(0.94301175,0,0,0.98632018,337.28494,13.767312)"
           inkscape:transform-center-x="42.749527"
           inkscape:transform-center-y="0.43110714"><path
             style="fill:#89c639;fill-opacity:1;stroke:none;stroke-width:12;stroke-linecap:round;stroke-opacity:0.624204"
             d="m 5643.6743,1225.2479 45.1692,-26.3319 v 47.3721 l -45.3743,27.5703 z"
             id="path26-5-91-1-33"
             sodipodi:nodetypes="ccccc" /><path
             style="fill:#5f862a;fill-opacity:1;stroke:none;stroke-width:12;stroke-linecap:round;stroke-opacity:0.624204"
             d="m 5643.6743,1225.2479 -46.9978,-27.4143 v 47.3721 l 46.7927,28.6527"
             id="path28-0-6-3-9"
             sodipodi:nodetypes="cccc" /><path
             style="fill:#360f0f;fill-opacity:1;stroke:none;stroke-width:12;stroke-linecap:round;stroke-opacity:0.624204"
             d="m 5643.6743,1172.584 45.1692,26.332 -45.1692,26.3319 -46.9978,-27.4143"
             id="path29-6-9-6-7"
             sodipodi:nodetypes="cccc" /></g><g
           id="g33-7-43-3-0"
           transform="translate(-95.07911,-83.256116)"><g
             id="g30-0-2-2-21"><path
               style="fill:#d5dfbe;fill-opacity:1;stroke:none;stroke-width:12;stroke-linecap:round;stroke-opacity:0.624204"
               d="m 5781.4981,1293.3651 13.1917,-8.4152 0.1126,22.1104 -13.2654,8.4554 z"
               id="path30-04-04-7-1-5"
               sodipodi:nodetypes="ccccc" /><path
               style="fill:#7b0c18;fill-opacity:1;stroke:none;stroke-width:7.31104;stroke-linecap:round;stroke-opacity:0.624204"
               d="m 5786.6992,1298.7165 8.0372,-5.1272 0.066,13.471 -8.0822,5.1514 z"
               id="path30-04-6-7-2-9-9"
               sodipodi:nodetypes="ccccc" /></g><g
             id="g30-5-3-3-2-25"
             transform="translate(-22.994322,14.610686)"><path
               style="fill:#d5dfbe;fill-opacity:1;stroke:none;stroke-width:12;stroke-linecap:round;stroke-opacity:0.624204"
               d="m 5781.4981,1293.3651 13.1917,-8.4152 0.1126,22.1104 -13.2654,8.4554 z"
               id="path30-04-9-04-3-4-75"
               sodipodi:nodetypes="ccccc" /><path
               style="fill:#7b0c18;fill-opacity:1;stroke:none;stroke-width:7.31104;stroke-linecap:round;stroke-opacity:0.624204"
               d="m 5786.6992,1298.7165 8.0372,-5.1272 0.066,13.471 -8.0822,5.1514 z"
               id="path30-04-6-6-6-0-1-55"
               sodipodi:nodetypes="ccccc" /></g></g></g><path
         id="path34-5-5-7-5"
         style="fill:#ffcc00;fill-opacity:1;stroke:none;stroke-width:5.33962;stroke-linecap:round;stroke-opacity:0.624204"
         d="m 2789.226,-172.2617 -1.2484,0.085 -2.5018,2.3406 -0.4116,3.4011 1.8704,2.8702 3.2776,0.9961 3.1514,-1.3436 1.5503,-3.055 -0.2537,-1.0909 -2.5296,-0.6319 0.3213,1.3815 -0.794,1.5641 -1.6136,0.6884 -1.6783,-0.5102 -0.9578,-1.4695 0.2111,-1.7412 1.281,-1.1982 0.5768,-0.031 z" /><g
         id="g93-5-7-9-0-2-2-4-2-0-9-7-7-7"
         transform="matrix(1.1827283,0.06108148,-0.06108148,1.1827283,2456.6613,-552.0838)"><path
           style="fill:#d9ff3e;fill-opacity:1;stroke:none;stroke-width:0.264583"
           d="m 293.35677,285.81614 0.19843,5.42396 -7.34218,3.61354 z"
           id="path93-6-8-0-4-1-3-0-5-5-6-6-2-5"
           sodipodi:nodetypes="cccc" /><path
           style="fill:#360f0f;fill-opacity:1;stroke:none;stroke-width:0.264583"
           d="m 319.94701,293.35956 12.56809,-13.16581 -9.98802,1.05833 -2.31418,-10.31875 -5.64959,7.0776 -7.00421,-8.59895 -3.68515,9.85572 -11.26488,-1.33535 0.7477,7.88379 0.19843,5.42396 -7.34218,3.61354 6.28385,8.49604 -2.64583,8.39563 3.12746,0.60337 4.98134,-5.57873 -0.75987,-17.46293 7.4616,-4.85101 z"
           id="path84-8-4-5-9-2-0-4-9-9-0-9-5-2"
           sodipodi:nodetypes="cccccccccccccccccc" /><path
           style="fill:#d9ff3e;fill-opacity:1;stroke:none;stroke-width:0.264583"
           d="m 319.80145,293.29062 1.25362,-6.41614 11.46003,-6.68073 z"
           id="path85-2-6-8-2-2-8-5-6-6-7-9-8-8" /><path
           style="fill:#d9ff3e;fill-opacity:1;stroke:none;stroke-width:0.264583"
           d="m 322.52708,281.25208 -2.31418,1.98437 -1.73445,-3.68212 1.73445,-8.621 z"
           id="path86-8-3-3-8-1-4-7-7-9-4-9-0-3" /><path
           style="fill:#d9ff3e;fill-opacity:1;stroke:none;stroke-width:0.264583"
           d="m 307.5591,269.41198 7.00421,8.59895 -2.61388,1.5434 -3.18068,-2.46944"
           id="path88-0-1-5-4-6-7-5-2-4-5-0-6-1" /><path
           style="fill:#d9ff3e;fill-opacity:1;stroke:none;stroke-width:0.264583"
           d="m 292.60907,277.93235 11.26488,1.33535 -0.46611,2.64584 -2.86373,0.26458 z"
           id="path92-7-8-8-9-1-4-4-6-3-4-6-9-2"
           sodipodi:nodetypes="ccccc" /></g><g
         id="g65-7-9-1-1-6"
         transform="matrix(0.39025499,-0.15675445,0.10544844,0.28018262,422.6411,357.2915)"
         inkscape:transform-center-x="77.310988"
         inkscape:transform-center-y="16.379268"><path
           style="fill:#3f5323;fill-opacity:1;stroke-width:12;stroke-linecap:round;stroke-opacity:0.624204"
           d="m 5693.2985,1256.0809 41.5764,36.068 9.0519,24.2267 -11.5805,14.1575 -2.5403,-30.3902 z"
           id="path60-8-8-7-7-26" /><path
           id="path61-5-9-3-6-3"
           style="fill:#4c6729;fill-opacity:1;stroke-width:12;stroke-linecap:round;stroke-opacity:0.624204"
           d="m 5693.2987,1256.0812 2.0001,16.9363 11.2027,13.0856 -9.2343,-0.2641 1.422,8.1359 5.8256,6.8119 -2.29,0.4031 -0.2229,5.9175 18.5182,18.5466 -1.3246,14.0094 13.1504,-9.1302 -2.54,-30.3905 z"
           sodipodi:nodetypes="ccccccccccccc" /><path
           style="fill:#32421c;fill-opacity:1;stroke-width:12;stroke-linecap:round;stroke-opacity:0.624204"
           d="m 5715.759,1283.1891 2.0709,26.5151 13.5615,9.4062 -1.5854,-18.9675 z"
           id="path62-9-5-5-3-73" /></g></g></g></svg>
