<?xml version="1.0" encoding="UTF-8" standalone="no"?>
<!-- Created with Inkscape (http://www.inkscape.org/) -->

<svg
   width="175.27766mm"
   height="186.75908mm"
   viewBox="0 0 175.27766 186.75908"
   version="1.1"
   id="svg1"
   inkscape:version="1.3 (0e150ed6c4, 2023-07-21)"
   sodipodi:docname="DWARF - GOBLINS all sprites.svg"
   xml:space="preserve"
   xmlns:inkscape="http://www.inkscape.org/namespaces/inkscape"
   xmlns:sodipodi="http://sodipodi.sourceforge.net/DTD/sodipodi-0.dtd"
   xmlns="http://www.w3.org/2000/svg"
   xmlns:svg="http://www.w3.org/2000/svg"><sodipodi:namedview
     id="namedview1"
     pagecolor="#ffffff"
     bordercolor="#000000"
     borderopacity="0.25"
     inkscape:showpageshadow="2"
     inkscape:pageopacity="0.0"
     inkscape:pagecheckerboard="0"
     inkscape:deskcolor="#d1d1d1"
     inkscape:document-units="mm"
     inkscape:zoom="0.12267851"
     inkscape:cx="10873.95"
     inkscape:cy="2058.2251"
     inkscape:window-width="1920"
     inkscape:window-height="991"
     inkscape:window-x="-9"
     inkscape:window-y="-9"
     inkscape:window-maximized="1"
     inkscape:current-layer="layer1" /><defs
     id="defs1"><filter
       style="color-interpolation-filters:sRGB"
       inkscape:label="Blur"
       id="filter171"
       x="-0.079324268"
       y="-0.073728596"
       width="1.1586485"
       height="1.1474572"><feGaussianBlur
         stdDeviation="5 5"
         result="blur"
         id="feGaussianBlur171" /></filter></defs><g
     inkscape:label="Capa 1"
     inkscape:groupmode="layer"
     id="layer1"
     transform="translate(-2858.7405,1176.526)"><g
       id="g172"
       transform="translate(2198.9634,1471.7823)"><g
         id="g171"
         style="filter:url(#filter171)"><path
           id="path2-0-9-2-5-2-3-9-2-2-74-4-1-2-7-3-9-6-3"
           style="fill:#ffffff;fill-opacity:1;stroke:none;stroke-width:0.551699;stroke-dasharray:none;stroke-opacity:1"
           d="m 740.45092,-2636.3083 -4.96042,11.4314 -13.24157,-2.2671 0.40256,9.37 -9.001,10.2526 6.91328,10.4324 -3.64216,9.7679 3.49384,0.8144 1.70584,-1.7683 -4.44314,17.1586 -10.25932,-36.2862 0.48679,-0.2635 2.1947,-2.5828 -2.68614,-10.1089 -4.31291,-2.3172 -1.06867,-3.7791 -12.931,2.9445 1.27176,4.4979 -3.34967,1.7131 -15.24661,4.5217 10.10894,31.6554 2.78226,-1.6329 h -5.1e-4 l 6.15156,-3.6132 5.56813,-11.3719 9.53637,33.7307 5.36195,2.4061 4.80901,-3.3993 -0.68213,2.635 -11.3068,7.351 v 5.6327 l -2.79828,1.4196 -7.48378,19.7843 -0.18707,17.8201 7.38973,4.0695 -7.38973,-4.069 -1.35651,7.2497 9.448,5.2855 4.67724,-5.8937 7.71736,1.5435 -3.36724,-8.185 -6.85953,2.8691 6.85953,-2.8696 4.15375,-11.9796 10.76058,5.4084 3.70417,4.6566 1.32292,8.9297 3.10885,8.9958 -0.13177,8.1706 7.81089,3.8819 -5.2e-4,5e-4 -7.81037,-3.8824 h -5.2e-4 l -0.74827,7.0161 8.79326,5.6125 5.61257,-7.7173 7.95146,-0.8889 -3.69538,-7.9979 h 5.1e-4 l -2.8329,-6.9071 3.175,-15.0812 11.04635,-2.5797 2.68976,17.0139 6.87555,2.2454 7.36648,-4.6308 -1.37976,-4.3263 0.37413,-6.9691 15.71584,-0.8883 8.46563,-1.8614 3.71812,-5.4818 0.0698,-0.3116 4.89324,-3.5471 3.39101,-5.7294 1.10484,-7.1143 -1.73478,-4.8984 -2.02572,-1.1829 -1.13843,-0.1317 0.64647,5.3878 -2.2133,5.7645 -6.02392,0.4444 1.10381,2.3399 -2.17816,-4.5444 -4.12947,-8.0032 4.86792,-7.3571 -3.99303,1.7936 0.51986,-3.1884 -0.005,-0.01 9.67486,-4.1863 3.23133,-9.3075 -6.43578,-3.9206 16.62741,-6.4358 -6.04769,-14.7087 -0.76843,-3.683 4.29999,-1.8324 -5.82238,-11.9156 -3.61322,1.5395 -4.51032,-1.9033 -9.55652,4.2525 -0.63355,3.3295 0.0997,0.5441 -30.88545,13.1631 2.87373,8.3183 -3.33882,-9.6552 -0.11885,-1.4552 -2.08205,-4.2101 1.01234,-19.6102 -3.31245,-2.4055 8.65786,-8.044 -11.87782,0.6419 -2.10685,-12.3455 -7.1143,8.0258 z m 32.09055,140.8452 -6.87555,-2.2449 -0.86558,5.5191 8.41913,4.3728 3.95221,-6.4776 6.10402,-0.1638 -3.36775,-5.6358 z m 23.36188,-88.0179 -5.35936,11.4716 1.04697,7.057 -10e-4,5e-4 0.39998,2.6861 -0.10852,0.084 -1.29915,1.8381 -1.37563,1.9461 -0.14366,-0.094 -6.29315,-3.8499 -0.0398,0.017 -9.46816,-7.3644 -1.74459,0.3111 -0.32557,-3.5703 z" /><path
           id="path2-0-9-2-5-2-3-9-2-2-74-4-1-2-7-3-9-6-8"
           style="fill:#ffffff;fill-opacity:1;stroke:none;stroke-width:0.551699;stroke-dasharray:none;stroke-opacity:1"
           d="m 740.45092,-2636.3083 -4.96042,11.4314 -13.24157,-2.2671 0.40256,9.37 -9.001,10.2526 6.91328,10.4324 -3.64216,9.7679 3.49384,0.8144 1.70584,-1.7683 -4.44314,17.1586 -10.25932,-36.2862 0.48679,-0.2635 2.1947,-2.5828 -2.68614,-10.1089 -4.31291,-2.3172 -1.06867,-3.7791 -12.931,2.9445 1.27176,4.4979 -3.34967,1.7131 -15.24661,4.5217 10.10894,31.6554 2.78226,-1.6329 h -5.1e-4 l 6.15156,-3.6132 5.56813,-11.3719 9.53637,33.7307 5.36195,2.4061 4.80901,-3.3993 -0.68213,2.635 -11.3068,7.351 v 5.6327 l -2.79828,1.4196 -7.48378,19.7843 -0.18707,17.8201 7.38973,4.0695 -7.38973,-4.069 -1.35651,7.2497 9.448,5.2855 4.67724,-5.8937 7.71736,1.5435 -3.36724,-8.185 -6.85953,2.8691 6.85953,-2.8696 4.15375,-11.9796 10.76058,5.4084 3.70417,4.6566 1.32292,8.9297 3.10885,8.9958 -0.13177,8.1706 7.81089,3.8819 -5.2e-4,5e-4 -7.81037,-3.8824 h -5.2e-4 l -0.74827,7.0161 8.79326,5.6125 5.61257,-7.7173 7.95146,-0.8889 -3.69538,-7.9979 h 5.1e-4 l -2.8329,-6.9071 3.175,-15.0812 11.04635,-2.5797 2.68976,17.0139 6.87555,2.2454 7.36648,-4.6308 -1.37976,-4.3263 0.37413,-6.9691 15.71584,-0.8883 8.46563,-1.8614 3.71812,-5.4818 0.0698,-0.3116 4.89324,-3.547 3.39101,-5.7295 1.10484,-7.1143 -1.73478,-4.8984 -2.02572,-1.1829 -1.13843,-0.1317 0.64647,5.3878 -2.2133,5.7646 -6.02392,0.4444 1.10381,2.3398 -2.17816,-4.5444 -4.12947,-8.0032 4.86792,-7.3571 -3.99303,1.7936 0.51986,-3.1884 -0.005,-0.01 9.67486,-4.1863 3.23133,-9.3075 -6.43578,-3.9206 16.62741,-6.4358 -6.04769,-14.7087 -0.76843,-3.683 4.29999,-1.8324 -5.82238,-11.9156 -3.61322,1.5395 -4.51032,-1.9033 -9.55652,4.2525 -0.63355,3.3295 0.0997,0.5441 -30.88545,13.1631 2.87373,8.3183 -3.33882,-9.6552 -0.11885,-1.4552 -2.08205,-4.2101 1.01234,-19.6102 -3.31245,-2.4055 8.65786,-8.0439 -11.87782,0.6419 -2.10685,-12.3455 -7.1143,8.0258 z m 32.09055,140.8453 -6.87555,-2.245 -0.86558,5.5191 8.41913,4.3729 3.95221,-6.4777 6.10402,-0.1637 -3.36775,-5.6358 z m 23.36188,-88.0179 -5.35936,11.4716 1.04697,7.0569 -10e-4,5e-4 0.39998,2.6861 -0.10852,0.084 -1.29915,1.8381 -1.37563,1.9461 -0.14366,-0.094 -6.29315,-3.8499 -0.0398,0.017 -9.46816,-7.3644 -1.74459,0.3111 -0.32557,-3.5703 z" /></g></g></g></svg>
