<?xml version="1.0" encoding="UTF-8" standalone="no"?>
<!-- Created with Inkscape (http://www.inkscape.org/) -->

<svg
   width="158.01593mm"
   height="166.33662mm"
   viewBox="0 0 158.01593 166.33662"
   version="1.1"
   id="svg1"
   inkscape:version="1.3 (0e150ed6c4, 2023-07-21)"
   sodipodi:docname="DWARF - GOBLINS all sprites.svg"
   xml:space="preserve"
   xmlns:inkscape="http://www.inkscape.org/namespaces/inkscape"
   xmlns:sodipodi="http://sodipodi.sourceforge.net/DTD/sodipodi-0.dtd"
   xmlns="http://www.w3.org/2000/svg"
   xmlns:svg="http://www.w3.org/2000/svg"><sodipodi:namedview
     id="namedview1"
     pagecolor="#ffffff"
     bordercolor="#000000"
     borderopacity="0.25"
     inkscape:showpageshadow="2"
     inkscape:pageopacity="0.0"
     inkscape:pagecheckerboard="0"
     inkscape:deskcolor="#d1d1d1"
     inkscape:document-units="mm"
     inkscape:zoom="0.12267851"
     inkscape:cx="10873.95"
     inkscape:cy="2058.2251"
     inkscape:window-width="1920"
     inkscape:window-height="991"
     inkscape:window-x="-9"
     inkscape:window-y="-9"
     inkscape:window-maximized="1"
     inkscape:current-layer="layer1" /><defs
     id="defs1" /><g
     inkscape:label="Capa 1"
     inkscape:groupmode="layer"
     id="layer1"
     transform="translate(-2619.4905,-87.292058)"><g
       id="g299"
       transform="translate(1685.1742,2354.8842)"><g
         id="g148-8-4-2-6"
         transform="translate(10.9691,-2413.7977)"><g
           id="g146-7-0-7-72"
           transform="translate(-42.175591,-64.407644)"><path
             id="path19-9-2-9-6-7"
             style="fill:#4d4d4d;stroke-width:3;stroke-opacity:0.970874"
             transform="matrix(0.51705411,0.21778861,-0.02850343,0.82186422,746.63858,-38.517829)"
             d="m 669.02906,287.55527 -16.86603,-1.22489 -12.92493,-10.90456 -4.04695,-16.41905 6.37683,-15.66204 14.36487,-8.92264 16.86603,1.22488 12.92493,10.90456 4.04695,16.41906 -6.37682,15.66203 z" /><path
             id="path19-9-3-0-8-7-1"
             style="fill:#262626;stroke-width:3;stroke-opacity:0.970874"
             transform="matrix(0.51705411,0.21778861,-0.02850343,0.82186422,742.7977,-36.41548)"
             d="m 669.02906,287.55527 -16.86603,-1.22489 -12.92493,-10.90456 -4.04695,-16.41905 6.37683,-15.66204 14.36487,-8.92264 16.86603,1.22488 12.92493,10.90456 4.04695,16.41906 -6.37682,15.66203 z" /><path
             style="fill:#797979;fill-opacity:1;stroke-width:15;stroke-linecap:round"
             d="m 1094.1673,313.4569 -3.8409,2.10232 -6.372,-11.77694 3.8409,-2.10236"
             id="path133-2-8-8-6" /><path
             style="fill:#353535;fill-opacity:1;stroke-width:15;stroke-linecap:round"
             d="m 1091.9509,329.93486 3.8409,-2.10236 -3.7436,11.48326 -3.8409,2.10236"
             id="path143-5-6-4-23" /></g><g
           id="g147-7-7-2-6"><path
             style="fill:#814e2c;fill-opacity:1;stroke-width:15;stroke-linecap:round"
             d="m 1037.8943,260.28385 -0.012,5.22024 3.7703,-2.11667 0.012,-5.22024"
             id="path146-5-2-2-7-9-1"
             sodipodi:nodetypes="cccc" /><path
             style="fill:#935935;fill-opacity:1;stroke-width:15;stroke-linecap:round"
             d="m 1028.1708,254.33073 3.7703,-2.11667 9.7235,5.95312 -3.7703,2.11667"
             id="path146-3-6-1-9" /><path
             style="fill:#2c1212;fill-opacity:1;stroke-width:15;stroke-linecap:round"
             d="m 1028.1708,254.33073 -0.012,5.22024 9.7235,5.95312 0.012,-5.22024"
             id="path146-5-7-5-2-7"
             sodipodi:nodetypes="cccc" /></g></g><g
         id="g151-9-6-8-0"
         transform="translate(-302.2708,-2464.2594)"><g
           id="g147-7-9-6-0-2-1"
           transform="matrix(2.985984,0,0,2.985984,-1802.338,-499.68271)"><path
             style="fill:#814e2c;fill-opacity:1;stroke-width:15;stroke-linecap:round"
             d="m 1037.8943,260.28385 -0.012,5.22024 3.7703,-2.11667 0.012,-5.22024"
             id="path146-5-2-2-0-3-9-4-0"
             sodipodi:nodetypes="cccc" /><path
             style="fill:#935935;fill-opacity:1;stroke-width:15;stroke-linecap:round"
             d="m 1028.1708,254.33073 3.7703,-2.11667 9.7235,5.95312 -3.7703,2.11667"
             id="path146-3-1-9-3-4-6" /><path
             style="fill:#2c1212;fill-opacity:1;stroke-width:15;stroke-linecap:round"
             d="m 1028.1708,254.33073 -0.012,5.22024 9.7235,5.95312 0.012,-5.22024"
             id="path146-5-7-3-7-9-3-7"
             sodipodi:nodetypes="cccc" /></g><g
           id="g147-7-9-3-7-9-7-4"
           transform="matrix(2.985984,0,0,2.985984,-1773.3038,-481.90679)"><path
             style="fill:#814e2c;fill-opacity:1;stroke-width:15;stroke-linecap:round"
             d="m 1037.8943,260.28385 -0.012,5.22024 3.7703,-2.11667 0.012,-5.22024"
             id="path146-5-2-2-0-0-5-3-8-3"
             sodipodi:nodetypes="cccc" /><path
             style="fill:#935935;fill-opacity:1;stroke-width:15;stroke-linecap:round"
             d="m 1028.1708,254.33073 3.7703,-2.11667 9.7235,5.95312 -3.7703,2.11667"
             id="path146-3-1-6-1-8-8-8" /><path
             style="fill:#2c1212;fill-opacity:1;stroke-width:15;stroke-linecap:round"
             d="m 1028.1708,254.33073 -0.012,5.22024 9.7235,5.95312 0.012,-5.22024"
             id="path146-5-7-3-3-0-7-7-0"
             sodipodi:nodetypes="cccc" /></g><g
           id="g147-7-9-39-7-5-9-0"
           transform="matrix(2.985984,0,0,2.985984,-1744.2696,-464.13087)"><path
             style="fill:#814e2c;fill-opacity:1;stroke-width:15;stroke-linecap:round"
             d="m 1037.8943,260.28385 -0.012,5.22024 3.7703,-2.11667 0.012,-5.22024"
             id="path146-5-2-2-0-6-1-8-6-75"
             sodipodi:nodetypes="cccc" /><path
             style="fill:#935935;fill-opacity:1;stroke-width:15;stroke-linecap:round"
             d="m 1028.1708,254.33073 3.7703,-2.11667 9.7235,5.95312 -3.7703,2.11667"
             id="path146-3-1-3-7-3-1-92" /><path
             style="fill:#2c1212;fill-opacity:1;stroke-width:15;stroke-linecap:round"
             d="m 1028.1708,254.33073 -0.012,5.22024 9.7235,5.95312 0.012,-5.22024"
             id="path146-5-7-3-4-1-5-1-6"
             sodipodi:nodetypes="cccc" /></g></g><g
         id="g150-5-9-6"
         transform="translate(-310.0559,-2417.8367)"><path
           style="fill:#999999;stroke:none;stroke-width:18.6739;stroke-opacity:0"
           d="m 1261.8164,236.61361 37.097,-21.74131 3.5363,-59.29737 -58.0766,33.81856"
           id="path141-7-9-3-0-5-7-7-5-9-2-4-2-1-5-1-2-5-8"
           sodipodi:nodetypes="cccc" /><path
           style="fill:#4d4d4d;stroke:none;stroke-width:18.6739;stroke-opacity:0"
           d="m 1344.8751,242.5536 -45.9617,-27.6813 3.5363,-59.29737 93.5183,57.25449"
           id="path141-0-0-7-9-7-7-5-2-2-9-1-5-6-3-4-3-3-1-0"
           sodipodi:nodetypes="cccc" /></g><g
         id="g148-7-4-5-0-2"
         transform="translate(-29.709,-2439.3725)"><g
           id="g146-9-8-5-0-7"
           transform="translate(-42.175591,-64.407644)"><path
             id="path19-9-7-6-3-8-4"
             style="fill:#4d4d4d;stroke-width:3;stroke-opacity:0.970874"
             transform="matrix(0.51705411,0.21778861,-0.02850343,0.82186422,746.63858,-38.517829)"
             d="m 669.02906,287.55527 -16.86603,-1.22489 -12.92493,-10.90456 -4.04695,-16.41905 6.37683,-15.66204 14.36487,-8.92264 16.86603,1.22488 12.92493,10.90456 4.04695,16.41906 -6.37682,15.66203 z" /><path
             id="path19-9-3-7-5-1-4-0"
             style="fill:#262626;stroke-width:3;stroke-opacity:0.970874"
             transform="matrix(0.51705411,0.21778861,-0.02850343,0.82186422,742.7977,-36.41548)"
             d="m 669.02906,287.55527 -16.86603,-1.22489 -12.92493,-10.90456 -4.04695,-16.41905 6.37683,-15.66204 14.36487,-8.92264 16.86603,1.22488 12.92493,10.90456 4.04695,16.41906 -6.37682,15.66203 z" /><path
             style="fill:#797979;fill-opacity:1;stroke-width:15;stroke-linecap:round"
             d="m 1094.1673,313.4569 -3.8409,2.10232 -6.372,-11.77694 3.8409,-2.10236"
             id="path133-0-1-7-1-2" /><path
             style="fill:#353535;fill-opacity:1;stroke-width:15;stroke-linecap:round"
             d="m 1091.9509,329.93486 3.8409,-2.10236 -3.7436,11.48326 -3.8409,2.10236"
             id="path143-14-2-5-8-8" /></g><g
           id="g147-2-6-4-4-1"><path
             style="fill:#814e2c;fill-opacity:1;stroke-width:15;stroke-linecap:round"
             d="m 1037.8943,260.28385 -0.012,5.22024 3.7703,-2.11667 0.012,-5.22024"
             id="path146-5-2-0-4-5-9-6"
             sodipodi:nodetypes="cccc" /><path
             style="fill:#935935;fill-opacity:1;stroke-width:15;stroke-linecap:round"
             d="m 1028.1708,254.33073 3.7703,-2.11667 9.7235,5.95312 -3.7703,2.11667"
             id="path146-9-6-0-8-2" /><path
             style="fill:#2c1212;fill-opacity:1;stroke-width:15;stroke-linecap:round"
             d="m 1028.1708,254.33073 -0.012,5.22024 9.7235,5.95312 0.012,-5.22024"
             id="path146-5-3-3-3-8-4"
             sodipodi:nodetypes="cccc" /></g></g><g
         id="g151-1-4-56"
         transform="translate(-330.7771,-2447.7059)"><g
           id="g147-7-9-9-4-8"
           transform="matrix(2.985984,0,0,2.985984,-1802.338,-499.68271)"><path
             style="fill:#814e2c;fill-opacity:1;stroke-width:15;stroke-linecap:round"
             d="m 1037.8943,260.28385 -0.012,5.22024 3.7703,-2.11667 0.012,-5.22024"
             id="path146-5-2-2-0-1-5-9"
             sodipodi:nodetypes="cccc" /><path
             style="fill:#935935;fill-opacity:1;stroke-width:15;stroke-linecap:round"
             d="m 1028.1708,254.33073 3.7703,-2.11667 9.7235,5.95312 -3.7703,2.11667"
             id="path146-3-1-5-2-3" /><path
             style="fill:#2c1212;fill-opacity:1;stroke-width:15;stroke-linecap:round"
             d="m 1028.1708,254.33073 -0.012,5.22024 9.7235,5.95312 0.012,-5.22024"
             id="path146-5-7-3-1-1-8"
             sodipodi:nodetypes="cccc" /></g><g
           id="g147-7-9-3-2-3-1"
           transform="matrix(2.985984,0,0,2.985984,-1773.3038,-481.90679)"><path
             style="fill:#814e2c;fill-opacity:1;stroke-width:15;stroke-linecap:round"
             d="m 1037.8943,260.28385 -0.012,5.22024 3.7703,-2.11667 0.012,-5.22024"
             id="path146-5-2-2-0-0-9-7-9"
             sodipodi:nodetypes="cccc" /><path
             style="fill:#935935;fill-opacity:1;stroke-width:15;stroke-linecap:round"
             d="m 1028.1708,254.33073 3.7703,-2.11667 9.7235,5.95312 -3.7703,2.11667"
             id="path146-3-1-6-7-3-9" /><path
             style="fill:#2c1212;fill-opacity:1;stroke-width:15;stroke-linecap:round"
             d="m 1028.1708,254.33073 -0.012,5.22024 9.7235,5.95312 0.012,-5.22024"
             id="path146-5-7-3-3-7-0-2"
             sodipodi:nodetypes="cccc" /></g><g
           id="g147-7-9-39-6-8-5"
           transform="matrix(2.985984,0,0,2.985984,-1744.2696,-464.13087)"><path
             style="fill:#814e2c;fill-opacity:1;stroke-width:15;stroke-linecap:round"
             d="m 1037.8943,260.28385 -0.012,5.22024 3.7703,-2.11667 0.012,-5.22024"
             id="path146-5-2-2-0-6-3-4-8"
             sodipodi:nodetypes="cccc" /><path
             style="fill:#935935;fill-opacity:1;stroke-width:15;stroke-linecap:round"
             d="m 1028.1708,254.33073 3.7703,-2.11667 9.7235,5.95312 -3.7703,2.11667"
             id="path146-3-1-3-0-8-9" /><path
             style="fill:#2c1212;fill-opacity:1;stroke-width:15;stroke-linecap:round"
             d="m 1028.1708,254.33073 -0.012,5.22024 9.7235,5.95312 0.012,-5.22024"
             id="path146-5-7-3-4-4-7-75"
             sodipodi:nodetypes="cccc" /></g></g><g
         id="g148-3-2-7"
         transform="translate(-40.4615,-2382.4707)"><g
           id="g146-77-6-1"
           transform="translate(-42.175591,-64.407644)"><path
             id="path19-9-0-8-7"
             style="fill:#4d4d4d;stroke-width:3;stroke-opacity:0.970874"
             transform="matrix(0.51705411,0.21778861,-0.02850343,0.82186422,746.63858,-38.517829)"
             d="m 669.02906,287.55527 -16.86603,-1.22489 -12.92493,-10.90456 -4.04695,-16.41905 6.37683,-15.66204 14.36487,-8.92264 16.86603,1.22488 12.92493,10.90456 4.04695,16.41906 -6.37682,15.66203 z" /><path
             id="path19-9-3-3-3-0"
             style="fill:#262626;stroke-width:3;stroke-opacity:0.970874"
             transform="matrix(0.51705411,0.21778861,-0.02850343,0.82186422,742.7977,-36.41548)"
             d="m 669.02906,287.55527 -16.86603,-1.22489 -12.92493,-10.90456 -4.04695,-16.41905 6.37683,-15.66204 14.36487,-8.92264 16.86603,1.22488 12.92493,10.90456 4.04695,16.41906 -6.37682,15.66203 z" /><path
             style="fill:#797979;fill-opacity:1;stroke-width:15;stroke-linecap:round"
             d="m 1094.1673,313.4569 -3.8409,2.10232 -6.372,-11.77694 3.8409,-2.10236"
             id="path133-43-2-8" /><path
             style="fill:#353535;fill-opacity:1;stroke-width:15;stroke-linecap:round"
             d="m 1091.9509,329.93486 3.8409,-2.10236 -3.7436,11.48326 -3.8409,2.10236"
             id="path143-10-4-77" /></g><g
           id="g147-21-8-1"><path
             style="fill:#814e2c;fill-opacity:1;stroke-width:15;stroke-linecap:round"
             d="m 1037.8943,260.28385 -0.012,5.22024 3.7703,-2.11667 0.012,-5.22024"
             id="path146-5-2-9-4-5"
             sodipodi:nodetypes="cccc" /><path
             style="fill:#935935;fill-opacity:1;stroke-width:15;stroke-linecap:round"
             d="m 1028.1708,254.33073 3.7703,-2.11667 9.7235,5.95312 -3.7703,2.11667"
             id="path146-7-4-5" /><path
             style="fill:#2c1212;fill-opacity:1;stroke-width:15;stroke-linecap:round"
             d="m 1028.1708,254.33073 -0.012,5.22024 9.7235,5.95312 0.012,-5.22024"
             id="path146-5-9-5-7"
             sodipodi:nodetypes="cccc" /></g></g><g
         id="g148-7-2-6-8"
         transform="translate(-81.1396,-2408.0455)"><g
           id="g146-9-9-5-2"
           transform="translate(-42.175591,-64.407644)"><path
             id="path19-9-7-7-6-1"
             style="fill:#4d4d4d;stroke-width:3;stroke-opacity:0.970874"
             transform="matrix(0.51705411,0.21778861,-0.02850343,0.82186422,746.63858,-38.517829)"
             d="m 669.02906,287.55527 -16.86603,-1.22489 -12.92493,-10.90456 -4.04695,-16.41905 6.37683,-15.66204 14.36487,-8.92264 16.86603,1.22488 12.92493,10.90456 4.04695,16.41906 -6.37682,15.66203 z" /><path
             id="path19-9-3-7-2-0-9"
             style="fill:#262626;stroke-width:3;stroke-opacity:0.970874"
             transform="matrix(0.51705411,0.21778861,-0.02850343,0.82186422,742.7977,-36.41548)"
             d="m 669.02906,287.55527 -16.86603,-1.22489 -12.92493,-10.90456 -4.04695,-16.41905 6.37683,-15.66204 14.36487,-8.92264 16.86603,1.22488 12.92493,10.90456 4.04695,16.41906 -6.37682,15.66203 z" /><path
             style="fill:#797979;fill-opacity:1;stroke-width:15;stroke-linecap:round"
             d="m 1094.1673,313.4569 -3.8409,2.10232 -6.372,-11.77694 3.8409,-2.10236"
             id="path133-0-2-6-6" /><path
             style="fill:#353535;fill-opacity:1;stroke-width:15;stroke-linecap:round"
             d="m 1091.9509,329.93486 3.8409,-2.10236 -3.7436,11.48326 -3.8409,2.10236"
             id="path143-14-0-4-9" /></g><g
           id="g147-2-4-7-7"><path
             style="fill:#814e2c;fill-opacity:1;stroke-width:15;stroke-linecap:round"
             d="m 1037.8943,260.28385 -0.012,5.22024 3.7703,-2.11667 0.012,-5.22024"
             id="path146-5-2-0-3-6-7"
             sodipodi:nodetypes="cccc" /><path
             style="fill:#935935;fill-opacity:1;stroke-width:15;stroke-linecap:round"
             d="m 1028.1708,254.33073 3.7703,-2.11667 9.7235,5.95312 -3.7703,2.11667"
             id="path146-9-7-2-7" /><path
             style="fill:#2c1212;fill-opacity:1;stroke-width:15;stroke-linecap:round"
             d="m 1028.1708,254.33073 -0.012,5.22024 9.7235,5.95312 0.012,-5.22024"
             id="path146-5-3-6-2-10"
             sodipodi:nodetypes="cccc" /></g></g><path
         style="fill:#b3b3b3;stroke-width:15;stroke-linecap:round"
         d="m 1085.9121,-2205.0073 -7.0133,4.0788 -93.4897,-57.2389 6.9848,-4.0944"
         id="path58-4-0-3"
         sodipodi:nodetypes="cccc" /><path
         style="fill:#b3b3b3;stroke-width:15;stroke-linecap:round"
         d="m 934.3369,-2228.4276 7.0133,4.0788 58.0855,-33.8186 -6.9848,-4.0944"
         id="path58-4-5-1-6-5"
         sodipodi:nodetypes="cccc" /><g
         id="g14-9-4-8-0-1-3-2-8-9-6-4-9-6-4-2-74"
         transform="matrix(1.6065625,0,0,1.6065625,767.77918,-2728.4696)"><path
           id="rect4-9-3-7-9-8-8-9-6-8-02-7-6-0-1-4-3-7-2-3-5-4-7-9-9"
           style="fill:#454545;stroke-width:0.0354132"
           transform="matrix(0.83839296,0.54506627,-0.83839296,0.54506627,0,0)"
           d="m 393.35504,225.9491 h 11.29859 v 11.29859 h -11.29859 z" /></g><g
         id="g15-5-1-6-4-0-3-4-8-7-50-9-1-3-04-3-7"
         transform="matrix(1.6065625,0,0,1.6065625,767.77918,-2728.4696)"><path
           id="rect4-4-8-1-1-4-5-6-0-8-51-9-3-2-0-1-35-8-3-5-68-8-8-5-0"
           style="fill:#616161;stroke-width:0.0354132;stroke-opacity:0"
           transform="matrix(0.83839296,0.54506627,-0.83839296,0.54506627,0,0)"
           d="m 404.90198,211.58455 h 11.29859 v 11.29859 h -11.29859 z" /><path
           style="fill:#000000;fill-opacity:1;stroke:none;stroke-width:0.27941;stroke-opacity:0"
           d="m 162.07578,336.67348 v 11.66949 l -9.47264,-6.15847 1.7e-4,-11.1403 z"
           id="path1-9-3-0-1-8-20-4-0-8-0-7-4-2-0-0-1-2-4-44-8-1"
           sodipodi:nodetypes="ccccc" /><path
           style="fill:#666666;fill-opacity:1;stroke:none;stroke-width:0.27941;stroke-opacity:0"
           d="m 171.54862,331.04419 -1.8e-4,11.14028 -9.47266,6.1585 v -11.66949"
           id="path2-0-2-0-2-5-9-9-4-4-0-7-2-5-6-0-6-24-7-2-1-6"
           sodipodi:nodetypes="cccc" /><path
           id="rect4-9-3-7-9-8-8-6-4-3-5-1-6-4-3-4-1-93-4-9-1-1-7-3-3-99"
           style="fill:#454545;stroke-width:0.0354132"
           transform="matrix(0.83839296,0.54506627,-0.83839296,0.54506627,0,0)"
           d="m 394.68277,201.36534 h 11.29859 v 11.29859 h -11.29859 z" /></g><g
         id="g19-9-1-0-6-7-3-5-9-9-6-3-5-6-8-5-5"
         transform="matrix(1.44,0,0,1.44,1047.9127,-2413.0071)"><path
           id="path2-0-9-2-5-2-3-9-2-4-7-6-1-2-2-5-4-8-02-7-0-2-4"
           style="fill:#ffffff;fill-opacity:1;stroke:none;stroke-width:0.472478;stroke-dasharray:none;stroke-opacity:1"
           d="m -28.417671,122.92348 -16.508553,10.57403 -6.266801,24.19904 22.811011,13.20747 25.2361856,-16.029 -8.6966266,-21.49119 z" /></g><g
         id="g19-9-9-8-0-1-7-9-5-9-9-4-4-5-8-8-2-9"
         transform="matrix(1.44,0,0,1.44,1047.9129,-2413.0071)"><path
           id="path2-0-9-2-5-2-3-9-6-2-9-2-7-0-8-5-2-3-3-6-9-0-9-5"
           style="fill:#808080;fill-opacity:0;stroke:none;stroke-width:0.472478;stroke-dasharray:none;stroke-opacity:0"
           d="m -11.842525,133.38401 -16.539707,10.75255 v 26.76725 l 25.2362199,-16.02898 z"
           sodipodi:nodetypes="ccccc" /><path
           id="path2-0-9-9-4-5-7-5-1-8-27-9-0-0-0-9-6-2-8-2-1-6-9-6-7"
           style="fill:#000000;fill-opacity:0.35;stroke:none;stroke-width:0.472478;stroke-dasharray:none;stroke-opacity:0"
           d="m -44.926352,133.49772 16.54412,10.63884 v 26.76725 L -51.193114,157.6964 Z"
           sodipodi:nodetypes="ccccc" /><path
           style="fill:#000000;fill-opacity:0.3;stroke:none;stroke-width:0.264583"
           d="m -44.926355,133.49772 16.544126,10.63884 16.539706,-10.75255 -16.575377,-10.46075"
           id="path19-9-8-3-0-0-9-8-5-7-0-0-4-2-4-2-9-6" /></g><g
         id="g18-4-5-4-9-5-3-7-4-2-6-1-1-2-9-5"
         transform="matrix(1.44,0,0,1.44,1153.2248,-2422.8995)"><path
           id="rect4-4-8-1-1-2-1-9-2-5-9-7-6-9-34-8-5-5-9-0-46-8-19"
           style="fill:#616161;stroke-width:0.058709;stroke-opacity:0"
           transform="matrix(0.8383929,0.54506637,-0.8383929,0.54506637,0,0)"
           d="m 58.782562,179.86607 h 18.731085 v 18.73109 H 58.782562 Z" /><path
           style="fill:#966622;fill-opacity:1;stroke:none;stroke-width:0.463212;stroke-dasharray:none;stroke-opacity:0"
           d="m -101.51558,131.15275 v 19.34596 l -15.70396,-10.20967 -5e-5,-18.16522 z"
           id="path1-9-9-4-8-7-1-4-2-5-8-0-6-0-5-9-4-8-7-9"
           sodipodi:nodetypes="ccccc" /><path
           style="fill:#c6862d;fill-opacity:1;stroke:none;stroke-width:0.463212;stroke-dasharray:none;stroke-opacity:0"
           d="m -85.811555,122.12383 v 18.16516 l -15.704025,10.20972 v -19.34596"
           id="path2-0-0-8-8-6-6-5-3-1-1-3-2-6-4-3-9-6-9-4"
           sodipodi:nodetypes="cccc" /><path
           id="rect4-9-3-7-9-8-3-7-9-7-0-6-7-4-1-9-5-9-8-7-3-0-1-9"
           style="fill:#663615;stroke-width:0.058709"
           transform="matrix(0.8383929,0.54506637,-0.8383929,0.54506637,0,0)"
           d="M 42.119263,163.20282 H 60.850348 V 181.9339 H 42.119263 Z" /><g
           id="g16-5-9-1-0-6-3-8-1-7-8-9-4-4-9-5-0"
           transform="matrix(1.1156684,0,0,1.1156684,-267.67055,-212.20146)"><path
             style="fill:#ffffff;fill-opacity:1;stroke:#020202;stroke-width:0.939499;stroke-dasharray:none;stroke-opacity:0"
             d="m 149.98182,310.3281 4.54023,-2.75959 v 7.3819 l -4.48292,2.93192 z"
             id="path214-0-3-5-7-4-8-7-6-2-7-6-2-5-7-4-5-1-3-5"
             sodipodi:nodetypes="ccccc" /><path
             style="fill:#000000;fill-opacity:0.993007;stroke:#020202;stroke-width:0.939499;stroke-dasharray:none;stroke-opacity:0"
             d="m 154.52205,310.64325 -2.77911,1.83366 0.0282,4.27268 2.75095,-1.79918"
             id="path215-2-6-2-5-2-5-5-3-5-5-2-5-4-7-0-6-12-4-8" /><path
             style="fill:#ffffff;fill-opacity:1;stroke:#020202;stroke-width:0.939499;stroke-dasharray:none;stroke-opacity:0"
             d="m 157.56199,305.39279 4.54023,-2.75959 v 7.3819 l -4.48292,2.93192 z"
             id="path214-0-5-2-8-62-3-5-2-1-4-2-5-8-3-6-8-2-0-0-9"
             sodipodi:nodetypes="ccccc" /><path
             style="fill:#000000;fill-opacity:0.993007;stroke:#020202;stroke-width:0.939499;stroke-dasharray:none;stroke-opacity:0"
             d="m 162.10222,305.70794 -2.77911,1.83366 0.0282,4.27268 2.75095,-1.79918"
             id="path215-2-5-8-3-5-7-1-6-8-4-5-3-8-3-8-5-4-1-8-4" /></g></g><g
         id="g18-4-5-4-9-5-3-7-4-0-5-9-7-4-9-5-9-1"
         transform="matrix(1.44,0,0,1.44,1153.2247,-2422.8995)"><path
           id="rect4-4-8-1-1-2-1-9-2-5-9-7-6-9-34-8-7-9-8-9-7-9-4-3-0"
           style="fill:#616161;stroke-width:0.058709;stroke-opacity:0"
           transform="matrix(0.8383929,0.54506637,-0.8383929,0.54506637,0,0)"
           d="m 58.782562,179.86607 h 18.731085 v 18.73109 H 58.782562 Z" /><path
           style="fill:#966622;fill-opacity:1;stroke:none;stroke-width:0.463212;stroke-dasharray:none;stroke-opacity:0"
           d="m -101.51558,131.15275 v 19.34596 l -15.70396,-10.20967 -5e-5,-18.16522 z"
           id="path1-9-9-4-8-7-1-4-2-5-8-0-6-4-96-2-0-1-4-1-6-2"
           sodipodi:nodetypes="ccccc" /><path
           style="fill:#c6862d;fill-opacity:1;stroke:none;stroke-width:0.463212;stroke-dasharray:none;stroke-opacity:0"
           d="m -85.811555,122.12383 v 18.16516 l -15.704025,10.20972 v -19.34596"
           id="path2-0-0-8-8-6-6-5-3-1-1-3-2-5-6-8-2-9-5-1-9-0"
           sodipodi:nodetypes="cccc" /><path
           id="rect4-9-3-7-9-8-3-7-9-7-0-6-7-4-1-9-5-4-0-4-4-9-9-79-0-4"
           style="fill:#663615;stroke-width:0.058709"
           transform="matrix(0.8383929,0.54506637,-0.8383929,0.54506637,0,0)"
           d="M 42.119263,163.20282 H 60.850348 V 181.9339 H 42.119263 Z" /><g
           id="g16-5-9-1-0-6-3-8-1-7-5-7-4-7-7-4-0-6-7"
           transform="matrix(1.1156684,0,0,1.1156684,-267.67055,-212.20146)" /></g><g
         id="g26-7-7-3-0-5-1-3-4-8-8-0-8-19-7-6"
         transform="matrix(1.452963,0,-0.17757649,1.2623914,346.09534,-2707.3307)"><g
           id="g25-7-3-1-2-1-2-9-73-3-2-0-6-4-2-5"><path
             style="fill:#4d4d4d;stroke:#020202;stroke-width:3.88133;stroke-opacity:0"
             d="m 491.34734,405.80438 3.64905,-14.62325"
             id="path114-5-5-7-7-3-7-0-3-5-2-47-2-73-9-3-5-7-9-2" /><path
             style="fill:#c83737;stroke:#020202;stroke-width:3.88133;stroke-opacity:0"
             d="m 491.79736,410.88611 5.65732,-3.70044 -1.51744,-2.74489 -2.8341,1.25402 -1.46719,-0.0502"
             id="path122-3-3-8-4-9-1-5-6-4-5-1-27-4-5-6-5-3-7-8"
             sodipodi:nodetypes="ccccc" /><path
             style="fill:#782121;fill-opacity:1;stroke:#020202;stroke-width:5.09276;stroke-opacity:0"
             d="m 487.51021,403.06148 -0.54632,3.69665 4.83347,4.12798 -0.16138,-5.24155 -1.46719,-0.05 z"
             id="path212-7-9-1-5-3-7-2-6-8-41-4-8-8-3-2-8-9-5"
             sodipodi:nodetypes="cccccc" /><path
             style="fill:#504f4f;fill-opacity:1;stroke:#020202;stroke-width:3.88133;stroke-opacity:0"
             d="m 488.46328,400.77893 1.95627,2.3325 1.21151,0.0953 3.40329,-0.74744 0.9029,1.98134 -2.8341,1.25402 -2.93441,-0.10019 -2.65852,-2.53313"
             id="path73-2-8-8-9-0-0-8-6-3-7-9-0-6-6-9-4-7-1-2"
             sodipodi:nodetypes="cccccccc" /><path
             style="fill:#666662;fill-opacity:1;stroke-width:0.264583"
             d="m 491.63606,405.6446 1.4672,0.0501 2.83411,-1.25402 -0.90292,-1.98133 -3.40339,0.74742"
             id="path10-7-8-1-8-3-4-3-9-4-8-9-0-51-7-1"
             sodipodi:nodetypes="ccccc" /></g></g><path
         style="fill:#4d4d4d;stroke:none;stroke-width:1.85752;stroke-opacity:0"
         d="m 1013.0375,-2143.296 14.7891,-27.8927 -93.5104,-57.2545 17.4433,47.2201"
         id="path102-04-2-7-9-6-0-9-1-8-6-7-2-9-9-7-6-64-1-1-4"
         sodipodi:nodetypes="cccc" /><path
         style="fill:#999999;stroke:none;stroke-width:1.3919"
         d="m 1013.0376,-2143.2965 14.789,-27.8922 58.0855,-33.8186 -34.7924,39.3051 v 0 l -38.0822,22.4057"
         id="path86-5-7-1-3-0-2-6-6-2-2-7-1-2-8-8-33-2-0-4-4-3-5"
         sodipodi:nodetypes="cccccc" /><path
         style="fill:#b3b3b3;stroke-width:15;stroke-linecap:round"
         d="m 1034.8399,-2175.2675 -7.0133,4.0788 -93.4897,-57.2389 6.9848,-4.0944"
         id="path58-3-7"
         sodipodi:nodetypes="cccc" /><path
         style="fill:#b3b3b3;stroke-width:15;stroke-linecap:round"
         d="m 1020.8133,-2175.2675 7.0133,4.0788 58.0855,-33.8186 -6.9848,-4.0944"
         id="path58-4-5-4-1"
         sodipodi:nodetypes="cccc" /><g
         id="g298"
         transform="translate(260.94606,62.74347)"><g
           id="g18-4-3-1-9-1-40-0-4"
           transform="matrix(1.4412062,0,0,1.4412061,892.31805,-2485.6458)"><path
             id="rect4-9-3-7-9-8-3-7-9-7-6-2-0-2-0-3-6"
             style="fill:#663615;stroke-width:0.058709"
             transform="matrix(0.8383929,0.54506637,-0.8383929,0.54506637,0,0)"
             d="M 42.119263,163.20282 H 60.850348 V 181.9339 H 42.119263 Z" /><g
             id="g16-5-9-50-3-4-0-9-4-2"
             transform="matrix(1.1156684,0,0,1.1156684,-267.67055,-212.20146)"><path
               style="fill:#ffffff;fill-opacity:1;stroke:#020202;stroke-width:0.939499;stroke-dasharray:none;stroke-opacity:0"
               d="m 149.98182,310.3281 4.54023,-2.75959 v 7.3819 l -4.48292,2.93192 z"
               id="path214-0-3-5-7-4-7-35-4-5-6-3-6"
               sodipodi:nodetypes="ccccc" /><path
               style="fill:#000000;fill-opacity:0.993007;stroke:#020202;stroke-width:0.939499;stroke-dasharray:none;stroke-opacity:0"
               d="m 154.52205,310.64325 -2.77911,1.83366 0.0282,4.27268 2.75095,-1.79918"
               id="path215-2-6-2-5-2-6-0-1-9-0-2-2" /><path
               style="fill:#ffffff;fill-opacity:1;stroke:#020202;stroke-width:0.939499;stroke-dasharray:none;stroke-opacity:0"
               d="m 157.56199,305.39279 4.54023,-2.75959 v 7.3819 l -4.48292,2.93192 z"
               id="path214-0-5-2-8-62-3-0-9-8-5-5-5-5"
               sodipodi:nodetypes="ccccc" /><path
               style="fill:#000000;fill-opacity:0.993007;stroke:#020202;stroke-width:0.939499;stroke-dasharray:none;stroke-opacity:0"
               d="m 162.10222,305.70794 -2.77911,1.83366 0.0282,4.27268 2.75095,-1.79918"
               id="path215-2-5-8-3-5-7-5-8-6-9-98-9-5" /></g></g><g
           id="g18-4-5-4-9-5-3-7-4-0-5-9-7-8-2-6-6-9-3-6"
           transform="matrix(1.4412062,0,0,1.4412061,892.31805,-2485.6458)"><path
             id="rect4-9-3-7-9-8-3-7-9-7-0-6-7-4-1-9-5-4-0-4-4-8-0-5-0-9-7-5"
             style="fill:#663615;stroke-width:0.058709"
             transform="matrix(0.8383929,0.54506637,-0.8383929,0.54506637,0,0)"
             d="M 42.119263,163.20282 H 60.850348 V 181.9339 H 42.119263 Z" /><g
             id="g16-5-9-1-0-6-3-8-1-7-5-7-4-7-1-9-4-9-7-5-4"
             transform="matrix(1.1156684,0,0,1.1156684,-267.67055,-212.20146)"><path
               style="fill:#ffffff;fill-opacity:1;stroke:#020202;stroke-width:0.939499;stroke-dasharray:none;stroke-opacity:0"
               d="m 149.98182,310.3281 4.54023,-2.75959 v 7.3819 l -4.48292,2.93192 z"
               id="path214-0-3-5-7-4-8-7-6-2-7-6-2-9-25-91-4-2-9-2-9-8-2-8"
               sodipodi:nodetypes="ccccc" /><path
               style="fill:#000000;fill-opacity:0.993007;stroke:#020202;stroke-width:0.939499;stroke-dasharray:none;stroke-opacity:0"
               d="m 154.52205,310.64325 -2.77911,1.83366 0.0282,4.27268 2.75095,-1.79918"
               id="path215-2-6-2-5-2-5-5-3-5-5-2-5-2-8-5-2-2-5-8-7-67-0-8" /><path
               style="fill:#ffffff;fill-opacity:1;stroke:#020202;stroke-width:0.939499;stroke-dasharray:none;stroke-opacity:0"
               d="m 157.56199,305.39279 4.54023,-2.75959 v 7.3819 l -4.48292,2.93192 z"
               id="path214-0-5-2-8-62-3-5-2-1-4-2-5-8-5-5-40-5-6-8-6-0-2-3-4"
               sodipodi:nodetypes="ccccc" /><path
               style="fill:#000000;fill-opacity:0.993007;stroke:#020202;stroke-width:0.939499;stroke-dasharray:none;stroke-opacity:0"
               d="m 162.10222,305.70794 -2.77911,1.83366 0.0282,4.27268 2.75095,-1.79918"
               id="path215-2-5-8-3-5-7-1-6-8-4-5-3-8-1-9-5-8-5-8-5-1-8-7-4" /></g></g><g
           id="g135-4-70-8-9"
           transform="matrix(0.52999264,0,0,0.5299926,-2228.1404,-2986.1678)"><g
             id="g65-7-1-6-1-3-8"
             transform="matrix(-0.91791614,0.22523723,0.17465833,0.64972032,10665.501,-839.71003)"
             inkscape:transform-center-x="77.310988"
             inkscape:transform-center-y="16.379268"><path
               style="fill:#35461e;fill-opacity:1;stroke-width:12;stroke-linecap:round;stroke-opacity:0.624204"
               d="m 5693.2985,1256.0809 41.5764,36.068 9.0519,24.2267 -11.5805,14.1575 -2.5403,-30.3902 z"
               id="path60-8-7-2-3-0-0" /><path
               id="path61-5-7-9-7-9-4"
               style="fill:#62803b;fill-opacity:1;stroke-width:12;stroke-linecap:round;stroke-opacity:0.624204"
               d="m 5693.2987,1256.0812 2.0001,16.9363 11.2027,13.0856 -9.2343,-0.2641 1.422,8.1359 5.8256,6.8119 -2.29,0.4031 -0.2229,5.9175 18.5182,18.5466 0.7083,10.2004 11.1175,-5.3212 -2.54,-30.3905 z"
               sodipodi:nodetypes="ccccccccccccc" /><path
               style="fill:#2a3020;fill-opacity:1;stroke-width:12;stroke-linecap:round;stroke-opacity:0.624204"
               d="m 5715.759,1283.1891 2.0709,26.5151 13.5615,9.4062 -1.5854,-18.9675 z"
               id="path62-9-1-1-7-8-0" /></g><g
             id="g38-98-8-2-3"
             transform="translate(-47.454297,83.445213)"><g
               id="g29-6-7-9-1"
               transform="matrix(0.94301175,0,0,0.98632018,337.28494,13.767312)"
               inkscape:transform-center-x="42.749527"
               inkscape:transform-center-y="0.43110714"><path
                 style="fill:#89c639;fill-opacity:1;stroke:none;stroke-width:12;stroke-linecap:round;stroke-opacity:0.624204"
                 d="m 5643.6743,1225.2479 45.1692,-26.3319 v 47.3721 l -45.2081,27.2284 z"
                 id="path26-5-91-1-5"
                 sodipodi:nodetypes="ccccc" /><path
                 style="fill:#5f862a;fill-opacity:1;stroke:none;stroke-width:12;stroke-linecap:round;stroke-opacity:0.624204"
                 d="m 5643.6743,1225.2479 -45.1691,-26.3319 v 47.3721 l 45.1302,27.2284"
                 id="path28-0-6-3-5"
                 sodipodi:nodetypes="cccc" /><path
                 style="fill:#839867;fill-opacity:1;stroke:none;stroke-width:12;stroke-linecap:round;stroke-opacity:0.624204"
                 d="m 5643.6743,1172.584 45.1692,26.332 -45.1692,26.3319 -45.1691,-26.3319"
                 id="path29-6-9-6-4" /></g><g
               id="g33-7-43-3-6"
               transform="translate(-95.07911,-83.256116)"><g
                 id="g30-0-2-2-2"><path
                   style="fill:#d5dfbe;fill-opacity:1;stroke:none;stroke-width:12;stroke-linecap:round;stroke-opacity:0.624204"
                   d="m 5781.4981,1293.3651 13.1917,-8.4152 0.1126,22.1104 -13.2654,8.4554 z"
                   id="path30-04-04-7-1-1"
                   sodipodi:nodetypes="ccccc" /><path
                   style="fill:#7b0c18;fill-opacity:1;stroke:none;stroke-width:7.31104;stroke-linecap:round;stroke-opacity:0.624204"
                   d="m 5786.6992,1298.7165 8.0372,-5.1272 0.066,13.471 -8.0822,5.1514 z"
                   id="path30-04-6-7-2-9-5"
                   sodipodi:nodetypes="ccccc" /></g><g
                 id="g30-5-3-3-2-4"
                 transform="translate(-22.994322,14.610686)"><path
                   style="fill:#d5dfbe;fill-opacity:1;stroke:none;stroke-width:12;stroke-linecap:round;stroke-opacity:0.624204"
                   d="m 5781.4981,1293.3651 13.1917,-8.4152 0.1126,22.1104 -13.2654,8.4554 z"
                   id="path30-04-9-04-3-4-7"
                   sodipodi:nodetypes="ccccc" /><path
                   style="fill:#7b0c18;fill-opacity:1;stroke:none;stroke-width:7.31104;stroke-linecap:round;stroke-opacity:0.624204"
                   d="m 5786.6992,1298.7165 8.0372,-5.1272 0.066,13.471 -8.0822,5.1514 z"
                   id="path30-04-6-6-6-0-1-3"
                   sodipodi:nodetypes="ccccc" /></g></g></g><path
             style="fill:#333333;fill-opacity:1;stroke:none;stroke-width:12;stroke-linecap:round;stroke-opacity:0.624204"
             d="m 5582.4641,1306.1029 13.6801,12.066 15.7377,-7.413 21.2975,4.9489 -0.079,12.8247 19.4365,-5.9722 -7.2264,-13.6964 11.6292,-22.4233 -3.6059,-16.2843 -21.1953,-22.5616 -29.103,-9.9157 -22.3668,12.4113 -13.986,20.0476 -4.2195,32.5099"
             id="path37-9-1-3-0"
             sodipodi:nodetypes="cccccccccccccc" /><g
             id="g65-7-9-1-1-1"
             transform="matrix(0.87703994,-0.35228226,0.23697966,0.62966869,246.53673,2512.7719)"
             inkscape:transform-center-x="77.310988"
             inkscape:transform-center-y="16.379268"><path
               style="fill:#3f5323;fill-opacity:1;stroke-width:12;stroke-linecap:round;stroke-opacity:0.624204"
               d="m 5693.2985,1256.0809 41.5764,36.068 9.0519,24.2267 -11.5805,14.1575 -2.5403,-30.3902 z"
               id="path60-8-8-7-7-1" /><path
               id="path61-5-9-3-6-0"
               style="fill:#4c6729;fill-opacity:1;stroke-width:12;stroke-linecap:round;stroke-opacity:0.624204"
               d="m 5693.2987,1256.0812 2.0001,16.9363 11.2027,13.0856 -9.2343,-0.2641 1.422,8.1359 5.8256,6.8119 -2.29,0.4031 -0.2229,5.9175 18.5182,18.5466 -1.3246,14.0094 13.1504,-9.1302 -2.54,-30.3905 z"
               sodipodi:nodetypes="ccccccccccccc" /><path
               style="fill:#32421c;fill-opacity:1;stroke-width:12;stroke-linecap:round;stroke-opacity:0.624204"
               d="m 5715.759,1283.1891 2.0709,26.5151 13.5615,9.4062 -1.5854,-18.9675 z"
               id="path62-9-5-5-3-8" /></g><path
             id="path34-5-5-7-3"
             style="fill:#ffcc00;fill-opacity:1;stroke:none;stroke-width:12;stroke-linecap:round;stroke-opacity:0.624204"
             d="m 5565.0836,1322.68 -2.8055,0.1917 -5.6224,5.2602 -0.925,7.6434 4.2033,6.4503 7.366,2.2386 7.0822,-3.0195 3.4841,-6.8657 -0.57,-2.4515 -5.685,-1.4201 0.722,3.1047 -1.7844,3.5151 -3.6262,1.5471 -3.7718,-1.1467 -2.1524,-3.3026 0.4744,-3.9129 2.8789,-2.6929 1.2961,-0.07 z" /><path
             style="fill:#ca1628;fill-opacity:1;stroke:none;stroke-width:14.3767;stroke-linecap:round;stroke-opacity:0.624204"
             d="m 5563.9764,1290.997 19.5186,3.2428 40.3216,-3.8477 12.2462,-12.6331 -22.5133,8.9583 -26.3041,-3.3151 -21.415,-6.7078"
             id="path38-54-3-7-2"
             sodipodi:nodetypes="ccccccc" /><path
             style="fill:#ca1628;fill-opacity:1;stroke:none;stroke-width:11.787;stroke-linecap:round;stroke-opacity:0.624204"
             d="m 5642.7353,1258.8725 -17.8374,8.0335 -28.2969,4.0405 -11.4929,-9.34 17.5212,4.021 16.9868,-8.0051 12.5215,-10.0307"
             id="path38-9-2-0-3-7"
             sodipodi:nodetypes="ccccccc" /><path
             style="fill:#000000;fill-opacity:0.412776;stroke:none;stroke-width:12;stroke-linecap:round;stroke-opacity:0.624204"
             d="m 5582.4641,1306.1029 13.6801,12.066 -4.6126,-20.5633 -0.6771,-31.3291 12.2178,-28.84 -22.3668,12.4113 -13.986,20.0476 -4.2572,32.7494 20.0018,3.4581"
             id="path37-8-0-4-3-7"
             sodipodi:nodetypes="ccccccccc" /></g></g><g
         id="g294"
         transform="rotate(70.479759,854.06403,-2008.9493)"><g
           id="g41-6-3-3-0-48-1-2"
           transform="matrix(1.4412062,0,0,1.4412061,830.27984,-2032.5799)" /><g
           id="g295"
           transform="translate(16.334592,77.877225)"><g
             id="g296"
             transform="rotate(13.085006,702.20215,-2351.1003)"><g
               id="g297"><path
                 style="fill:#663300;fill-opacity:1;stroke:none;stroke-width:0.264583"
                 d="m -98.865945,-246.20577 22.041385,31.60392 1.122532,7.95127 -26.332732,-28.71811"
                 id="path38-7-0-9-1-8-2-7"
                 sodipodi:nodetypes="cccc"
                 transform="matrix(1.4412062,0,0,1.4412061,830.27983,-2032.5799)" /><path
                 style="fill:#330000;fill-opacity:1;stroke:none;stroke-width:0.264583"
                 d="m -111.81226,-230.80311 9.7775,-4.56558 26.332732,28.71811 -7.568305,0.91674"
                 id="path39-6-5-8-3-3-2-4"
                 transform="matrix(1.4412062,0,0,1.4412061,830.27983,-2032.5799)" /><path
                 style="fill:#994c00;fill-opacity:1;stroke:none;stroke-width:0.264583"
                 d="m -98.865945,-246.20577 -13.706985,1.57818 10.53817,9.2589"
                 id="path40-5-6-1-7-8-4-1"
                 transform="matrix(1.4412062,0,0,1.4412061,830.27983,-2032.5799)" /><path
                 style="fill:#590101;fill-opacity:1;stroke:none;stroke-width:0.264583"
                 d="m -102.03476,-235.36869 -9.7775,4.56558 -0.76067,-13.82448"
                 id="path41-0-1-2-0-7-5-4"
                 transform="matrix(1.4412062,0,0,1.4412061,830.27983,-2032.5799)" /><path
                 style="fill:#93ac9d;fill-opacity:1;stroke-width:11.3469;stroke-linecap:round;stroke-opacity:0.624204"
                 d="m 670.90562,-2363.7277 -4.83686,1.7216 0.56017,4.6252 4.5498,3.1923 5.36701,-0.4247 0.28824,-3.8927"
                 id="path159-2-9-2"
                 sodipodi:nodetypes="cccccc" /><path
                 style="fill:#d7f4e3;fill-opacity:1;stroke-width:11.3469;stroke-linecap:round;stroke-opacity:0.624204"
                 d="m 671.17849,-2354.1886 -1.06613,-5.3316 2.52961,-2.6968 -1.73635,-1.5107 -4.83686,1.7216 0.56017,4.6252 z"
                 id="path160-6-4-2"
                 sodipodi:nodetypes="ccccccc" /><g
                 id="g293"
                 transform="translate(-11.980992,-78.296893)"><path
                   style="fill:#d7f4e3;fill-opacity:1;stroke-width:17.2945;stroke-linecap:round;stroke-opacity:0.624204"
                   d="m 701.07844,-2300.994 -1.65715,4.6903 3.91222,2.9235 6.67052,-9.6732 6.99902,-3.8431 -9.26374,1.2531 z"
                   id="path157-6-8-2" /><path
                   style="fill:#93ac9d;fill-opacity:1;stroke-width:17.2945;stroke-linecap:round;stroke-opacity:0.624204"
                   d="m 699.42093,-2296.3037 3.69962,4.9085 6.19825,-9.9117 7.68402,-5.5896 -11.87888,5.4503 z"
                   id="path158-1-0-7" /></g></g></g></g></g></g></g></svg>
