<?xml version="1.0" encoding="UTF-8" standalone="no"?>
<!-- Created with Inkscape (http://www.inkscape.org/) -->

<svg
   width="85.239243mm"
   height="57.537315mm"
   viewBox="0 0 85.239243 57.537315"
   version="1.1"
   id="svg1"
   inkscape:version="1.3 (0e150ed6c4, 2023-07-21)"
   sodipodi:docname="DWARF - GOBLINS all sprites.svg"
   xml:space="preserve"
   xmlns:inkscape="http://www.inkscape.org/namespaces/inkscape"
   xmlns:sodipodi="http://sodipodi.sourceforge.net/DTD/sodipodi-0.dtd"
   xmlns="http://www.w3.org/2000/svg"
   xmlns:svg="http://www.w3.org/2000/svg"><sodipodi:namedview
     id="namedview1"
     pagecolor="#ffffff"
     bordercolor="#000000"
     borderopacity="0.25"
     inkscape:showpageshadow="2"
     inkscape:pageopacity="0.0"
     inkscape:pagecheckerboard="0"
     inkscape:deskcolor="#d1d1d1"
     inkscape:document-units="mm"
     inkscape:zoom="0.12267851"
     inkscape:cx="10873.95"
     inkscape:cy="2058.2251"
     inkscape:window-width="1920"
     inkscape:window-height="991"
     inkscape:window-x="-9"
     inkscape:window-y="-9"
     inkscape:window-maximized="1"
     inkscape:current-layer="layer1" /><defs
     id="defs1" /><g
     inkscape:label="Capa 1"
     inkscape:groupmode="layer"
     id="layer1"
     transform="translate(-2179.762,1074.146)"><g
       id="g77"
       transform="translate(2225.3345,1346.086)"><path
         id="path44-2-4-8-6-4-8-4-9-5-2-5-9-68"
         style="fill:#ffffff;fill-opacity:1;stroke:none;stroke-width:0.313347"
         d="m -21.412551,-2420.232 -11.089089,7.2739 2.762451,3.7712 -2.540649,2.7749 -13.292711,6.5645 18.01009,21.2746 4.678241,-8.5536 1.660251,-10.0166 25.2618729,34.0661 5.8646037,0.3823 5.2243114,-7.6567 -24.8391401,-33.9088 0.3639685,-0.4173 1.1546986,-3.1866 -6.047392,-8.5346 -4.851218,-0.6657 z"
         sodipodi:nodetypes="ccccccccccccccccc" /><path
         id="path44-2-4-8-6-4-8-4-9-5-2-5-9-68-4"
         style="fill:#ffffff;fill-opacity:1;stroke:none;stroke-width:0.313347"
         d="m 15.506796,-2420.232 11.089089,7.2739 -2.762451,3.7712 2.540649,2.7749 13.292711,6.5645 -18.01009,21.2746 -4.678241,-8.5536 -1.660251,-10.0166 -25.2618727,34.0661 -5.8646043,0.3823 -5.224311,-7.6567 24.8391403,-33.9088 -0.363968,-0.4173 -1.154699,-3.1866 6.047392,-8.5346 4.8512177,-0.6657 z"
         sodipodi:nodetypes="ccccccccccccccccc" /></g></g></svg>
