<?xml version="1.0" encoding="UTF-8" standalone="no"?>
<!-- Created with Inkscape (http://www.inkscape.org/) -->

<svg
   width="103.4867mm"
   height="95.797096mm"
   viewBox="0 0 103.4867 95.797096"
   version="1.1"
   id="svg1"
   inkscape:version="1.3 (0e150ed6c4, 2023-07-21)"
   sodipodi:docname="DWARF - GOBLINS all sprites.svg"
   xml:space="preserve"
   xmlns:inkscape="http://www.inkscape.org/namespaces/inkscape"
   xmlns:sodipodi="http://sodipodi.sourceforge.net/DTD/sodipodi-0.dtd"
   xmlns="http://www.w3.org/2000/svg"
   xmlns:svg="http://www.w3.org/2000/svg"><sodipodi:namedview
     id="namedview1"
     pagecolor="#ffffff"
     bordercolor="#000000"
     borderopacity="0.25"
     inkscape:showpageshadow="2"
     inkscape:pageopacity="0.0"
     inkscape:pagecheckerboard="0"
     inkscape:deskcolor="#d1d1d1"
     inkscape:document-units="mm"
     inkscape:zoom="0.12267851"
     inkscape:cx="10873.95"
     inkscape:cy="2058.2251"
     inkscape:window-width="1920"
     inkscape:window-height="991"
     inkscape:window-x="-9"
     inkscape:window-y="-9"
     inkscape:window-maximized="1"
     inkscape:current-layer="layer1" /><defs
     id="defs1"><filter
       style="color-interpolation-filters:sRGB"
       inkscape:label="Blur"
       id="filter126"
       x="-0.15096865"
       y="-0.16713767"
       width="1.3019373"
       height="1.3342753"><feGaussianBlur
         stdDeviation="5 5"
         result="blur"
         id="feGaussianBlur126" /></filter><filter
       style="color-interpolation-filters:sRGB"
       inkscape:label="Blur"
       id="filter128"
       x="-0.15096884"
       y="-0.16713767"
       width="1.3019377"
       height="1.3342753"><feGaussianBlur
         stdDeviation="5 5"
         result="blur"
         id="feGaussianBlur128" /></filter></defs><g
     inkscape:label="Capa 1"
     inkscape:groupmode="layer"
     id="layer1"
     transform="translate(-2867.0902,89.836149)"><g
       id="g60"
       transform="translate(-47.447863,-7.7087444)"><path
         id="path1137-5-8-0-1-0-7"
         style="fill:#ffffff;fill-opacity:1;stroke:none;stroke-width:2.78541;-inkscape-stroke:none;filter:url(#filter126)"
         d="m 2972.4955,-70.127407 -10.0832,4.7976 v 10.4485 l -12.9563,4.5542 -3.9393,-4.5542 -18.9187,2.8081 5.118,17.9027 -2.9486,3.7042 -2.2294,6.8011 v 6e-4 l 21.4018,13.7623995 12.7595,-4.7531995 13.9547,5.3314995 0.2367,10.9936 6.8409,-3.5093 1.6991,-10.3812995 1.941,0.2961 1.0862,7.7741995 5.9077,-2.9714 v -5.1996995 l 5.4668,-0.6356 7.0678,-1.0475 1.1245,-6.1815 -3.7445,-2.3099 -8.4718,-9.184 -3.8732,-10.4717 -13.2457,-7.5851 -1.3937,-0.5023 4.3057,-2.3952 1.9296,-17.4929 z" /><path
         id="path1137-5-8-0-1-0-7-9"
         style="fill:#ffffff;fill-opacity:1;stroke:none;stroke-width:2.78541;-inkscape-stroke:none;filter:url(#filter128)"
         d="m 2972.4955,-70.127407 -10.0831,4.7976 v 10.4485 l -12.9563,4.5542 -3.9393,-4.5542 -18.9188,2.8081 5.1181,17.9027 -2.9487,3.7042 -2.2293,6.8011 v 6e-4 l 21.4018,13.7623995 12.7594,-4.7531995 13.9547,5.3314995 0.2367,10.9936 6.8409,-3.5093 1.6991,-10.3812995 1.941,0.2961 1.0862,7.7741995 5.9077,-2.9714 v -5.1996995 l 5.4668,-0.6356 7.0678,-1.0475 1.1245,-6.1815 -3.7445,-2.3099 -8.4718,-9.184 -3.8732,-10.4717 -13.2457,-7.5851 -1.3937,-0.5023 4.3057,-2.3952 1.9296,-17.4929 z" /></g></g></svg>
