<?xml version="1.0" encoding="UTF-8" standalone="no"?>
<!-- Created with Inkscape (http://www.inkscape.org/) -->

<svg
   width="204.19424mm"
   height="172.91406mm"
   viewBox="0 0 204.19424 172.91406"
   version="1.1"
   id="svg1"
   inkscape:version="1.3 (0e150ed6c4, 2023-07-21)"
   sodipodi:docname="DWARF - GOBLINS all sprites.svg"
   xml:space="preserve"
   xmlns:inkscape="http://www.inkscape.org/namespaces/inkscape"
   xmlns:sodipodi="http://sodipodi.sourceforge.net/DTD/sodipodi-0.dtd"
   xmlns="http://www.w3.org/2000/svg"
   xmlns:svg="http://www.w3.org/2000/svg"><sodipodi:namedview
     id="namedview1"
     pagecolor="#ffffff"
     bordercolor="#000000"
     borderopacity="0.25"
     inkscape:showpageshadow="2"
     inkscape:pageopacity="0.0"
     inkscape:pagecheckerboard="0"
     inkscape:deskcolor="#d1d1d1"
     inkscape:document-units="mm"
     inkscape:zoom="0.12267851"
     inkscape:cx="10873.95"
     inkscape:cy="2058.2251"
     inkscape:window-width="1920"
     inkscape:window-height="991"
     inkscape:window-x="-9"
     inkscape:window-y="-9"
     inkscape:window-maximized="1"
     inkscape:current-layer="layer1" /><defs
     id="defs1"><filter
       style="color-interpolation-filters:sRGB"
       inkscape:label="Blur"
       id="filter160"
       x="-0.06659487"
       y="-0.08058337"
       width="1.1331897"
       height="1.1611667"><feGaussianBlur
         stdDeviation="5 5"
         result="blur"
         id="feGaussianBlur160" /></filter><filter
       style="color-interpolation-filters:sRGB"
       inkscape:label="Blur"
       id="filter161"
       x="-0.066594826"
       y="-0.08058337"
       width="1.1331897"
       height="1.1611667"><feGaussianBlur
         stdDeviation="5 5"
         result="blur"
         id="feGaussianBlur161" /></filter></defs><g
     inkscape:label="Capa 1"
     inkscape:groupmode="layer"
     id="layer1"
     transform="translate(-2843.8328,691.48759)"><g
       id="g161"
       transform="translate(2170.6291,1586.5063)"><path
         id="path157-6-2-2-6-3-8-1"
         style="fill:#ffffff;fill-opacity:1;stroke-width:23.3846;stroke-linecap:round;stroke-opacity:0.624204;filter:url(#filter160)"
         d="m 714.33371,-2265.9939 23.919,12.2809 0.0222,1.1094 11.66028,0.6693 -0.001,5e-4 -11.53785,5.3919 0.0569,2.8417 6.1459,-0.1256 11.35638,5.5495 -12.83798,0.5127 -4.5051,2.0278 0.3074,15.3417 11.66289,2.0892 -5.2e-4,-9.9373 34.39325,-20.5642 15.02957,9.1349 14.70453,-15.1355 0.73071,7.462 -5.21002,7.1825 5.49217,-1.4665 0.0749,3.6525 -2.70888,3.7382 1.41542,-0.1658 0.80667,2.4722 -3.05821,3.6054 0.57412,6.9614 12.90722,5.4689 -1.88257,3.5171 22.51181,-3.1626 19.03449,12.824 5.2e-4,5e-4 v 20.837 l -19.69699,12.8054 -10.70115,-6.8843 v -8.1391 l -3.56361,-2.2913 0.0201,5.3123 -3.0055,1.9534 -4.62194,3.0055 -7.62692,-4.9589 -0.007,-1.6335 -0.0331,-0.022 v -7.9287 l -5.42913,-0.9374 0.83509,-2.0004 -0.58859,-2.4603 -5.2e-4,5e-4 0.58859,2.4598 -0.83457,2.0004 -8.96328,21.4773 19.27273,12.4224 v 15.2358 l -18.70687,12.1621 -5.2e-4,-15.2358 v 15.2358 l -19.39675,-12.5026 v -11.4851 l -12.79921,6.3882 5.31027,3.4231 v 15.2357 l -18.70687,12.1621 -5.2e-4,-15.2358 v 15.2358 l -19.3967,-12.5026 5e-4,-9.3261 -1.1772,-0.524 -7.0859,4.6468 -11.6019,-5.2876 -15.2518,-22.0689 v -5e-4 l 1.6997,-13.4509 5e-4,6e-4 12.6742,-7.2869 -10.0692,-37.6851 -5.7883,9.5116 0.6599,-12.6225 2.9451,-5.0591 -1.1054,-4.1378 -6.5035,0.4724 -11.5378,5.6529 7.3526,-10.2816 8.4206,-4.331 -0.3767,-1.4097 z m 78.72081,45.022 -4.49688,2.7332 v 5e-4 z m -54.00341,7.1453 0.0517,2.5781 3.6049,-1.3637 z m 0.1168,5.8121 0.0227,1.1451 0.2687,-0.7209 z" /><path
         id="path157-6-2-2-6-3-8-1-4"
         style="fill:#ffffff;fill-opacity:1;stroke-width:23.3846;stroke-linecap:round;stroke-opacity:0.624204;filter:url(#filter161)"
         d="m 714.33369,-2265.9939 23.919,12.2809 0.0222,1.1094 11.66028,0.6693 -10e-4,5e-4 -11.53785,5.3919 0.0569,2.8417 6.1459,-0.1256 11.35638,5.5495 -12.83798,0.5127 -4.5051,2.0278 0.3074,15.3417 11.66289,2.0892 -5.2e-4,-9.9373 34.39325,-20.5642 15.02957,9.1349 14.70453,-15.1355 0.73071,7.462 -5.21002,7.1825 5.49217,-1.4665 0.0749,3.6525 -2.70888,3.7382 1.41542,-0.1658 0.80667,2.4722 -3.05821,3.6054 0.57412,6.9614 12.90719,5.4689 -1.8825,3.5171 22.5118,-3.1626 19.0345,12.824 5e-4,5e-4 v 20.837 l -19.697,12.8054 -10.7012,-6.8843 v -8.1391 l -3.5636,-2.2913 0.02,5.3123 -3.0055,1.9534 -4.6219,3.0055 -7.62693,-4.9589 -0.007,-1.6335 -0.0331,-0.022 v -7.9287 l -5.42913,-0.9374 0.83509,-2.0004 -0.58859,-2.4603 -5.2e-4,5e-4 0.58859,2.4598 -0.83457,2.0004 -8.96328,21.4773 19.27274,12.4224 v 15.2358 l -18.70688,12.1621 -5.2e-4,-15.2358 v 15.2358 l -19.39675,-12.5026 v -11.4851 l -12.79921,6.3882 5.31027,3.4231 v 15.2357 l -18.70687,12.1621 -5.2e-4,-15.2358 v 15.2358 l -19.3967,-12.5026 5e-4,-9.3261 -1.1772,-0.524 -7.0859,4.6468 -11.6019,-5.2876 -15.2518,-22.0689 v -5e-4 l 1.6997,-13.4509 5e-4,6e-4 12.6742,-7.2869 -10.0692,-37.6851 -5.7883,9.5116 0.6599,-12.6225 2.9451,-5.0591 -1.1054,-4.1378 -6.5035,0.4724 -11.5378,5.6529 7.3526,-10.2816 8.4206,-4.331 -0.3767,-1.4097 z m 78.72081,45.022 -4.49688,2.7332 v 5e-4 z m -54.00341,7.1453 0.0517,2.5781 3.6049,-1.3637 z m 0.1168,5.8121 0.0227,1.1451 0.2687,-0.7209 z" /></g></g></svg>
