<?xml version="1.0" encoding="UTF-8" standalone="no"?>
<!-- Created with Inkscape (http://www.inkscape.org/) -->

<svg
   width="183.83115mm"
   height="142.04469mm"
   viewBox="0 0 183.83115 142.04469"
   version="1.1"
   id="svg1"
   inkscape:version="1.3 (0e150ed6c4, 2023-07-21)"
   sodipodi:docname="DWARF - GOBLINS all sprites.svg"
   xml:space="preserve"
   xmlns:inkscape="http://www.inkscape.org/namespaces/inkscape"
   xmlns:sodipodi="http://sodipodi.sourceforge.net/DTD/sodipodi-0.dtd"
   xmlns:xlink="http://www.w3.org/1999/xlink"
   xmlns="http://www.w3.org/2000/svg"
   xmlns:svg="http://www.w3.org/2000/svg"><sodipodi:namedview
     id="namedview1"
     pagecolor="#ffffff"
     bordercolor="#000000"
     borderopacity="0.25"
     inkscape:showpageshadow="2"
     inkscape:pageopacity="0.0"
     inkscape:pagecheckerboard="0"
     inkscape:deskcolor="#d1d1d1"
     inkscape:document-units="mm"
     inkscape:zoom="0.12267851"
     inkscape:cx="10873.95"
     inkscape:cy="2058.2251"
     inkscape:window-width="1920"
     inkscape:window-height="991"
     inkscape:window-x="-9"
     inkscape:window-y="-9"
     inkscape:window-maximized="1"
     inkscape:current-layer="layer1" /><defs
     id="defs1"><linearGradient
       id="linearGradient1146"
       inkscape:collect="always"><stop
         style="stop-color:#bd7a6d;stop-opacity:1;"
         offset="0"
         id="stop1146" /><stop
         style="stop-color:#faaf9c;stop-opacity:1;"
         offset="1"
         id="stop1147" /></linearGradient><linearGradient
       inkscape:collect="always"
       xlink:href="#linearGradient1146"
       id="linearGradient161"
       gradientUnits="userSpaceOnUse"
       x1="5164.4023"
       y1="1539.5616"
       x2="5189.6821"
       y2="1539.5616"
       gradientTransform="matrix(0.9,0,0,0.9,-3854.2277,-3703.8542)" /></defs><g
     inkscape:label="Capa 1"
     inkscape:groupmode="layer"
     id="layer1"
     transform="translate(-3355.9339,943.0449)"><g
       id="g162"
       transform="translate(2670.6631,1480.2739)"><path
         style="fill:#f5f5f5;fill-opacity:1;stroke:none;stroke-width:2.15321;-inkscape-stroke:none"
         d="m 830.67768,-2302.4182 0.3887,18.0448 5.2883,-2.7129 2.1053,-12.8651 1.5481,11.079 4.5671,-2.297 v -6.8437"
         id="path1137-5-8-5-5-7-7" /><path
         style="fill:#faaf9c;fill-opacity:1;stroke:none;stroke-width:0.9;-inkscape-stroke:none"
         d="m 747.66628,-2336.6327 -3.29335,9.0163 -9.07795,2.3827 -7.90416,-10.8067 -2.22248,-10.2864 -2.56065,-10.9663 -8.88987,-8.4134 -11.08263,0.4131 -10.46833,10.8994 -6.89591,19.6369 9.32488,-13.1516 8.29839,-6.6947 6.81434,-2.014 4.58545,4.5127 3.44236,22.0743 10.99139,14.1994 20.29584,0.9355 1.61286,-14.4377"
         id="path1128-2-4-6-7-4"
         sodipodi:nodetypes="cccccccccccccccccc" /><path
         style="fill:#b5695b;fill-opacity:1;stroke:none;stroke-width:0.9;-inkscape-stroke:none"
         d="m 750.63646,-2329.3332 -7.17415,8.9885 -12.19271,-0.473 -7.99719,-9.9416 -5.1026,-22.843 -7.31504,-7.3389 -7.47421,1.0457 -8.52726,7.2414 -9.58247,17.8971 9.325,-13.1516 8.29839,-6.6947 6.81434,-2.0141 4.58545,4.5128 3.44229,22.0743 10.99139,14.1995 20.29584,0.9355 2.31932,-3.0458"
         id="path1128-4-1-8-9-8-4"
         sodipodi:nodetypes="ccccccccccccccccc" /><path
         style="fill:#bd7a6d;fill-opacity:1;stroke:none;stroke-width:0.9;-inkscape-stroke:none"
         d="m 759.07607,-2305.784 -3.59757,12.2088 6.82443,8.931 -1.58652,-9.0225 7.50947,7.252 -0.6214,-8.3248 5.9979,2.515 -1.3025,-6.4076 -7.93172,-4.4225 -10.39176,-9.2679"
         id="path1129-6-2-7-6-1" /><path
         style="fill:#bd7a6d;fill-opacity:1;stroke:none;stroke-width:0.9;-inkscape-stroke:none"
         d="m 782.81718,-2296.4338 7.3214,10.1131 11.0434,5.0466 -3.6836,-6.3661 10.5426,2.9961 -7.284,-7.3398 7.6021,-1.0853 -12.4637,-5.414 -4.8406,-4.5714"
         id="path1130-1-5-4-1-1" /><path
         style="fill:#faaf9c;fill-opacity:1;stroke:none;stroke-width:0.9;-inkscape-stroke:none"
         d="m 825.64668,-2325.999 -4.2264,-10.1672 7.7946,-3.7085 h 6.9846 l -1.4917,13.5222 -6.5138,3.6243"
         id="path1132-5-2-2-1-8"
         sodipodi:nodetypes="cccccc" /><path
         id="path1134-4-7-5-4-1"
         style="fill:#95949a;fill-opacity:1;stroke:none;stroke-width:0.9;-inkscape-stroke:none"
         d="m 763.78077,-2359.4937 -7.0435,1.5932 -9.86761,21.3687 1.20509,17.9519 2.13476,7.1634 9.63248,8.3622 12.45764,4.4225 15.51326,2.9513 20.54604,2.6112 11.73675,-3.9238 10.78745,4.1212 0.23306,-3.2401 9.2475,1.4123 8.43721,-0.9808 3.43855,-7.3738 -6.54895,-7.0998 -2.99413,-8.0946 -10.23969,-5.8637 -11.03653,-3.9765 -10.49239,-8.847 -6.56911,-8.3173 -16.32096,10.3663 -2.52543,-1.4625 -0.12041,35.5038 -33.52405,-18.1762 0.0698,-15.2223 13.37076,-8.2155 7.25898,-1.3844 -11.16521,-6.4647 z" /><path
         style="fill:#d5dfbe;fill-opacity:1;stroke-width:0.27;-inkscape-stroke:none"
         d="m 828.19398,-2313.7627 7.091,3.5644 v 7.1438 l -7.091,-3.2073 z"
         id="path211-1-92-5-9-5-0-8-9-0-5-5-8-8-6-3"
         sodipodi:nodetypes="ccccc" /><path
         style="fill:#7b0c18;fill-opacity:1;stroke-width:0.27;-inkscape-stroke:none"
         d="m 831.06048,-2304.9647 -4e-4,-7.3572 4.2231,2.1237 v 7.1437 z"
         id="path212-3-6-4-7-2-83-5-7-6-2-2-2-2-3-8"
         sodipodi:nodetypes="ccccc" /><path
         style="fill:url(#linearGradient161);fill-opacity:1;stroke:none;stroke-width:0.9;-inkscape-stroke:none"
         d="m 816.48598,-2318.6945 -8.1268,-9.3946 -14.6248,2.1707 4.5307,15.8469 10.0941,1.6629 2.0317,-0.9784 2.0317,-0.9784 4.0634,-1.9567"
         id="path1131-7-6-9-6-9"
         sodipodi:nodetypes="cccccccc" /><path
         style="fill:#424242;fill-opacity:1;stroke:none;stroke-width:0.9;-inkscape-stroke:none"
         d="m 821.42028,-2328.089 v -8.0771 l 7.7945,-3.7085 -2.9746,5.8456 v 7.6766 z"
         id="path1135-5-7-4-6-8" /><path
         style="fill:#424242;fill-opacity:1;stroke:none;stroke-width:0.9;-inkscape-stroke:none"
         d="m 816.48598,-2318.6945 -8.1268,-9.3946 -14.6248,2.1707 4.5307,15.8469 1.2895,-12.6567 h 6.6143 z"
         id="path1136-5-6-2-8-4"
         sodipodi:nodetypes="ccccccc" /><path
         id="path1138-5-4-6-9-6"
         style="fill:#000000;fill-opacity:0.218447;stroke:none;stroke-width:0.9;-inkscape-stroke:none"
         d="m 765.06958,-2359.7852 -8.33179,1.8847 -9.86813,21.3682 1.20509,17.9524 2.13476,7.1634 9.63248,8.3622 12.45816,4.4225 36.05878,5.5625 11.73675,-3.9238 10.78745,4.1212 0.23306,-3.2401 9.2475,1.4123 8.43773,-0.9808 1.71876,-3.6872 -20.34915,-1.0376 -34.5829,-4.1026 -10.16785,-4.8106 -0.0289,8.5597 -33.52405,-18.1767 0.0703,-15.2218 12.04784,-7.4026 2.11615,-7.4487 -3.43183,-2.2226 z" /><path
         id="path1138-5-3-5-7-2-9"
         style="fill:#000000;fill-opacity:0.33;stroke:none;stroke-width:0.9;-inkscape-stroke:none"
         d="m 756.73779,-2357.9005 -9.86813,21.3682 1.20509,17.9524 2.13476,7.1634 9.63248,8.3617 12.45816,4.4225 36.05878,5.563 11.73675,-3.9238 10.78745,4.1212 0.23306,-3.2401 9.2475,1.4123 8.43773,-0.9808 0.85938,-1.8433 -21.46691,-0.3504 -20.97288,-0.6088 -21.82657,-3.1264 -0.003,0.8501 -5.75107,-3.1182 -21.44107,-9.8851 -0.43047,-1.9731 -5.90144,-3.1998 0.0703,-15.2223 2.31355,-1.4211 z" /><path
         style="fill:#faaf9c;fill-opacity:1;stroke:none;stroke-width:0.9;-inkscape-stroke:none"
         d="m 849.41128,-2301.645 2.8281,-1.4095 2.8944,1.7858 -0.8691,4.7785 -5.4636,0.8096"
         id="path1133-0-0-9-0-5" /><path
         style="fill:#a9ffff;fill-opacity:1;stroke:none;stroke-width:0.313347"
         d="m 869.10198,-2361.9198 -6.0478,-14.7083 -3.0648,-14.6936 -7.3496,-3.1015 3.0647,14.6936"
         id="path44-2-0-0-7-6-4-3-6-2-1-5-8-7-1-2"
         sodipodi:nodetypes="ccccc" /><path
         style="fill:#b7b7b7;fill-opacity:1;stroke:none;stroke-width:0.313347"
         d="m 866.57778,-2365.2752 -28.9406,12.1596 0.4748,3.1909 30.99,-11.9951"
         id="path43-5-6-5-7-0-4-3-4-2-4-6-0-1-8-6"
         sodipodi:nodetypes="cccc" /><path
         style="fill:#8d4c01;fill-opacity:1;stroke:none;stroke-width:0.313347"
         d="m 866.58598,-2382.1437 -5.238,-2.6645 -0.5846,-9.2509 z m -6.2157,-0.067"
         id="path45-3-4-4-5-6-1-9-75-0-2-7-1-4-0-6-2"
         sodipodi:nodetypes="cccc" /><path
         style="fill:#330000;fill-opacity:1;stroke:none;stroke-width:0.313347"
         d="m 861.34798,-2384.8082 -46.8101,19.9926 -2.8739,-8.3181 49.0994,-20.9254"
         id="path51-2-4-7-4-0-0-6-8-9-2-6-0-6-3-3"
         sodipodi:nodetypes="cccc" /><path
         style="fill:#663300;fill-opacity:1;stroke:none;stroke-width:0.313347"
         d="m 866.58598,-2382.1437 -50.7344,21.6221 -0.7919,-2.7851 -0.5218,-1.5089 0.368,-0.1668 46.4421,-19.8258"
         id="path52-1-6-9-1-2-6-5-9-7-0-4-5-5-7-2"
         sodipodi:nodetypes="cccccc" /><path
         style="fill:#858585;fill-opacity:1;stroke:none;stroke-width:0.313347"
         d="m 852.63978,-2394.4234 3.0648,14.6936 13.3974,17.81 -30.99,11.9951 -1.5208,-10.2485 7.7218,-16.5269 -1.8632,-10.1412 0.6336,-3.3296"
         id="path42-9-3-93-2-0-4-7-2-8-4-8-4-3-0-8" /><path
         style="fill:#a9ffff;fill-opacity:1;stroke:none;stroke-width:0.313347"
         d="m 861.47608,-2379.9661 -5.2379,-2.6644 -0.5846,-9.2509 -3.0138,-2.5419 3.0648,14.6935 2.6091,3.4686"
         id="path53-9-7-8-3-0-7-6-6-2-3-3-3-9-7-6" /><path
         style="fill:#9f592c;fill-opacity:1;stroke-width:0.304619;-inkscape-stroke:none"
         d="m 811.66408,-2349.9247 15.9989,12.2464 5.1618,7.727 -10.4896,-1.0109 -5.8492,12.2679 -8.1268,-9.3946 -1.8905,-7.5008 -9.0001,-5.2871 z"
         id="path200-04-1-8-5-8-1-2-1-1-7-3-0-3-2-1-3-5"
         sodipodi:nodetypes="ccccccccc" /><path
         style="fill:#502d16;fill-opacity:1;stroke-width:0.304619;-inkscape-stroke:none"
         d="m 816.49928,-2318.5745 5.8359,-12.3876 10.4896,1.0109 2.7573,4.4019 3.6749,1.8546 -0.6194,3.2207 -3.7477,-1.0117 -6.196,8.5681 -12.25,-2.6775 z"
         id="path205-6-0-1-3-0-7-0-8-0-3-7-3-9-6-8-6-6"
         sodipodi:nodetypes="cccccccccc" /><path
         style="fill:#666666;stroke-width:17.7646;stroke-linecap:round"
         d="m 811.23598,-2338.9652 4.3665,6.6095 12.2786,-16.4689 z"
         id="path149-7-9-5-2-8-5-2-1"
         sodipodi:nodetypes="cccc" /><path
         style="fill:#4d4d4d;stroke-width:17.7646;stroke-linecap:round"
         d="m 815.60248,-2332.3557 5.8177,-3.8103 6.4609,-12.6587"
         id="path150-6-9-4-0-7-6-4-8" /><path
         style="fill:#000000;fill-opacity:1;stroke:none;stroke-width:0.369182;stroke-opacity:0"
         d="m 762.66911,-2335.7428 v 15.4187 l -12.51608,-8.1372 2.3e-4,-14.7196 z"
         id="path1-9-3-3-3-3-7-1-8-5-5-5-9-4-1-4-6-5-0-0-7"
         sodipodi:nodetypes="ccccc" /><path
         style="fill:#666666;fill-opacity:1;stroke:none;stroke-width:0.369182;stroke-opacity:0"
         d="m 775.18558,-2343.181 -3e-4,14.7196 -12.51617,8.1372 v -15.4187"
         id="path2-0-2-8-9-6-6-0-1-4-4-3-4-5-1-4-3-3-5-4-8"
         sodipodi:nodetypes="cccc" /><path
         id="path2-0-9-2-5-2-3-9-6-93-9-5-7-5-8-1-5-8-0-3-5-3-1-8"
         style="fill:#808080;fill-opacity:0;stroke:none;stroke-width:0.559558;stroke-dasharray:none;stroke-opacity:0"
         d="m 809.89148,-2378.2523 -20.2187,11.7071 -1.635,31.6583 30.8266,-17.4164 z"
         sodipodi:nodetypes="ccccc" /><path
         style="fill:#ffffff;fill-opacity:1;stroke:#020202;stroke-width:1.24135;stroke-dasharray:none;stroke-opacity:0"
         d="m 792.09978,-2386.5615 6.179,-3.332 -0.503,9.7406 -6.1152,3.5633 z"
         id="path214-0-3-5-7-6-9-6-8-4-9-6-7-7-8-0-4-4-3-0"
         sodipodi:nodetypes="ccccc" /><path
         style="fill:#000000;fill-opacity:0.993007;stroke:#020202;stroke-width:1.24135;stroke-dasharray:none;stroke-opacity:0"
         d="m 798.06928,-2385.8362 -3.7921,2.2301 -0.2539,5.6399 3.7526,-2.1866"
         id="path215-2-6-2-5-4-5-6-2-7-7-8-3-0-2-6-9-6-1-6" /><path
         style="fill:#ffffff;fill-opacity:1;stroke:#020202;stroke-width:1.24135;stroke-dasharray:none;stroke-opacity:0"
         d="m 802.43838,-2392.5572 6.1791,-3.332 -0.5031,9.7407 -6.1152,3.5632 z"
         id="path214-0-5-2-8-62-1-2-8-4-1-0-8-7-6-3-1-8-0-3-4"
         sodipodi:nodetypes="ccccc" /><path
         style="fill:#000000;fill-opacity:0.993007;stroke:#020202;stroke-width:1.24135;stroke-dasharray:none;stroke-opacity:0"
         d="m 808.40788,-2391.8321 -3.7921,2.2302 -0.2539,5.64 3.7526,-2.1866"
         id="path215-2-5-8-3-5-1-1-7-55-3-4-4-8-6-8-5-2-8-7-1" /><path
         style="fill:#ffffff;fill-opacity:1;stroke:#020202;stroke-width:1.24135;stroke-dasharray:none;stroke-opacity:0"
         d="m 792.09988,-2386.5615 6.1789,-3.332 -0.5031,9.7406 -6.115,3.5633 z"
         id="path214-0-3-5-7-4-8-4-0-3-0-3-9-0-3-9-7-7-6-8-4-6"
         sodipodi:nodetypes="ccccc" /><path
         style="fill:#000000;fill-opacity:0.993007;stroke:#020202;stroke-width:1.24135;stroke-dasharray:none;stroke-opacity:0"
         d="m 798.06928,-2385.8362 -3.792,2.2302 -0.2533,5.6399 3.7524,-2.1866"
         id="path215-2-6-2-5-2-5-7-1-5-6-8-3-8-0-0-6-3-9-2-0-8" /><path
         style="fill:#ffffff;fill-opacity:1;stroke:#020202;stroke-width:1.24135;stroke-dasharray:none;stroke-opacity:0"
         d="m 802.43838,-2392.5572 6.179,-3.332 -0.5029,9.7407 -6.1153,3.5632 z"
         id="path214-0-5-2-8-62-3-5-0-9-5-0-2-4-5-1-5-3-8-1-0-7-4"
         sodipodi:nodetypes="ccccc" /><path
         style="fill:#000000;fill-opacity:0.993007;stroke:#020202;stroke-width:1.24135;stroke-dasharray:none;stroke-opacity:0"
         d="m 808.40788,-2391.8321 -3.7921,2.2302 -0.2545,5.64 3.7527,-2.1868"
         id="path215-2-5-8-3-5-7-1-9-7-2-5-4-7-5-2-1-7-9-1-0-3-5" /><path
         style="fill:#c6862d;fill-opacity:1;stroke:#0c0c0c;stroke-width:0;stroke-linecap:square;stroke-dasharray:none;stroke-opacity:1"
         d="m 808.61738,-2395.8894 -6.3436,7.2592 -3.8898,1.9714 -6.2842,0.097 -1.2145,-3.4653 19.1251,-9.7193"
         id="path173-1-8-1-8-4-5-6-1-9"
         sodipodi:nodetypes="cccccc" /><path
         id="path2-0-9-9-4-5-7-5-1-8-24-7-6-8-8-8-9-1-8-4-5-3-7-6-2"
         style="fill:#000000;fill-opacity:0.34902;stroke:none;stroke-width:0.559558;stroke-dasharray:none;stroke-opacity:0"
         d="m 769.40878,-2381.1394 20.264,14.5941 -1.6349,31.6584 -26.63588,-15.422 z"
         sodipodi:nodetypes="ccccc" /><path
         style="fill:#a9ffff;fill-opacity:1;stroke:none;stroke-width:0.313347"
         d="m 717.82443,-2400.9405 15.24678,-4.5217 13.36336,-6.8349 7.02709,3.7759 -13.36336,6.8349"
         id="path44-2-4-8-6-4-8-4-9-5-2-5-9-6-0"
         sodipodi:nodetypes="ccccc" /><path
         style="fill:#b7b7b7;fill-opacity:1;stroke:none;stroke-width:0.313347"
         d="m 722.02096,-2401.081 8.69472,30.1632 -2.7824,1.6327 -10.10885,-31.6554"
         id="path43-5-7-7-6-5-3-8-4-3-4-3-2-5-2"
         sodipodi:nodetypes="cccc" /><path
         style="fill:#8d4c01;fill-opacity:1;stroke:none;stroke-width:0.313347"
         d="m 735.14914,-2411.6734 5.36159,2.4062 7.56937,-5.3504 z m 3.95314,4.7972"
         id="path45-3-4-8-18-2-0-3-5-7-5-0-5-3-6-4"
         sodipodi:nodetypes="cccc" /><path
         style="fill:#8d4c01;fill-opacity:1;stroke:none;stroke-width:0.313347"
         d="m 751.97141,-2352.1734 5.3616,2.406 7.56936,-5.3503 z m 3.95315,4.797"
         id="path45-1-6-3-8-1-3-6-5-0-8-0-8-3-9-1"
         sodipodi:nodetypes="cccc" /><path
         style="fill:#663300;fill-opacity:1;stroke:none;stroke-width:0.313347"
         d="m 740.51073,-2409.2672 16.82228,59.4998 7.56936,-5.3503 -16.82227,-59.4999"
         id="path51-2-0-9-0-5-7-0-8-9-9-0-1-4-1" /><path
         style="fill:#330000;fill-opacity:1;stroke:none;stroke-width:0.313347"
         d="m 735.14914,-2411.6734 16.82227,59.5 5.3616,2.406 -16.82228,-59.4998"
         id="path52-1-7-1-6-0-6-7-8-9-7-1-2-8-8" /><path
         style="fill:#858585;fill-opacity:1;stroke:none;stroke-width:0.313347"
         d="m 753.46168,-2408.5214 -13.36336,6.8349 -22.27389,0.7459 10.10885,31.6555 8.93351,-5.2474 8.02155,-16.3836 9.06488,-4.9135 2.19472,-2.5828"
         id="path42-9-0-6-1-6-3-2-6-7-4-9-3-1-3" /><path
         style="fill:#a9ffff;fill-opacity:1;stroke:none;stroke-width:0.313347"
         d="m 736.66032,-2406.3283 5.36159,2.4061 7.56937,-5.3503 3.87038,0.7513 -13.36334,6.8348 -4.33789,0.1453"
         id="path53-9-0-9-8-7-5-5-2-1-7-5-8-7-9" /><rect
         style="fill:#333333;fill-opacity:1;stroke:none;stroke-width:0.0467912;stroke-dasharray:none;stroke-opacity:1"
         id="rect4-9-3-7-9-8-8-9-6-8-0-7-9-7-6-4-3-4-1-3-3-3-4-1-0"
         width="14.928728"
         height="14.928728"
         x="-1702.0699"
         y="-2611.7502"
         transform="matrix(0.83839296,0.54506627,-0.83839296,0.54506627,0,0)" /><path
         style="fill:#35461e;fill-opacity:1;stroke-width:4.25742;stroke-linecap:round;stroke-opacity:0.624204"
         d="m 810.71818,-2409.3779 -14.1785,14.5944 -1.8143,7.9113 5.8302,2.9323 -1.3242,-9.0405 z"
         id="path60-8-7-2-3-0-1-4" /><path
         id="path61-5-7-9-7-9-8-0"
         style="fill:#62803b;fill-opacity:1;stroke-width:4.25742;stroke-linecap:round;stroke-opacity:0.624204"
         d="m 810.71818,-2409.3778 0.4993,5.0969 -3.5587,4.9058 3.7512,-1.0018 0.052,2.4946 -1.8501,2.5533 0.9667,-0.113 0.5509,1.6884 -6.1222,7.2179 0.5034,3.02 -4.9544,-0.4242 -1.3244,-9.0406 z"
         sodipodi:nodetypes="ccccccccccccc" /><path
         style="fill:#2a3020;fill-opacity:1;stroke-width:4.25742;stroke-linecap:round;stroke-opacity:0.624204"
         d="m 803.65118,-2399.2898 1.2148,7.8732 -4.8081,4.0786 -0.8265,-5.6425 z"
         id="path62-9-1-1-7-8-3-4" /><path
         style="fill:#89c639;fill-opacity:1;stroke:none;stroke-width:5.14965;stroke-linecap:round;stroke-opacity:0.624204"
         d="m 789.78958,-2388.4798 18.9535,-11.5566 v 20.7908 l -19.0395,12.1 z"
         id="path26-5-91-1-33-8"
         sodipodi:nodetypes="ccccc" /><path
         style="fill:#5f862a;fill-opacity:1;stroke:none;stroke-width:5.14965;stroke-linecap:round;stroke-opacity:0.624204"
         d="m 789.78958,-2388.4798 -19.7207,-12.0316 v 20.7907 l 19.6347,12.5751"
         id="path28-0-6-3-9-1"
         sodipodi:nodetypes="cccc" /><path
         style="fill:#360f0f;fill-opacity:1;stroke:none;stroke-width:5.14965;stroke-linecap:round;stroke-opacity:0.624204"
         d="m 789.78958,-2411.5931 18.9535,11.5566 -18.9535,11.5566 -19.7207,-12.0316"
         id="path29-6-9-6-7-0"
         sodipodi:nodetypes="cccc" /><path
         style="fill:#d5dfbe;fill-opacity:1;stroke:none;stroke-width:5.33962;stroke-linecap:round;stroke-opacity:0.624204"
         d="m 801.84068,-2393.884 5.8699,-3.7444 0.05,9.8384 -5.9027,3.7624 z"
         id="path30-04-04-7-1-5-7"
         sodipodi:nodetypes="ccccc" /><path
         style="fill:#7b0c18;fill-opacity:1;stroke:none;stroke-width:3.25318;stroke-linecap:round;stroke-opacity:0.624204"
         d="m 804.15498,-2391.5027 3.5763,-2.2814 0.029,5.9941 -3.5963,2.2922 z"
         id="path30-04-6-7-2-9-9-6"
         sodipodi:nodetypes="ccccc" /><path
         style="fill:#d5dfbe;fill-opacity:1;stroke:none;stroke-width:5.33962;stroke-linecap:round;stroke-opacity:0.624204"
         d="m 791.60898,-2387.3827 5.8699,-3.7444 0.05,9.8384 -5.9027,3.7624 z"
         id="path30-04-9-04-3-4-75-9"
         sodipodi:nodetypes="ccccc" /><path
         style="fill:#7b0c18;fill-opacity:1;stroke:none;stroke-width:3.25318;stroke-linecap:round;stroke-opacity:0.624204"
         d="m 793.92328,-2385.0014 3.5763,-2.2814 0.029,5.9941 -3.5963,2.2922 z"
         id="path30-04-6-6-6-0-1-55-1"
         sodipodi:nodetypes="ccccc" /><path
         id="path34-5-5-7-5-9"
         style="fill:#ffcc00;fill-opacity:1;stroke:none;stroke-width:5.33962;stroke-linecap:round;stroke-opacity:0.624204"
         d="m 768.96598,-2380.9239 -1.2484,0.085 -2.50179,2.3406 -0.41159,3.4011 1.87033,2.8701 3.27765,0.9961 3.1513,-1.3436 1.5504,-3.055 -0.2537,-1.0909 -2.5296,-0.6319 0.3213,1.3815 -0.794,1.5641 -1.6136,0.6884 -1.6783,-0.5102 -0.9578,-1.4695 0.2111,-1.7412 1.281,-1.1982 0.5768,-0.031 z" /><path
         style="fill:#d9ff3e;fill-opacity:1;stroke:none;stroke-width:0.313347"
         d="m 765.90459,-2404.7845 -0.0966,6.4272 -8.90453,3.8254 z"
         id="path93-6-8-0-4-1-3-0-5-5-6-6-2-5-4"
         sodipodi:nodetypes="cccc" /><path
         style="fill:#360f0f;fill-opacity:1;stroke:none;stroke-width:0.313347"
         d="m 796.89288,-2394.2386 15.6688,-14.8039 -11.8778,0.6416 -2.1067,-12.3456 -7.1143,8.0258 -7.7588,-10.5981 -4.9605,11.4316 -13.24176,-2.2674 0.40277,9.37 -0.0966,6.4272 -8.90453,3.8254 6.91314,10.4323 -3.64212,9.7681 3.66208,0.9047 6.23232,-6.2939 0.1679,-20.7003 9.1214,-5.2816 z"
         id="path84-8-4-5-9-2-0-4-9-9-0-9-5-2-1"
         sodipodi:nodetypes="cccccccccccccccccc" /><path
         style="fill:#d9ff3e;fill-opacity:1;stroke:none;stroke-width:0.313347"
         d="m 796.72488,-2394.3289 1.8746,-7.512 13.9622,-7.2016 z"
         id="path85-2-6-8-2-2-8-5-6-6-7-9-8-8-6" /><path
         style="fill:#d9ff3e;fill-opacity:1;stroke:none;stroke-width:0.313347"
         d="m 800.68388,-2408.4009 -2.8582,2.2056 -1.8265,-4.4608 2.578,-10.0904 z"
         id="path86-8-3-3-8-1-4-7-7-9-4-9-0-3-0" /><path
         style="fill:#d9ff3e;fill-opacity:1;stroke:none;stroke-width:0.313347"
         d="m 783.70408,-2423.3188 7.7588,10.5982 -3.1857,1.6658 -3.6111,-3.115"
         id="path88-0-1-5-4-6-7-5-2-4-5-0-6-1-6" /><path
         style="fill:#d9ff3e;fill-opacity:1;stroke:none;stroke-width:0.313347"
         d="m 765.50182,-2414.1545 13.24176,2.2674 -0.7129,3.1008 -3.4032,0.138 z"
         id="path92-7-8-8-9-1-4-4-6-3-4-6-9-2-4"
         sodipodi:nodetypes="ccccc" /><path
         style="fill:#3f5323;fill-opacity:1;stroke-width:4.25742;stroke-linecap:round;stroke-opacity:0.624204"
         d="m 756.671,-2391.8885 20.02868,3.5883 6.0872,5.369 -3.0264,5.782 -4.196,-8.1166 z"
         id="path60-8-8-7-7-26-6" /><path
         id="path61-5-9-3-6-3-0"
         style="fill:#4c6729;fill-opacity:1;stroke-width:4.25742;stroke-linecap:round;stroke-opacity:0.624204"
         d="m 756.67111,-2391.8885 2.56646,4.4317 5.75176,1.9103 -3.63158,1.3736 1.41286,2.0566 2.99178,0.9953 -0.85118,0.4719 0.537,1.6929 9.18257,2.2936 0.9603,4.1329 4.1692,-4.6196 -4.1958,-8.1167 z"
         sodipodi:nodetypes="ccccccccccccc" /><path
         style="fill:#32421c;fill-opacity:1;stroke-width:4.25742;stroke-linecap:round;stroke-opacity:0.624204"
         d="m 768.29488,-2387.8141 3.6041,7.1045 6.2843,0.5095 -2.6188,-5.0657 z"
         id="path62-9-5-5-3-73-0" /></g></g></svg>
