<?xml version="1.0" encoding="UTF-8" standalone="no"?>
<!-- Created with Inkscape (http://www.inkscape.org/) -->

<svg
   width="194.2411mm"
   height="155.7269mm"
   viewBox="0 0 194.2411 155.7269"
   version="1.1"
   id="svg1"
   inkscape:version="1.3 (0e150ed6c4, 2023-07-21)"
   sodipodi:docname="DWARF - GOBLINS all sprites.svg"
   xml:space="preserve"
   xmlns:inkscape="http://www.inkscape.org/namespaces/inkscape"
   xmlns:sodipodi="http://sodipodi.sourceforge.net/DTD/sodipodi-0.dtd"
   xmlns="http://www.w3.org/2000/svg"
   xmlns:svg="http://www.w3.org/2000/svg"><sodipodi:namedview
     id="namedview1"
     pagecolor="#ffffff"
     bordercolor="#000000"
     borderopacity="0.25"
     inkscape:showpageshadow="2"
     inkscape:pageopacity="0.0"
     inkscape:pagecheckerboard="0"
     inkscape:deskcolor="#d1d1d1"
     inkscape:document-units="mm"
     inkscape:zoom="0.12267851"
     inkscape:cx="10873.95"
     inkscape:cy="2058.2251"
     inkscape:window-width="1920"
     inkscape:window-height="991"
     inkscape:window-x="-9"
     inkscape:window-y="-9"
     inkscape:window-maximized="1"
     inkscape:current-layer="layer1" /><defs
     id="defs1"><filter
       style="color-interpolation-filters:sRGB"
       inkscape:label="Blur"
       id="filter157"
       x="-0.070488308"
       y="-0.091097566"
       width="1.1409766"
       height="1.1821951"><feGaussianBlur
         stdDeviation="5 5"
         result="blur"
         id="feGaussianBlur157" /></filter><filter
       style="color-interpolation-filters:sRGB"
       inkscape:label="Blur"
       id="filter158"
       x="-0.070488308"
       y="-0.091097566"
       width="1.1409766"
       height="1.1821951"><feGaussianBlur
         stdDeviation="5 5"
         result="blur"
         id="feGaussianBlur158" /></filter></defs><g
     inkscape:label="Capa 1"
     inkscape:groupmode="layer"
     id="layer1"
     transform="translate(-2848.8094,457.69585)"><g
       id="g57"
       transform="translate(-104.51572,-586.62813)"><path
         id="path46-9-0-1-9-2"
         style="fill:#ffffff;stroke:none;stroke-width:0.433999;stroke-dasharray:none;stroke-opacity:0;filter:url(#filter157)"
         d="m 3055.1393,140.9323 -34.3938,20.5642 v 9.45 l -9.1648,4.8023 -3.4809,11.3611 -16.0869,-10.4583 0.3586,-9.5508 -9.0604,2.7357 -3.9191,1.1834 -13.9558,22.9102 -0.1111,12.7497 7.1272,4.5831 v 8.1386 5e-4 l 10.7017,6.8838 19.8096,-12.8788 10.5674,23.2895 3.8731,1.7906 -9.895,6.4332 v 15.2358 l 19.3967,12.5026 v 5e-4 l 18.7074,-12.1626 v -15.2357 l -5.3102,-3.4226 12.7992,-6.3882 -5e-4,11.4851 19.3967,12.5021 V 244.202 l 5e-4,15.2358 18.7069,-12.1621 v -15.2363 l -19.2722,-12.4225 8.9628,-21.4767 5.4291,0.9369 v 7.9287 l 0.034,0.022 0.01,1.509 v 0.125 l 7.6269,4.9584 h 5e-4 l 7.6264,-4.9584 -0.02,-5.3128 3.5641,2.2924 v 8.1385 l 10.7012,6.8843 19.697,-12.8059 v -20.837 l 5e-4,-5e-4 -19.035,-12.824 -0.07,0.01 -22.3594,2.9993 1.7999,-3.3631 -12.9072,-5.4689 -0.9121,-11.0686 z" /><path
         id="path46-9-0-1-9-2-7"
         style="fill:#ffffff;stroke:none;stroke-width:0.433999;stroke-dasharray:none;stroke-opacity:0;filter:url(#filter158)"
         d="m 3055.1393,140.9323 -34.3938,20.5642 v 9.45 l -9.1648,4.8023 -3.4809,11.3611 -16.0869,-10.4583 0.3586,-9.5508 -9.0604,2.7357 -3.9191,1.1834 -13.9558,22.9102 -0.1111,12.7497 7.1272,4.5831 v 8.1386 5e-4 l 10.7017,6.8838 19.8096,-12.8788 10.5674,23.2895 3.8731,1.7906 -9.895,6.4332 v 15.2358 l 19.3968,12.5026 v 5e-4 l 18.7073,-12.1626 v -15.2357 l -5.3102,-3.4226 12.7992,-6.3882 -5e-4,11.4851 19.3967,12.5021 V 244.202 l 5e-4,15.2358 18.7069,-12.1621 v -15.2363 l -19.2722,-12.4225 8.9628,-21.4767 5.4291,0.9369 v 7.9287 l 0.034,0.022 0.01,1.509 v 0.125 l 7.6269,4.9584 h 5e-4 l 7.6264,-4.9584 -0.02,-5.3128 3.5642,2.2924 v 8.1385 l 10.7011,6.8843 19.697,-12.8059 v -20.837 l 5e-4,-5e-4 -19.035,-12.824 -0.07,0.01 -22.3594,2.9993 1.7999,-3.3631 -12.9072,-5.4689 -0.9121,-11.0686 z" /></g></g></svg>
