<?xml version="1.0" encoding="UTF-8" standalone="no"?>
<!-- Created with Inkscape (http://www.inkscape.org/) -->

<svg
   width="183.83218mm"
   height="142.04631mm"
   viewBox="0 0 183.83218 142.04631"
   version="1.1"
   id="svg1"
   inkscape:version="1.3 (0e150ed6c4, 2023-07-21)"
   sodipodi:docname="DWARF - GOBLINS all sprites.svg"
   xml:space="preserve"
   xmlns:inkscape="http://www.inkscape.org/namespaces/inkscape"
   xmlns:sodipodi="http://sodipodi.sourceforge.net/DTD/sodipodi-0.dtd"
   xmlns="http://www.w3.org/2000/svg"
   xmlns:svg="http://www.w3.org/2000/svg"><sodipodi:namedview
     id="namedview1"
     pagecolor="#ffffff"
     bordercolor="#000000"
     borderopacity="0.25"
     inkscape:showpageshadow="2"
     inkscape:pageopacity="0.0"
     inkscape:pagecheckerboard="0"
     inkscape:deskcolor="#d1d1d1"
     inkscape:document-units="mm"
     inkscape:zoom="0.12267851"
     inkscape:cx="10873.95"
     inkscape:cy="2058.2251"
     inkscape:window-width="1920"
     inkscape:window-height="991"
     inkscape:window-x="-9"
     inkscape:window-y="-9"
     inkscape:window-maximized="1"
     inkscape:current-layer="layer1" /><defs
     id="defs1" /><g
     inkscape:label="Capa 1"
     inkscape:groupmode="layer"
     id="layer1"
     transform="translate(-3093.6915,927.71933)"><path
       id="path1137-5-8-5-5-7"
       style="fill:#ffffff;fill-opacity:1;stroke:none;stroke-width:2.15321;-inkscape-stroke:none"
       d="m 3192.1249,-927.71932 -4.9605,11.4313 -13.2415,-2.267 0.4025,9.37 -9.0009,10.2526 2.0189,3.0468 -2.2515,-0.4036 2.5668,4.4318 3.0184,1.0025 1.0289,1.5524 -1.9276,0.7291 1.4129,2.0562 0.2728,0.091 -2.8685,7.6941 3.6618,0.9048 1.2402,-1.2526 1.5978,2.4521 0.3741,0.1136 -3.268,12.6199 -0.1085,0.025 -10.2056,-36.0965 0.4868,-0.264 2.1947,-2.5828 -2.6866,-10.109 -4.3134,-2.3176 -1.0682,-3.7786 -12.9305,2.944 1.2718,4.4979 -3.3497,1.7131 -15.2471,4.5217 10.1089,31.6554 2.7823,-1.6325 h -5e-4 l 6.1515,-3.6132 5.5682,-11.3725 9.5368,33.7318 1.757,0.7881 -6.859,14.8528 0.1179,1.7581 -2.6144,7.1577 -9.078,2.3828 -7.9044,-10.8066 -2.2221,-10.2867 -2.561,-10.9663 -8.8899,-8.4134 -11.0826,0.4134 -10.4681,10.8991 -6.8962,19.637 9.325,-13.1516 8.2982,-6.6947 6.8146,-2.0138 4.5852,4.5129 3.4427,22.0741 10.9911,14.1991 v 5e-4 l 20.2959,0.9354 0.1075,-0.1411 1.0785,3.6199 8.3824,7.2761 -3.1135,10.5652 6.8244,8.9312 -1.5865,-9.0227 7.5096,7.2518 -0.6216,-8.3246 5.998,2.5151 -1.3022,-6.4079 10.7156,2.0392 -0.1984,0.1592 7.3215,10.113 11.0433,5.0468 -3.6835,-6.3661 10.5425,2.9962 -7.2843,-7.3401 7.6021,-1.0852 h 5e-4 l 11.7362,-3.9238 h 5e-4 l 10.787,4.1212 h 5e-4 l 0.1829,8.5028 5.2881,-2.7125 1.3131,-8.0253 1.5007,0.2294 0.8397,6.0095 4.5672,-2.2971 v -4.0194 l 4.2256,-0.4914 5.4637,-0.8098 0.8692,-4.7785 -2.8944,-1.7859 -6.5489,-7.0993 -2.9942,-8.0951 -4.0416,-2.3141 0.6026,-3.1316 -3.6753,-1.8547 -0.8185,-1.3069 1.4361,-13.0183 h -6.9846 l -2.7265,1.2971 -2.7595,-2.112 4.1522,-8.1349 -8.3323,4.9356 -6.6151,-5.0638 5.9304,-3.3507 -2.8634,-8.2817 25.9503,-11.0598 -5.3598,11.4717 1.0469,7.0569 v 5e-4 l 0.4749,3.1911 30.9898,-11.9952 -6.0477,-14.7081 -0.7684,-3.6835 4.3,-1.8325 -5.8224,-11.915 -3.6121,1.5395 -4.5114,-1.9038 -9.5565,4.2524 -0.6336,3.3296 0.1003,0.5446 -30.886,13.163 2.8737,8.3179 0.522,1.5089 v 0.01 l -0.5235,-1.5146 -4.6462,-13.4364 -1.9125,1.1074 -0.5199,-1.2852 1.2842,-0.8159 v -11.6949 l 2.3859,-2.8128 -0.5509,-1.6883 -0.9664,0.1127 1.8501,-2.5533 -0.052,-2.4944 -2.6665,0.7121 v -0.3716 l -0.4197,-0.2558 2.8939,-3.9889 -0.3126,-3.1962 1.6567,-1.5653 -1.8009,0.097 -0.042,-0.4326 -0.4459,0.4589 -9.5886,0.5184 -2.1069,-12.3455 -7.1142,8.0253 z m -15.1588,45.1363 0.07,0.017 -0.8744,3.3771 -0.5932,-0.9106 0.1483,-1.2226 z m 52.8748,49.1396 v 0.023 l -0.3137,0.6661 -0.011,-0.01 z" /></g></svg>
