<?xml version="1.0" encoding="UTF-8" standalone="no"?>
<!-- Created with Inkscape (http://www.inkscape.org/) -->

<svg
   width="151.59436mm"
   height="161.0063mm"
   viewBox="0 0 151.59436 161.0063"
   version="1.1"
   id="svg1"
   inkscape:version="1.3 (0e150ed6c4, 2023-07-21)"
   sodipodi:docname="DWARF - GOBLINS all sprites.svg"
   xml:space="preserve"
   xmlns:inkscape="http://www.inkscape.org/namespaces/inkscape"
   xmlns:sodipodi="http://sodipodi.sourceforge.net/DTD/sodipodi-0.dtd"
   xmlns="http://www.w3.org/2000/svg"
   xmlns:svg="http://www.w3.org/2000/svg"><sodipodi:namedview
     id="namedview1"
     pagecolor="#ffffff"
     bordercolor="#000000"
     borderopacity="0.25"
     inkscape:showpageshadow="2"
     inkscape:pageopacity="0.0"
     inkscape:pagecheckerboard="0"
     inkscape:deskcolor="#d1d1d1"
     inkscape:document-units="mm"
     inkscape:zoom="0.12267851"
     inkscape:cx="10873.95"
     inkscape:cy="2058.2251"
     inkscape:window-width="1920"
     inkscape:window-height="991"
     inkscape:window-x="-9"
     inkscape:window-y="-9"
     inkscape:window-maximized="1"
     inkscape:current-layer="layer1" /><defs
     id="defs1" /><g
     inkscape:label="Capa 1"
     inkscape:groupmode="layer"
     id="layer1"
     transform="translate(-3061.8092,-81.417745)"><path
       id="path19-9-2-9-6-7-0-2"
       style="fill:#ffffff;stroke-width:1.96987;stroke-opacity:0.970874"
       d="m 3119.8858,81.417748 -51.0724,29.739802 -0.048,0.028 -6.9561,4.0509 h 5e-4 v 0 l 12.8441,34.7705 -10.174,5.7118 -0.036,15.5872 6.9799,4.2736 -3.4024,10.4371 1.6242,14.3759 6.3723,11.777 8.6857,4.6798 3.8406,-2.1022 h 5e-4 l 3.8406,-2.1027 3.8411,-2.1022 3.7435,-11.483 -0.7287,-6.4492 13.0432,7.9855 -3.5848,10.9963 1.6242,14.3753 6.3722,11.7771 8.6858,4.6798 3.8406,-2.1022 3.8411,-2.1022 3.8406,-2.1027 h 5e-4 l 3.7434,-11.483 -0.8103,-7.1686 11.7089,7.1686 11.2577,-6.3206 0.036,-15.5871 -12.8845,-7.8884 4.3181,-2.5405 9.2904,5.6881 4.562,8.432 8.6857,4.6798 3.8406,-2.1022 h 5e-4 l 3.8406,-2.1027 3.8411,-2.1022 0.5427,-1.6645 2.4329,-1.3658 0.015,-6.1412 0.7534,-2.312 -0.7333,-6.4895 v -0.6445 l -0.08,-0.049 -0.8128,-7.1924 -4.8127,-8.894 27.7637,-31.365 -86.6577,-53.054102 0.1813,-0.106 -6.9851,-4.0943 -0.029,0.017 z" /></g></svg>
