<?xml version="1.0" encoding="UTF-8" standalone="no"?>
<!-- Created with Inkscape (http://www.inkscape.org/) -->

<svg
   width="151.59592mm"
   height="161.00641mm"
   viewBox="0 0 151.59592 161.00641"
   version="1.1"
   id="svg1"
   inkscape:version="1.3 (0e150ed6c4, 2023-07-21)"
   sodipodi:docname="DWARF - GOBLINS all sprites.svg"
   xml:space="preserve"
   xmlns:inkscape="http://www.inkscape.org/namespaces/inkscape"
   xmlns:sodipodi="http://sodipodi.sourceforge.net/DTD/sodipodi-0.dtd"
   xmlns="http://www.w3.org/2000/svg"
   xmlns:svg="http://www.w3.org/2000/svg"><sodipodi:namedview
     id="namedview1"
     pagecolor="#ffffff"
     bordercolor="#000000"
     borderopacity="0.25"
     inkscape:showpageshadow="2"
     inkscape:pageopacity="0.0"
     inkscape:pagecheckerboard="0"
     inkscape:deskcolor="#d1d1d1"
     inkscape:document-units="mm"
     inkscape:zoom="0.12267851"
     inkscape:cx="10873.95"
     inkscape:cy="2058.2251"
     inkscape:window-width="1920"
     inkscape:window-height="991"
     inkscape:window-x="-9"
     inkscape:window-y="-9"
     inkscape:window-maximized="1"
     inkscape:current-layer="layer1" /><defs
     id="defs1" /><g
     inkscape:label="Capa 1"
     inkscape:groupmode="layer"
     id="layer1"
     transform="translate(-3287.9293,-85.784299)"><g
       id="g101"
       transform="translate(2303.4778,1774.9628)"><path
         id="path19-9-2-9-6-7-0"
         style="fill:#4d4d4d;stroke-width:1.96987;stroke-opacity:0.970874"
         d="m 1103.2954,-1561.6014 -8.6857,-4.6799 -6.3721,-11.777 -1.6245,-14.3756 3.7436,-11.4833 7.6817,-4.2047 8.6858,4.6799 6.372,11.777 1.6245,14.3756 -3.7436,11.4833 z" /><path
         id="path19-9-3-0-8-7-1-6"
         style="fill:#262626;stroke-width:1.96987;stroke-opacity:0.970874"
         d="m 1099.4545,-1559.4991 -8.6857,-4.6799 -6.3721,-11.777 -1.6245,-14.3756 3.7436,-11.4833 7.6817,-4.2047 8.6858,4.6799 6.3721,11.777 1.6244,14.3756 -3.7435,11.4833 z" /><path
         style="fill:#797979;fill-opacity:1;stroke-width:15;stroke-linecap:round"
         d="m 1113.0962,-1591.665 -3.8409,2.1023 -6.372,-11.7769 3.8409,-2.1024"
         id="path133-2-8-8-6-2" /><path
         style="fill:#353535;fill-opacity:1;stroke-width:15;stroke-linecap:round"
         d="m 1110.8798,-1575.187 3.8409,-2.1024 -3.7436,11.4833 -3.8409,2.1023"
         id="path143-5-6-4-23-0" /><path
         style="fill:#814e2c;fill-opacity:1;stroke-width:15;stroke-linecap:round"
         d="m 1098.9988,-1580.4305 -0.012,5.2203 3.7703,-2.1167 0.012,-5.2202"
         id="path146-5-2-2-7-9-1-0"
         sodipodi:nodetypes="cccc" /><path
         style="fill:#935935;fill-opacity:1;stroke-width:15;stroke-linecap:round"
         d="m 1089.2753,-1586.3836 3.7703,-2.1166 9.7235,5.9531 -3.7703,2.1166"
         id="path146-3-6-1-9-8" /><path
         style="fill:#2c1212;fill-opacity:1;stroke-width:15;stroke-linecap:round"
         d="m 1089.2753,-1586.3836 -0.012,5.2203 9.7235,5.9531 0.012,-5.2203"
         id="path146-5-7-5-2-7-5"
         sodipodi:nodetypes="cccc" /><path
         style="fill:#814e2c;fill-opacity:1;stroke-width:44.7898;stroke-linecap:round"
         d="m 1044.6623,-1613.6553 -0.036,15.5876 11.2581,-6.3204 0.036,-15.5875"
         id="path146-5-2-2-0-3-9-4-0-9"
         sodipodi:nodetypes="cccc" /><path
         style="fill:#935935;fill-opacity:1;stroke-width:44.7898;stroke-linecap:round"
         d="m 1015.6281,-1631.4312 11.2581,-6.3204 29.0342,17.776 -11.2581,6.3203"
         id="path146-3-1-9-3-4-6-2" /><path
         style="fill:#2c1212;fill-opacity:1;stroke-width:44.7898;stroke-linecap:round"
         d="m 1015.6281,-1631.4312 -0.036,15.5875 29.0342,17.776 0.036,-15.5876"
         id="path146-5-7-3-7-9-3-7-1"
         sodipodi:nodetypes="cccc" /><path
         style="fill:#814e2c;fill-opacity:1;stroke-width:44.7898;stroke-linecap:round"
         d="m 1073.6965,-1595.8794 -0.036,15.5876 11.2581,-6.3204 0.036,-15.5875"
         id="path146-5-2-2-0-0-5-3-8-3-1"
         sodipodi:nodetypes="cccc" /><path
         style="fill:#935935;fill-opacity:1;stroke-width:44.7898;stroke-linecap:round"
         d="m 1044.6623,-1613.6553 11.2581,-6.3204 29.0342,17.776 -11.2581,6.3203"
         id="path146-3-1-6-1-8-8-8-9" /><path
         style="fill:#2c1212;fill-opacity:1;stroke-width:44.7898;stroke-linecap:round"
         d="m 1044.6623,-1613.6553 -0.036,15.5875 29.0342,17.776 0.036,-15.5876"
         id="path146-5-7-3-3-0-7-7-0-6"
         sodipodi:nodetypes="cccc" /><path
         style="fill:#814e2c;fill-opacity:1;stroke-width:44.7898;stroke-linecap:round"
         d="m 1102.7307,-1578.1035 -0.036,15.5876 11.2581,-6.3204 0.036,-15.5875"
         id="path146-5-2-2-0-6-1-8-6-75-5"
         sodipodi:nodetypes="cccc" /><path
         style="fill:#935935;fill-opacity:1;stroke-width:44.7898;stroke-linecap:round"
         d="m 1073.6965,-1595.8794 11.2581,-6.3204 29.0342,17.776 -11.2581,6.3203"
         id="path146-3-1-3-7-3-1-92-7" /><path
         style="fill:#2c1212;fill-opacity:1;stroke-width:44.7898;stroke-linecap:round"
         d="m 1073.6965,-1595.8794 -0.036,15.5875 29.0342,17.776 0.036,-15.5876"
         id="path146-5-7-3-4-1-5-1-6-7"
         sodipodi:nodetypes="cccc" /><path
         id="path141-7-9-3-0-5-7-7-5-9-2-4-2-1-5-1-2-5-8-6"
         style="fill:#999999;stroke:none;stroke-width:18.6739;stroke-opacity:0"
         d="m 1042.5291,-1689.1785 -58.07653,33.8186 17.44343,47.2203 26.558,-15.5649 5.965,-23.0332 5.8007,-3.7156 z" /><path
         id="path141-0-0-7-9-7-7-5-2-2-9-1-5-6-3-4-3-3-1-0-9"
         style="fill:#4d4d4d;stroke:none;stroke-width:18.6739;stroke-opacity:0"
         d="m 1042.5291,-1689.1784 -2.3094,38.7258 17.9715,-11.5114 23.8683,15.0631 12.5232,30.9475 -15.8011,10.0361 6.1728,3.7176 51.093,-29.7243 z" /><path
         style="fill:#353535;fill-opacity:1;stroke-width:15;stroke-linecap:round"
         d="m 1070.2017,-1600.7618 3.8409,-2.1024 -3.7436,11.4833 -3.8409,2.1023"
         id="path143-14-2-5-8-8-2" /><path
         style="fill:#814e2c;fill-opacity:1;stroke-width:15;stroke-linecap:round"
         d="m 1058.3207,-1606.0053 -0.012,5.2203 3.7703,-2.1167 0.012,-5.2202"
         id="path146-5-2-0-4-5-9-6-1"
         sodipodi:nodetypes="cccc" /><path
         style="fill:#935935;fill-opacity:1;stroke-width:15;stroke-linecap:round"
         d="m 1048.5972,-1611.9584 3.7703,-2.1166 9.7235,5.9531 -3.7703,2.1166"
         id="path146-9-6-0-8-2-9" /><path
         style="fill:#2c1212;fill-opacity:1;stroke-width:15;stroke-linecap:round"
         d="m 1048.5972,-1611.9584 -0.012,5.2203 9.7235,5.9531 0.012,-5.2203"
         id="path146-5-3-3-3-8-4-9"
         sodipodi:nodetypes="cccc" /><path
         style="fill:#814e2c;fill-opacity:1;stroke-width:44.7898;stroke-linecap:round"
         d="m 1016.156,-1597.1018 -0.036,15.5876 11.2581,-6.3204 0.036,-15.5875"
         id="path146-5-2-2-0-1-5-9-5"
         sodipodi:nodetypes="cccc" /><path
         style="fill:#935935;fill-opacity:1;stroke-width:44.7898;stroke-linecap:round"
         d="m 987.1218,-1614.8777 11.25805,-6.3204 29.03425,17.776 -11.2581,6.3203"
         id="path146-3-1-5-2-3-1" /><path
         style="fill:#2c1212;fill-opacity:1;stroke-width:44.7898;stroke-linecap:round"
         d="m 987.1218,-1614.8777 -0.0358,15.5875 29.0342,17.776 0.036,-15.5876"
         id="path146-5-7-3-1-1-8-9"
         sodipodi:nodetypes="cccc" /><path
         style="fill:#814e2c;fill-opacity:1;stroke-width:44.7898;stroke-linecap:round"
         d="m 1045.1902,-1579.3259 -0.036,15.5876 11.2581,-6.3204 0.036,-15.5875"
         id="path146-5-2-2-0-0-9-7-9-6"
         sodipodi:nodetypes="cccc" /><path
         style="fill:#935935;fill-opacity:1;stroke-width:44.7898;stroke-linecap:round"
         d="m 1016.156,-1597.1018 11.2581,-6.3204 29.0342,17.776 -11.2581,6.3203"
         id="path146-3-1-6-7-3-9-8" /><path
         style="fill:#2c1212;fill-opacity:1;stroke-width:44.7898;stroke-linecap:round"
         d="m 1016.156,-1597.1018 -0.036,15.5875 29.0342,17.776 0.036,-15.5876"
         id="path146-5-7-3-3-7-0-2-9"
         sodipodi:nodetypes="cccc" /><path
         style="fill:#814e2c;fill-opacity:1;stroke-width:44.7898;stroke-linecap:round"
         d="m 1074.2244,-1561.55 -0.036,15.5876 11.2581,-6.3204 0.036,-15.5875"
         id="path146-5-2-2-0-6-3-4-8-3"
         sodipodi:nodetypes="cccc" /><path
         style="fill:#935935;fill-opacity:1;stroke-width:44.7898;stroke-linecap:round"
         d="m 1045.1902,-1579.3259 11.2581,-6.3204 29.0342,17.776 -11.2581,6.3203"
         id="path146-3-1-3-0-8-9-9" /><path
         style="fill:#2c1212;fill-opacity:1;stroke-width:44.7898;stroke-linecap:round"
         d="m 1045.1902,-1579.3259 -0.036,15.5875 29.0342,17.776 0.036,-15.5876"
         id="path146-5-7-3-4-4-7-75-2"
         sodipodi:nodetypes="cccc" /><path
         id="path19-9-0-8-7-8"
         style="fill:#4d4d4d;stroke-width:1.96987;stroke-opacity:0.970874"
         d="m 1051.8648,-1530.2744 -8.6857,-4.6799 -6.3721,-11.777 -1.6245,-14.3756 3.7436,-11.4833 7.6817,-4.2047 8.6858,4.6799 6.372,11.777 1.6245,14.3756 -3.7436,11.4833 z" /><path
         id="path19-9-3-3-3-0-0"
         style="fill:#262626;stroke-width:1.96987;stroke-opacity:0.970874"
         d="m 1048.0239,-1528.1721 -8.6857,-4.6799 -6.3721,-11.777 -1.6245,-14.3756 3.7436,-11.4833 7.6817,-4.2047 8.6858,4.6799 6.3721,11.777 1.6244,14.3756 -3.7435,11.4833 z" /><path
         style="fill:#797979;fill-opacity:1;stroke-width:15;stroke-linecap:round"
         d="m 1061.6656,-1560.338 -3.8409,2.1023 -6.372,-11.7769 3.8409,-2.1024"
         id="path133-43-2-8-4" /><path
         style="fill:#353535;fill-opacity:1;stroke-width:15;stroke-linecap:round"
         d="m 1059.4492,-1543.86 3.8409,-2.1024 -3.7436,11.4833 -3.8409,2.1023"
         id="path143-10-4-77-2" /><path
         style="fill:#814e2c;fill-opacity:1;stroke-width:15;stroke-linecap:round"
         d="m 1047.5682,-1549.1035 -0.012,5.2203 3.7703,-2.1167 0.012,-5.2202"
         id="path146-5-2-9-4-5-1"
         sodipodi:nodetypes="cccc" /><path
         style="fill:#935935;fill-opacity:1;stroke-width:15;stroke-linecap:round"
         d="m 1037.8447,-1555.0566 3.7703,-2.1166 9.7235,5.9531 -3.7703,2.1166"
         id="path146-7-4-5-0" /><path
         style="fill:#2c1212;fill-opacity:1;stroke-width:15;stroke-linecap:round"
         d="m 1037.8447,-1555.0566 -0.012,5.2203 9.7235,5.9531 0.012,-5.2203"
         id="path146-5-9-5-7-3"
         sodipodi:nodetypes="cccc" /><path
         id="path19-9-7-7-6-1-8"
         style="fill:#4d4d4d;stroke-width:1.96987;stroke-opacity:0.970874"
         d="m 1011.1867,-1555.8492 -8.6857,-4.6799 -6.37211,-11.777 -1.6245,-14.3756 3.74359,-11.4833 7.68172,-4.2047 8.6858,4.6799 6.372,11.777 1.6245,14.3756 -3.7436,11.4833 z" /><path
         id="path19-9-3-7-2-0-9-8"
         style="fill:#262626;stroke-width:1.96987;stroke-opacity:0.970874"
         d="m 1007.3458,-1553.7469 -8.68572,-4.6799 -6.37207,-11.777 -1.6245,-14.3756 3.74359,-11.4833 7.6817,-4.2047 8.6858,4.6799 6.3721,11.777 1.6244,14.3756 -3.7435,11.4833 z" /><path
         style="fill:#797979;fill-opacity:1;stroke-width:15;stroke-linecap:round"
         d="m 1020.9875,-1585.9128 -3.8409,2.1023 -6.372,-11.7769 3.8409,-2.1024"
         id="path133-0-2-6-6-5" /><path
         style="fill:#353535;fill-opacity:1;stroke-width:15;stroke-linecap:round"
         d="m 1018.7711,-1569.4348 3.8409,-2.1024 -3.7436,11.4833 -3.8409,2.1023"
         id="path143-14-0-4-9-5" /><path
         style="fill:#814e2c;fill-opacity:1;stroke-width:15;stroke-linecap:round"
         d="m 1006.8901,-1574.6783 -0.012,5.2203 3.7703,-2.1167 0.012,-5.2202"
         id="path146-5-2-0-3-6-7-7"
         sodipodi:nodetypes="cccc" /><path
         style="fill:#935935;fill-opacity:1;stroke-width:15;stroke-linecap:round"
         d="m 997.16659,-1580.6314 3.77031,-2.1166 9.7235,5.9531 -3.7703,2.1166"
         id="path146-9-7-2-7-7" /><path
         style="fill:#2c1212;fill-opacity:1;stroke-width:15;stroke-linecap:round"
         d="m 997.16659,-1580.6314 -0.012,5.2203 9.72351,5.9531 0.012,-5.2203"
         id="path146-5-3-6-2-10-5"
         sodipodi:nodetypes="cccc" /><path
         style="fill:#b3b3b3;stroke-width:15;stroke-linecap:round"
         d="m 1136.0475,-1631.9239 -7.0133,4.0788 -93.4897,-57.2389 6.9848,-4.0944"
         id="path58-4-0-3-3"
         sodipodi:nodetypes="cccc" /><path
         style="fill:#b3b3b3;stroke-width:15;stroke-linecap:round"
         d="m 984.47229,-1655.3442 7.0133,4.0788 58.08551,-33.8186 -6.9848,-4.0944"
         id="path58-4-5-1-6-5-2"
         sodipodi:nodetypes="cccc" /><path
         id="rect4-9-3-7-9-8-8-9-6-8-02-7-6-0-1-4-3-7-2-3-5-4-7-9-9-6"
         style="fill:#454545;stroke-width:0.0543909"
         d="m 1043.3988,-1613.0721 15.2184,9.894 -15.2184,9.894 -15.2184,-9.894 z" /><path
         id="path2-0-9-2-5-2-3-9-6-2-9-2-7-0-8-5-2-3-3-6-9-0-9-5-3"
         style="fill:#808080;fill-opacity:0;stroke:none;stroke-width:0.680368;stroke-dasharray:none;stroke-opacity:0"
         d="m 1082.0597,-1646.9006 -23.8171,15.4836 v 38.5449 l 36.3401,-23.0817 z"
         sodipodi:nodetypes="ccccc" /><path
         id="path2-0-9-9-4-5-7-5-1-8-27-9-0-0-0-9-6-2-8-2-1-6-9-6-7-2"
         style="fill:#000000;fill-opacity:0.35;stroke:none;stroke-width:0.680368;stroke-dasharray:none;stroke-opacity:0"
         d="m 1034.419,-1646.7369 23.8236,15.3199 v 38.5449 l -32.8477,-19.0187 z"
         sodipodi:nodetypes="ccccc" /><path
         style="fill:#000000;fill-opacity:0.3;stroke:none;stroke-width:0.381"
         d="m 1034.419,-1646.7369 23.8236,15.3199 23.8172,-15.4836 -23.8686,-15.0635"
         id="path19-9-8-3-0-0-9-8-5-7-0-0-4-2-4-2-9-6-1" /><path
         style="fill:#4d4d4d;stroke:#020202;stroke-width:5.2566;stroke-opacity:0"
         d="m 1038.0789,-1621.9633 7.8987,-18.4603"
         id="path114-5-5-7-7-3-7-0-3-5-2-47-2-73-9-3-5-7-9-2-6" /><path
         style="fill:#c83737;stroke:#020202;stroke-width:5.2566;stroke-opacity:0"
         d="m 1037.8304,-1615.5482 8.877,-4.6714 -1.7174,-3.4651 -4.3405,1.583 -2.1229,-0.063"
         id="path122-3-3-8-4-9-1-5-6-4-5-1-27-4-5-6-5-3-7-8-1"
         sodipodi:nodetypes="ccccc" /><path
         style="fill:#782121;fill-opacity:1;stroke:#020202;stroke-width:6.89727;stroke-opacity:0"
         d="m 1032.9908,-1625.426 -1.4502,4.6667 6.2898,5.2111 0.6963,-6.6169 -2.1229,-0.063 z"
         id="path212-7-9-1-5-3-7-2-6-8-41-4-8-8-3-2-8-9-5-9"
         sodipodi:nodetypes="cccccc" /><path
         style="fill:#504f4f;fill-opacity:1;stroke:#020202;stroke-width:5.2566;stroke-opacity:0"
         d="m 1034.7809,-1628.3074 2.4282,2.9445 1.7433,0.1203 5.0776,-0.9436 0.9601,2.5013 -4.3406,1.583 -4.2458,-0.1264 -3.4129,-3.1978"
         id="path73-2-8-8-9-0-0-8-6-3-7-9-0-6-6-9-4-7-1-2-5"
         sodipodi:nodetypes="cccccccc" /><path
         style="fill:#666662;fill-opacity:1;stroke-width:0.358333"
         d="m 1038.5268,-1622.165 2.1229,0.063 4.3405,-1.5831 -0.96,-2.5012 -5.0778,0.9436"
         id="path10-7-8-1-8-3-4-3-9-4-8-9-0-51-7-1-9"
         sodipodi:nodetypes="ccccc" /><path
         style="fill:#4d4d4d;stroke:none;stroke-width:1.85752;stroke-opacity:0"
         d="m 1063.1729,-1570.2126 14.7891,-27.8927 -93.51041,-57.2545 17.44331,47.2201"
         id="path102-04-2-7-9-6-0-9-1-8-6-7-2-9-9-7-6-64-1-1-4-8"
         sodipodi:nodetypes="cccc" /><path
         style="fill:#999999;stroke:none;stroke-width:1.3919"
         d="m 1063.173,-1570.2131 14.789,-27.8922 58.0855,-33.8186 -34.7924,39.3051 v 0 l -38.0822,22.4057"
         id="path86-5-7-1-3-0-2-6-6-2-2-7-1-2-8-8-33-2-0-4-4-3-5-5"
         sodipodi:nodetypes="cccccc" /><path
         style="fill:#b3b3b3;stroke-width:15;stroke-linecap:round"
         d="m 1084.9753,-1602.1841 -7.0133,4.0788 -93.48971,-57.2389 6.9848,-4.0944"
         id="path58-3-7-9"
         sodipodi:nodetypes="cccc" /><path
         style="fill:#b3b3b3;stroke-width:15;stroke-linecap:round"
         d="m 1070.9487,-1602.1841 7.0133,4.0788 58.0855,-33.8186 -6.9848,-4.0944"
         id="path58-4-5-4-1-2"
         sodipodi:nodetypes="cccc" /></g></g></svg>
