<?xml version="1.0" encoding="UTF-8" standalone="no"?>
<!-- Created with Inkscape (http://www.inkscape.org/) -->

<svg
   width="97.566132mm"
   height="73.990799mm"
   viewBox="0 0 97.566132 73.990799"
   version="1.1"
   id="svg1"
   inkscape:version="1.3 (0e150ed6c4, 2023-07-21)"
   sodipodi:docname="DWARF - GOBLINS all sprites.svg"
   xml:space="preserve"
   xmlns:inkscape="http://www.inkscape.org/namespaces/inkscape"
   xmlns:sodipodi="http://sodipodi.sourceforge.net/DTD/sodipodi-0.dtd"
   xmlns="http://www.w3.org/2000/svg"
   xmlns:svg="http://www.w3.org/2000/svg"><sodipodi:namedview
     id="namedview1"
     pagecolor="#ffffff"
     bordercolor="#000000"
     borderopacity="0.25"
     inkscape:showpageshadow="2"
     inkscape:pageopacity="0.0"
     inkscape:pagecheckerboard="0"
     inkscape:deskcolor="#d1d1d1"
     inkscape:document-units="mm"
     inkscape:zoom="0.12267851"
     inkscape:cx="10873.95"
     inkscape:cy="2058.2251"
     inkscape:window-width="1920"
     inkscape:window-height="991"
     inkscape:window-x="-9"
     inkscape:window-y="-9"
     inkscape:window-maximized="1"
     inkscape:current-layer="layer1" /><defs
     id="defs1"><filter
       style="color-interpolation-filters:sRGB"
       inkscape:label="Blur"
       id="filter125"
       x="-0.16311861"
       y="-0.24004417"
       width="1.3262372"
       height="1.4800883"><feGaussianBlur
         stdDeviation="5 5"
         result="blur"
         id="feGaussianBlur125" /></filter><filter
       style="color-interpolation-filters:sRGB"
       inkscape:label="Blur"
       id="filter127"
       x="-0.16311861"
       y="-0.24004417"
       width="1.3262372"
       height="1.4800883"><feGaussianBlur
         stdDeviation="5 5"
         result="blur"
         id="feGaussianBlur127" /></filter></defs><g
     inkscape:label="Capa 1"
     inkscape:groupmode="layer"
     id="layer1"
     transform="translate(-2864.1251,223.05291)"><g
       id="g59"
       transform="translate(-64.701632,17.128916)"><path
         id="path190-7-9-6-0"
         style="fill:#ffffff;fill-opacity:1;stroke-width:0.255697;-inkscape-stroke:none;filter:url(#filter125)"
         d="m 3002.2047,-228.18183 -8.5907,6.6989 h -5e-4 l -2.3115,3.27 -5.2824,-3.2313 -8.2759,-6.4373 -19.1405,3.4106 -13.1919,14.8839 -3.7822,6.998 -0.8026,10.2666 21.4013,13.7624 9.6423,-6.2688 4.901,3.3289 5.7805,3.3089 13.3946,-0.7571 7.2156,-1.5864 3.1693,-4.6726 0.06,-0.2656 4.1697,-3.0231 2.8903,-4.8834 0.9415,-6.0637 -1.4784,-4.175 -1.7265,-1.0077 -0.9705,-0.1131 0.5514,4.5924 -1.8867,4.9134 -5.1341,0.3783 0.9684,2.0531 -1.8846,-3.9315 -3.5765,-6.9314 1.1957,-7.3355 8.292,-3.5879 2.7539,-7.9328 z m -25.9147,13.9186 0.2982,6.7055 3.3476,2.5404 -3.3481,-2.5399 z m 14.8875,29.1031 6.6021,2.2448 v 5e-4 z" /><path
         id="path190-7-9-6-0-77"
         style="fill:#ffffff;fill-opacity:1;stroke-width:0.255697;-inkscape-stroke:none;filter:url(#filter127)"
         d="m 3002.2047,-228.18183 -8.5906,6.6989 h -6e-4 l -2.3114,3.27 -5.2824,-3.2313 -8.276,-6.4373 -19.1404,3.4106 -13.192,14.8839 -3.7822,6.998 -0.8025,10.2666 21.4013,13.7624 9.6423,-6.2688 4.901,3.3289 5.7805,3.3089 13.3945,-0.7571 7.2156,-1.5864 3.1693,-4.6726 0.06,-0.2656 4.1698,-3.0231 2.8902,-4.8834 0.9416,-6.0637 -1.4785,-4.175 -1.7265,-1.0077 -0.9705,-0.1131 0.5514,4.5924 -1.8867,4.9134 -5.134,0.3783 0.9684,2.0531 -1.8847,-3.9315 -3.5765,-6.9314 1.1958,-7.3355 8.292,-3.5879 2.7538,-7.9328 z m -25.9147,13.9186 0.2982,6.7055 3.3476,2.5404 -3.3481,-2.5399 z m 14.8875,29.1031 6.6022,2.2448 v 5e-4 z" /></g></g></svg>
