<?xml version="1.0" encoding="UTF-8" standalone="no"?>
<!-- Created with Inkscape (http://www.inkscape.org/) -->

<svg
   width="123.98067mm"
   height="125.69462mm"
   viewBox="0 0 123.98067 125.69462"
   version="1.1"
   id="svg1"
   inkscape:version="1.3.2 (091e20e, 2023-11-25, custom)"
   sodipodi:docname="ALL sprites DWARF - GOBLINS.svg"
   xml:space="preserve"
   xmlns:inkscape="http://www.inkscape.org/namespaces/inkscape"
   xmlns:sodipodi="http://sodipodi.sourceforge.net/DTD/sodipodi-0.dtd"
   xmlns="http://www.w3.org/2000/svg"
   xmlns:svg="http://www.w3.org/2000/svg"><sodipodi:namedview
     id="namedview1"
     pagecolor="#ffffff"
     bordercolor="#000000"
     borderopacity="0.25"
     inkscape:showpageshadow="2"
     inkscape:pageopacity="0.0"
     inkscape:pagecheckerboard="0"
     inkscape:deskcolor="#d1d1d1"
     inkscape:document-units="mm"
     inkscape:zoom="0.24535702"
     inkscape:cx="-6527.2231"
     inkscape:cy="2406.697"
     inkscape:window-width="1920"
     inkscape:window-height="991"
     inkscape:window-x="-9"
     inkscape:window-y="-9"
     inkscape:window-maximized="1"
     inkscape:current-layer="layer1" /><defs
     id="defs1" /><g
     inkscape:label="Capa 1"
     inkscape:groupmode="layer"
     id="layer1"
     transform="translate(-2005.4668,413.12188)"><path
       id="path187-85-4-7-7-6-3-7-2-9-7-0-8-4-5"
       style="fill:#ffffff;fill-opacity:1;stroke-width:0.3;-inkscape-stroke:none"
       d="m 2044.5363,-413.12187 -19.2768,12.347 -7.3174,28.2567 8.2176,4.7579 -11.6654,5.9185 -7.4843,19.7843 -0.1866,17.8201 7.3897,4.0695 -7.3897,-4.069 -1.3565,7.2497 9.448,5.2854 4.6772,-5.8936 7.7174,1.5435 -3.3672,-8.185 -6.8596,2.8691 6.8596,-2.8696 4.1537,-11.9797 10.7606,5.4085 3.7036,4.6566 1.323,8.9297 3.1093,8.9958 -0.1317,8.1706 7.8108,3.8819 -5e-4,5e-4 -7.8104,-3.8824 h -5e-4 l -0.7483,7.0161 8.7933,5.6125 5.6126,-7.7173 7.9514,-0.8889 -3.6953,-7.9979 h 5e-4 l -2.8329,-6.9071 3.175,-15.0812 11.0463,-2.5797 2.6898,17.0139 6.8755,2.2454 7.3665,-4.6308 -1.3803,-4.3263 0.3747,-6.9691 15.7158,-0.8883 8.4651,-1.8614 3.7186,-5.4818 0.07,-0.3116 4.8932,-3.5471 3.3911,-5.7294 1.1048,-7.1143 -1.7348,-4.8984 -2.0257,-1.1823 -1.1384,-0.1323 0.6464,5.3878 -2.2133,5.7645 -6.0238,0.4444 1.1038,2.3399 -2.1782,-4.5444 -4.1972,-8.1324 1.4036,-8.6062 9.7285,-4.2095 3.2314,-9.3075 -10.9022,-6.6414 -10.0789,7.8589 h -6e-4 l -1.9166,2.712 -0.7948,1.1245 -6.1981,-3.7915 -9.71,-7.5525 -14.4952,2.5833 -8.0626,-19.9239 z m 41.1918,103.7818 -6.8755,-2.2449 -0.8656,5.5191 8.4191,4.3734 3.9522,-6.4782 6.1041,-0.1638 -3.3678,-5.6358 z m -14.4482,-64.7155 7.2967,0.5432 0.011,0.011 -0.011,-0.01 -7.2977,-0.5432 z m 13.4323,6.118 0.017,0.014 0.3638,8.2021 -5e-4,-6e-4 -0.3638,-8.201 z"
       inkscape:export-filename="unit_rider_dwarf_tint.svg"
       inkscape:export-xdpi="96"
       inkscape:export-ydpi="96" /></g></svg>
