<?xml version="1.0" encoding="UTF-8" standalone="no"?>
<!-- Created with Inkscape (http://www.inkscape.org/) -->

<svg
   width="147.98128mm"
   height="149.69521mm"
   viewBox="0 0 147.98128 149.69521"
   version="1.1"
   id="svg1"
   inkscape:version="1.3.2 (091e20e, 2023-11-25, custom)"
   sodipodi:docname="ALL sprites DWARF - GOBLINS.svg"
   xml:space="preserve"
   xmlns:inkscape="http://www.inkscape.org/namespaces/inkscape"
   xmlns:sodipodi="http://sodipodi.sourceforge.net/DTD/sodipodi-0.dtd"
   xmlns="http://www.w3.org/2000/svg"
   xmlns:svg="http://www.w3.org/2000/svg"><sodipodi:namedview
     id="namedview1"
     pagecolor="#ffffff"
     bordercolor="#000000"
     borderopacity="0.25"
     inkscape:showpageshadow="2"
     inkscape:pageopacity="0.0"
     inkscape:pagecheckerboard="0"
     inkscape:deskcolor="#d1d1d1"
     inkscape:document-units="mm"
     inkscape:zoom="0.24535702"
     inkscape:cx="-6527.2231"
     inkscape:cy="2406.697"
     inkscape:window-width="1920"
     inkscape:window-height="991"
     inkscape:window-x="-9"
     inkscape:window-y="-9"
     inkscape:window-maximized="1"
     inkscape:current-layer="layer1" /><defs
     id="defs1"><filter
       style="color-interpolation-filters:sRGB"
       inkscape:label="Blur"
       id="filter182"
       x="-0.096789219"
       y="-0.095469495"
       width="1.1935784"
       height="1.190939"><feGaussianBlur
         stdDeviation="5 5"
         result="blur"
         id="feGaussianBlur182" /></filter><filter
       style="color-interpolation-filters:sRGB"
       inkscape:label="Blur"
       id="filter183"
       x="-0.096789219"
       y="-0.095469495"
       width="1.1935784"
       height="1.190939"><feGaussianBlur
         stdDeviation="5 5"
         result="blur"
         id="feGaussianBlur183" /></filter></defs><g
     inkscape:label="Capa 1"
     inkscape:groupmode="layer"
     id="layer1"
     transform="translate(-1790.545,439.92409)"><g
       id="g183"
       transform="translate(1086.5825,2477.9946)"
       inkscape:export-filename="unit_rider_dwarf_outline.svg"
       inkscape:export-xdpi="96"
       inkscape:export-ydpi="96"><path
         id="path187-85-4-7-7-6-3-7-2-9-7-0-8-4-5-2"
         style="fill:#ffffff;fill-opacity:1;stroke-width:0.3;-inkscape-stroke:none;filter:url(#filter182)"
         d="m 755.03195,-2905.9187 -19.27686,12.347 -7.31738,28.2567 8.21758,4.7579 -11.66543,5.9185 -7.4843,19.7843 -0.18655,17.8201 7.38973,4.0695 -7.38973,-4.069 -1.35651,7.2497 9.448,5.2854 4.67724,-5.8936 7.71735,1.5435 -3.36723,-8.185 -6.85953,2.8691 6.85953,-2.8696 4.15375,-11.9797 10.76058,5.4085 3.70365,4.6566 1.32292,8.9297 3.10937,8.9958 -0.13177,8.1706 7.81089,3.8819 -5.2e-4,5e-4 -7.81037,-3.8824 h -5.2e-4 l -0.74828,7.0161 8.79327,5.6125 5.61257,-7.7173 7.95146,-0.8889 -3.69539,-7.9979 h 5.2e-4 l -2.8329,-6.9071 3.175,-15.0812 11.04635,-2.5797 2.68976,17.0139 6.87555,2.2454 7.36648,-4.6308 -1.38028,-4.3263 0.37465,-6.9691 15.71584,-0.8883 8.46512,-1.8614 3.71859,-5.4818 0.07,-0.3116 4.8932,-3.5471 3.3911,-5.7294 1.1048,-7.1143 -1.7348,-4.8984 -2.0257,-1.1823 -1.1384,-0.1323 0.6464,5.3878 -2.2133,5.7645 -6.02388,0.4444 1.10381,2.3399 -2.17816,-4.5444 -4.19716,-8.1324 1.40353,-8.6062 9.72856,-4.2095 3.2314,-9.3075 -10.90221,-6.6414 -10.07897,7.8589 h -5.1e-4 l -1.91668,2.712 -0.79479,1.1245 -6.19807,-3.7915 -9.71,-7.5525 -14.49524,2.5833 -8.06256,-19.9239 z m 41.1918,103.7818 -6.87555,-2.2449 -0.86558,5.5191 8.41913,4.3734 3.95221,-6.4782 6.10402,-0.1638 -3.36775,-5.6358 z m -14.44821,-64.7155 7.29671,0.5432 0.0114,0.011 -0.0114,-0.01 -7.29775,-0.5432 z m 13.43225,6.118 0.0165,0.015 0.3638,8.2021 -5.2e-4,-6e-4 -0.3638,-8.201 z" /><path
         id="path187-85-4-7-7-6-3-7-2-9-7-0-8-4-5-4"
         style="fill:#ffffff;fill-opacity:1;stroke-width:0.3;-inkscape-stroke:none;filter:url(#filter183)"
         d="m 755.03247,-2905.9181 -19.27686,12.347 -7.31738,28.2567 8.21758,4.7579 -11.66543,5.9185 -7.4843,19.7843 -0.18655,17.8201 7.38973,4.0695 -7.38973,-4.069 -1.35651,7.2497 9.448,5.2854 4.67724,-5.8936 7.71735,1.5435 -3.36723,-8.185 -6.85953,2.8691 6.85953,-2.8696 4.15375,-11.9797 10.76058,5.4085 3.70365,4.6566 1.32292,8.9297 3.10937,8.9958 -0.13177,8.1706 7.81089,3.8819 -5.2e-4,5e-4 -7.81037,-3.8824 h -5.2e-4 l -0.74828,7.0161 8.79327,5.6125 5.61257,-7.7173 7.95146,-0.8889 -3.69539,-7.9979 h 5.2e-4 l -2.8329,-6.9071 3.175,-15.0812 11.04635,-2.5797 2.68976,17.0139 6.87555,2.2454 7.36648,-4.6308 -1.38028,-4.3263 0.37465,-6.9691 15.71584,-0.8883 8.46512,-1.8614 3.71859,-5.4818 0.07,-0.3116 4.8932,-3.5471 3.3911,-5.7294 1.1048,-7.1143 -1.7348,-4.8984 -2.0257,-1.1823 -1.1384,-0.1323 0.6464,5.3878 -2.2133,5.7645 -6.02388,0.4444 1.10381,2.3399 -2.17816,-4.5444 -4.19716,-8.1324 1.40353,-8.6062 9.72856,-4.2095 3.2314,-9.3075 -10.90221,-6.6414 -10.07897,7.8589 h -5.1e-4 l -1.91668,2.712 -0.79479,1.1245 -6.19807,-3.7915 -9.71,-7.5525 -14.49524,2.5833 -8.06256,-19.9239 z m 41.1918,103.7818 -6.87555,-2.2449 -0.86558,5.5191 8.41913,4.3734 3.95221,-6.4782 6.10402,-0.1638 -3.36775,-5.6358 z m -14.44821,-64.7155 7.29671,0.5432 0.0114,0.011 -0.0114,-0.01 -7.29775,-0.5432 z m 13.43225,6.118 0.0165,0.015 0.3638,8.2021 -5.2e-4,-6e-4 -0.3638,-8.201 z" /></g></g></svg>
