<?xml version="1.0" encoding="UTF-8" standalone="no"?>
<!-- Created with Inkscape (http://www.inkscape.org/) -->

<svg
   width="193.8631mm"
   height="132.94321mm"
   viewBox="0 0 193.8631 132.94321"
   version="1.1"
   id="svg1"
   inkscape:version="1.3.2 (091e20e, 2023-11-25, custom)"
   sodipodi:docname="ALL sprites DWARF - GOBLINS.svg"
   xml:space="preserve"
   xmlns:inkscape="http://www.inkscape.org/namespaces/inkscape"
   xmlns:sodipodi="http://sodipodi.sourceforge.net/DTD/sodipodi-0.dtd"
   xmlns="http://www.w3.org/2000/svg"
   xmlns:svg="http://www.w3.org/2000/svg"><sodipodi:namedview
     id="namedview1"
     pagecolor="#ffffff"
     bordercolor="#000000"
     borderopacity="0.25"
     inkscape:showpageshadow="2"
     inkscape:pageopacity="0.0"
     inkscape:pagecheckerboard="0"
     inkscape:deskcolor="#d1d1d1"
     inkscape:document-units="mm"
     inkscape:zoom="0.24535702"
     inkscape:cx="-6527.2231"
     inkscape:cy="2406.697"
     inkscape:window-width="1920"
     inkscape:window-height="991"
     inkscape:window-x="-9"
     inkscape:window-y="-9"
     inkscape:window-maximized="1"
     inkscape:current-layer="layer1" /><defs
     id="defs1"><filter
       style="color-interpolation-filters:sRGB"
       inkscape:label="Blur"
       id="filter173"
       x="-0.070645159"
       y="-0.11014914"
       width="1.1412903"
       height="1.2202983"><feGaussianBlur
         stdDeviation="5 5"
         result="blur"
         id="feGaussianBlur173" /></filter><filter
       style="color-interpolation-filters:sRGB"
       inkscape:label="Blur"
       id="filter174"
       x="-0.070645175"
       y="-0.11014914"
       width="1.1412904"
       height="1.2202983"><feGaussianBlur
         stdDeviation="5 5"
         result="blur"
         id="feGaussianBlur174" /></filter></defs><g
     inkscape:label="Capa 1"
     inkscape:groupmode="layer"
     id="layer1"
     transform="translate(-1760.1513,224.63979)"><g
       id="g175"
       transform="translate(1138.567,2629.354)"
       inkscape:export-filename="unit_rider_goblin_outline.svg"
       inkscape:export-xdpi="96"
       inkscape:export-ydpi="96"><path
         id="path1137-5-8-5-6-3"
         style="fill:#ffffff;fill-opacity:1;stroke:none;stroke-width:2.15321;-inkscape-stroke:none;filter:url(#filter173)"
         d="m 726.02889,-2841.9938 -19.97501,12.7951 -7.583,29.2804 v 5e-4 l 1.63607,0.9472 -4.92373,10.6619 0.11783,1.7575 -2.61431,7.1582 -9.078,2.3828 -7.90443,-10.8071 -2.22209,-10.2862 -2.56108,-10.9662 -8.8899,-8.4135 -11.08253,0.4129 -10.46809,10.8996 -6.89622,19.6371 9.32501,-13.1517 8.29872,-6.6947 6.81405,-2.0143 4.58525,4.5129 3.44269,22.0741 v 5e-4 l 10.99106,14.1992 20.29592,0.9353 0.10748,-0.1411 1.07849,3.62 8.38244,7.2765 -3.11351,10.5647 6.82439,8.9313 -1.58647,-9.0227 7.50962,7.2522 -0.62115,-8.325 5.99757,2.5151 -1.30225,-6.4074 10.71563,2.0386 -0.19844,0.1597 7.32152,10.1131 11.04325,5.0467 -3.68349,-6.3665 10.5425,2.9962 -7.28431,-7.3396 7.60212,-1.0852 h 5.2e-4 l 11.73624,-3.9238 10.78797,4.1212 0.18293,8.4982 5.28805,-2.713 1.3131,-8.0249 1.50068,0.2295 0.83975,6.0094 4.56716,-2.297 v -4.0199 l 4.2261,-0.4915 5.46323,-0.8097 0.8692,-4.778 -2.8944,-1.786 -6.54895,-7.0993 -2.99414,-8.0951 -10.23968,-5.8637 -1.07694,-0.3881 3.32796,-1.8516 1.4919,-13.5227 h -6.98458 l -7.79488,3.7089 v 8.0765 l -10.49238,-8.846 -8.5695,-10.8495 5.93607,-3.7703 -10.52287,-26.0041 z" /><path
         id="path1137-5-8-5-6-3-2"
         style="fill:#ffffff;fill-opacity:1;stroke:none;stroke-width:2.15321;-inkscape-stroke:none;filter:url(#filter174)"
         d="m 726.02888,-2841.9938 -19.97501,12.7951 -7.583,29.2804 v 5e-4 l 1.63607,0.9472 -4.92373,10.6619 0.11783,1.7575 -2.61431,7.1582 -9.078,2.3828 -7.90443,-10.8071 -2.22209,-10.2862 -2.56108,-10.9662 -8.8899,-8.4135 -11.08253,0.4129 -10.46809,10.8996 -6.89622,19.6371 9.32501,-13.1517 8.29872,-6.6947 6.81405,-2.0143 4.58525,4.5129 3.44269,22.0741 v 5e-4 l 10.99106,14.1992 20.29592,0.9353 0.10748,-0.1411 1.07849,3.62 8.38244,7.2765 -3.11351,10.5647 6.82439,8.9313 -1.58647,-9.0227 7.50962,7.2522 -0.62115,-8.325 5.99757,2.5151 -1.30225,-6.4074 10.71563,2.0386 -0.19844,0.1597 7.32152,10.1131 11.04325,5.0467 -3.68349,-6.3665 10.5425,2.9962 -7.28431,-7.3396 7.60211,-1.0852 h 5e-4 l 11.7363,-3.9238 10.7879,4.1212 0.183,8.4982 5.288,-2.713 1.3131,-8.0249 1.5007,0.2295 0.8398,6.0094 4.5671,-2.297 v -4.0199 l 4.2261,-0.4915 5.4632,-0.8097 0.8692,-4.778 -2.8944,-1.786 -6.5489,-7.0993 -2.9941,-8.0951 -10.2397,-5.8637 -1.077,-0.3881 3.328,-1.8516 1.4919,-13.5227 h -6.9846 l -7.7949,3.7089 v 8.0765 l -10.4924,-8.846 -8.56945,-10.8494 5.93605,-3.7704 -10.52285,-26.0041 z" /></g></g></svg>
