<?xml version="1.0" encoding="UTF-8" standalone="no"?>
<!-- Created with Inkscape (http://www.inkscape.org/) -->

<svg
   width="123.98054mm"
   height="125.69459mm"
   viewBox="0 0 123.98054 125.69459"
   version="1.1"
   id="svg1"
   inkscape:version="1.3 (0e150ed6c4, 2023-07-21)"
   sodipodi:docname="DWARF - GOBLINS all sprites.svg"
   inkscape:dataloss="true"
   xmlns:inkscape="http://www.inkscape.org/namespaces/inkscape"
   xmlns:sodipodi="http://sodipodi.sourceforge.net/DTD/sodipodi-0.dtd"
   xmlns:xlink="http://www.w3.org/1999/xlink"
   xmlns="http://www.w3.org/2000/svg"
   xmlns:svg="http://www.w3.org/2000/svg">
  <sodipodi:namedview
     id="namedview1"
     pagecolor="#ffffff"
     bordercolor="#000000"
     borderopacity="0.25"
     inkscape:showpageshadow="2"
     inkscape:pageopacity="0.0"
     inkscape:pagecheckerboard="0"
     inkscape:deskcolor="#d1d1d1"
     inkscape:document-units="mm"
     inkscape:zoom="0.24535703"
     inkscape:cx="8760.7029"
     inkscape:cy="-3397.0904"
     inkscape:window-width="1920"
     inkscape:window-height="991"
     inkscape:window-x="-9"
     inkscape:window-y="-9"
     inkscape:window-maximized="1"
     inkscape:current-layer="layer1" />
  <defs
     id="defs1">
    <linearGradient
       id="linearGradient504"
       inkscape:collect="always">
      <stop
         style="stop-color:#422b00;stop-opacity:1;"
         offset="0.58941108"
         id="stop505" />
      <stop
         style="stop-color:#b7883f;stop-opacity:1;"
         offset="0.8069666"
         id="stop507" />
    </linearGradient>
    <linearGradient
       id="linearGradient501"
       inkscape:collect="always">
      <stop
         style="stop-color:#b7883f;stop-opacity:1;"
         offset="0.3506614"
         id="stop500" />
      <stop
         style="stop-color:#261d0f;stop-opacity:1;"
         offset="1"
         id="stop501" />
    </linearGradient>
    <linearGradient
       id="linearGradient503"
       inkscape:collect="always">
      <stop
         style="stop-color:#261b10;stop-opacity:1;"
         offset="0"
         id="stop502" />
      <stop
         style="stop-color:#b7883f;stop-opacity:1;"
         offset="1"
         id="stop503" />
    </linearGradient>
    <linearGradient
       inkscape:collect="always"
       xlink:href="#linearGradient504"
       id="linearGradient175"
       gradientUnits="userSpaceOnUse"
       x1="-2252.3667"
       y1="1082.1346"
       x2="-2170.7024"
       y2="1082.1346"
       gradientTransform="translate(3290.8876,-3930.8151)" />
    <radialGradient
       inkscape:collect="always"
       xlink:href="#linearGradient501"
       id="radialGradient263-41-1-6-03-6-5-3-8-4-4-7-4-6"
       cx="-1443.8395"
       cy="1019.3883"
       fx="-1443.8395"
       fy="1019.3883"
       r="11.84665"
       gradientTransform="matrix(1.1563513,0.97557182,-0.8501036,1.0076332,3667.9212,-2464.836)"
       gradientUnits="userSpaceOnUse" />
    <linearGradient
       inkscape:collect="always"
       xlink:href="#linearGradient503"
       id="linearGradient176"
       gradientUnits="userSpaceOnUse"
       gradientTransform="translate(2580.5992,-3861.0762)"
       x1="-1484.6598"
       y1="1008.8232"
       x2="-1475.3933"
       y2="1018.7737" />
  </defs>
  <g
     inkscape:label="Capa 1"
     inkscape:groupmode="layer"
     id="layer1"
     transform="translate(-3471.7916,741.47441)">
    <g
       id="g182"
       transform="translate(2442.2977,2149.8923)">
      <path
         style="fill:#261b0c;fill-opacity:1;stroke-width:0.3;-inkscape-stroke:none"
         d="m 1030.8502,-2802.4818 -1.3564,7.2497 9.448,5.2853 4.6772,-5.8933 7.7174,1.5435 -3.3675,-8.1852 -9.7287,4.0692 z"
         id="path187-85-4-7-7-6-3-7-2-9-7-0-8-4" />
      <path
         style="fill:#261b0c;fill-opacity:1;stroke-width:0.3;-inkscape-stroke:none"
         d="m 1070.8872,-2778.3005 -0.7484,7.0158 8.7932,5.6126 5.6127,-7.7174 7.9513,-0.8886 -3.6951,-7.9981 -10.1027,7.8577 z"
         id="path188-7-5-9-2-4-9-3-6-8-7-9-8-6" />
      <path
         style="fill:#261b0c;fill-opacity:1;stroke-width:0.3;-inkscape-stroke:none"
         d="m 1102.8794,-2789.8299 -0.8653,5.5191 8.419,4.3732 3.9522,-6.4779 6.1038,-0.1637 -3.3676,-5.6361 -7.3666,4.6305 z"
         id="path189-26-9-0-5-1-2-2-1-3-9-6-7-7" />
      <path
         id="path190-7-8-5-8-1-8-0-03-3-6-2-2-0"
         style="fill:#b7883f;fill-opacity:1;stroke-width:0.3;-inkscape-stroke:none"
         d="m 1129.0952,-2854.3037 -2.7119,3.8365 -6.1981,-3.7915 -10.4085,0.2298 -3.7167,5.5703 2.6954,2.2908 0.3638,8.2021 5.6224,4.2664 -0.1654,9.9219 6.5485,10.3518 12.8581,4.3724 7.2497,-7.6709 3.5843,1.416 0.6955,-3.1229 -3.391,-2.2215 -2.2112,-4.6132 -4.1967,-8.1323 1.4031,-8.6062 3.0168,-2.2334 1.0992,-8.5241 z m -36.5993,32.5768 -12.084,10.7818 -1.3229,4.6302 -0.3907,31.8962 10.1028,-7.8574 -2.8329,-6.907 3.175,-15.0813 11.0463,-2.5797 2.8443,-4.8286 z m -44.8262,5.0271 -8.9958,11.9724 -0.4336,6.3149 9.7286,-4.0696 4.2649,-12.2995 z m 61.664,9.3069 0.4211,19.8081 7.3665,-4.6307 -1.3798,-4.3263 0.3742,-6.9691 z"
         sodipodi:nodetypes="ccccccccccccccccccccccccccccccccccccccccccc" />
      <path
         id="path199-2-9-8-0-9-76-3-7-3-6-3-4-1"
         style="fill:url(#linearGradient175);fill-opacity:1;stroke-width:0.3;-inkscape-stroke:none"
         d="m 1110.4754,-2861.8114 -14.4953,2.5833 2.0924,5.1703 -2.7667,1.7575 7.2982,0.5431 3.4561,3.2985 14.1253,-5.8002 z m -21.3238,13.4194 -6.0797,3.8618 6.0384,-2.3984 z m -38.9651,2.3869 -11.6654,5.9185 4.7527,1.7797 9.804,-6.0239 z" />
      <path
         style="fill:#bca066;fill-opacity:1;stroke-width:0.27;-inkscape-stroke:none"
         d="m 1142.1212,-2820.6527 2.7467,2.2216 4.641,-3.999 2.0917,-6.6806 -1.8869,-5.4153 -1.1383,-0.1322 0.6467,5.388 -2.2137,5.7644 -6.0238,0.4443"
         id="path201-5-5-9-1-4-8-0-9-8-4-3-6-2"
         sodipodi:nodetypes="ccccccccc" />
      <path
         style="fill:#ede4cf;fill-opacity:1;stroke-width:0.27;-inkscape-stroke:none"
         d="m 1143.6556,-2811.7427 5.3229,-3.8586 3.3908,-5.7296 1.1049,-7.1142 -1.7347,-4.8984 -2.0258,-1.1825 1.8869,5.4153 -2.0917,6.6806 -4.641,3.999"
         id="path204-82-9-2-1-1-06-4-10-6-4-7-6-2"
         sodipodi:nodetypes="ccccccccc" />
      <path
         id="path207-3-1-4-4-6-5-8-1-4-0-3-4-9"
         style="fill:#704900;fill-opacity:1;stroke:none;stroke-width:0.3;-inkscape-stroke:none"
         d="m 1098.0151,-2848.6804 -8.9048,1.7518 -3.9864,1.0951 -8.4449,5.364 -0.1209,35.6655 -33.5241,-18.1756 0.07,-15.2229 1.0888,-0.6692 -5.6715,-1.2149 -7.4838,19.7843 -0.187,17.8201 7.3902,4.0695 0.4336,-6.3148 8.9958,-11.9724 15.2135,7.6466 3.7042,4.6565 1.3229,8.9297 3.1089,8.9958 -0.1318,8.1706 7.8109,3.8819 0.3907,-31.8962 1.3229,-4.6302 12.084,-10.7818 10.5379,10.0542 -2.8443,4.8286 2.6898,17.014 6.8755,2.2453 -0.4212,-19.8081 6.7821,3.882 15.7158,-0.8884 8.4656,-1.8614 3.7181,-5.4818 0.8015,-3.5657 -3.5842,-1.4159 -7.2497,7.6709 -12.8582,-4.3724 -6.5484,-10.3518 0.1654,-9.9219 -5.6224,-4.2664 z" />
      <path
         style="fill:url(#radialGradient263-41-1-6-03-6-5-3-8-4-4-7-4-6);fill-opacity:1;stroke-width:0.3;-inkscape-stroke:none"
         d="m 1129.0951,-2854.3036 10.0795,-7.8594 10.9018,6.6416 -3.2312,9.3077 -9.7286,4.2094 -10.7335,-8.4628 2.712,-3.8365"
         id="path213-9-0-4-9-5-3-8-0-1-9-4-9-5"
         sodipodi:nodetypes="ccccccc" />
      <path
         style="fill:url(#linearGradient176);fill-opacity:1;stroke-width:0.3;-inkscape-stroke:none"
         d="m 1109.119,-2837.9655 -0.3638,-8.2021 -6.1516,-5.5893 -13.3283,-0.9922 -0.5211,11.8674 5.3086,4.9345 7.9045,0.4837"
         id="path214-2-7-7-0-8-9-9-6-9-8-8-4-9" />
      <path
         style="fill:#bca066;fill-opacity:1;stroke-width:0.3;-inkscape-stroke:none"
         d="m 1125.7908,-2807.6583 -2.7836,1.1655 -5.5245,0.2324 -4.255,-1.9395 -3.2323,-7.0777 1.6041,-6.1846 2.2655,-0.049 -1.8521,5.1593 3.1642,7.1791 5.5866,2.2426 z"
         id="path202-4-0-4-4-4-7-7-1-9-2-0-4-7"
         sodipodi:nodetypes="ccccccccccc" />
      <path
         style="fill:#ede4cf;fill-opacity:1;stroke-width:0.3;-inkscape-stroke:none"
         d="m 1125.7908,-2807.6583 -1.139,-2.8215 -4.1393,-0.7016 -3.2039,-1.637 -2.783,-3.6482 0.421,-3.8354 -1.0816,-1.2092 -1.8521,5.1593 3.1642,7.1791 5.5866,2.2426 5.0271,-0.7281"
         id="path203-3-6-6-7-9-7-2-4-8-7-3-1-1"
         sodipodi:nodetypes="ccccccccccc" />
      <path
         style="fill:#ffffff;fill-opacity:1;stroke-width:0.3;-inkscape-stroke:none"
         d="m 1105.3488,-2837.0643 7.8789,3.9605 v 7.9375 l -7.8789,-3.5637 z"
         id="path211-1-92-5-9-5-0-8-9-0-4-1-9-7"
         sodipodi:nodetypes="ccccc" />
      <path
         style="fill:#000000;fill-opacity:1;stroke-width:0.3;-inkscape-stroke:none"
         d="m 1108.5338,-2827.2888 -5e-4,-8.1747 4.6923,2.3597 v 7.9375 z"
         id="path212-3-6-4-7-2-83-5-7-6-7-7-2-3"
         sodipodi:nodetypes="ccccc" />
      <rect
         style="fill:#616161;fill-opacity:1;stroke:none;stroke-width:0.046134;stroke-dasharray:none;stroke-opacity:0"
         id="rect4-4-8-1-1-4-57-5-12-33-5-1-4-7-8-7-2-5-3"
         width="14.719069"
         height="14.719069"
         x="-1966.0701"
         y="-3231.4595"
         transform="matrix(0.83839297,0.54506626,-0.83839297,0.54506626,0,0)" />
      <path
         style="fill:#000000;fill-opacity:1;stroke:none;stroke-width:0.363997;stroke-opacity:0"
         d="m 1060.8933,-2832.1545 v 15.2022 l -12.3403,-8.0228 2e-4,-14.5129 z"
         id="path1-9-3-3-3-3-0-79-5-0-9-5-4-5-2-3"
         sodipodi:nodetypes="ccccc" />
      <path
         style="fill:#666666;fill-opacity:1;stroke:none;stroke-width:0.363997;stroke-opacity:0"
         d="m 1073.2339,-2839.488 -2e-4,14.5128 -12.3404,8.0229 v -15.2022"
         id="path2-0-2-8-9-6-3-9-8-3-8-9-8-7-8-1"
         sodipodi:nodetypes="cccc" />
      <path
         id="path2-0-9-2-5-2-3-9-6-2-7-9-2-6-8-4-3-3-4"
         style="fill:#808080;fill-opacity:0;stroke:none;stroke-width:0.551699;stroke-dasharray:none;stroke-opacity:0"
         d="m 1087.9178,-2879.152 -19.3129,12.5554 v 31.2554 l 29.4676,-18.7166 z"
         sodipodi:nodetypes="ccccc" />
      <path
         id="path2-0-9-9-4-5-7-5-1-8-27-07-2-9-9-0-7-5-5-9"
         style="fill:#000000;fill-opacity:0.35;stroke:none;stroke-width:0.551699;stroke-dasharray:none;stroke-opacity:0"
         d="m 1049.2868,-2879.0192 19.3181,12.4226 v 31.2554 l -26.6357,-15.4219 z"
         sodipodi:nodetypes="ccccc" />
      <path
         style="fill:#000000;fill-opacity:0.3;stroke:none;stroke-width:0.308946"
         d="m 1049.2867,-2879.0192 19.3182,12.4226 19.3129,-12.5554 -19.3546,-12.2147"
         id="path19-9-8-3-4-1-1-6-7-7-0-8-7" />
      <rect
         style="fill:#454545;fill-opacity:1;stroke:none;stroke-width:0.046134;stroke-dasharray:none;stroke-opacity:1"
         id="rect4-9-3-7-9-8-8-9-6-8-02-2-4-3-3-1-8-9-8-3"
         width="14.719069"
         height="14.719069"
         x="-1979.3831"
         y="-3244.7725"
         transform="matrix(0.83839297,0.54506626,-0.83839297,0.54506626,0,0)" />
    </g>
  </g>
</svg>
