<?xml version="1.0" encoding="UTF-8" standalone="no"?>
<!-- Created with Inkscape (http://www.inkscape.org/) -->

<svg
   width="87.593102mm"
   height="94.851151mm"
   viewBox="0 0 87.593102 94.851151"
   version="1.1"
   id="svg1"
   inkscape:version="1.3 (0e150ed6c4, 2023-07-21)"
   sodipodi:docname="DWARF - GOBLINS all sprites.svg"
   xml:space="preserve"
   xmlns:inkscape="http://www.inkscape.org/namespaces/inkscape"
   xmlns:sodipodi="http://sodipodi.sourceforge.net/DTD/sodipodi-0.dtd"
   xmlns:xlink="http://www.w3.org/1999/xlink"
   xmlns="http://www.w3.org/2000/svg"
   xmlns:svg="http://www.w3.org/2000/svg"><sodipodi:namedview
     id="namedview1"
     pagecolor="#ffffff"
     bordercolor="#000000"
     borderopacity="0.25"
     inkscape:showpageshadow="2"
     inkscape:pageopacity="0.0"
     inkscape:pagecheckerboard="0"
     inkscape:deskcolor="#d1d1d1"
     inkscape:document-units="mm"
     inkscape:zoom="0.12267851"
     inkscape:cx="10873.95"
     inkscape:cy="2058.2251"
     inkscape:window-width="1920"
     inkscape:window-height="991"
     inkscape:window-x="-9"
     inkscape:window-y="-9"
     inkscape:window-maximized="1"
     inkscape:current-layer="layer1" /><defs
     id="defs1"><linearGradient
       id="linearGradient1146"
       inkscape:collect="always"><stop
         style="stop-color:#bd7a6d;stop-opacity:1;"
         offset="0"
         id="stop1146" /><stop
         style="stop-color:#faaf9c;stop-opacity:1;"
         offset="1"
         id="stop1147" /></linearGradient><linearGradient
       inkscape:collect="always"
       xlink:href="#linearGradient1146"
       id="linearGradient51"
       gradientUnits="userSpaceOnUse"
       gradientTransform="matrix(0.9,0,0,0.9,-1521.9256,-2264.1895)"
       x1="5164.4023"
       y1="1539.5616"
       x2="5189.6821"
       y2="1539.5616" /></defs><g
     inkscape:label="Capa 1"
     inkscape:groupmode="layer"
     id="layer1"
     transform="translate(-2448.9568,70.977697)"><g
       id="g286"
       transform="matrix(1.2936065,0,0,1.2936066,-1388.1098,1050.2581)"><g
         id="g289"><g
           id="g19-9-94-7-1-1"
           transform="translate(3017.3705,-964.33276)"
           style="fill:#ffffff;fill-opacity:1"><path
             id="path2-0-9-2-5-2-3-9-5-9-0-1"
             style="fill:#ffffff;fill-opacity:1;stroke:none;stroke-width:0.472478;stroke-dasharray:none;stroke-opacity:1"
             d="m -28.382082,144.13674 -16.544142,-10.63923 -6.266801,24.19904 22.811011,13.20747 25.2361856,-16.029 -8.6966266,-21.49119 z"
             sodipodi:nodetypes="ccccccc" /></g><g
           id="g19-9-9-3-1-8-3"
           transform="translate(3017.3706,-964.33257)"><path
             id="path2-0-9-2-5-2-3-9-6-9-0-5-1"
             style="fill:#808080;fill-opacity:0;stroke:none;stroke-width:0.472478;stroke-dasharray:none;stroke-opacity:0"
             d="m -11.842525,133.38401 -16.539707,10.75255 v 26.76725 l 25.2362199,-16.02898 z"
             sodipodi:nodetypes="ccccc" /><path
             id="path2-0-9-9-4-5-7-5-1-8-28-8-9-8"
             style="fill:#000000;fill-opacity:0.35;stroke:none;stroke-width:0.472478;stroke-dasharray:none;stroke-opacity:0"
             d="m -44.926352,133.49772 16.54412,10.63884 v 26.76725 L -51.193114,157.6964 Z"
             sodipodi:nodetypes="ccccc" /></g><g
           id="g285"
           transform="translate(-153.5461,33.458128)"><path
             style="fill:#f5f5f5;fill-opacity:1;stroke:none;stroke-width:2.15321;-inkscape-stroke:none"
             d="m 3162.9798,-862.75351 0.3887,18.04482 5.2883,-2.71287 2.1053,-12.86514 1.5481,11.079 4.5671,-2.29698 v -6.84369"
             id="path1137-5-8-0-1-0" /><path
             style="fill:#faaf9c;fill-opacity:1;stroke:none;stroke-width:0.9;-inkscape-stroke:none"
             d="m 3157.9488,-886.33432 -4.2264,-10.16712 7.7946,-3.70845 h 6.9846 l -1.4917,13.52223 -6.5138,3.6243"
             id="path1132-5-2-8-8-0"
             sodipodi:nodetypes="cccccc" /><path
             style="fill:#95949a;fill-opacity:1;stroke:none;stroke-width:0.9;-inkscape-stroke:none"
             d="m 3125.9904,-864.29338 1.7232,-5.25723 10.7574,-13.51275 15.2514,-5.36094 11.0365,3.97665 10.2396,5.8635 2.9941,8.09496 6.5489,7.09938 -3.4383,7.37415 -8.4376,0.98082 -9.2474,-1.41228 -0.2328,3.24009 -10.7875,-4.12119 -9.8633,3.67406"
             id="path1134-4-7-0-5-1"
             sodipodi:nodetypes="cccccccccccccc" /><g
             id="g1128-4-8-2-8-7"
             transform="matrix(0.9,0,0,0.9,-2272.0151,-2850.7405)"><path
               style="fill:#d5dfbe;fill-opacity:1;stroke-width:0.3;-inkscape-stroke:none"
               d="m 6036.1236,2196.2695 7.8789,3.9605 v 7.9375 l -7.8789,-3.5637 z"
               id="path211-1-92-5-9-5-0-8-9-0-5-5-8-7-1-7"
               sodipodi:nodetypes="ccccc" /><path
               style="fill:#7b0c18;fill-opacity:1;stroke-width:0.3;-inkscape-stroke:none"
               d="m 6039.3086,2206.045 -5e-4,-8.1747 4.6923,2.3597 v 7.9375 z"
               id="path212-3-6-4-7-2-83-5-7-6-2-2-2-4-5-9"
               sodipodi:nodetypes="ccccc" /></g><path
             style="fill:url(#linearGradient51);fill-opacity:1;stroke:none;stroke-width:0.9;-inkscape-stroke:none"
             d="m 3148.7881,-879.02965 -8.1268,-9.39465 -14.6248,2.17071 4.5307,15.84693 10.0941,1.66275 2.0317,-0.97839 2.0317,-0.9783 4.0634,-1.95669"
             id="path1131-7-6-8-1-1"
             sodipodi:nodetypes="cccccccc" /><path
             style="fill:#424242;fill-opacity:1;stroke:none;stroke-width:0.9;-inkscape-stroke:none"
             d="m 3153.7224,-888.4243 v -8.07714 l 7.7945,-3.70845 -2.9746,5.84559 v 7.67664 z"
             id="path1135-5-7-1-6-2" /><path
             style="fill:#000000;fill-opacity:0.218447;stroke:none;stroke-width:0.9;-inkscape-stroke:none"
             d="m 3125.9903,-864.29298 16.5443,10.63882 9.8634,-3.67424 10.7874,4.12137 0.2328,-3.24009 9.2474,1.41228 8.4377,-0.98091 1.719,-3.68703 -20.3494,-1.03761 -31.9057,-9.66627 0.073,-2.8199 -2.9266,3.67595 z"
             id="path1138-5-4-6-0-4"
             sodipodi:nodetypes="ccccccccccccc" /><path
             style="fill:#000000;fill-opacity:0.33;stroke:none;stroke-width:0.9;-inkscape-stroke:none"
             d="m 3142.5346,-853.65416 9.8634,-3.67424 10.7874,4.12137 0.2328,-3.24009 9.2474,1.41219 8.4377,-0.98082 0.8595,-1.84356 -21.4666,-0.3501 -20.973,-0.60912 -11.8096,-10.73208 -1.7232,5.25723 -1e-4,4e-4 z"
             id="path1138-5-3-5-3-6-5"
             sodipodi:nodetypes="ccccccccccccc" /><path
             style="fill:#faaf9c;fill-opacity:1;stroke:none;stroke-width:0.9;-inkscape-stroke:none"
             d="m 3181.7134,-861.98032 2.8281,-1.40949 2.8944,1.78596 -0.8691,4.77837 -5.4636,0.80973"
             id="path1133-0-0-3-9-4" /><path
             style="fill:#424242;fill-opacity:1;stroke:none;stroke-width:0.9;-inkscape-stroke:none"
             d="m 3148.7881,-879.02965 -8.1268,-9.39465 -14.6248,2.17071 4.5307,15.84693 1.2895,-12.6567 h 6.6143 z"
             id="path1136-5-6-5-8-6"
             sodipodi:nodetypes="ccccccc" /></g></g></g></g></svg>
