<?xml version="1.0" encoding="UTF-8" standalone="no"?>
<!-- Created with Inkscape (http://www.inkscape.org/) -->

<svg
   width="169.86301mm"
   height="108.94322mm"
   viewBox="0 0 169.86301 108.94322"
   version="1.1"
   id="svg1"
   inkscape:version="1.3 (0e150ed6c4, 2023-07-21)"
   sodipodi:docname="DWARF - GOBLINS all sprites.svg"
   inkscape:dataloss="true"
   xml:space="preserve"
   xmlns:inkscape="http://www.inkscape.org/namespaces/inkscape"
   xmlns:sodipodi="http://sodipodi.sourceforge.net/DTD/sodipodi-0.dtd"
   xmlns="http://www.w3.org/2000/svg"
   xmlns:svg="http://www.w3.org/2000/svg"><sodipodi:namedview
     id="namedview1"
     pagecolor="#ffffff"
     bordercolor="#000000"
     borderopacity="0.25"
     inkscape:showpageshadow="2"
     inkscape:pageopacity="0.0"
     inkscape:pagecheckerboard="0"
     inkscape:deskcolor="#d1d1d1"
     inkscape:document-units="mm"
     inkscape:zoom="0.24535703"
     inkscape:cx="8760.7029"
     inkscape:cy="-3397.0904"
     inkscape:window-width="1920"
     inkscape:window-height="991"
     inkscape:window-x="-9"
     inkscape:window-y="-9"
     inkscape:window-maximized="1"
     inkscape:current-layer="layer1" /><defs
     id="defs1" /><g
     inkscape:label="Capa 1"
     inkscape:groupmode="layer"
     id="layer1"
     transform="translate(-3701.0301,594.1577)"><path
       id="path1137-5-8-5-6-3-3"
       style="fill:#ffffff;fill-opacity:1;stroke:none;stroke-width:2.15321;-inkscape-stroke:none"
       d="m 3793.4746,-594.15771 -19.975,12.7951 -7.583,29.2804 v 5e-4 l 1.6361,0.9472 -4.9237,10.6619 0.1178,1.7575 -2.6143,7.1582 -9.078,2.3828 -7.9044,-10.8071 -2.2221,-10.2862 -2.5611,-10.9662 -8.8899,-8.4135 -11.0825,0.4129 -10.4681,10.8996 -6.8963,19.6371 9.3251,-13.1517 8.2987,-6.6947 6.814,-2.0143 4.5853,4.5129 3.4427,22.0741 v 5e-4 l 10.991,14.1992 20.2959,0.9353 0.1075,-0.1411 1.0785,3.62 8.3824,7.2765 -3.1135,10.5647 6.8244,8.9313 -1.5864,-9.0227 7.5096,7.2522 -0.6212,-8.325 5.9976,2.5151 -1.3023,-6.4074 10.7157,2.0386 -0.1985,0.1597 7.3216,10.1131 11.0432,5.0467 -3.6835,-6.3665 10.5425,2.9962 -7.2843,-7.3396 7.6021,-1.0852 h 5e-4 l 11.7363,-3.9238 10.788,4.1212 0.1829,8.4982 5.288,-2.713 1.3131,-8.0249 1.5007,0.2295 0.8398,6.0094 4.5671,-2.297 v -4.0199 l 4.2261,-0.4915 5.4633,-0.8097 0.8692,-4.778 -2.8944,-1.786 -6.549,-7.0993 -2.9941,-8.0951 -10.2397,-5.8637 -1.077,-0.3881 3.328,-1.8516 1.4919,-13.5227 h -6.9846 l -7.7949,3.7089 v 8.0765 l -10.4923,-8.846 -8.5695,-10.8495 5.936,-3.7703 -10.5228,-26.0041 z"
       inkscape:export-filename="unit_rider_goblin_tint.svg"
       inkscape:export-xdpi="96"
       inkscape:export-ydpi="96" /></g></svg>
