<?xml version="1.0" encoding="UTF-8" standalone="no"?>
<!-- Created with Inkscape (http://www.inkscape.org/) -->

<svg
   width="175.59625mm"
   height="185.00632mm"
   viewBox="0 0 175.59625 185.00632"
   version="1.1"
   id="svg1"
   inkscape:version="1.3 (0e150ed6c4, 2023-07-21)"
   sodipodi:docname="DWARF - GOBLINS all sprites.svg"
   xml:space="preserve"
   xmlns:inkscape="http://www.inkscape.org/namespaces/inkscape"
   xmlns:sodipodi="http://sodipodi.sourceforge.net/DTD/sodipodi-0.dtd"
   xmlns="http://www.w3.org/2000/svg"
   xmlns:svg="http://www.w3.org/2000/svg"><sodipodi:namedview
     id="namedview1"
     pagecolor="#ffffff"
     bordercolor="#000000"
     borderopacity="0.25"
     inkscape:showpageshadow="2"
     inkscape:pageopacity="0.0"
     inkscape:pagecheckerboard="0"
     inkscape:deskcolor="#d1d1d1"
     inkscape:document-units="mm"
     inkscape:zoom="0.12267851"
     inkscape:cx="10873.95"
     inkscape:cy="2058.2251"
     inkscape:window-width="1920"
     inkscape:window-height="991"
     inkscape:window-x="-9"
     inkscape:window-y="-9"
     inkscape:window-maximized="1"
     inkscape:current-layer="layer1" /><defs
     id="defs1"><filter
       style="color-interpolation-filters:sRGB"
       inkscape:label="Blur"
       id="filter99"
       x="-0.079157563"
       y="-0.074531245"
       width="1.1583151"
       height="1.1490625"><feGaussianBlur
         stdDeviation="5 5"
         result="blur"
         id="feGaussianBlur99" /></filter><filter
       style="color-interpolation-filters:sRGB"
       inkscape:label="Blur"
       id="filter100"
       x="-0.079157563"
       y="-0.074531245"
       width="1.1583151"
       height="1.1490625"><feGaussianBlur
         stdDeviation="5 5"
         result="blur"
         id="feGaussianBlur100" /></filter></defs><g
     inkscape:label="Capa 1"
     inkscape:groupmode="layer"
     id="layer1"
     transform="translate(-2858.1317,-55.996802)"><g
       id="g100"
       transform="translate(2262.5001,1768.4926)"><path
         id="path19-9-2-9-6-7-0-5"
         style="fill:#f9f9f9;stroke-width:1.96987;stroke-opacity:0.970874;filter:url(#filter99)"
         d="m 665.70968,-1700.4958 -51.07233,29.7398 -0.0481,0.028 -6.95617,4.0509 h 5.2e-4 -0.002 l 12.84418,34.7705 -10.17406,5.7113 -0.0357,15.5877 6.97994,4.2736 -3.40238,10.4371 1.62419,14.3759 6.37223,11.7765 8.68577,4.6803 3.84059,-2.1027 3.84111,-2.1022 3.84059,-2.1022 h 5.2e-4 l 3.74344,-11.4835 -0.72864,-6.4487 13.04314,7.9855 -3.5848,10.9958 1.62419,14.3758 6.37222,11.7771 8.68578,4.6798 7.6817,-4.2049 3.84059,-2.1022 3.74396,-11.4835 -0.81029,-7.1686 11.70885,7.1686 11.25771,-6.3201 0.0362,-15.5877 -12.88397,-7.8878 4.31757,-2.5405 9.29039,5.6881 4.56199,8.4315 8.68578,4.6798 7.6817,-4.2044 3.84111,-2.1022 0.5426,-1.6645 2.43293,-1.3658 0.0145,-6.1412 0.75344,-2.312 -0.73329,-6.488 0.002,-0.6465 -0.0801,-0.049 -0.81287,-7.1918 -4.81211,-8.8945 27.76368,-31.3645 -86.65775,-53.0541 0.18138,-0.106 -6.9851,-4.0943 -0.0289,0.017 z" /><path
         id="path19-9-2-9-6-7-0-5-1"
         style="fill:#f9f9f9;stroke-width:1.96987;stroke-opacity:0.970874;filter:url(#filter100)"
         d="m 665.7097,-1700.4958 -51.07233,29.7398 -0.0481,0.028 -6.95617,4.0509 h 5.2e-4 -0.002 l 12.84418,34.7705 -10.17406,5.7113 -0.0357,15.5877 6.97994,4.2736 -3.40238,10.4371 1.62419,14.3759 6.37223,11.7765 8.68577,4.6803 3.84059,-2.1027 3.84111,-2.1022 3.84059,-2.1022 h 5.2e-4 l 3.74344,-11.4835 -0.72864,-6.4487 13.04314,7.9855 -3.5848,10.9958 1.62419,14.3758 6.37222,11.7771 8.68578,4.6798 7.6817,-4.2049 3.84059,-2.1022 3.74396,-11.4835 -0.81029,-7.1686 11.70885,7.1686 11.25771,-6.3201 0.0362,-15.5877 -12.88397,-7.8878 4.31757,-2.5405 9.29039,5.6881 4.56199,8.4315 8.68578,4.6798 7.6817,-4.2044 3.84111,-2.1022 0.5426,-1.6645 2.43293,-1.3658 0.0145,-6.1412 0.75344,-2.312 -0.73329,-6.488 0.002,-0.6465 -0.0801,-0.049 -0.81287,-7.1918 -4.81211,-8.8945 27.76368,-31.3645 -86.65775,-53.0541 0.18138,-0.106 -6.9851,-4.0943 -0.0289,0.017 z" /></g></g></svg>
