<?xml version="1.0" encoding="UTF-8" standalone="no"?>
<!-- Created with Inkscape (http://www.inkscape.org/) -->

<svg
   width="79.941628mm"
   height="32.942112mm"
   viewBox="0 0 79.941628 32.942112"
   version="1.1"
   id="svg1"
   inkscape:version="1.3 (0e150ed6c4, 2023-07-21)"
   sodipodi:docname="DWARF - GOBLINS all sprites.svg"
   xml:space="preserve"
   xmlns:inkscape="http://www.inkscape.org/namespaces/inkscape"
   xmlns:sodipodi="http://sodipodi.sourceforge.net/DTD/sodipodi-0.dtd"
   xmlns="http://www.w3.org/2000/svg"
   xmlns:svg="http://www.w3.org/2000/svg"><sodipodi:namedview
     id="namedview1"
     pagecolor="#ffffff"
     bordercolor="#000000"
     borderopacity="0.25"
     inkscape:showpageshadow="2"
     inkscape:pageopacity="0.0"
     inkscape:pagecheckerboard="0"
     inkscape:deskcolor="#d1d1d1"
     inkscape:document-units="mm"
     inkscape:zoom="0.12267851"
     inkscape:cx="10873.95"
     inkscape:cy="2058.2251"
     inkscape:window-width="1920"
     inkscape:window-height="991"
     inkscape:window-x="-9"
     inkscape:window-y="-9"
     inkscape:window-maximized="1"
     inkscape:current-layer="layer1" /><defs
     id="defs1" /><g
     inkscape:label="Capa 1"
     inkscape:groupmode="layer"
     id="layer1"
     transform="translate(-2224.4209,-618.81688)"><path
       id="path30-05-4-9-9-9-3-53-6-8-72"
       style="fill:#ffffff;fill-opacity:1;stroke-width:12;stroke-linecap:round"
       d="m 2260.2731,618.81688 -3.3368,0.2955 -5.3092,4.205 -0.3163,3.208 0.3328,0.3344 -5.0586,3.3564 -4.6524,-3.2805 -14.0007,3.8861 -3.5109,5.2302 8.417,15.707 20.2427,-13.3785 7.5093,0.6119 4.4519,-6.5305 2.4115,-0.213 -1.0715,4.2709 2.3057,3.1599 1.2743,-1.3673 -0.7119,-1.8886 2.5379,-3.7207 9.6238,1.0221 10.1271,1.1302 0.6568,1.0346 4.8193,0.5395 4.0044,-0.355 3.0432,-4.6292 0.3003,-6.1919 -2.6195,-4.1274 -4.8199,-0.539 -4.0038,0.3545 -0.5359,0.8155 -5.334,0.047 z"
       sodipodi:nodetypes="cccccccccccccccccccccccccccccccc" /></g></svg>
