<?xml version="1.0" encoding="UTF-8" standalone="no"?>
<!-- Created with Inkscape (http://www.inkscape.org/) -->

<svg
   width="151.28275mm"
   height="162.759mm"
   viewBox="0 0 151.28275 162.759"
   version="1.1"
   id="svg1"
   inkscape:version="1.3 (0e150ed6c4, 2023-07-21)"
   sodipodi:docname="DWARF - GOBLINS all sprites.svg"
   xml:space="preserve"
   xmlns:inkscape="http://www.inkscape.org/namespaces/inkscape"
   xmlns:sodipodi="http://sodipodi.sourceforge.net/DTD/sodipodi-0.dtd"
   xmlns="http://www.w3.org/2000/svg"
   xmlns:svg="http://www.w3.org/2000/svg"><sodipodi:namedview
     id="namedview1"
     pagecolor="#ffffff"
     bordercolor="#000000"
     borderopacity="0.25"
     inkscape:showpageshadow="2"
     inkscape:pageopacity="0.0"
     inkscape:pagecheckerboard="0"
     inkscape:deskcolor="#d1d1d1"
     inkscape:document-units="mm"
     inkscape:zoom="0.12267851"
     inkscape:cx="10873.95"
     inkscape:cy="2058.2251"
     inkscape:window-width="1920"
     inkscape:window-height="991"
     inkscape:window-x="-9"
     inkscape:window-y="-9"
     inkscape:window-maximized="1"
     inkscape:current-layer="layer1" /><defs
     id="defs1" /><g
     inkscape:label="Capa 1"
     inkscape:groupmode="layer"
     id="layer1"
     transform="translate(-3091.2518,1155.7777)"><path
       id="path2-0-9-2-5-2-3-9-2-2-74-4-1-2-7-3-9-6"
       style="fill:#ffffff;fill-opacity:1;stroke:none;stroke-width:0.551699;stroke-dasharray:none;stroke-opacity:1"
       d="m 3159.9253,-1155.7777 -4.9604,11.4314 -13.2416,-2.2671 0.4026,9.37 -9.001,10.2526 6.9132,10.4324 -3.6421,9.7679 3.4938,0.8144 1.7059,-1.7683 -4.4432,17.1586 -10.2593,-36.2862 0.4868,-0.2635 2.1947,-2.5828 -2.6861,-10.1089 -4.313,-2.3172 -1.0686,-3.7791 -12.931,2.9445 1.2717,4.4979 -3.3496,1.7131 -15.2466,4.5217 10.1089,31.6554 2.7822,-1.6329 h -5e-4 l 6.1516,-3.6132 5.5681,-11.3719 9.5364,33.7307 5.3619,2.4061 4.8091,-3.3993 -0.6822,2.635 -11.3068,7.351 v 5.6327 l -2.7983,1.4196 -7.4837,19.7843 -0.1871,17.8201 7.3897,4.0695 -7.3897,-4.069 -1.3565,7.2497 9.448,5.2855 4.6772,-5.8937 7.7174,1.5435 -3.3673,-8.185 -6.8595,2.8691 6.8595,-2.8696 4.1538,-11.9796 10.7606,5.4084 3.7041,4.6566 1.323,8.9297 3.1088,8.9958 -0.1318,8.1706 7.8109,3.8819 -5e-4,5e-4 -7.8104,-3.8824 h -5e-4 l -0.7482,7.01608 8.7932,5.6125 5.6126,-7.71728 7.9514,-0.8889 -3.6953,-7.9979 h 5e-4 l -2.8329,-6.9071 3.175,-15.0812 11.0463,-2.5797 2.6898,17.0139 6.8755,2.2454 7.3665,-4.6308 -1.3797,-4.3263 0.3741,-6.9691 15.7158,-0.8883 8.4657,-1.8614 3.7181,-5.4818 0.07,-0.3116 4.8932,-3.5471 3.391,-5.7294 1.1049,-7.1143 -1.7348,-4.8984 -2.0257,-1.1829 -1.1385,-0.1317 0.6465,5.3878 -2.2133,5.7645 -6.0239,0.4444 1.1038,2.3399 -2.1782,-4.5444 -4.1294,-8.0032 4.8679,-7.3571 -3.993,1.7936 0.5198,-3.1884 v -0.01 l 9.6749,-4.1863 3.2313,-9.3075 -6.4358,-3.9206 16.6274,-6.4358 -6.0477,-14.7087 -0.7684,-3.683 4.3,-1.8324 -5.8224,-11.9156 -3.6132,1.5395 -4.5103,-1.9033 -9.5565,4.2525 -0.6336,3.3295 0.1,0.5441 -30.8854,13.1631 2.8737,8.3183 -3.3388,-9.6552 -0.1189,-1.4552 -2.082,-4.2101 1.0123,-19.6102 -3.3124,-2.4055 8.6578,-8.044 -11.8778,0.6419 -2.1068,-12.3455 -7.1143,8.0258 z m 32.0905,140.8452 -6.8755,-2.2449 -0.8656,5.5191 8.4191,4.3728 3.9522,-6.4776 6.1041,-0.1638 -3.3678,-5.6358 z m 23.3619,-88.0179 -5.3593,11.4716 1.0469,7.057 v 5e-4 l 0.4,2.6861 -0.1085,0.084 -1.2992,1.8381 -1.3756,1.9461 -0.1437,-0.095 -6.2931,-3.8499 -0.04,0.017 -9.4682,-7.3644 -1.7446,0.3111 -0.3255,-3.5703 z" /></g></svg>
