<?xml version="1.0" encoding="UTF-8" standalone="no"?>
<!-- Created with Inkscape (http://www.inkscape.org/) -->

<svg
   width="169.86301mm"
   height="108.94284mm"
   viewBox="0 0 169.86301 108.94284"
   version="1.1"
   id="svg1"
   inkscape:version="1.3 (0e150ed6c4, 2023-07-21)"
   sodipodi:docname="DWARF - GOBLINS all sprites.svg"
   inkscape:dataloss="true"
   xmlns:inkscape="http://www.inkscape.org/namespaces/inkscape"
   xmlns:sodipodi="http://sodipodi.sourceforge.net/DTD/sodipodi-0.dtd"
   xmlns:xlink="http://www.w3.org/1999/xlink"
   xmlns="http://www.w3.org/2000/svg"
   xmlns:svg="http://www.w3.org/2000/svg">
  <sodipodi:namedview
     id="namedview1"
     pagecolor="#ffffff"
     bordercolor="#000000"
     borderopacity="0.25"
     inkscape:showpageshadow="2"
     inkscape:pageopacity="0.0"
     inkscape:pagecheckerboard="0"
     inkscape:deskcolor="#d1d1d1"
     inkscape:document-units="mm"
     inkscape:zoom="0.24535703"
     inkscape:cx="8760.7029"
     inkscape:cy="-3397.0904"
     inkscape:window-width="1920"
     inkscape:window-height="991"
     inkscape:window-x="-9"
     inkscape:window-y="-9"
     inkscape:window-maximized="1"
     inkscape:current-layer="layer1" />
  <defs
     id="defs1">
    <linearGradient
       id="linearGradient1146"
       inkscape:collect="always">
      <stop
         style="stop-color:#bd7a6d;stop-opacity:1;"
         offset="0"
         id="stop1146" />
      <stop
         style="stop-color:#faaf9c;stop-opacity:1;"
         offset="1"
         id="stop1147" />
    </linearGradient>
    <linearGradient
       inkscape:collect="always"
       xlink:href="#linearGradient1146"
       id="linearGradient172"
       gradientUnits="userSpaceOnUse"
       x1="5164.4023"
       y1="1539.5616"
       x2="5189.6821"
       y2="1539.5616"
       gradientTransform="matrix(0.9,0,0,0.9,-3734.9006,-4059.483)" />
  </defs>
  <g
     inkscape:label="Capa 1"
     inkscape:groupmode="layer"
     id="layer1"
     transform="translate(-3457.7684,584.69585)">
    <g
       id="g173"
       transform="translate(2653.1703,2161.1498)">
      <path
         style="fill:#f5f5f5;fill-opacity:1;stroke:none;stroke-width:2.15321;-inkscape-stroke:none"
         d="m 950.00476,-2658.047 0.38871,18.0448 5.28831,-2.7129 2.10537,-12.8651 1.54809,11.079 4.56705,-2.297 v -6.8437"
         id="path1137-5-8-5-6-9" />
      <path
         style="fill:#faaf9c;fill-opacity:1;stroke:none;stroke-width:0.9;-inkscape-stroke:none"
         d="m 866.9934,-2692.2614 -3.29335,9.0163 -9.07795,2.3827 -7.90416,-10.8067 -2.22248,-10.2864 -2.56065,-10.9662 -8.88987,-8.4134 -11.08263,0.413 -10.46833,10.8995 -6.89591,19.6369 9.32488,-13.1517 8.29839,-6.6946 6.81434,-2.0141 4.58545,4.5128 3.44236,22.0742 10.99139,14.1995 20.29584,0.9355 -0.49984,-16.4061"
         id="path1128-2-4-6-4-8"
         sodipodi:nodetypes="cccccccccccccccccc" />
      <path
         style="fill:#b5695b;fill-opacity:1;stroke:none;stroke-width:0.9;-inkscape-stroke:none"
         d="m 869.96358,-2684.9619 -7.17415,8.9885 -12.19271,-0.473 -7.99719,-9.9416 -5.1026,-22.8429 -7.31504,-7.3391 -7.47421,1.0457 -8.52726,7.2415 -9.58247,17.897 9.325,-13.1516 8.29839,-6.6946 6.81434,-2.0141 4.58545,4.5128 3.44229,22.0743 10.99139,14.1994 20.29584,0.9355 1.61293,-14.4378"
         id="path1128-4-1-8-9-7-7"
         sodipodi:nodetypes="ccccccccccccccccc" />
      <path
         style="fill:#bd7a6d;fill-opacity:1;stroke:none;stroke-width:0.9;-inkscape-stroke:none"
         d="m 878.40319,-2661.4128 -3.59757,12.2088 6.82443,8.9311 -1.58652,-9.0225 7.50951,7.252 -0.62145,-8.3248 5.99796,2.515 -1.30257,-6.4076 -7.9317,-4.4225 -10.39176,-9.2679"
         id="path1129-6-2-7-8-8" />
      <path
         style="fill:#bd7a6d;fill-opacity:1;stroke:none;stroke-width:0.9;-inkscape-stroke:none"
         d="m 902.14429,-2652.0626 7.32141,10.1131 11.04336,5.0467 -3.68352,-6.3661 10.54251,2.9961 -7.28397,-7.3398 7.60212,-1.0853 -12.46374,-5.414 -4.84056,-4.5714"
         id="path1130-1-5-4-9-1" />
      <path
         style="fill:#faaf9c;fill-opacity:1;stroke:none;stroke-width:0.9;-inkscape-stroke:none"
         d="m 944.97376,-2681.6278 -4.22631,-10.1671 7.79454,-3.7085 h 6.98463 l -1.49175,13.5222 -6.51375,3.6243"
         id="path1132-5-2-2-15-9"
         sodipodi:nodetypes="cccccc" />
      <path
         id="path1134-4-7-5-2-9"
         style="fill:#95949a;fill-opacity:1;stroke:none;stroke-width:0.9;-inkscape-stroke:none"
         d="m 921.68534,-2703.4138 -16.23311,10.311 -0.12558,36.958 -34.73948,-18.8351 0.0729,-15.7742 10.33581,-6.351 -9.87537,-5.7175 -4.92373,10.6619 1.2051,17.9518 2.13475,7.1634 9.633,8.3623 12.45764,4.4225 15.51275,2.9517 20.54655,2.6112 11.73623,-3.9237 10.78746,4.1211 0.23306,-3.2401 9.2475,1.4124 8.43721,-0.9809 3.43855,-7.3742 -6.54896,-7.0993 -2.99413,-8.0951 -10.23969,-5.8637 -11.03653,-3.9765 -10.49238,-8.8465 z" />
      <path
         style="fill:#d5dfbe;fill-opacity:1;stroke-width:0.27;-inkscape-stroke:none"
         d="m 947.52114,-2669.3914 7.09101,3.5644 v 7.1438 l -7.09101,-3.2074 z"
         id="path211-1-92-5-9-5-0-8-9-0-5-5-8-8-68-0"
         sodipodi:nodetypes="ccccc" />
      <path
         style="fill:#7b0c18;fill-opacity:1;stroke-width:0.27;-inkscape-stroke:none"
         d="m 950.38764,-2660.5935 -4.5e-4,-7.3572 4.22307,2.1237 v 7.1438 z"
         id="path212-3-6-4-7-2-83-5-7-6-2-2-2-2-37-7"
         sodipodi:nodetypes="ccccc" />
      <path
         style="fill:url(#linearGradient172);fill-opacity:1;stroke:none;stroke-width:0.9;-inkscape-stroke:none"
         d="m 935.81311,-2674.3232 -8.12682,-9.3946 -14.62482,2.1707 4.53078,15.8469 10.09404,1.6628 2.03175,-0.9784 2.03166,-0.9783 4.06341,-1.9567"
         id="path1131-7-6-9-4-4"
         sodipodi:nodetypes="cccccccc" />
      <path
         style="fill:#424242;fill-opacity:1;stroke:none;stroke-width:0.9;-inkscape-stroke:none"
         d="m 940.74736,-2683.7178 v -8.0771 l 7.79454,-3.7085 -2.97459,5.8456 v 7.6766 z"
         id="path1135-5-7-4-9-7" />
      <path
         style="fill:#424242;fill-opacity:1;stroke:none;stroke-width:0.9;-inkscape-stroke:none"
         d="m 935.81311,-2674.3232 -8.12682,-9.3946 -14.62482,2.1707 4.53078,15.8469 1.28943,-12.6567 h 6.61437 z"
         id="path1136-5-6-2-9-4"
         sodipodi:nodetypes="ccccccc" />
      <path
         id="path1138-5-4-6-4-5"
         style="fill:#000000;fill-opacity:0.218447;stroke:none;stroke-width:0.9;-inkscape-stroke:none"
         d="m 871.12047,-2702.8226 -4.92373,10.6619 1.2051,17.9518 2.13475,7.1634 9.633,8.3623 12.45764,4.4225 36.0593,5.5629 11.73623,-3.9243 10.78746,4.1217 0.23306,-3.2401 9.2475,1.4124 8.43772,-0.9814 1.71876,-3.6866 -20.34914,-1.0376 -34.58291,-4.1032 -9.55962,-4.5232 -0.0289,8.5153 -34.73948,-18.8351 0.0729,-15.7742 10.33581,-6.351 z" />
      <path
         id="path173"
         style="fill:#000000;fill-opacity:0.218447;stroke:none;stroke-width:0.9;-inkscape-stroke:none"
         d="m 871.12047,-2702.8226 9.87537,5.7175 -10.33581,6.351 -0.0729,15.7742 34.73948,18.8351 0.0289,-8.5153 -0.029,8.5153 -34.73944,-18.8351 0.0729,-15.7742 10.33581,-6.351 z"
         sodipodi:nodetypes="ccccccccccc" />
      <path
         id="path1138-5-3-5-7-9-9"
         style="fill:#000000;fill-opacity:0.33;stroke:none;stroke-width:0.9;-inkscape-stroke:none"
         d="m 871.12047,-2702.8226 -4.92373,10.6619 1.2051,17.9518 2.13475,7.1634 9.633,8.3623 12.45764,4.4225 36.0593,5.5629 11.73623,-3.9243 10.78746,4.1217 0.23306,-3.2401 9.2475,1.4124 8.43772,-0.9814 0.85938,-1.8433 -21.4669,-0.3503 -20.97288,-0.6088 -21.21783,-3.0391 -0.004,1.0062 -5.29477,-2.8707 -22.5056,-10.3761 -0.45217,-2.0712 -6.48694,-3.5171 0.0729,-15.7742 3.07837,-1.8914 0.9064,-8.1369 z" />
      <path
         style="fill:#faaf9c;fill-opacity:1;stroke:none;stroke-width:0.9;-inkscape-stroke:none"
         d="m 968.73844,-2657.2738 2.82807,-1.4095 2.8944,1.7859 -0.86913,4.7784 -5.46354,0.8097"
         id="path1133-0-0-9-8-7" />
      <g
         id="g19-9-9-8-9-1-6-3-7-5-2-5"
         transform="matrix(1.21,0,0,1.21,931.42806,-2894.5828)">
        <path
           id="path2-0-9-2-5-2-3-9-6-2-7-8-3-6-9-0-3-8"
           style="fill:#808080;fill-opacity:0;stroke:none;stroke-width:0.472478;stroke-dasharray:none;stroke-opacity:0"
           d="m -11.842525,133.38401 -16.539707,10.75255 v 26.76725 l 25.2362199,-16.02898 z"
           sodipodi:nodetypes="ccccc" />
        <path
           id="path2-0-9-9-4-5-7-5-1-8-27-07-87-7-1-5-1-4-0"
           style="fill:#000000;fill-opacity:0.35;stroke:none;stroke-width:0.472478;stroke-dasharray:none;stroke-opacity:0"
           d="m -44.926352,133.49772 16.54412,10.63884 v 26.76725 L -51.193114,157.6964 Z"
           sodipodi:nodetypes="ccccc" />
        <path
           style="fill:#000000;fill-opacity:0.3;stroke:none;stroke-width:0.264583"
           d="m -44.926355,133.49772 16.544126,10.63884 16.539706,-10.75255 -16.575377,-10.46075"
           id="path19-9-8-3-4-4-1-1-9-2-1-4" />
      </g>
      <g
         id="g14-9-4-9-1-1-4-4-3-9-2"
         transform="matrix(1.3499588,0,0,1.3499588,699.62546,-3156.0947)">
        <rect
           style="fill:#616161;fill-opacity:1;stroke:none;stroke-width:0.0354132;stroke-dasharray:none;stroke-opacity:0"
           id="rect4-4-8-1-1-4-57-5-12-33-5-2-8-4-1-2-5-2"
           width="11.298592"
           height="11.298592"
           x="403.57425"
           y="236.1683"
           transform="matrix(0.83839296,0.54506627,-0.83839296,0.54506627,0,0)" />
        <path
           style="fill:#000000;fill-opacity:1;stroke:none;stroke-width:0.27941;stroke-opacity:0"
           d="m 140.35178,349.34956 v 11.66949 l -9.47264,-6.15847 1.7e-4,-11.1403 z"
           id="path1-9-3-3-3-3-0-79-2-4-0-2-5-1-3"
           sodipodi:nodetypes="ccccc" />
        <path
           style="fill:#666666;fill-opacity:1;stroke:none;stroke-width:0.27941;stroke-opacity:0"
           d="m 149.82462,343.72027 -1.8e-4,11.14028 -9.47266,6.1585 v -11.66949"
           id="path2-0-2-8-9-6-3-9-3-4-5-7-6-5-9"
           sodipodi:nodetypes="cccc" />
        <rect
           style="fill:#454545;fill-opacity:1;stroke:none;stroke-width:0.0354132;stroke-dasharray:none;stroke-opacity:1"
           id="rect4-9-3-7-9-8-8-9-6-8-02-2-0-1-3-4-2-1-6"
           width="11.298592"
           height="11.298592"
           x="393.35504"
           y="225.9491"
           transform="matrix(0.83839296,0.54506627,-0.83839296,0.54506627,0,0)" />
      </g>
    </g>
  </g>
</svg>
