<?xml version="1.0" encoding="UTF-8" standalone="no"?>
<!-- Created with Inkscape (http://www.inkscape.org/) -->

<svg
   width="73.566307mm"
   height="84.231148mm"
   viewBox="0 0 73.566307 84.231148"
   version="1.1"
   id="svg1"
   inkscape:version="1.3 (0e150ed6c4, 2023-07-21)"
   sodipodi:docname="DWARF - GOBLINS all sprites.svg"
   xml:space="preserve"
   xmlns:inkscape="http://www.inkscape.org/namespaces/inkscape"
   xmlns:sodipodi="http://sodipodi.sourceforge.net/DTD/sodipodi-0.dtd"
   xmlns:xlink="http://www.w3.org/1999/xlink"
   xmlns="http://www.w3.org/2000/svg"
   xmlns:svg="http://www.w3.org/2000/svg"><sodipodi:namedview
     id="namedview1"
     pagecolor="#ffffff"
     bordercolor="#000000"
     borderopacity="0.25"
     inkscape:showpageshadow="2"
     inkscape:pageopacity="0.0"
     inkscape:pagecheckerboard="0"
     inkscape:deskcolor="#d1d1d1"
     inkscape:document-units="mm"
     inkscape:zoom="0.12267851"
     inkscape:cx="10873.95"
     inkscape:cy="2058.2251"
     inkscape:window-width="1920"
     inkscape:window-height="991"
     inkscape:window-x="-9"
     inkscape:window-y="-9"
     inkscape:window-maximized="1"
     inkscape:current-layer="layer1" /><defs
     id="defs1"><linearGradient
       inkscape:collect="always"
       xlink:href="#linearGradient217"
       id="linearGradient55"
       gradientUnits="userSpaceOnUse"
       gradientTransform="translate(1741.1391,-1141.2853)"
       x1="-1488.1031"
       y1="1081.993"
       x2="-1481.2468"
       y2="1039.3495" /><linearGradient
       id="linearGradient217"
       inkscape:collect="always"><stop
         style="stop-color:#68523a;stop-opacity:1;"
         offset="0.06521739"
         id="stop217" /><stop
         style="stop-color:#bca066;stop-opacity:1;"
         offset="0.56029403"
         id="stop219" /><stop
         style="stop-color:#796246;stop-opacity:1;"
         offset="1"
         id="stop218" /></linearGradient><linearGradient
       inkscape:collect="always"
       xlink:href="#linearGradient272"
       id="linearGradient281"
       x1="233.08031"
       y1="-131.28806"
       x2="266.2193"
       y2="-129.17136"
       gradientUnits="userSpaceOnUse" /><linearGradient
       id="linearGradient272"
       inkscape:collect="always"><stop
         style="stop-color:#422b00;stop-opacity:1;"
         offset="0"
         id="stop281" /><stop
         style="stop-color:#b7883f;stop-opacity:1;"
         offset="1"
         id="stop280" /></linearGradient><linearGradient
       id="linearGradient271"
       inkscape:collect="always"><stop
         style="stop-color:#bca066;stop-opacity:1;"
         offset="0.3506614"
         id="stop270" /><stop
         style="stop-color:#b7883f;stop-opacity:1;"
         offset="1"
         id="stop271" /></linearGradient><linearGradient
       inkscape:collect="always"
       xlink:href="#linearGradient269"
       id="linearGradient64"
       gradientUnits="userSpaceOnUse"
       gradientTransform="translate(1741.1391,-1141.2853)"
       x1="-1484.6598"
       y1="1008.8232"
       x2="-1475.2504"
       y2="1024.0118" /><linearGradient
       id="linearGradient269"
       inkscape:collect="always"><stop
         style="stop-color:#493520;stop-opacity:1;"
         offset="0"
         id="stop268" /><stop
         style="stop-color:#b7883f;stop-opacity:1;"
         offset="1"
         id="stop269" /></linearGradient><radialGradient
       inkscape:collect="always"
       xlink:href="#linearGradient271"
       id="radialGradient263-41-45-8-7-8"
       cx="-1443.8395"
       cy="1019.3883"
       fx="-1443.8395"
       fy="1019.3883"
       r="11.84665"
       gradientTransform="matrix(1.1563513,0.97557182,-0.8501036,1.0076332,2828.4611,254.9549)"
       gradientUnits="userSpaceOnUse" /></defs><g
     inkscape:label="Capa 1"
     inkscape:groupmode="layer"
     id="layer1"
     transform="translate(-2677.9752,216.20086)"><g
       id="g12-6-3"
       transform="translate(2458.6067,1642.1981)"><g
         id="g76-3-5"
         transform="matrix(1.2936065,0,0,1.2936065,-78.233055,-1675.6475)"><g
           id="g19-9-94-7-1-2-3"
           transform="translate(274.98202,-247.05065)"
           style="fill:#ffffff;fill-opacity:1" /><g
           id="g75-5-8"
           transform="matrix(0.6588728,0,0,0.6588728,80.029671,-47.467726)"><path
             style="fill:url(#linearGradient55);fill-opacity:1;stroke-width:0.3;-inkscape-stroke:none"
             d="m 253.0359,-101.9358 10.5376,10.0541 0.58281,0.352654 -11.34535,7.375953"
             id="path190-7-9-6-0-7"
             sodipodi:nodetypes="cccc" /><path
             id="path200-04-1-8-2-7"
             style="fill:#b7883f;fill-opacity:1;stroke-width:0.3;-inkscape-stroke:none"
             d="m 289.63484,-134.513 -2.71217,3.83687 -6.19766,-3.79138 -14.12553,5.79923 2.6957,2.29177 0.36392,8.20159 5.62197,4.26668 -0.16549,9.92159 6.54904,10.352189 12.85807,4.371776 7.24943,-7.670608 3.58433,1.41569 0.69568,-3.122361 -3.39138,-2.221966 -2.21098,-4.61256 -4.19609,-8.13257 1.40314,-8.6063 3.01648,-2.23373 1.09882,-8.52394 z" /><g
             id="g217-3-9-3-0-6"
             transform="matrix(0.81,0,0,1,1467.8283,-1141.2853)"><path
               style="fill:#bca066;fill-opacity:1;stroke-width:0.3;-inkscape-stroke:none"
               d="m -1438.478,1040.4235 3.391,2.2216 5.7296,-3.999 2.5824,-6.6806 -2.3296,-5.4153 -1.4053,-0.1322 0.7984,5.388 -2.7329,5.7644 -7.4368,0.4443"
               id="path201-5-6-8-3-2"
               sodipodi:nodetypes="ccccccccc" /><path
               style="fill:#ede4cf;fill-opacity:1;stroke-width:0.3;-inkscape-stroke:none"
               d="m -1436.5837,1049.3335 6.5715,-3.8586 4.1861,-5.7296 1.3641,-7.1142 -2.1416,-4.8984 -2.501,-1.1825 2.3296,5.4153 -2.5824,6.6806 -5.7296,3.999"
               id="path204-82-81-2-7-3"
               sodipodi:nodetypes="ccccccccc" /></g><path
             style="fill:url(#linearGradient281);stroke-width:0.3;-inkscape-stroke:none"
             d="m 280.725,-134.4677 -5.22362,5.5782 -8.90158,0.2216 -3.4563,-3.2981 -13.3283,-0.9922 -0.1654,5.8208 -16.5695,6.5815 15.4781,-17.4625 22.4565,-4.0018 z"
             id="path206-35-9-2-9-3"
             sodipodi:nodetypes="cccccccccc" /><path
             style="fill:url(#radialGradient263-41-45-8-7-8);fill-opacity:1;stroke-width:0.3;-inkscape-stroke:none"
             d="m 289.635,-134.5127 10.0795,-7.8594 10.9018,6.6416 -3.2312,9.3077 -9.7286,4.2094 -10.7335,-8.4628 2.712,-3.8365"
             id="path213-9-2-3-9-2"
             sodipodi:nodetypes="ccccccc" /><path
             style="fill:#704900;fill-opacity:1;stroke:none;stroke-width:0.3;-inkscape-stroke:none"
             d="m 252.81096,-84.153093 0.22494,-17.782707 8.3395,-6.543 8.2835,-9.6958 -11.1039,-10.7149 -8.9052,1.7521 -16.5695,6.5815 -4.43732,8.21044 -0.94175,12.04534 z"
             id="path216-6-62-8-2-4"
             sodipodi:nodetypes="cccccccccc" /><path
             style="fill:url(#linearGradient64);fill-opacity:1;stroke-width:0.3;-inkscape-stroke:none"
             d="m 269.6589,-118.1746 -0.3638,-8.2021 -6.1516,-5.5893 -13.3283,-0.9922 -0.5211,11.8674 5.3086,4.9345 7.9045,0.4837"
             id="path214-2-1-8-7-0" /><path
             style="fill:#704900;fill-opacity:1;stroke:none;stroke-width:0.3;-inkscape-stroke:none"
             d="m 301.7724,-96.933 3.5841,1.4157 -0.8011,3.5655 -3.7184,5.4823 -8.4658,1.861 -15.7154,0.8886 -6.782,-3.882 -6.3003,-4.2798 -10.5376,-10.0541 16.623,-16.2388 5.6224,4.2664 -0.1654,9.9218 6.5485,10.3519 12.8584,4.3722 z"
             id="path210-7-1-9-6-7" /><path
             style="fill:#bca066;fill-opacity:1;stroke-width:0.3;-inkscape-stroke:none"
             d="m 286.3307,-87.8674 -2.7836,1.1655 -5.5245,0.2324 -4.255,-1.9395 -3.2323,-7.0777 1.6041,-6.1846 2.2655,-0.049 -1.8521,5.1593 3.1642,7.1791 5.5866,2.2426 z"
             id="path202-4-4-9-1-8"
             sodipodi:nodetypes="ccccccccccc" /><path
             style="fill:#ede4cf;fill-opacity:1;stroke-width:0.3;-inkscape-stroke:none"
             d="m 286.3307,-87.8674 -1.139,-2.8215 -4.1393,-0.7016 -3.2039,-1.637 -2.783,-3.6482 0.421,-3.8354 -1.0816,-1.2092 -1.8521,5.1593 3.1642,7.1791 5.5866,2.2426 5.0271,-0.7281"
             id="path203-3-7-8-6-8"
             sodipodi:nodetypes="ccccccccccc" /><g
             id="g216-8-7-9-6-6"
             transform="translate(1741.1391,-1141.2853)"><path
               style="fill:#ffffff;fill-opacity:1;stroke-width:0.3;-inkscape-stroke:none"
               d="m -1475.2504,1024.0119 7.8789,3.9605 v 7.9375 l -7.8789,-3.5637 z"
               id="path211-1-96-1-6-8"
               sodipodi:nodetypes="ccccc" /><path
               style="fill:#000000;fill-opacity:1;stroke-width:0.3;-inkscape-stroke:none"
               d="m -1472.0654,1033.7874 -5e-4,-8.1747 4.6923,2.3597 v 7.9375 z"
               id="path212-3-36-8-2-2"
               sodipodi:nodetypes="ccccc" /></g></g></g><g
         id="g19-9-9-3-1-8-39-0"
         transform="matrix(1.2936066,0,0,1.2936066,277.48565,-1995.2501)"><path
           id="path2-0-9-2-5-2-3-9-6-9-0-5-2-8"
           style="fill:#808080;fill-opacity:0;stroke:none;stroke-width:0.472478;stroke-dasharray:none;stroke-opacity:0"
           d="m -11.842525,133.38401 -16.539707,10.75255 v 26.76725 l 25.2362199,-16.02898 z"
           sodipodi:nodetypes="ccccc" /></g></g></g></svg>
