<?xml version="1.0" encoding="UTF-8" standalone="no"?>
<!-- Created with Inkscape (http://www.inkscape.org/) -->

<svg
   width="180.19727mm"
   height="148.91406mm"
   viewBox="0 0 180.19727 148.91406"
   version="1.1"
   id="svg1"
   inkscape:version="1.3 (0e150ed6c4, 2023-07-21)"
   sodipodi:docname="DWARF - GOBLINS all sprites.svg"
   xml:space="preserve"
   xmlns:inkscape="http://www.inkscape.org/namespaces/inkscape"
   xmlns:sodipodi="http://sodipodi.sourceforge.net/DTD/sodipodi-0.dtd"
   xmlns="http://www.w3.org/2000/svg"
   xmlns:svg="http://www.w3.org/2000/svg"><sodipodi:namedview
     id="namedview1"
     pagecolor="#ffffff"
     bordercolor="#000000"
     borderopacity="0.25"
     inkscape:showpageshadow="2"
     inkscape:pageopacity="0.0"
     inkscape:pagecheckerboard="0"
     inkscape:deskcolor="#d1d1d1"
     inkscape:document-units="mm"
     inkscape:zoom="0.12267851"
     inkscape:cx="10873.95"
     inkscape:cy="2058.2251"
     inkscape:window-width="1920"
     inkscape:window-height="991"
     inkscape:window-x="-9"
     inkscape:window-y="-9"
     inkscape:window-maximized="1"
     inkscape:current-layer="layer1" /><defs
     id="defs1" /><g
     inkscape:label="Capa 1"
     inkscape:groupmode="layer"
     id="layer1"
     transform="translate(-3095.5089,685.19517)"><path
       id="path157-6-2-2-6-3-8-1-6"
       style="fill:#ffffff;fill-opacity:1;stroke-width:23.3846;stroke-linecap:round;stroke-opacity:0.624204"
       d="m 3124.641,-685.19521 23.919,12.2809 0.022,1.1094 11.6603,0.6693 v 5e-4 l -11.5379,5.3919 0.057,2.8417 6.1459,-0.1256 11.3564,5.5495 -12.838,0.5127 -4.5051,2.0278 0.3074,15.3417 11.6629,2.0892 -5e-4,-9.9373 34.3932,-20.5642 15.0296,9.1349 14.7045,-15.1355 0.7307,7.462 -5.21,7.1825 5.4922,-1.4665 0.075,3.6525 -2.7089,3.7382 1.4154,-0.1658 0.8067,2.4722 -3.0582,3.6054 0.5741,6.9614 12.9072,5.4689 -1.8825,3.5171 22.5118,-3.1626 19.0345,12.824 5e-4,5e-4 v 20.837 l -19.697,12.8054 -10.7011,-6.8843 v -8.1391 l -3.5637,-2.2913 0.02,5.3123 -3.0055,1.9534 -4.6219,3.0055 -7.6269,-4.9589 -0.01,-1.6335 -0.033,-0.022 v -7.9287 l -5.4291,-0.9374 0.835,-2.0004 -0.5886,-2.4603 -5e-4,5e-4 0.5886,2.4598 -0.8345,2.0004 -8.9633,21.4773 19.2727,12.4224 v 15.2358 l -18.7069,12.1621 -5e-4,-15.2358 v 15.2358 l -19.3967,-12.5026 v -11.4851 l -12.7993,6.3882 5.3103,3.4231 v 15.2357 l -18.7069,12.1621 -5e-4,-15.2358 v 15.2358 l -19.3967,-12.5026 5e-4,-9.3261 -1.1772,-0.524 -7.0859,4.6468 -11.6019,-5.2876 -15.2518,-22.0689 v -5e-4 l 1.6997,-13.4509 5e-4,6e-4 12.6742,-7.2869 -10.0692,-37.6851 -5.7883,9.5116 0.6599,-12.6225 2.9451,-5.0591 -1.1054,-4.1378 -6.5035,0.4724 -11.5378,5.6529 7.3526,-10.2816 8.4206,-4.331 -0.3767,-1.4097 z m 78.7208,45.022 -4.4969,2.7332 v 5e-4 z m -54.0034,7.1453 0.052,2.5781 3.6049,-1.3637 z m 0.1168,5.8121 0.023,1.1451 0.2687,-0.7209 z" /></g></svg>
