<?xml version="1.0" encoding="UTF-8" standalone="no"?>
<!-- Created with Inkscape (http://www.inkscape.org/) -->

<svg
   width="96.580147mm"
   height="26.957594mm"
   viewBox="0 0 96.580147 26.957594"
   version="1.1"
   id="svg1"
   inkscape:version="1.3 (0e150ed6c4, 2023-07-21)"
   sodipodi:docname="DWARF - GOBLINS all sprites.svg"
   xml:space="preserve"
   xmlns:inkscape="http://www.inkscape.org/namespaces/inkscape"
   xmlns:sodipodi="http://sodipodi.sourceforge.net/DTD/sodipodi-0.dtd"
   xmlns="http://www.w3.org/2000/svg"
   xmlns:svg="http://www.w3.org/2000/svg"><sodipodi:namedview
     id="namedview1"
     pagecolor="#ffffff"
     bordercolor="#000000"
     borderopacity="0.25"
     inkscape:showpageshadow="2"
     inkscape:pageopacity="0.0"
     inkscape:pagecheckerboard="0"
     inkscape:deskcolor="#d1d1d1"
     inkscape:document-units="mm"
     inkscape:zoom="0.12267851"
     inkscape:cx="10873.95"
     inkscape:cy="2058.2251"
     inkscape:window-width="1920"
     inkscape:window-height="991"
     inkscape:window-x="-9"
     inkscape:window-y="-9"
     inkscape:window-maximized="1"
     inkscape:current-layer="layer1" /><defs
     id="defs1" /><g
     inkscape:label="Capa 1"
     inkscape:groupmode="layer"
     id="layer1"
     transform="translate(-3027.9337,-617.78972)"><g
       id="g38-45-5"
       transform="matrix(1,0,0,0.81482122,2422.4754,1564.5458)"><path
         style="fill:#c87137;fill-opacity:1;stroke-width:12;stroke-linecap:round"
         d="m 608.96961,-1149.7719 -3.51114,5.2305 11.92809,10.4762 20.24299,-13.3782 39.35943,6.0759 4.78559,-7.3009 -48.21646,-5.6473 -5.93577,3.9386 -4.65252,-3.2807"
         id="path30-05-4-9-9-9-3-53-6-8-70-1"
         sodipodi:nodetypes="ccccccccc" /><path
         style="fill:#784421;fill-opacity:1;stroke-width:12;stroke-linecap:round"
         d="m 605.45847,-1144.5414 8.41695,15.7067 20.24299,-13.3782 40.49864,4.4388 3.94369,-5.9913 -48.51377,-5.3198 -5.93577,3.9386 -4.65252,-3.2807"
         id="path30-9-0-4-5-8-3-7-1-7-9"
         sodipodi:nodetypes="cccccccc" /><g
         id="g7-0-2-0-3-6-2-4-8-3-1-8"
         transform="matrix(0.6938001,-0.39829815,0.39829815,0.6938001,-62.809995,-618.00893)"
         inkscape:transform-center-x="21.656653"
         inkscape:transform-center-y="-11.749184"><path
           id="path83-2-8-2-9-5-2-9-5-1-2-7-5-0-5-9-4-8-0-9-2-2"
           style="fill:#c87137;stroke:#0c0c0c;stroke-width:1.26382;stroke-opacity:0"
           inkscape:transform-center-x="5.0128154e-05"
           transform="matrix(0.19403753,-0.12614373,0.03632726,0.1788247,1096.5432,-130.11874)"
           d="m 144.72708,123.53076 -20.88161,15.68043 -25.853255,-3.67779 -15.680424,-20.88161 3.67779,-25.853255 20.881609,-15.680424 25.85325,3.67779 15.68043,20.881605 z" /><path
           id="path83-2-8-2-9-5-2-9-5-1-2-0-6-1-2-7-4-6-97-2-4-8-1"
           style="stroke:#0c0c0c;stroke-width:1.26382;stroke-opacity:0"
           inkscape:transform-center-x="5.0128154e-05"
           transform="matrix(0.19403753,-0.12614373,0.03632726,0.1788247,1123.7115,-110.21541)"
           d="m 144.72708,123.53076 -20.88161,15.68043 -25.853255,-3.67779 -15.680424,-20.88161 3.67779,-25.853255 20.881609,-15.680424 25.85325,3.67779 15.68043,20.881605 z" /><path
           style="fill:#7a7a7b;fill-opacity:1;stroke:#0c0c0c;stroke-width:0.353895;stroke-dasharray:none;stroke-opacity:0"
           d="m 1152.2548,-113.22476 -27.1683,-19.90333 -8.372,1.25409 3.2219,1.34945 27.1683,19.90333"
           id="path56-2-6-5-6-91-3-8-3-4-5-8-6-8-7-0"
           sodipodi:nodetypes="ccccc" /><path
           style="fill:#474747;fill-opacity:1;stroke:#0c0c0c;stroke-width:0.353895;stroke-dasharray:none;stroke-opacity:0"
           d="m 1152.2548,-113.22476 -27.1683,-19.90333 3.8012,1.75616 27.1683,19.90333"
           id="path56-2-6-5-6-1-0-4-4-8-3-8-9-7-6-1-0"
           sodipodi:nodetypes="cccc" /><path
           style="fill:#464647;fill-opacity:0.996078;stroke:#0c0c0c;stroke-width:0.353895;stroke-dasharray:none;stroke-opacity:0"
           d="m 1147.1047,-110.62122 -27.1683,-19.90333 -3.2219,-1.34945 -2.3395,3.2809 2.0792,3.50668 27.1683,19.90333"
           id="path56-2-6-5-6-3-8-2-4-4-1-3-3-4-1-63-9"
           sodipodi:nodetypes="cccccc" /><path
           style="fill:#090909;fill-opacity:1;stroke:#0c0c0c;stroke-width:0.353895;stroke-dasharray:none;stroke-opacity:0"
           d="m 1143.6225,-105.18309 -27.1683,-19.90333 -2.0792,-3.50668 2.3048,8.59381 27.1683,19.90334"
           id="path56-2-6-5-6-3-9-0-4-0-5-4-8-9-7-2-7-4"
           sodipodi:nodetypes="ccccc" /><path
           id="path83-2-8-2-9-5-2-9-5-1-2-0-9-2-0-3-8-8-2-27-8-7-8-2"
           style="stroke:#0c0c0c;stroke-width:1.26382;stroke-opacity:0"
           inkscape:transform-center-x="5.6661461e-05"
           inkscape:transform-center-y="-4.126198e-06"
           transform="matrix(0.23284504,-0.15137248,0.04359271,0.21458964,1117.8939,-112.06982)"
           d="m 144.72708,123.53076 -20.88161,15.68043 -25.853255,-3.67779 -15.680424,-20.88161 3.67779,-25.853255 20.881609,-15.680424 25.85325,3.67779 15.68043,20.881605 z" /><g
           id="g3-3-2-3-3-0-2-1-1-3-5-9"
           transform="translate(30.877375,-23.660854)"><path
             id="path83-2-8-2-9-5-2-9-5-1-2-0-7-5-1-1-8-0-1-9-5-6-3-1"
             style="stroke:#0c0c0c;stroke-width:1.26382;stroke-opacity:0"
             inkscape:transform-center-x="6.2420922e-05"
             transform="matrix(0.23284504,-0.15137248,0.04359271,0.21458964,1091.9059,-84.825022)"
             d="m 144.72708,123.53076 -20.88161,15.68043 -25.853255,-3.67779 -15.680424,-20.88161 3.67779,-25.853255 20.881609,-15.680424 25.85325,3.67779 15.68043,20.881605 z" /><path
             style="fill:#474747;fill-opacity:1;stroke:#0c0c0c;stroke-width:0.424674;stroke-dasharray:none;stroke-opacity:0"
             d="m 1126.1579,-88.436247 -4.8895,-3.583929 4.5614,2.10739 4.8895,3.583931"
             id="path56-2-6-5-6-1-13-0-2-9-9-6-5-3-9-9-92-6"
             sodipodi:nodetypes="cccc" /><path
             style="fill:#7a7a7b;fill-opacity:1;stroke:#0c0c0c;stroke-width:0.424674;stroke-dasharray:none;stroke-opacity:0"
             d="m 1126.1579,-88.436247 -4.8895,-3.583929 -6.1801,3.12426 4.8894,3.583917"
             id="path56-2-6-5-6-8-8-9-3-9-5-3-0-7-8-1-4"
             sodipodi:nodetypes="cccc" /><path
             style="fill:#464647;fill-opacity:0.996078;stroke:#0c0c0c;stroke-width:0.424674;stroke-dasharray:none;stroke-opacity:0"
             d="m 1119.9777,-85.311999 -4.8894,-3.583917 -4.1787,6.52574 4.8895,3.583933"
             id="path56-2-6-5-6-3-7-0-0-2-5-4-3-1-9-0-6-4"
             sodipodi:nodetypes="cccc" /><path
             style="fill:#090909;fill-opacity:1;stroke:#0c0c0c;stroke-width:0.424674;stroke-dasharray:none;stroke-opacity:0"
             d="m 1115.7991,-78.786243 -4.8895,-3.583933 0.2708,6.104557 4.8894,3.583944"
             id="path56-2-6-5-6-3-9-8-5-5-8-3-7-2-4-6-8-2-26"
             sodipodi:nodetypes="cccc" /></g><g
           id="g4-8-4-3-5-4-08-8-3-2-2-9"
           transform="translate(103.19099,-28.163228)"><path
             style="fill:#7a7a7b;fill-opacity:1;stroke:#0c0c0c;stroke-width:0.226493;stroke-dasharray:none;stroke-opacity:0"
             d="m 1043.8128,-74.049638 6.492,4.579551 3.2961,-1.66624 -7.0978,-5.067477"
             id="path56-2-6-5-6-7-8-7-9-7-5-3-3-6-0-6-7"
             sodipodi:nodetypes="cccc" /><path
             style="fill:#474747;fill-opacity:1;stroke:#0c0c0c;stroke-width:0.226493;stroke-dasharray:none;stroke-opacity:0"
             d="m 1045.3843,-72.983102 4.9205,3.513015 -2.4328,-1.123904 -2.4877,-2.389111"
             id="path56-2-6-5-6-1-1-8-5-5-5-5-3-0-3-8-6-60"
             sodipodi:nodetypes="cccc" /><path
             style="fill:#464647;fill-opacity:0.996078;stroke:#0c0c0c;stroke-width:0.226493;stroke-dasharray:none;stroke-opacity:0"
             d="m 1046.5031,-76.203804 7.0978,5.067477 2.2286,-3.480384 -7.0978,-5.067541"
             id="path56-2-6-5-6-3-1-6-1-8-2-5-4-5-6-5-3-1"
             sodipodi:nodetypes="cccc" /><path
             style="fill:#090909;fill-opacity:1;stroke:#0c0c0c;stroke-width:0.226493;stroke-dasharray:none;stroke-opacity:0"
             d="m 1048.7317,-79.684252 7.0978,5.067541 -0.1444,-3.255808 -3.6834,-3.103047"
             id="path56-2-6-5-6-3-9-3-02-2-0-5-5-9-1-3-6-18-2"
             sodipodi:nodetypes="cccc" /><path
             id="path83-2-8-2-9-5-2-9-5-1-2-0-7-3-2-6-2-4-4-4-57-4-9-6-33-1"
             style="fill:#000000;stroke:#0c0c0c;stroke-width:0.300579;stroke-dasharray:none;stroke-opacity:0"
             inkscape:transform-center-x="6.2420922e-05"
             d="m 1053.8442,-83.933859 -6.1799,3.124357 -4.1786,6.5257 0.2703,6.104538 4.5614,2.107365 6.18,-3.124358 4.1791,-6.525699 -0.2708,-6.104537 z m -1.3487,4.358391 2.3358,1.079004 0.1385,3.125389 -2.1394,3.340882 -3.1642,1.599905 -2.3358,-1.079006 -0.1385,-3.125391 2.1394,-3.341397 z" /></g></g><g
         id="g111-3-3"
         transform="translate(-21.698046,-49.875024)"><path
           id="path83-2-8-2-9-5-2-9-5-1-2-7-5-0-5-9-4-8-7-7-4"
           style="fill:#c87137;stroke:#0c0c0c;stroke-width:1.26382;stroke-opacity:0"
           inkscape:transform-center-x="5.0128154e-05"
           transform="matrix(0.08438044,-0.16480332,0.0964294,0.10959951,641.06692,-1098.1493)"
           d="m 144.72708,123.53076 -20.88161,15.68043 -25.853255,-3.67779 -15.680424,-20.88161 3.67779,-25.853255 20.881609,-15.680424 25.85325,3.67779 15.68043,20.881605 z" /><path
           style="fill:#7a7a7b;fill-opacity:1;stroke:#0c0c0c;stroke-width:0.283116;stroke-dasharray:none;stroke-opacity:0"
           d="m 686.44848,-1108.6181 -26.77683,-2.9878 -5.30899,4.2046 2.77283,-0.347 26.77683,2.9878"
           id="path56-2-6-5-6-91-3-8-3-4-5-8-3-5-8"
           sodipodi:nodetypes="ccccc" /><path
           style="fill:#474747;fill-opacity:1;stroke:#0c0c0c;stroke-width:0.283116;stroke-dasharray:none;stroke-opacity:0"
           d="m 686.44848,-1108.6181 -26.77683,-2.9878 3.33675,-0.2956 26.77683,2.9878"
           id="path56-2-6-5-6-1-0-4-4-8-3-8-9-3-0-6"
           sodipodi:nodetypes="cccc" /><path
           style="fill:#464647;fill-opacity:0.996078;stroke:#0c0c0c;stroke-width:0.283116;stroke-dasharray:none;stroke-opacity:0"
           d="m 683.91232,-1104.7605 -26.77683,-2.9878 -2.77283,0.347 -0.31637,3.2081 2.83925,1.6048 26.77683,2.9879"
           id="path56-2-6-5-6-3-8-2-4-4-1-3-3-9-1-6"
           sodipodi:nodetypes="cccccc" /><path
           style="fill:#090909;fill-opacity:1;stroke:#0c0c0c;stroke-width:0.283116;stroke-dasharray:none;stroke-opacity:0"
           d="m 683.66237,-1099.6005 -26.77683,-2.9879 -2.83925,-1.6048 5.02197,5.0444 26.77683,2.9879"
           id="path56-2-6-5-6-3-9-0-4-0-5-4-8-9-1-6-63"
           sodipodi:nodetypes="ccccc" /></g></g></g></svg>
