<?xml version="1.0" encoding="UTF-8" standalone="no"?>
<!-- Created with Inkscape (http://www.inkscape.org/) -->

<svg
   width="89.286537mm"
   height="66.84079mm"
   viewBox="0 0 89.286537 66.84079"
   version="1.1"
   id="svg1"
   inkscape:version="1.3 (0e150ed6c4, 2023-07-21)"
   sodipodi:docname="DWARF - GOBLINS all sprites.svg"
   xml:space="preserve"
   xmlns:inkscape="http://www.inkscape.org/namespaces/inkscape"
   xmlns:sodipodi="http://sodipodi.sourceforge.net/DTD/sodipodi-0.dtd"
   xmlns="http://www.w3.org/2000/svg"
   xmlns:svg="http://www.w3.org/2000/svg"><sodipodi:namedview
     id="namedview1"
     pagecolor="#ffffff"
     bordercolor="#000000"
     borderopacity="0.25"
     inkscape:showpageshadow="2"
     inkscape:pageopacity="0.0"
     inkscape:pagecheckerboard="0"
     inkscape:deskcolor="#d1d1d1"
     inkscape:document-units="mm"
     inkscape:zoom="0.12267851"
     inkscape:cx="10873.95"
     inkscape:cy="2058.2251"
     inkscape:window-width="1920"
     inkscape:window-height="991"
     inkscape:window-x="-9"
     inkscape:window-y="-9"
     inkscape:window-maximized="1"
     inkscape:current-layer="layer1" /><defs
     id="defs1"><filter
       style="color-interpolation-filters:sRGB"
       inkscape:label="Blur"
       id="filter93"
       x="-0.18380534"
       y="-0.28010681"
       width="1.3676107"
       height="1.5602136"><feGaussianBlur
         stdDeviation="5 5"
         result="blur"
         id="feGaussianBlur93" /></filter><filter
       style="color-interpolation-filters:sRGB"
       inkscape:label="Blur"
       id="filter94"
       x="-0.18380534"
       y="-0.28010681"
       width="1.3676107"
       height="1.5602136"><feGaussianBlur
         stdDeviation="5 5"
         result="blur"
         id="feGaussianBlur94" /></filter></defs><g
     inkscape:label="Capa 1"
     inkscape:groupmode="layer"
     id="layer1"
     transform="translate(-2838.6043,-446.15563)"><g
       id="g98"
       transform="translate(2173.7485,1910.2494)"><path
         id="path92-2"
         style="fill:#ffffff;fill-opacity:1;stroke:none;stroke-width:1;stroke-opacity:1;-inkscape-stroke:none;filter:url(#filter93)"
         d="m 707.11239,-1452.0938 -9.09505,4.4586 0.41341,19.5854 -1.48569,4.0582 -3.27112,-0.9447 -10.20196,3.8215 -1.57097,6.8363 -5.04517,3.6426 6.62389,-0.3338 7.06417,-3.6029 1.53582,-3.8897 8.13594,-4.5847 1.67741,-4.0726 -0.51676,-18.2418 4.44417,-2.1704 8.25996,6.9861 -6.15879,6.5779 -0.66353,12.1853 7.3241,9.7607 11.88507,2.7688 10.88409,-5.518 4.79092,-11.2231 -0.69143,-2.2784 -0.76016,-2.5037 -2.0929,-6.8952 -6.03529,-3.9367 -4.18527,-2.7301 -11.84941,1.4304 z" /><path
         id="path92-2-9"
         style="fill:#ffffff;fill-opacity:1;stroke:none;stroke-width:1;stroke-opacity:1;-inkscape-stroke:none;filter:url(#filter94)"
         d="m 707.11239,-1452.0938 -9.09505,4.4586 0.41341,19.5854 -1.48569,4.0582 -3.27112,-0.9447 -10.20196,3.8215 -1.57097,6.8363 -5.04517,3.6425 6.62389,-0.3337 7.06417,-3.603 1.53582,-3.8896 8.13594,-4.5848 1.67741,-4.0726 -0.51676,-18.2418 4.44417,-2.1703 8.25996,6.9861 -6.15879,6.5778 -0.66353,12.1853 7.3241,9.7608 11.88507,2.7688 10.88409,-5.518 4.79092,-11.2231 -0.69143,-2.2784 -0.76016,-2.5037 -2.0929,-6.8952 -6.03529,-3.9367 -4.18527,-2.7301 -11.84941,1.4304 z" /></g></g></svg>
