<?xml version="1.0" encoding="UTF-8" standalone="no"?>
<!-- Created with Inkscape (http://www.inkscape.org/) -->

<svg
   width="80.981102mm"
   height="68.219612mm"
   viewBox="0 0 80.981102 68.219612"
   version="1.1"
   id="svg1"
   inkscape:version="1.3 (0e150ed6c4, 2023-07-21)"
   sodipodi:docname="DWARF - GOBLINS all sprites.svg"
   xml:space="preserve"
   xmlns:inkscape="http://www.inkscape.org/namespaces/inkscape"
   xmlns:sodipodi="http://sodipodi.sourceforge.net/DTD/sodipodi-0.dtd"
   xmlns="http://www.w3.org/2000/svg"
   xmlns:svg="http://www.w3.org/2000/svg"><sodipodi:namedview
     id="namedview1"
     pagecolor="#ffffff"
     bordercolor="#000000"
     borderopacity="0.25"
     inkscape:showpageshadow="2"
     inkscape:pageopacity="0.0"
     inkscape:pagecheckerboard="0"
     inkscape:deskcolor="#d1d1d1"
     inkscape:document-units="mm"
     inkscape:zoom="0.12267851"
     inkscape:cx="10873.95"
     inkscape:cy="2058.2251"
     inkscape:window-width="1920"
     inkscape:window-height="991"
     inkscape:window-x="-9"
     inkscape:window-y="-9"
     inkscape:window-maximized="1"
     inkscape:current-layer="layer1" /><defs
     id="defs1"><filter
       style="color-interpolation-filters:sRGB"
       inkscape:label="Blur"
       id="filter95"
       x="-0.21059648"
       y="-0.27137288"
       width="1.421193"
       height="1.5427458"><feGaussianBlur
         stdDeviation="5 5"
         result="blur"
         id="feGaussianBlur95" /></filter><filter
       style="color-interpolation-filters:sRGB"
       inkscape:label="Blur"
       id="filter96"
       x="-0.21059648"
       y="-0.27137288"
       width="1.421193"
       height="1.5427458"><feGaussianBlur
         stdDeviation="5 5"
         result="blur"
         id="feGaussianBlur96" /></filter></defs><g
     inkscape:label="Capa 1"
     inkscape:groupmode="layer"
     id="layer1"
     transform="translate(-2842.7569,-322.19518)"><g
       id="g96"
       transform="translate(2058.8103,1789.9348)"><path
         id="path92"
         style="fill:#ffffff;fill-opacity:1;stroke:none;stroke-width:1;stroke-opacity:1;-inkscape-stroke:none;filter:url(#filter95)"
         d="m 826.2028,-1455.7396 -9.09505,4.4587 0.41341,19.5853 -1.48622,4.0582 -3.2706,-0.9447 -10.20196,3.822 -1.57096,6.8358 -5.04465,3.6427 6.62388,-0.3333 7.06365,-3.6034 1.53583,-3.8892 8.13593,-4.5853 1.67742,-4.0726 -0.51676,-18.2418 4.44417,-2.1704 2.78019,6.3516 -2.57504,4.1703 1.21182,3.3434 4.28862,0.5581 4.85397,-2.5538 -4.85397,2.5544 -4.28862,-0.5587 3.16259,5.1914 -2.00091,1.3007 v 12.4293 l 10.56835,6.8709 2.85306,-1.8547 0.2992,0.4914 4.28915,0.5581 4.85345,-2.5543 2.57503,-4.1703 v -5e-4 l -1.21181,-3.3435 -3.08973,-5.0715 v -3.3549 l -3.38429,-2.2003 -8.40827,-13.8018 -4.28915,-0.5581 -1.69085,0.8899 z" /><path
         id="path92-3"
         style="fill:#ffffff;fill-opacity:1;stroke:none;stroke-width:1;stroke-opacity:1;-inkscape-stroke:none;filter:url(#filter96)"
         d="m 826.2028,-1455.7396 -9.09505,4.4587 0.41341,19.5853 -1.48622,4.0582 -3.2706,-0.9447 -10.20196,3.822 -1.57096,6.8358 -5.04465,3.6427 6.62388,-0.3333 7.06365,-3.6034 1.53583,-3.8892 8.13593,-4.5853 1.67742,-4.0726 -0.51676,-18.2418 4.44417,-2.1704 2.78019,6.3516 -2.57504,4.1703 1.21182,3.3434 4.28862,0.5581 4.85397,-2.5538 -4.85397,2.5544 -4.28862,-0.5587 3.16259,5.1914 -2.00091,1.3007 v 12.4293 l 10.56835,6.8709 2.85306,-1.8548 0.2992,0.4915 4.28915,0.558 4.85345,-2.5542 2.57503,-4.1704 v -5e-4 l -1.21181,-3.3435 -3.08973,-5.0715 v -3.3548 l -3.38429,-2.2003 -8.40827,-13.8019 -4.28915,-0.558 -1.69085,0.8898 z" /></g></g></svg>
