<?xml version="1.0" encoding="UTF-8" standalone="no"?>
<!-- Created with Inkscape (http://www.inkscape.org/) -->

<svg
   width="120.45828mm"
   height="56.941681mm"
   viewBox="0 0 120.45828 56.941681"
   version="1.1"
   id="svg1"
   inkscape:version="1.3 (0e150ed6c4, 2023-07-21)"
   sodipodi:docname="DWARF - GOBLINS all sprites.svg"
   xml:space="preserve"
   xmlns:inkscape="http://www.inkscape.org/namespaces/inkscape"
   xmlns:sodipodi="http://sodipodi.sourceforge.net/DTD/sodipodi-0.dtd"
   xmlns="http://www.w3.org/2000/svg"
   xmlns:svg="http://www.w3.org/2000/svg"><sodipodi:namedview
     id="namedview1"
     pagecolor="#ffffff"
     bordercolor="#000000"
     borderopacity="0.25"
     inkscape:showpageshadow="2"
     inkscape:pageopacity="0.0"
     inkscape:pagecheckerboard="0"
     inkscape:deskcolor="#d1d1d1"
     inkscape:document-units="mm"
     inkscape:zoom="0.12267851"
     inkscape:cx="10873.95"
     inkscape:cy="2058.2251"
     inkscape:window-width="1920"
     inkscape:window-height="991"
     inkscape:window-x="-9"
     inkscape:window-y="-9"
     inkscape:window-maximized="1"
     inkscape:current-layer="layer1" /><defs
     id="defs1"><filter
       style="color-interpolation-filters:sRGB"
       inkscape:label="Blur"
       id="filter91"
       x="-0.12440582"
       y="-0.36427992"
       width="1.2488116"
       height="1.7285598"><feGaussianBlur
         stdDeviation="5 5"
         result="blur"
         id="feGaussianBlur91" /></filter><filter
       style="color-interpolation-filters:sRGB"
       inkscape:label="Blur"
       id="filter92"
       x="-0.12440582"
       y="-0.36427992"
       width="1.2488116"
       height="1.7285598"><feGaussianBlur
         stdDeviation="5 5"
         result="blur"
         id="feGaussianBlur92" /></filter></defs><g
     inkscape:label="Capa 1"
     inkscape:groupmode="layer"
     id="layer1"
     transform="translate(-2820.6881,-602.79771)"><g
       id="g97"
       transform="translate(2166.2679,1962.7023)"><path
         id="path30-05-4-9-9-9-3-53-6-8-70-4"
         style="fill:#ffffff;fill-opacity:1;stroke-width:12;stroke-linecap:round;filter:url(#filter91)"
         d="m 702.2721,-1347.9046 -3.33675,0.2956 -5.30924,4.2044 -0.31626,3.2081 0.3328,0.3343 -5.05861,3.3569 -4.65243,-3.2809 -14.00069,3.8861 -3.5109,5.2307 8.41706,15.7065 20.24269,-13.3785 40.49882,4.439 2.36626,-3.5946 0.006,10e-4 1.97662,-3.0148 10.12703,1.1302 0.65681,1.035 4.81934,0.539 4.00441,-0.3545 v -5e-4 l 3.04323,-4.6286 0.30024,-6.1924 -2.61948,-4.1274 -4.81986,-0.539 -4.00389,0.3545 -0.53589,0.8154 -21.85034,-2.4381 z" /><path
         id="path30-05-4-9-9-9-3-53-6-8-70-4-1"
         style="fill:#ffffff;fill-opacity:1;stroke-width:12;stroke-linecap:round;filter:url(#filter92)"
         d="m 702.2721,-1347.9046 -3.33675,0.2956 -5.30924,4.2044 -0.31626,3.2081 0.3328,0.3343 -5.05861,3.3569 -4.65243,-3.2809 -14.00069,3.8861 -3.5109,5.2307 8.41706,15.7065 20.24269,-13.3785 40.49882,4.439 2.36626,-3.5946 0.006,10e-4 1.97662,-3.0148 10.12703,1.1302 0.65681,1.035 4.81934,0.539 4.00441,-0.3545 v -5e-4 l 3.04323,-4.6286 0.30024,-6.1924 -2.61948,-4.1274 -4.81986,-0.539 -4.00389,0.3545 -0.53589,0.8154 -21.85034,-2.4381 z" /></g></g></svg>
