<?xml version="1.0" encoding="UTF-8" standalone="no"?>
<!-- Created with Inkscape (http://www.inkscape.org/) -->

<svg
   width="75.955055mm"
   height="82.00856mm"
   viewBox="0 0 75.955055 82.00856"
   version="1.1"
   id="svg1"
   inkscape:version="1.3 (0e150ed6c4, 2023-07-21)"
   sodipodi:docname="DWARF - GOBLINS all sprites.svg"
   inkscape:dataloss="true"
   xmlns:inkscape="http://www.inkscape.org/namespaces/inkscape"
   xmlns:sodipodi="http://sodipodi.sourceforge.net/DTD/sodipodi-0.dtd"
   xmlns="http://www.w3.org/2000/svg"
   xmlns:svg="http://www.w3.org/2000/svg">
  <sodipodi:namedview
     id="namedview1"
     pagecolor="#ffffff"
     bordercolor="#000000"
     borderopacity="0.25"
     inkscape:showpageshadow="2"
     inkscape:pageopacity="0.0"
     inkscape:pagecheckerboard="0"
     inkscape:deskcolor="#d1d1d1"
     inkscape:document-units="mm"
     inkscape:zoom="0.24535703"
     inkscape:cx="8760.7029"
     inkscape:cy="-3397.0904"
     inkscape:window-width="1920"
     inkscape:window-height="991"
     inkscape:window-x="-9"
     inkscape:window-y="-9"
     inkscape:window-maximized="1"
     inkscape:current-layer="layer1" />
  <defs
     id="defs1" />
  <g
     inkscape:label="Capa 1"
     inkscape:groupmode="layer"
     id="layer1"
     transform="translate(-2571.2291,1056.4806)">
    <g
       id="g39-4-8"
       transform="translate(-61.2157,-248.3722)">
      <g
         id="g37-8-5-7-0"
         transform="matrix(-1.2,0,0,1.2,5424.6888,-68.968401)">
        <path
           style="fill:#4d4d4d;stroke:#020202;stroke-width:3.88133;stroke-opacity:0"
           d="m 2311.4324,-560.34133 3.6491,-14.62325"
           id="path114-5-5-0-7-3-6-5-2-3-0" />
        <path
           style="fill:#b3b3b3;stroke-width:18;stroke-linecap:round"
           d="m 2263.5742,-575.85471 0.084,-12.46188 1.1906,-5.65086 5.557,-8.85202 5.2222,5.51281 -1.1158,1.40212 -5.4246,6.81695 -4.0581,7.71432 z"
           id="path148-0-7-6-5-8"
           sodipodi:nodetypes="ccccccccc" />
        <path
           style="fill:#808080;stroke-width:18;stroke-linecap:round"
           d="m 2305.1746,-613.06982 v 0 l -14.4374,1.39113 -14.6832,4.23682 9.3412,3.1081 7.1547,-4.04744 z"
           id="path148-1-2-0-3-0-99"
           sodipodi:nodetypes="ccccccc" />
        <path
           id="path1-9-3-3-3-3-0-76-6-0-58-1-1-5-7-17"
           style="fill:#a05a2c;fill-opacity:1;stroke:none;stroke-width:0.607505;stroke-opacity:0"
           inkscape:transform-center-x="-14.155208"
           inkscape:transform-center-y="16.801042"
           d="m 2275.7826,-609.0993 9.9055,12.26195 24.1221,29.86123 9.9056,12.26195 -6.6099,5.37694 -9.9055,-12.26196 -23.9602,-29.66012 -9.9055,-12.26195 0.7734,-0.31738 2.9559,-3.16045 z" />
        <path
           id="path1-9-3-3-3-3-0-76-6-0-58-8-7-4-0-0-1"
           style="fill:#4d4d4d;fill-opacity:1;stroke:none;stroke-width:0.607505;stroke-opacity:0"
           inkscape:transform-center-x="-14.155208"
           inkscape:transform-center-y="16.801042"
           d="m 2277.6862,-609.41437 -6.896,3.22048 -2.3126,4.2713 5.9925,6.06518 2.2955,-4.28868 -1.991,3.71982 -0.3045,0.56886 0.6155,0.62301 0.6363,-0.37991 -0.2576,-0.31892 1.9341,-3.57248 0.8775,-0.71398 4.5454,-1.30794 z"
           sodipodi:nodetypes="cccccccccccccc" />
        <path
           style="fill:#999999;stroke-width:18;stroke-linecap:round"
           d="m 2265.0295,-581.37327 -0.1807,-12.59418 7.5705,-13.24309 4.3463,7.06445 -5.3653,6.7872 z"
           id="path148-5-9-0-4-1-4"
           sodipodi:nodetypes="cccccc" />
        <path
           style="fill:#999999;stroke-width:18;stroke-linecap:round"
           d="m 2305.1746,-613.06983 -12.1247,-2.88017 -14.6832,4.23682 4.1136,6.38273 9.5381,-4.39957 z"
           id="path148-1-9-5-7-4-7-4"
           sodipodi:nodetypes="cccccc" />
        <path
           id="path1-9-3-3-3-3-0-76-6-0-58-89-8-8-0-3-9"
           style="fill:#502d16;fill-opacity:1;stroke:none;stroke-width:0.607505;stroke-opacity:0"
           inkscape:transform-center-x="-14.155208"
           inkscape:transform-center-y="16.801042"
           d="m 2278.6929,-612.63096 9.9055,12.26196 33.4303,41.38335 -6.6098,5.37693 -9.906,-12.26196 -17.6862,-21.89358 -5.8334,-7.22092 -9.9056,-12.26195 z" />
        <path
           id="path1-9-3-3-3-3-0-76-6-0-58-8-4-6-8-7-6-5"
           style="fill:#666666;fill-opacity:1;stroke:none;stroke-width:0.607505;stroke-opacity:0"
           inkscape:transform-center-x="-14.155208"
           inkscape:transform-center-y="16.801042"
           d="m 2279.9989,-613.68568 -9.2086,7.49178 6.608,6.68819 7.7357,-6.29323 z"
           sodipodi:nodetypes="ccccc" />
        <path
           style="fill:#666666;fill-opacity:1;stroke-width:15;stroke-linecap:round"
           d="m 2276.7656,-600.14609 -2.2955,4.28868 -1.8697,2.3554 -3.445,5.36458 -3.9262,7.59759 -1.5713,4.36789 1.3716,-5.20132 4.0581,-7.71432 2.3127,-4.2713 z"
           id="path57-3-8-3-9-7"
           sodipodi:nodetypes="cccccccccc" />
      </g>
      <path
         style="fill:#4d4d4d;stroke:#020202;stroke-width:4.6576;stroke-opacity:0"
         d="m 2639.0832,-726.66367 -4.3789,-17.5479"
         id="path114-5-5-0-7-3-6-5-2-0-3-3" />
      <path
         style="fill:#c87137;fill-opacity:1;stroke-width:18;stroke-linecap:round"
         d="m 2646.1864,-733.29863 2.7752,5.12557 -7.9317,-6.45246 -2.7753,-5.12556"
         id="path45-34-9-5-8-8-07" />
    </g>
  </g>
</svg>
